<?xml version="1.0" encoding="utf-8"?>
<!-- Generator: Adobe Illustrator 17.1.0, SVG Export Plug-In . SVG Version: 6.00 Build 0)  -->
<!DOCTYPE svg PUBLIC "-//W3C//DTD SVG 1.1//EN" "http://www.w3.org/Graphics/SVG/1.1/DTD/svg11.dtd">
<svg version="1.1" id="Layer_1" xmlns="http://www.w3.org/2000/svg" xmlns:xlink="http://www.w3.org/1999/xlink" x="0px" y="0px"
	 viewBox="0 0 200 100" enable-background="new 0 0 200 100" xml:space="preserve">
<g id="Layer_x0020_1">
	<path fill="#2C2A29" d="M36.6,59.3h2.1c1.7,0,5.5-0.1,8.5-2.3c2.8-2,4.3-5.5,4.3-9.2c0-3.7-1.5-7.2-4.3-9.3
		c-2.8-2.1-6.2-2.3-8.6-2.3h-2.1L36.6,59.3L36.6,59.3z M38.8,30.3c4.9,0,9.1,0.5,12.9,3.4c4.2,3.2,6.7,8.2,6.7,14
		c0,5.8-2.4,10.8-7,14c-4.1,2.9-7.9,3.3-12.7,3.3h-9V30.3H38.8z"/>
	<polygon fill="#2C2A29" points="77.1,42.5 77.1,65.1 70.8,65.1 70.8,42.5 	"/>
	<path fill="#2C2A29" d="M88.6,53.8c0,3.6,2.6,6.4,6.2,6.4c3.7,0,6.2-2.8,6.2-6.4s-2.6-6.4-6.2-6.4S88.6,50.2,88.6,53.8z
		 M100.5,42.5h6.4v22.6h-6.4v-2.9c-2.3,3.3-5.3,3.7-6.9,3.7c-6.9,0-11.5-5.5-11.5-12.1c0-6.7,4.5-12,11.2-12c1.7,0,5.1,0.3,7.2,3.7
		V42.5L100.5,42.5z"/>
	<path fill="#2C2A29" d="M129.9,49.4c-1.4-1.3-3-2-5.2-2c-4.2,0-6.4,3.1-6.4,6.4c0,3.7,2.7,6.4,6.6,6.4c1.4,0,3.3-0.4,5-2v6.2
		c-1.2,0.6-3.2,1.4-5.8,1.4c-3.5,0-6.7-1.4-8.7-3.3c-1.7-1.6-3.6-4.5-3.6-8.7c0-4,1.6-7.2,3.9-9.2c2.7-2.5,5.9-2.9,8.2-2.9
		c2.3,0,4.3,0.5,6.1,1.4L129.9,49.4L129.9,49.4z"/>
	<path fill="#2C2A29" d="M152.9,53.8c0-3.5-2.7-6.4-6.4-6.4s-6.4,2.9-6.4,6.4c0,3.4,2.7,6.4,6.4,6.4S152.9,57.3,152.9,53.8z
		 M155.7,45c2.2,2,3.8,5.2,3.8,8.9c0,3.7-1.6,6.8-3.8,8.8c-1.9,1.8-4.9,3.2-9.1,3.2c-4.3,0-7.2-1.4-9.1-3.2c-2.3-2-3.8-5.2-3.8-8.8
		c0-3.7,1.6-6.8,3.8-8.9c1.9-1.8,4.9-3.2,9.1-3.2C150.8,41.8,153.7,43.2,155.7,45z"/>
	<path fill="#2C2A29" d="M164.4,42.5h6.4v2.5c2.4-3,5.4-3.3,6.7-3.3c4.7,0,6.6,3,7.2,4.1c1.1-1.8,3.3-4.1,7.2-4.1
		c3.5,0,5.2,1.6,6.1,2.7c1.5,1.9,1.6,3.9,1.6,6.4v14.2h-6.4V52.8c0-2.7-0.6-3.9-1-4.5c-0.8-1-2-1.2-2.6-1.2c-1.7,0-2.8,0.8-3.5,2
		c-0.8,1.4-0.9,3.2-0.9,4.4v11.5h-6.4V52.8c0-2.7-0.6-3.9-1-4.5c-0.8-1-2-1.2-2.6-1.2c-1.7,0-2.8,0.8-3.5,2
		c-0.8,1.4-0.9,3.2-0.9,4.4v11.5h-6.4V42.5L164.4,42.5z"/>
	<path fill="#E12528" d="M0.9,47.9c0,21.9,17.9,39.8,39.8,39.8c10.5,0,20.4-4.1,27.9-11.4c1.5-1.4,1.5-3.8,0-5.3s-3.8-1.5-5.3,0
		c-6.1,6-14.1,9.3-22.7,9.3c-17.8,0-32.3-14.5-32.3-32.3s14.5-32.3,32.3-32.3c8.5,0,16.6,3.3,22.6,9.2c1.5,1.4,3.8,1.4,5.3,0
		c1.4-1.5,1.4-3.8,0-5.3C61,12.2,51.1,8.1,40.7,8.1C18.7,8.1,0.9,25.9,0.9,47.9L0.9,47.9z"/>
	<path fill="#E12528" d="M77.8,32.9c0,2.2-1.8,3.9-3.9,3.9c-2.1,0-3.9-1.8-3.9-3.9c0-2.1,1.8-3.9,3.9-3.9
		C76.1,29,77.8,30.8,77.8,32.9z"/>
</g>
</svg>
