<?xml version="1.0" encoding="UTF-8"?>
<!DOCTYPE svg PUBLIC "-//W3C//DTD SVG 1.1//EN" "http://www.w3.org/Graphics/SVG/1.1/DTD/svg11.dtd">
<!-- Creator: CorelDRAW 2018 (64-Bit Evaluation Version) -->
<svg xmlns="http://www.w3.org/2000/svg" xml:space="preserve" width="8.5in" height="11in" version="1.1" style="shape-rendering:geometricPrecision; text-rendering:geometricPrecision; image-rendering:optimizeQuality; fill-rule:evenodd; clip-rule:evenodd"
viewBox="0 0 8500 11000"
 xmlns:xlink="http://www.w3.org/1999/xlink">
 <defs>
  <style type="text/css">
   <![CDATA[
    .fil0 {fill:#2B2A29}
    .fil1 {fill:#E31E24}
   ]]>
  </style>
 </defs>
 <g id="Layer_x0020_1">
  <metadata id="CorelCorpID_0Corel-Layer"/>
  <path class="fil0" d="M1973.46 6058.58l66.31 0c54.61,0 173.62,-3.32 269.59,-72.77 87.76,-62.98 137.32,-175.54 137.32,-293.01 0,-115.87 -47.8,-228.41 -135.58,-294.54 -89.5,-66.31 -198.56,-72.94 -271.33,-72.94l-66.3 0 0 733.26zm72.94 -918.57c153.72,0 287.91,16.57 410.4,107.66 134.02,101.04 211.83,261.39 211.83,445.13 0,183.78 -76.43,342.57 -221.96,445.17 -128.94,91.09 -249.69,105.92 -403.59,105.92l-284.76 0 0 -1103.88 288.08 0z"/>
  <polygon class="fil0" points="3259.46,5527.38 3259.46,6243.89 3057.4,6243.89 3057.4,5527.38 "/>
  <path class="fil0" d="M3623.44 5884.79c0,114.29 82.88,203.62 198.57,203.62 115.87,0 198.58,-89.33 198.58,-203.62 0,-114.12 -82.71,-201.94 -198.58,-201.94 -115.69,0 -198.57,87.81 -198.57,201.94zm377.25 -357.41l201.89 0 0 716.51 -201.89 0 0 -92.83c-72.94,104.52 -168.73,116.21 -220.03,116.21 -220.04,0 -365.57,-172.39 -365.57,-382.48 0,-211.89 143.96,-380.61 355.45,-380.61 54.61,0 162.27,9.94 230.15,115.86l0 -92.66z"/>
  <path class="fil0" d="M4933.87 5745.89c-42.75,-39.79 -95.79,-63.04 -165.42,-63.04 -134.01,0 -201.88,97.76 -201.88,201.94 0,117.61 87.59,203.62 208.69,203.62 44.67,0 104,-13.26 158.61,-62.81l0 196.83c-39.61,19.9 -102.41,44.84 -185.31,44.84 -112.54,0 -211.83,-43.09 -276.39,-104.17 -54.61,-51.47 -113.94,-140.99 -113.94,-275 0,-125.63 51.31,-226.71 124.06,-291.27 87.6,-77.83 188.46,-92.65 258.09,-92.65 74.49,0 135.57,14.83 193.5,42.93l0 198.79z"/>
  <path class="fil0" d="M5662.2 5886.53c0,-112.54 -86.2,-203.68 -201.89,-203.68 -115.86,0 -202.06,91.13 -202.06,203.68 0,109.06 84.46,201.88 202.06,201.88 117.43,0 201.89,-92.82 201.89,-201.88zm87.59 -281.33c71.2,64.39 120.94,163.72 120.94,281.33 0,115.87 -49.74,215.15 -120.94,279.53 -61.24,56.36 -153.89,101.2 -289.48,101.2 -135.91,0 -228.58,-44.84 -289.48,-101.2 -71.37,-64.39 -120.92,-163.67 -120.92,-279.53 0,-117.61 49.56,-216.93 120.92,-281.33 60.9,-56.54 153.56,-101.03 289.48,-101.03 135.6,0 228.24,44.5 289.48,101.03z"/>
  <path class="fil0" d="M6026.01 5527.38l202.06 0 0 81.14c76.07,-95.97 170.31,-104.35 213.76,-104.35 150.41,0 208.35,94.4 226.49,130.7 34.72,-56.19 105.74,-130.7 229.81,-130.7 111.14,0 165.58,51.3 193.86,87.59 46.24,61.24 49.55,122.54 49.55,202.11l0 450.02 -201.89 0 0 -390.34c0,-84.63 -18.32,-122.67 -33.14,-140.81 -26.35,-33.02 -63,-36.5 -82.72,-36.5 -54.61,0 -89.17,24.99 -110.81,63.02 -26.34,43.11 -28.09,100.86 -28.09,138.9l0 365.74 -202.06 0 0 -390.34c0,-84.63 -17.96,-122.67 -33.15,-140.81 -26.35,-33.02 -62.65,-36.5 -82.72,-36.5 -54.44,0 -89.16,24.99 -110.62,63.02 -26.69,43.11 -28.28,100.86 -28.28,138.9l0 365.74 -202.06 0 0 -716.51z"/>
  <path class="fil1" d="M841.88 5697.33c0,695.57 566.05,1261.27 1261.23,1261.27 332.75,0 646.66,-128.43 884.15,-361.72 46.58,-45.72 47.1,-120.23 1.56,-166.65 -45.72,-46.41 -120.39,-47.11 -166.81,-1.4 -192.98,189.5 -448.44,294.2 -718.89,294.2 -565.53,0 -1025.49,-460.31 -1025.49,-1025.7 0,-565.35 459.96,-1025.48 1025.49,-1025.48 269.93,0 525.04,104.17 717.85,292.98 46.41,45.54 121.08,45.01 166.63,-1.57 45.55,-46.41 44.85,-120.93 -1.74,-166.64 -237.31,-232.43 -550.69,-360.33 -882.74,-360.33 -695.18,0 -1261.23,565.7 -1261.23,1261.05z"/>
  <path class="fil1" d="M3282.31 5222.72c0,68.76 -55.49,124.6 -124.41,124.6 -68.58,0 -124.24,-55.84 -124.24,-124.59 0,-68.57 55.65,-124.24 124.24,-124.24 68.92,0 124.41,55.67 124.41,124.23z"/>
 </g>
</svg>
