<?xml version="1.0" encoding="UTF-8"?>
<!DOCTYPE svg PUBLIC "-//W3C//DTD SVG 1.1//EN" "http://www.w3.org/Graphics/SVG/1.1/DTD/svg11.dtd">
<!-- Creator: CorelDRAW 2018 (64-Bit Evaluation Version) -->
<svg xmlns="http://www.w3.org/2000/svg" xml:space="preserve" width="8.5in" height="11in" version="1.1" style="shape-rendering:geometricPrecision; text-rendering:geometricPrecision; image-rendering:optimizeQuality; fill-rule:evenodd; clip-rule:evenodd"
viewBox="0 0 8500 11000"
 xmlns:xlink="http://www.w3.org/1999/xlink">
 <defs>
  <style type="text/css">
   <![CDATA[
    .fil0 {fill:#2B5AA4}
   ]]>
  </style>
 </defs>
 <g id="Layer_x0020_1">
  <metadata id="CorelCorpID_0Corel-Layer"/>
  <path class="fil0" d="M4388.1 2333.17l57.49 94.15 -1153.99 1998.76 0.14 0.08 -7.15 12.3 -27.34 47.03 65.33 -1.94 65.19 -1.89 -0.47 -0.58 1123.78 -1946.45 66.61 109.08 -1002.3 1736.07 -0.11 -0.14 -27.4 47.17 -27.39 47.11 65.25 -1.95 64.83 -1.94 0.11 0.08 0.06 -0.08 0.28 0 -0.17 -0.2 992.37 -1718.83 63.3 103.66 -897.5 1554.54 0.03 0.03 -7.15 12.32 -27.4 47.11 65.25 -1.94 65.28 -1.95 -0.39 -0.44 867.41 -1502.37 713.36 1168.34 280.96 460.13c-12.35,-0.58 -24.83,-0.89 -37.52,-0.89 -179.44,0 -328.43,57.54 -446.91,174.35 -118.51,115.12 -177.75,262.41 -177.75,440.16 0,177.75 59.24,325.01 177.75,441.83 120.18,115.11 269.17,172.66 446.91,172.66 133.72,0 248.84,-32.15 347.02,-94.78l0 -187.93c-91.39,72.81 -204.81,108.36 -338.56,108.36 -126.96,0 -231.93,-40.63 -316.56,-123.57 -82.96,-82.96 -125.27,-189.6 -125.27,-316.56 0,-126.96 40.63,-231.93 123.57,-314.89 82.94,-82.94 187.9,-125.27 311.5,-125.27 53.26,0 104.41,6.37 153.44,19.19l698.76 1144.37 -2194.65 0 -2194.65 0 660.91 -1082.4 0 951.49 865.05 0 0 -170.99 -678.81 0 0 -375.8 534.94 0 0 -170.99 -534.94 0 0 -296.23 656.81 0 0 -170.99 -700.45 0 293.83 -481.24 1097.31 -1797.13zm-262.38 3463.36l0 -501.09 277.62 0 357.19 501.09 225.14 0 -372.43 -521.4c162.54,-38.94 257.32,-164.2 257.32,-326.71 0,-99.9 -35.54,-181.14 -104.94,-243.78 -69.42,-62.63 -165.9,-93.11 -286.11,-93.11l-540.03 0 0 1185 186.23 0zm0 -1014.01l341.95 0c135.42,0 214.99,64.33 214.99,172.66 0,113.42 -79.57,176.05 -214.99,176.05l-341.95 0 0 -348.71z"/>
 </g>
</svg>
