<?xml version="1.0" encoding="utf-8"?>
<!-- Generator: Adobe Illustrator 17.1.0, SVG Export Plug-In . SVG Version: 6.00 Build 0)  -->
<!DOCTYPE svg PUBLIC "-//W3C//DTD SVG 1.1//EN" "http://www.w3.org/Graphics/SVG/1.1/DTD/svg11.dtd">
<svg version="1.1" id="Layer_1" xmlns="http://www.w3.org/2000/svg" xmlns:xlink="http://www.w3.org/1999/xlink" x="0px" y="0px"
	 viewBox="0 0 200 100" enable-background="new 0 0 200 100" xml:space="preserve">
<g id="Layer_x0020_1">
	<path fill="#315CA6" d="M92.7,0.3l1.6,2.6l-32,55.5l0,0l-0.2,0.3L61.3,60l1.8-0.1l1.8-0.1v0l31.2-54l1.8,3L70.1,57.1l0,0l-0.8,1.3
		l-0.8,1.3l1.8-0.1l1.8-0.1l0,0l0,0l0,0l0,0l27.6-47.7l1.8,2.9L76.6,57.9l0,0l-0.2,0.3l-0.8,1.3l1.8-0.1l1.8-0.1l0,0l24-41.7
		l19.8,32.4L131,63c-0.3,0-0.7,0-1,0c-5,0-9.1,1.6-12.4,4.9c-3.3,3.2-4.9,7.2-4.9,12.2c0,4.9,1.7,9,4.9,12.3
		c3.3,3.2,7.5,4.8,12.4,4.8c3.7,0,6.9-0.9,9.6-2.6v-5.2c-2.5,2-5.7,3-9.4,3c-3.5,0-6.5-1.1-8.8-3.4c-2.3-2.3-3.5-5.3-3.5-8.8
		s1.1-6.5,3.4-8.8c2.3-2.3,5.2-3.5,8.6-3.5c1.5,0,2.9,0.2,4.3,0.5l19.4,31.8H92.7H31.8l18.3-30v26.4h24v-4.8H55.3V81.2h14.8v-4.8
		H55.3v-8.2h18.2v-4.8H54.1l8.2-13.4L92.7,0.3L92.7,0.3z M85.4,96.4V82.5h7.7l9.9,13.9h6.2L98.9,81.9c4.5-1.1,7.2-4.5,7.2-9.1
		c0-2.8-1-5-2.9-6.8c-1.9-1.8-4.6-2.6-8-2.6h-15v32.9L85.4,96.4L85.4,96.4z M85.4,68.3h9.5c3.7,0,6,1.8,6,4.8c0,3.1-2.2,4.9-6,4.9
		h-9.5V68.3z"/>
</g>
</svg>
