<?xml version="1.0" encoding="UTF-8"?>
<!DOCTYPE svg PUBLIC "-//W3C//DTD SVG 1.1//EN" "http://www.w3.org/Graphics/SVG/1.1/DTD/svg11.dtd">
<!-- Creator: CorelDRAW 2018 (64-Bit Evaluation Version) -->
<svg xmlns="http://www.w3.org/2000/svg" xml:space="preserve" width="2.69444in" height="0.5in" version="1.1" style="shape-rendering:geometricPrecision; text-rendering:geometricPrecision; image-rendering:optimizeQuality; fill-rule:evenodd; clip-rule:evenodd"
viewBox="0 0 2694.44 500"
 xmlns:xlink="http://www.w3.org/1999/xlink">
 <defs>
  <style type="text/css">
   <![CDATA[
    .fil0 {fill:#D9393D;fill-rule:nonzero}
   ]]>
  </style>
 </defs>
 <g id="Layer_x0020_1">
  <metadata id="CorelCorpID_0Corel-Layer"/>
  <path class="fil0" d="M1529.65 203.8l49.67 -62.09c-12.43,-8.87 -30.2,-14.19 -49.67,-15.95 -5.33,-1.79 -12.4,-1.79 -19.53,-1.79 -51.44,3.56 -76.26,19.5 -106.4,49.67l12.4 -42.56 -136.56 0 -74.49 280.22 -19.53 72.73 145.46 0 46.11 -175.59 5.32 -14.19c10.63,-33.69 21.29,-39.01 31.94,-46.12 15.96,-14.16 33.69,-17.74 49.65,-19.5 14.19,0 26.61,3.53 39.04,10.64l26.58 -35.46zm1081.94 -205.76l-163.19 69.17 -17.71 63.85 -53.21 0 -26.61 99.31 53.22 0 -33.74 124.16c-10.64,39.01 -14.18,67.41 -10.64,85.15 3.56,17.71 12.43,30.14 26.61,39.01 15.99,8.87 40.81,12.4 76.28,12.4 31.93,0 65.59,-3.53 102.85,-10.63l15.97 -92.23c-21.26,5.32 -37.24,7.11 -47.85,7.11 -12.44,0 -19.54,-3.56 -21.29,-10.66 -1.81,-5.32 -1.81,-14.19 3.53,-30.14l33.69 -124.16 78.06 0 26.6 -93.99 0 -5.32 -78.06 0 35.48 -133.03zm-936.5 227.02c12.43,-12.4 26.6,-21.27 40.79,-24.82 7.1,-1.79 14.2,-1.79 21.28,-1.79 19.5,0 33.69,5.34 42.58,17.74 8.86,10.66 10.64,30.14 7.08,58.54l-141.9 0c7.11,-23.06 17.75,-39.01 30.17,-49.67zm46.11 180.91c-1.78,1.79 -3.53,1.79 -5.32,1.79 -12.42,5.32 -24.82,8.85 -37.24,8.85 -21.29,0 -37.26,-8.85 -47.9,-24.82 -7.1,-10.63 -8.85,-26.61 -5.32,-49.67l285.56 0c1.79,-5.34 3.54,-8.87 5.33,-14.19 14.18,-39.01 15.96,-70.93 7.08,-102.86 -1.75,-7.08 -3.54,-14.19 -7.08,-19.5 -10.64,-26.61 -28.41,-47.88 -49.67,-60.3 -26.61,-15.98 -53.22,-30.17 -113.51,-30.17 -12.43,0 -24.85,0 -37.25,1.76 -46.11,8.9 -92.24,28.4 -129.48,56.78 -21.29,15.95 -40.79,33.69 -56.75,53.22 -17.75,24.82 -31.94,51.43 -39.01,78.02 -14.18,47.88 -14.18,72.7 10.64,118.84 7.1,12.42 17.72,24.85 28.37,35.48 31.92,24.82 74.49,39.01 118.83,40.8 26.61,0 47.9,-1.79 67.4,-7.11 28.36,-5.32 51.43,-15.98 76.29,-30.14 44.29,-23.06 72.68,-49.67 104.63,-95.79l-138.37 0c-7.06,19.51 -26.58,35.46 -37.22,39.01zm615.47 -202.18c-3.57,-17.74 -8.89,-31.96 -17.75,-44.35 -10.64,-14.19 -26.6,-24.82 -46.1,-30.17 -19.53,-7.08 -49.65,-14.19 -95.8,-14.19 -42.54,0 -78.02,3.56 -104.64,12.43 -28.37,8.87 -51.42,23.06 -70.92,40.8 -19.54,15.95 -31.93,37.25 -39.04,62.07 -5.32,23.06 -3.54,42.56 3.54,58.54 8.89,17.72 23.06,30.14 40.78,37.25 17.78,7.08 49.68,15.95 97.58,24.82 31.89,5.34 51.44,10.63 58.52,14.19 8.86,5.31 12.42,12.4 10.65,23.06 -3.54,8.9 -8.88,15.98 -19.52,23.06 -12.42,7.11 -28.39,12.43 -47.89,12.43 -17.74,0 -30.14,-5.32 -39.03,-12.43 -8.89,-7.08 -17.72,-21.3 -14.18,-44.33l-143.65 0c-3.56,14.19 -5.35,35.46 -5.35,40.8 1.79,14.19 5.35,26.61 12.43,37.25 5.33,10.63 12.39,19.5 21.28,26.61 24.83,17.71 70.94,28.37 140.14,28.37 47.86,0 88.67,-5.34 120.59,-17.77 31.93,-10.61 56.75,-26.58 74.51,-47.85 19.5,-19.53 31.9,-40.83 37.24,-62.09 5.33,-21.3 3.57,-40.8 -3.57,-58.54 -7.07,-15.95 -21.24,-30.17 -42.54,-39.01 -21.28,-10.63 -54.97,-17.74 -101.11,-23.06 -31.91,-3.56 -51.44,-7.11 -58.52,-12.42 -8.87,-5.29 -10.65,-10.64 -8.87,-21.27 1.76,-7.11 7.1,-14.19 15.94,-19.53 8.87,-5.32 23.08,-8.87 39.03,-8.87 15.97,0 28.39,7.11 37.24,14.21 7.13,5.31 10.65,14.19 10.65,26.58l137.43 0c-1.39,-2.82 2.48,-23.52 0.93,-26.58zm-1360.44 -205.76l-141.87 0 -237.7 347.63 -28.36 -214.6 -134.79 0 3.52 26.61 58.54 326.33 127.7 0 335.23 -461.16 17.73 -24.82zm-673.98 274.9l-140.12 0c7.08,-23.06 17.71,-38.98 28.37,-51.43 14.19,-12.4 26.61,-19.5 42.56,-23.06 5.34,-1.76 12.41,-3.53 19.53,-3.53 19.48,0 33.67,7.08 42.56,17.74 8.87,12.4 10.66,31.9 7.09,60.28zm134.78 -51.43c-8.87,-35.45 -28.35,-63.83 -54.96,-79.81 -26.61,-15.95 -53.21,-30.17 -113.53,-30.17 -12.42,0 -23.07,0 -35.48,1.79 -47.88,7.08 -92.23,28.37 -129.48,56.75 -46.09,35.48 -81.6,83.36 -94.02,133.03 -14.18,49.64 -14.18,72.7 10.66,120.61 24.85,46.11 85.13,74.49 145.45,76.28 26.58,0 47.88,-1.79 67.38,-5.34 26.61,-7.08 49.67,-17.74 74.5,-31.9 44.34,-24.85 70.95,-49.67 102.88,-97.57l-136.58 0c-7.07,21.3 -26.61,35.45 -35.46,40.8 -1.79,0 -3.55,1.79 -5.34,1.79 -12.43,5.32 -24.82,7.08 -37.24,7.08 -21.27,0 -37.24,-7.08 -47.88,-23.06 -7.11,-10.63 -8.87,-28.4 -5.34,-51.43l282.02 0c5.33,-12.43 10.66,-26.61 12.41,-37.24 7.11,-28.37 7.11,-53.22 0,-78.04 0,-1.76 0,-1.76 0,-3.56zm2225.99 -157.85c0,1.76 -3.56,1.76 -8.86,1.76l-8.87 0 0 -14.19 17.74 0c1.79,0 1.79,1.79 3.58,1.79 0,1.76 1.74,3.53 1.74,5.32 0,1.76 0,3.53 -1.74,3.53 0,1.79 -1.79,1.79 -3.58,1.79zm18.14 27.18l-3.92 -5.89c-3.56,-3.56 -5.35,-7.11 -7.14,-8.87 -1.76,0 -3.5,-1.76 -5.29,-3.55 5.29,0 8.87,-1.8 10.62,-5.32 1.81,-1.79 3.57,-5.34 3.57,-10.66 0,-1.76 0,-5.31 -1.76,-7.08 -1.81,-3.56 -3.56,-5.32 -7.14,-5.32 -1.76,-1.79 -7.08,-1.79 -12.42,-1.79l-23.04 0 0 53.22 10.64 0 0 -21.27 8.87 0 1.78 1.76c1.75,1.76 3.53,3.56 7.09,8.87l7.08 10.63 6.47 0c-6.67,4.67 -14.53,8.87 -22.42,8.87 -19.52,0 -35.49,-15.98 -35.49,-35.48 0,-10.63 3.56,-19.5 10.65,-24.82 7.11,-7.11 15.96,-10.63 24.83,-10.63 8.86,0 17.74,3.53 24.85,10.63 5.31,5.32 10.63,14.19 10.63,24.82 0,7.68 -3.99,15.33 -8.47,21.86zm4.92 -55.56c-8.83,-8.87 -21.26,-12.43 -31.92,-12.43 -12.43,0 -24.83,3.56 -33.7,12.43 -7.08,8.87 -12.43,21.27 -12.43,33.69 0,24.85 19.53,46.11 46.13,46.11 12.44,0 23.08,-5.31 31.92,-14.19 8.89,-8.87 14.22,-19.5 14.22,-31.93 0,-12.43 -5.33,-24.82 -14.22,-33.69zm-1727.58 203.97c3.54,-5.29 8.89,-10.64 12.44,-14.19 17.71,-17.74 39.04,-26.61 62.07,-26.61 19.51,0 33.68,5.34 42.56,17.74 8.89,10.66 10.66,30.14 7.09,58.54l-141.89 0c5.32,-14.19 10.63,-26.61 17.72,-35.48zm95.78 127.71c-7.07,19.51 -26.61,35.46 -35.46,39.01 -15.98,7.11 -30.17,10.63 -44.35,10.63 -5.29,0 -10.65,0 -15.97,-1.76 -14.17,-3.56 -24.82,-10.63 -31.91,-23.06 -7.11,-10.63 -7.11,-26.61 -3.55,-49.67l283.8 0c19.5,-44.33 21.3,-81.57 12.4,-117.05 -3.53,-14.19 -8.87,-24.82 -14.16,-35.48 -10.66,-19.5 -24.86,-33.69 -42.59,-44.33 -26.58,-15.98 -53.2,-30.17 -113.5,-30.17 -30.17,0 -60.33,5.31 -90.48,15.98 -26.57,10.63 -53.18,24.82 -76.25,42.56 -47.89,35.48 -83.36,81.6 -95.77,131.24 -14.19,47.88 -14.19,72.7 10.63,118.84 24.82,46.11 86.89,74.49 148.98,76.28l12.41 0c53.22,-1.79 88.7,-14.19 129.52,-37.24 44.3,-23.06 72.7,-49.67 104.63,-95.79l-138.37 0z"/>
 </g>
</svg>
