<?xml version="1.0" encoding="utf-8"?>
<!-- Generator: Adobe Illustrator 17.1.0, SVG Export Plug-In . SVG Version: 6.00 Build 0)  -->
<!DOCTYPE svg PUBLIC "-//W3C//DTD SVG 1.1//EN" "http://www.w3.org/Graphics/SVG/1.1/DTD/svg11.dtd">
<svg version="1.1" id="Layer_1" xmlns="http://www.w3.org/2000/svg" xmlns:xlink="http://www.w3.org/1999/xlink" x="0px" y="0px"
	 viewBox="0 0 200 100" enable-background="new 0 0 200 100" xml:space="preserve">
<g id="Layer_x0020_1">
	<g id="_2023476844944">
		<path fill="#2A3F83" d="M24.6,44.4L24.6,44.4z M41.5,37.2L41.5,37.2z M21.2,34.1c0.8-0.1,3.2-1,5.5-1.3c2.3-0.3,4.8,0.2,6.7,0.2
			v0.2c-1.8,0-1.4-0.3-2,0.9c-0.1,0.2,0,0.7-1.7,1.2c-2.4,0.6-1.6-1.3-4.8,0.8c-0.9,0.6-2.7,2-3.9,1.8c-1-0.2-1.4-0.5-2,0.4
			c-0.3,0.5-0.5,1.8-0.7,2.5c1.2,0,1.1-0.1,1.1-1.4c1,0,0.7,0.2,1.6,0.2c-0.3,0.5-0.6,1-1,1.4c-0.9,0.9-0.6,0.4-1.9,0.4
			c-0.4,0.8-0.2,0.7-1,1.2c-0.8,0.5-0.9,0.3-1,1.5c0.7,0.2,1,0.4,1.8,0.4c0.6-2.7,2.1-1.5,2.5-1.5c1,0,0.6-0.5,1.5-0.6
			c0.8-0.2,0.6,0.3,1.9,0.4c0.1-0.5,0.2-1.1,0.4-1.6c1,0,1,0,1.8,0.2V42c-1.1,0-1.4,0.2-1.9,0.8c-0.9,1.2,0.2,0.9-1.2,1.7
			c-2,1-2.3,0.4-4.8,0.4c-0.2,0.3-0.3,0.4-0.5,0.8c-0.2,0.4-0.3,0.6-0.5,0.8c-0.6,0.9-0.9,0.6-1.9,1l0.3,2.3c-0.9,0-0.9,0.1-1.4,0.4
			c2.2,4.1,5.7-0.7,7.6-0.2c1.7,0.5-0.5,1.5,1.9,1.9c3.2,0.6,0,1.4,2.9,2.6c1.1,0.4,0.4,0,1.1,0.9c1,1.5,2.5,0.8,3.6-0.1l1-1
			l-0.9-1.1c0.2-0.7,0.3-0.7,0.5-1.4c-0.5-0.4-1-0.8-1.6-1.1c0-0.8-0.1-1.4,0.1-2.1c0.3-1,0.8-1,0.6-1.5c-0.7-1.2-0.6,0.6-3.5-0.1
			c-1.2-0.3-1.5-0.6-2.6-2.6c1,0.1,2,0.8,3.1,1.2c1.4,0.4,2.1-0.4,3.4-0.7c-0.2-1-0.6-0.9-1.6-1.1c-1.7-0.3-1,0-1.6-1.1
			c1.2,0.1,1.5,0.6,2.6,0.8c1.2,0.2,1.6-0.5,2.5-0.9c2-1,1.7,0.7,4.3,2.1c0.4-0.8,0.8-2,0.9-3.1c1.6,0,2-0.4,3.9,1.5
			c0.6,0.6,0.1,0.5,1,0.8c0-1-0.2-0.7-0.2-1.8c0-1.1,0.4-0.3-0.6-1.3c-0.6-0.6-1-2.3-1.1-3.4c3.9,2.6,3.9,8.4,1.3,13.2l-1.8,2.7
			c-0.5,0.6-0.4,0.2-0.6,1c2.1-1.4,5.2-6,6.3-8.3c0.7-1.6,1.3-4.2,0.7-6.4c-1.4-5.6-8.9-7.9-14-8.1C30.5,31.3,23.4,32.1,21.2,34.1
			L21.2,34.1z"/>
		<path fill="#2A3F83" d="M5,49.6C5,59.7,19,66.8,31.9,61.4c2.5-1,5-2.9,6.4-5c-0.3,0.1-2.6,1.3-4.6,1.9C21.1,62.4,5.9,53.6,10,42.3
			c0.4-1,1.2-2.1,1.4-2.9C8.5,41,5,45.2,5,49.6L5,49.6z"/>
		<path fill="#2C3E84" d="M87.7,46.4c-4.2,0-4.5-2.8-4.5-6.3c0-6.9,8.3-6.9,8.3,0C91.5,42.9,90.2,46.4,87.7,46.4L87.7,46.4z
			 M79.8,39.9c0,2.2,0,4.3,2,6.1c4.3,3.7,13,1.7,13-5.4C94.9,30.5,79.8,32.3,79.8,39.9L79.8,39.9z"/>
		<polygon fill="#2C3E84" points="187.6,47.6 190.8,47.6 190.8,41 196.6,41 196.6,47.6 199.6,47.6 199.6,34.1 196.6,34.1 
			196.6,39.2 190.8,39.2 190.8,34.1 187.6,34.1 		"/>
		<path fill="#2C3E84" d="M115.1,40.4v-5.2h1.1c1.9,0,2,1.6,1.9,3C117.9,39.9,116.9,40.4,115.1,40.4L115.1,40.4z M112.2,47.6
			l1.7-0.1c0.2,0,0.8,0.1,1.2,0.1v-6.3c0.6,0.4,1.4,2.3,1.9,3.1c0.5,0.8,1.5,2.5,1.7,3.3h3.8c-0.8-1.6-3.8-5.6-4.1-6.8
			c1.3-0.7,2.9-1.5,2.9-3.4c0-4.3-4.9-3.4-9.2-3.4V47.6L112.2,47.6z"/>
		<path fill="#2C3E84" d="M71.9,40.4c-0.8,0-0.4-3.5-0.4-5.2c1.9,0,3.3,0,3.1,2.6C74.4,39.5,73.5,40.4,71.9,40.4L71.9,40.4z
			 M68.5,47.6h2.9v-6.3c1.4,1,3.1,6.3,4.3,6.3l1.7-0.1c0.5,0,0.9,0.1,1.5,0.1c-0.9-1.7-3.8-5.6-4.1-6.8c1.1-0.6,2.9-1.2,2.9-3.6
			c0-4.1-5.4-3.1-9.2-3.1L68.5,47.6L68.5,47.6z"/>
		<path fill="#2C3E84" d="M96.2,40.6c0,5.1,3.3,7.2,8.3,7.2c1.7,0,3.5-0.6,5-0.9c0-6.9,0.5-5.4-1.6-5.4c-0.8,0-0.9-0.2-1.6-0.2V46
			c-2.5,1.2-6.8,0.6-6.8-5.2c0-5.6,5.2-7.4,8.1-4.5c0.8,0.7,0,0.4,0.8,0.7c0.2-0.8,0.4-1.3,0.4-2.3C103.9,32,96.2,34.3,96.2,40.6
			L96.2,40.6z"/>
		<path fill="#2C3E84" d="M61.3,40.4h-0.7v-5.2h0.9C64.3,35.2,64.1,40.4,61.3,40.4L61.3,40.4z M57.5,47.6h3.1v-5.8
			c8.3,0,7.2-7.6,2.5-7.6h-5.6V47.6L57.5,47.6z"/>
		<path fill="#2C3E84" d="M124.1,47.3h7.6v-1.8c-0.3,0.2-3.9,0.4-4.5,0.4v-5l4.5,0.2c-0.1-1.2-0.1-0.5,0-1.8l-4.5,0.2v-4.1
			c2,0,2.8-0.2,4.5,0.2v-1.8h-7.6V47.3L124.1,47.3z"/>
		<path fill="#2C3E84" d="M173.4,40.6c0,2.3,0.3,3.8,2.2,5.5c2,1.7,5.8,2.2,8.4,1.3c1-0.4,1.1-1,1.1-2.3c-1.5,0.4-1.4,1.4-4.1,1.4
			c-5.8,0-5.7-11.5,0.2-11.5c2.4,0,2.2,1.4,3.6,1.8c0.1-0.9,0.4-1.4,0.4-2.3c-1.1-0.2-2.2-0.9-4.1-0.9
			C176.9,33.6,173.4,36.3,173.4,40.6L173.4,40.6z"/>
		<path fill="#2C3E84" d="M164.6,47.3h7.6c-1-1.7,2.1-2-3.7-1.4c-1.4,0.1-1-0.3-1-4.9l4.5,0.2v-1.8c-5.2,0-4.5,1.7-4.5-3.8
			c6.4,0,4.5,0.6,4.5-0.9c0-0.8-0.1-0.1,0.2-0.7h-7.6L164.6,47.3L164.6,47.3z"/>
		<path fill="#2C3E84" d="M133.4,37.9c0,4.5,5.8,3.3,5.8,6.8c0,2.3-4.1,2.7-4.7-0.2h-0.7c0,1.1-0.2,1.6-0.4,2.5
			c5.3,3.5,12.4-3.3,6.1-7.2c-1.8-1.1-3.6-1.4-3.6-2.9c0-2,2.6-2.3,3.7-1.2c0.7,0.8,0,0.7,1.1,1c0.3-0.7,0.4-1.4,0.7-2
			c-2.1-1.1-4.7-1.4-6.5,0.3C134,35.4,133.4,36.6,133.4,37.9L133.4,37.9z"/>
		<path fill="#2C3E84" d="M143.3,37.7c0,5,5.8,3.8,5.8,6.8c0,2.5-3.2,2.4-4.2,1.3c-0.8-0.8-0.1-1-1.2-1.3c-0.1,1.1-0.4,1.4-0.4,2.7
			c1.8,0.4,3.9,1.5,6.6-0.4c1.7-1.1,1.7-2.5,1.7-3.9c0-3.6-5.8-3.3-5.8-6.3c0-1.9,3.5-2.4,4.1,0h0.7c0.2-0.7,0.4-1.3,0.4-2
			C146.8,32.3,143.3,34.4,143.3,37.7L143.3,37.7z"/>
		<path fill="#2C3E84" d="M156.1,35.4l0,11.1c0.1,1.5,0.3,1,1.8,1l1.4,0V35.4c0.9,0.2,1.7,0.2,2.9,0.3c1,0,0.3,0,0.7-1.7h-10.3
			c0.4,1.5-0.5,1.7,0.7,1.7C154.3,35.7,155.2,35.6,156.1,35.4L156.1,35.4z"/>
		<path fill="#2A3F83" d="M0.3,54.1l0.3-1.5c0.9-6.1,3.4-15.7,10-17.2l1.4,2.9c0.8-0.6,4.5-6,5.5-7.2c0.4-0.6,0.6-0.6,0.8-1.2
			c-1.4,0.7-4.4,4-5.8,5c-0.6-0.4-0.8-0.8-1.2-1.4c-0.4-0.6-0.8-1.2-1.2-1.7c-0.8,0.6-1.4,0.9-2.2,1.6c-0.7,0.7-1.2,1.4-1.9,2.2
			C2.5,39.6,0.3,48.3,0.3,54.1L0.3,54.1z"/>
		<path fill="#2C3E84" d="M107.5,57.7h-1.6v-2.5c2.7,0,3.6-0.3,3.6,1.4C109.5,57.5,108.4,57.7,107.5,57.7L107.5,57.7z M104.1,62.4
			h1.8V59h2.3l1.4,3.4h1.8c-0.2-0.8-1.2-3.1-1.6-3.8c1.4-0.3,1.9-1.4,1.6-2.7c-0.5-2.6-4.1-2-7.2-2L104.1,62.4L104.1,62.4z"/>
		<path fill="#2C3E84" d="M169.8,62.4h1.4v-5.8c0.5,0.4,0.7,0.8,1,1.4c0.4,0.8,2.5,4.4,3.2,4.4h1.4v-8.5h-1.4v5.6
			c-0.7-0.5-1.3-1.9-1.9-2.7c-0.5-0.8-1.5-2.1-1.8-3h-2V62.4L169.8,62.4z"/>
		<path fill="#2C3E84" d="M80.7,62.4h1.8c0-2.7-0.2-2,1.8-4.3l1.8,4.3h1.8c-0.1-1.2-2.3-4.9-2.3-5.6c0-0.5,1.7-2.4,2-2.9
			c-2.3,0-1.9,0.1-3,1.5c-0.6,0.8-1.5,2.1-2.2,2.5v-4.1h-1.8L80.7,62.4L80.7,62.4z"/>
		<path fill="#2C3E84" d="M130.7,55.9h0.4c0.1,1.1,0.6,2.1,0.9,3.1h-2.3C129.9,57.7,130.6,57,130.7,55.9z M127,62.4h1.4
			c0.3-0.6,0.6-1.2,0.7-2h3.6c0.1,0.9,0.4,1.4,0.7,2h1.8l-2.9-8.5H130l-1.5,4.1C128.1,59.2,127.1,61.6,127,62.4L127,62.4z"/>
		<path fill="#2C3E84" d="M57.5,59.7c0,4,6.5,4,6.5-0.2v-5.6h-1.6c0,2.1,0.2,5-0.2,7c-3.7,0.8-2.9-0.7-2.9-7h-1.8L57.5,59.7
			L57.5,59.7z"/>
		<polygon fill="#2C3E84" points="193.7,62.4 199.6,62.4 199.6,61.1 195.5,61.1 195.5,58.8 198.9,58.8 198.9,57.5 195.5,57.5 
			195.5,55.2 199.6,55.2 199.6,53.9 193.7,53.9 		"/>
		<path fill="#2A3F83" d="M6.2,29.6c-1.1,1.7-1.3,1.8-2.3,3.7c-1.9,3.7-4,10.3-4,14.5h0.2c0-2.3,1.7-8.1,2.5-10.3
			c1.2-3.1,2.4-5.9,5.1-7.7c-0.2-1.9-1.9-2.3,1.3-2.3c1.7,0,2.9-0.2,4.8-0.2V27c-1.5,0-2.2-0.2-3.7-0.2H9.4c-1.2,0-2.5,0-3.8,0H5.3
			C5.3,27.9,5.9,28.6,6.2,29.6L6.2,29.6z"/>
		<polygon fill="#2C3E84" points="151.2,62.4 152.9,62.4 152.9,53.9 151.2,53.9 		"/>
		<path fill="#2A3F83" d="M0.3,54.1c-0.2,0.2-0.1,0-0.2,0.5c0,0.2,0,0.4,0,0.6h0.2L0.3,54.1L0.3,54.1z"/>
		<polygon fill="#2A3F83" points="18.3,29.8 18.5,29.8 18.3,29.5 		"/>
		<polygon fill="#2A3F83" points="39.9,54.5 39.7,54.5 39.9,54.8 		"/>
		<path fill="#2A3F83" d="M21.2,34.1l-0.4,0.2L21.2,34.1z"/>
		<path fill="#2A3F83" d="M20.8,34.3l-0.4,0.2L20.8,34.3z"/>
		<path fill="#2A3F83" d="M20.3,34.5l-0.5,0.1L20.3,34.5z"/>
		<path fill="#2A3F83" d="M40.4,54.1l-0.2,0.2L40.4,54.1z"/>
		<path fill="#2A3F83" d="M40.2,54.3l-0.2,0.2L40.2,54.3z"/>
	</g>
</g>
</svg>
