<?xml version="1.0" encoding="UTF-8"?>
<!DOCTYPE svg PUBLIC "-//W3C//DTD SVG 1.1//EN" "http://www.w3.org/Graphics/SVG/1.1/DTD/svg11.dtd">
<!-- Creator: CorelDRAW 2018 (64-Bit Evaluation Version) -->
<svg xmlns="http://www.w3.org/2000/svg" xml:space="preserve" width="8.5in" height="11in" version="1.1" style="shape-rendering:geometricPrecision; text-rendering:geometricPrecision; image-rendering:optimizeQuality; fill-rule:evenodd; clip-rule:evenodd"
viewBox="0 0 8500 11000"
 xmlns:xlink="http://www.w3.org/1999/xlink">
 <defs>
  <style type="text/css">
   <![CDATA[
    .fil0 {fill:#2B3D82}
    .fil1 {fill:#2D3C82}
   ]]>
  </style>
 </defs>
 <g id="Layer_x0020_1">
  <metadata id="CorelCorpID_0Corel-Layer"/>
  <g id="_2023476844944">
   <path class="fil0" d="M1228.55 6087.52l0 0zm684.3 -291.96l0 0zm-821.15 -127.74c34.04,-2.83 129.03,-40.46 221.25,-52.47 94.43,-12.28 191.84,6.85 271.44,6.85l0 9.13c-74.14,0 -57.14,-11.64 -81.15,37.46 -3.83,7.85 2.43,29.98 -70.38,48.86 -98.61,25.58 -63.44,-53.68 -194.62,32.85 -36.57,24.13 -111.02,82.08 -158.06,74.08 -39.96,-6.8 -57.5,-19.63 -79.96,16.13 -12.93,20.57 -20.38,71.8 -27.15,100.83 51.29,-1.14 45.63,-4.02 45.63,-54.74 40.09,0.89 28.42,6.17 63.86,9.13 -13.86,20.7 -23.68,38.5 -42.79,58.19 -35.13,36.17 -23.05,15.97 -75.81,14.8 -17.74,33.53 -6.94,27.77 -42.76,48.49 -33.99,19.66 -38.26,11.66 -39.36,61 29.51,6.87 40.02,15.51 72.99,18.26 25.64,-110.04 83.59,-60.56 99.25,-60.77 38.9,-0.53 25.92,-19.18 59.62,-26.43 32.71,-7.02 26.48,13.04 78.35,14.19 5.06,-21.74 9.62,-45.87 18.25,-63.86 43.01,0 40.81,1.63 72.99,9.11l0 18.26c-44.69,0 -55.7,6.42 -75.74,33.74 -36.07,49.17 10.28,36.08 -51.16,67.45 -80.85,41.27 -92.13,17.41 -192.43,17.41 -9.06,13.52 -11.44,16.3 -21.98,32.77 -9.3,14.55 -12.31,22.98 -20.1,34.63 -24.43,36.54 -37.24,23.24 -76.53,42.08l10.81 91.02c-38.09,1.04 -35.46,4.44 -56.43,18.47 89.19,168.55 231.77,-30.1 308.06,-8 68.57,19.87 -19.27,59.7 77.17,78.97 130.3,26.02 2.11,58.71 115.31,103.66 45.1,17.91 18.49,0.41 43.81,38.3 40.38,60.41 102.45,32.94 146.65,-5.48l38.9 -43.21 -38.18 -44.03c8.29,-29.91 13.33,-28.01 19.94,-56.33 -21.18,-14.17 -41.37,-30.55 -63.87,-45.62 0,-31.48 -3.18,-58.6 5.32,-86.09 11.87,-38.39 33.24,-41.07 22.05,-59.89 -28.85,-48.54 -25.93,22.51 -142.42,-3.11 -50.59,-11.13 -61.47,-26.12 -103.93,-106.37 41.54,3.46 80.06,33.97 126.45,47.65 57.21,16.87 87.04,-17.5 138.14,-29.41 -10.47,-39.22 -24.17,-37.18 -64.72,-44.75 -67.14,-12.54 -41.31,-1.25 -63.01,-46.48 51.26,4.26 62.44,25.12 104.4,33.6 49.72,10.06 63.8,-19.04 102.12,-37.61 82.17,-39.82 66.97,28.07 176.69,86.13 18.28,-34.55 32.46,-79.2 36.5,-127.74 66.03,0 79.59,-16.15 158.59,60.38 24.54,23.76 3.93,20.67 42.13,30.86 -0.94,-42.36 -7.04,-27.99 -5.98,-71.15 1.06,-43.75 15.31,-12.64 -23.33,-54.22 -24.61,-26.5 -42.63,-92.37 -43.68,-139.22 158.32,106.02 156.75,338.73 51.78,535.34l-73.07 109.4c-19.11,23.69 -15.63,6.97 -24.32,39.55 86.72,-58.07 212.04,-240.8 255.46,-337.59 28.96,-64.54 52.28,-168.9 29.88,-257.98 -56.93,-226.52 -361.67,-320.09 -567.89,-326.25 -117.8,-3.51 -404.04,32.47 -493,109.79z"/>
   <path class="fil0" d="M434.77 6297.37c0,410.31 564.33,697.76 1089.77,478.48 101.55,-42.37 201.45,-116.47 260.57,-204.76 -12.31,2.87 -106.73,53.06 -185.78,78.82 -513.94,167.41 -1131.53,-190.04 -965.21,-645.87 15.2,-41.63 47.62,-85.4 56.12,-117.24 -116.44,61.62 -255.47,232.94 -255.47,410.57z"/>
   <path class="fil1" d="M3783.25 6169.64c-170.07,0 -182.48,-114.59 -182.48,-255.48 0,-280.85 337.59,-280.42 337.59,0 0,111.71 -53.04,255.48 -155.1,255.48zm-319.35 -264.59c0,90.37 0.35,176.15 81.94,246.52 173.28,149.43 529.36,68.5 529.36,-219.15 0,-407.49 -611.31,-336.91 -611.31,-27.37z"/>
   <polygon class="fil1" points="7834.26,6215.25 7962,6215.25 7962,5950.66 8199.21,5950.66 8199.21,6215.25 8317.83,6215.25 8317.83,5667.82 8199.21,5667.82 8199.21,5877.67 7962,5877.67 7962,5667.82 7834.26,5667.82 "/>
   <path class="fil1" d="M4896.36 5923.29l0 -209.85 45.61 0c77.81,0 81.36,64.87 74.92,120.38 -8.09,69.79 -47.02,89.46 -120.53,89.46zm-118.61 291.96l70.37 -4.07c9.79,0.39 30.59,4.07 48.25,4.07l0 -255.46c23.2,16.99 57.49,91.08 76.88,123.85 19.32,32.66 61.44,98.75 69.11,131.61l155.1 0c-34.41,-65.02 -153.43,-227.39 -164.23,-273.72 53.63,-28.37 118.61,-61.96 118.61,-136.86 0,-175.03 -198.94,-136.86 -374.09,-136.86l0 547.43z"/>
   <path class="fil1" d="M3144.57 5923.29c-32.59,0 -18.24,-143.44 -18.24,-209.85 76.74,0 132.84,-2.03 124.06,106.49 -5.42,66.93 -38.78,103.35 -105.81,103.35zm-136.86 291.96l118.61 0 0 -255.46c55.25,40.48 125.59,255.46 173.35,255.46l68.14 -3.43c20.94,1.53 36.07,3.43 59.6,3.43 -35.69,-67.45 -153.63,-228.18 -164.23,-273.72 45.2,-23.91 118.6,-48.02 118.6,-145.98 0,-164.54 -218.5,-127.74 -374.07,-127.74l0 547.43z"/>
   <path class="fil1" d="M4129.95 5932.42c0,207.68 133.47,291.96 337.59,291.96 68.14,0 143.04,-23.06 200.72,-36.5 0,-280 19.78,-218.98 -63.86,-218.98 -31.45,0 -35.33,-6.74 -63.87,-9.11l0 191.6c-99.8,47.88 -273.72,23.01 -273.72,-209.85 0,-228.18 211.5,-298.97 330.24,-184.25 30.92,29.87 1.24,17.04 34.72,29.15 7.24,-31.09 17.43,-54.42 18.24,-91.24 -207.46,-109.78 -520.06,-18.36 -520.06,237.23z"/>
   <path class="fil1" d="M2715.75 5923.29l-27.37 0 0 -209.85 36.49 0c112.31,0 103.01,209.85 -9.12,209.85zm-155.11 291.96l127.74 0 0 -237.22c335.01,0 291.12,-310.22 100.36,-310.22l-228.1 0 0 547.43z"/>
   <path class="fil1" d="M5261.32 6206.13l310.21 0 0 -73c-13.86,6.66 -157.79,18.25 -182.48,18.25l0 -200.73 182.48 9.13c-4.27,-51.38 -4.27,-21.62 0,-73l-182.48 9.13 0 -164.23c81.15,0 114.46,-6.72 182.48,9.13l0 -73 -310.21 0 0 538.31z"/>
   <path class="fil1" d="M7259.46 5932.42c0,93.7 13.15,155.37 88.76,221.44 81.11,70.89 235.8,89.33 339.79,52 38.99,-14 44.76,-40.63 45.89,-90.96 -61.83,16.51 -59.41,54.74 -164.23,54.74 -236.69,0 -231.75,-465.32 9.13,-465.32 95.69,0 88.91,57.75 145.98,72.99 3.01,-36.17 15.24,-55.06 18.24,-91.23 -45.46,-10.59 -90.48,-36.5 -164.23,-36.5 -177.92,0 -319.33,107.61 -319.33,282.84z"/>
   <path class="fil1" d="M6903.63 6206.13l310.2 0c-39.74,-70.76 86.75,-80.74 -150.91,-57.51 -57.95,5.66 -40.69,-13.1 -40.69,-197.96l182.48 9.13 0 -73c-211.76,0 -182.48,70.42 -182.48,-155.1 261.71,0 182.48,24.9 182.48,-36.5 0,-34.88 -2.8,-3.32 9.12,-27.37l-310.2 0 0 538.31z"/>
   <path class="fil1" d="M5635.4 5822.93c0,183.37 237.22,136.22 237.22,273.72 0,94.26 -164.28,108.11 -191.6,-9.13l-27.37 0c0,43.29 -10.22,65.9 -18.24,100.36 213.56,143.01 504.22,-134.05 246.02,-291.64 -72.15,-44.03 -145.67,-59.28 -145.67,-118.94 0,-79.72 103.98,-94.8 148.33,-47.95 29.99,31.67 0.71,27.47 43.28,38.84 13.21,-27.52 15.33,-57.03 27.37,-82.12 -83.78,-44.33 -191.53,-56.15 -262.81,10.9 -28.32,26.65 -56.52,74.83 -56.52,125.96z"/>
   <path class="fil1" d="M6036.85 5813.8c0,203.27 237.23,153.35 237.23,273.72 0,102.81 -129.07,96.65 -170.71,52.09 -30.76,-32.92 -3.93,-40.25 -48.26,-52.09 -3.69,44.24 -18.26,57.19 -18.26,109.49 71.12,16.56 157.81,60.81 268.81,-14.03 67.79,-45.72 68.77,-98.83 68.77,-159.33 0,-147.27 -237.22,-134.07 -237.22,-255.46 0,-78.02 141.62,-97.02 164.23,0l27.37 0c6.38,-27.39 15.73,-51.98 18.24,-82.12 -164.44,-87.01 -310.22,-3.67 -310.22,127.73z"/>
   <path class="fil1" d="M6556.91 5722.56l-1.14 448.24c2.84,61.46 12.22,40.76 73.07,42.01l55.81 2.44 0 -492.69c36.77,8.57 69.73,10.38 117.35,12.19 42.25,1.61 13.49,-1.98 28.62,-66.93l-419.69 0c14.53,62.37 -19.24,68.11 28.67,66.98 46.1,-1.09 82.3,-4.09 117.31,-12.24z"/>
   <path class="fil0" d="M243.17 6479.85l13.18 -59.81c36.46,-246.54 138.99,-635.15 406.52,-697.48l57.89 117.06c32.89,-22.76 184.57,-241.67 221.4,-293.95 18.57,-26.36 23.35,-22.85 30.92,-51.2 -55.86,29.56 -178.61,161.47 -237.22,200.72 -22.28,-14.91 -33.83,-34.61 -50.91,-58.58 -18.16,-25.5 -34.45,-46.74 -49.45,-69.15 -33.56,22.47 -59.25,36.44 -89.17,65.94 -29.45,29.06 -51.09,55.56 -76.43,87.81 -135.02,171.78 -226.73,522.87 -226.73,758.65z"/>
   <path class="fil1" d="M4586.15 6625.83l-63.86 0 0 -100.36c109.71,0 145.98,-13.08 145.98,54.74 0,35.79 -45.13,45.61 -82.11,45.61zm-136.86 191.6l73 0 0 -136.86 91.23 0 54.74 136.86 73 0c-7.84,-33.64 -48.04,-125.2 -63.87,-155.1 57.42,-13.37 76.19,-58.78 65.66,-110.93 -21.56,-106.73 -164.9,-80.67 -293.76,-80.67l0 346.7z"/>
   <path class="fil1" d="M7113.47 6817.43l54.74 0 0 -237.22c20.25,14.84 28.54,33.19 42.74,57.63 17.94,30.87 102.04,179.59 130.62,179.59l54.74 0 0 -346.7 -54.74 0 0 228.1c-27.54,-20.19 -53.78,-75.07 -74.74,-107.74 -20.39,-31.78 -61.87,-85.26 -71.24,-120.36l-82.11 0 0 346.7z"/>
   <path class="fil1" d="M3500.4 6817.43l72.99 0c0,-111.76 -8.13,-80.02 73,-173.35l72.99 173.35 72.98 0c-4.05,-48.78 -91.23,-198.61 -91.23,-228.09 0,-19.78 68.5,-98.3 82.11,-118.61 -91.85,0 -78.68,3.15 -121.24,61.24 -22.63,30.9 -60.85,84.4 -88.61,102.99l0 -164.23 -72.99 0 0 346.7z"/>
   <path class="fil1" d="M5525.91 6552.84l18.24 0c3.65,43.83 26.49,84.76 36.5,127.73l-91.24 0c4.47,-53.7 32.64,-81.36 36.5,-127.73zm-145.98 264.59l54.74 0c13.16,-24.85 24.43,-46.68 27.37,-82.11l145.98 0c2.95,35.43 14.23,57.26 27.37,82.11l72.99 0 -118.61 -346.7 -91.24 0 -60.54 167.56c-15.8,46.49 -55.22,144.91 -58.07,179.15z"/>
   <path class="fil1" d="M2560.64 6707.94c0,162.54 264.6,162.26 264.6,-9.12l0 -228.1 -63.87 0c0,87.16 9.97,200.91 -9.13,282.85 -148.83,34.67 -118.61,-28.99 -118.61,-282.85l-73 0 0 237.22z"/>
   <polygon class="fil1" points="8080.61,6817.43 8317.83,6817.43 8317.83,6762.69 8153.59,6762.69 8153.59,6671.45 8290.46,6671.45 8290.46,6616.71 8153.59,6616.71 8153.59,6525.47 8317.83,6525.47 8317.83,6470.72 8080.61,6470.72 "/>
   <path class="fil0" d="M480.39 5485.34c-44.58,66.59 -54.13,71.3 -94.33,152.02 -75.48,151.61 -161.14,416.24 -161.14,587.02l9.12 0c0,-93.5 67.8,-329.96 102.93,-417.14 49.66,-123.29 96.35,-238.49 207.29,-312.77 -6.25,-75.1 -76.59,-93.57 54.61,-91.31 66.82,1.14 115.3,-9.06 191.73,-9.06l0 -9.11c-60.74,0 -90.44,-8.26 -150.09,-9.13l-28.33 0c-51.34,0.2 -102.69,0.04 -154.02,0l-14.26 0c3.46,41.66 27.33,70.15 36.49,109.49z"/>
   <polygon class="fil1" points="6356.19,6817.43 6429.18,6817.43 6429.18,6470.72 6356.19,6470.72 "/>
   <path class="fil0" d="M243.17 6479.85c-6.11,9.62 -5.42,0.2 -8.46,18.91 -1.25,7.75 -0.67,18.7 -0.67,26.7l9.13 0 0 -45.61z"/>
   <polygon class="fil0" points="973.07,5494.47 982.2,5494.47 974.59,5483.82 "/>
   <polygon class="fil0" points="1848.97,6498.1 1839.85,6498.1 1847.45,6508.74 "/>
   <polygon class="fil0" points="1091.69,5667.82 1073.44,5676.94 "/>
   <polygon class="fil0" points="1073.44,5676.94 1055.19,5686.07 "/>
   <polygon class="fil0" points="1055.19,5686.07 1035.58,5691.08 "/>
   <polygon class="fil0" points="1867.22,6479.85 1858.1,6488.97 "/>
   <polygon class="fil0" points="1858.1,6488.97 1848.97,6498.1 "/>
  </g>
 </g>
</svg>
