<?xml version="1.0" encoding="UTF-8"?>
<!DOCTYPE svg PUBLIC "-//W3C//DTD SVG 1.1//EN" "http://www.w3.org/Graphics/SVG/1.1/DTD/svg11.dtd">
<!-- Creator: CorelDRAW 2018 (64-Bit Evaluation Version) -->
<svg xmlns="http://www.w3.org/2000/svg" xml:space="preserve" width="8.5in" height="11in" version="1.1" style="shape-rendering:geometricPrecision; text-rendering:geometricPrecision; image-rendering:optimizeQuality; fill-rule:evenodd; clip-rule:evenodd"
viewBox="0 0 8500 11000"
 xmlns:xlink="http://www.w3.org/1999/xlink">
 <defs>
  <style type="text/css">
   <![CDATA[
    .fil3 {fill:black}
    .fil8 {fill:#008BBF}
    .fil5 {fill:#00ADEE}
    .fil6 {fill:#482E8E}
    .fil4 {fill:#78BF42}
    .fil7 {fill:#BA3C22}
    .fil9 {fill:#C0B400}
    .fil0 {fill:#ED3123}
    .fil1 {fill:#F68E1E}
    .fil2 {fill:#FEF100}
   ]]>
  </style>
 </defs>
 <g id="Layer_x0020_1">
  <metadata id="CorelCorpID_0Corel-Layer"/>
  <g id="_2023419676352">
   <path class="fil0" d="M2442.98 2870.9c-43.68,141.55 -13.89,1470.69 -13.89,1735.89 0,255.52 28.81,602.99 -56.04,819.05 -287.83,732.88 -1380.4,603.05 -1497.42,-168.85 -76.37,-503.73 329.17,-942.65 825.77,-899.73l-46.88 -22.91 2.37 -116.4c-183.37,0 -267.66,23.22 -398.61,79.2 -57.56,24.61 -104.22,55 -148.85,87.24 -373.15,269.54 -497.83,785.93 -268.33,1199.19 154.53,278.25 439.99,443.85 738.72,467.48l148.69 0c254.54,-20.48 504.63,-146.82 678.32,-397.04 170.65,-245.84 160.96,-414.95 160.96,-811.14 0,-648.07 0,-1296.13 0,-1944.2 -54.03,-46.83 -37.93,-48.13 -124.82,-27.78z"/>
   <path class="fil1" d="M2304.21 2634.82c-21.22,521.48 -1.91,1084.81 -1.91,1610.91 0,268.47 -0.63,537.02 0.08,805.48 0.81,304.43 -71.65,423.69 -227.77,576.06 -132.69,129.5 -388.01,198.46 -617.69,131.94 -200.77,-58.15 -343.55,-207.11 -417.86,-387.77 -93.21,-226.61 -31.64,-477.59 88.67,-635.52 119.72,-157.17 269.15,-244.32 551.97,-252.27l27.42 -5.88 -5.72 -120.5c-496.61,-42.91 -902.14,396 -825.77,899.73 117.02,771.9 1209.59,901.73 1497.42,168.85 84.85,-216.06 56.04,-563.53 56.04,-819.05 0,-265.2 -29.79,-1594.35 13.89,-1735.89 -0.24,-52.36 8.03,-158.83 -5.1,-203.41 -9.04,-30.7 -24.07,-48.67 -56.39,-56.38 -52.43,-12.51 -44.26,1.31 -77.27,23.71z"/>
   <path class="fil2" d="M2164.76 2523.72c26.99,458.54 3.19,991.42 3.19,1458.15 0,240.71 0,481.42 0,722.13 0,211.52 29.2,501.98 -56.66,668.96 -180.35,350.73 -684.58,379.25 -903.91,38.87 -235.11,-364.87 53.78,-810.9 472.31,-800.67l0 -127.52c-282.82,7.94 -432.25,95.1 -551.97,252.27 -120.3,157.93 -181.87,408.91 -88.67,635.52 74.31,180.67 217.09,329.63 417.86,387.77 229.69,66.52 485,-2.44 617.69,-131.94 156.13,-152.37 228.58,-271.63 227.77,-576.06 -0.71,-268.46 -0.08,-537.01 -0.08,-805.48 0,-526.09 -19.31,-1089.42 1.91,-1610.91l-0.29 -486.05c-28.76,-19.27 -34.72,-40.1 -62.87,-41.66l-7.09 0c-6.19,0.31 -13.35,1.41 -21.8,3.44 -80.74,19.46 -45.91,239.79 -47.4,413.17z"/>
   <path class="fil3" d="M5678.52 4579.02l0 763.79 194.42 0 0 -777.68c0,-136.08 236.08,-137.61 236.08,13.89l0 763.79 194.42 0 0 -763.79c0,-151.5 236.08,-149.96 236.08,-13.89l0 777.68 194.42 0 0 -791.57c0,-126.62 -100.27,-277.74 -263.85,-277.74 -172.67,0 -129.79,-6.46 -263.86,83.32 -118.92,-79.63 -88.32,-83.32 -236.08,-83.32 -182.11,0 -291.63,126.08 -291.63,305.52z"/>
   <path class="fil4" d="M2040.04 2509.83c-17.25,166.25 -5.87,2207.86 -5.84,2430.25 0.02,225.7 2.6,357.02 -128.39,476.88 -270.64,247.63 -708.2,5.41 -634.7,-357.89 29.72,-146.88 154.37,-285.16 315.94,-299.83 47.97,-23.7 135.85,-9.34 182.45,6.51l1.75 -536.45 -6.8 254.8 -4.56 136 -80.19 -8.92c-418.54,-10.23 -707.43,435.79 -472.31,800.67 219.32,340.37 723.56,311.86 903.91,-38.87 85.86,-166.98 56.66,-457.44 56.66,-668.96 0,-240.71 0,-481.42 0,-722.13 0,-466.73 23.8,-999.61 -3.19,-1458.15 -63.23,-42.96 -44.82,-32.48 -124.72,-13.89z"/>
   <path class="fil5" d="M1900.95 2718.14c0,648.06 0,1296.13 0,1944.2 0,269.96 73.88,720.14 -249.85,721.57 -312.58,1.38 -351.08,-464.02 -19.83,-498.12 35,-35.38 24.72,-35.24 24.72,-126.89l-68.95 0.33c-161.57,14.67 -286.22,152.96 -315.94,299.83 -73.5,363.3 364.06,605.52 634.7,357.89 130.99,-119.85 128.42,-251.17 128.39,-476.88 -0.03,-222.39 -11.41,-2264 5.84,-2430.25l0.04 -180.54c-29.95,-20.05 -40.86,-31.77 -83.33,-41.66l-53.41 44.03 -2.4 386.48z"/>
   <path class="fil3" d="M3887.07 4731.78l-97.21 0 0 -249.97 138.87 0c80.09,0 113.49,59.52 105.98,134.33 -9.03,89.88 -54.23,115.64 -147.64,115.64zm-291.63 611.03l194.42 0 0 -416.61 55.55 0c17.71,76.01 200.59,323.88 222.2,416.61l236.08 0c-12.33,-46.17 -99.61,-177.89 -131,-230.07 -48.83,-81.2 -89.94,-147.1 -132.86,-228.21 232.03,-54.06 230.87,-411.81 93.93,-524.43 -122.46,-100.7 -361.99,-72.72 -538.31,-72.72l0 1055.42z"/>
   <path class="fil3" d="M5136.91 4579.02c0,-151.5 236.08,-149.96 236.08,-13.89l0 138.87 -236.08 0 0 -124.98zm-194.42 27.78l0 736.02 194.42 0 0 -444.39 236.08 0 0 444.39 194.42 0 0 -777.68c0,-387.74 -624.92,-413.91 -624.92,41.66z"/>
   <path class="fil6" d="M1651.24 5245.6c-147.7,0 -157.12,-222.19 0,-222.19 149.07,0 149.07,222.19 0,222.19zm120.01 -1016.31l-1.75 536.45 2.74 140.51 -140.96 -20.45c-331.25,34.09 -292.75,499.5 19.83,498.12 323.72,-1.43 249.85,-451.61 249.85,-721.57 0,-648.07 0,-1296.13 0,-1944.2 -166.76,-113.02 -138.65,86.26 -138.61,222.19 0.04,143.5 0,287 0,430.5 0,208.13 -24.49,681.88 8.91,858.46z"/>
   <path class="fil3" d="M3206.6 5148.39l-138.87 0 0 -666.58c270.69,0 236.08,-43.53 236.08,527.71 0,76.39 -18.39,138.87 -97.21,138.87zm-333.29 194.42c337.79,0 624.92,70.06 624.92,-361.06 0,-293.85 65.2,-694.36 -305.52,-694.36l-319.41 0 0 1055.42z"/>
   <path class="fil3" d="M4331.46 4606.79c0,214.91 -35.91,515.77 79.29,642.83 109.76,121.07 286.52,93.18 462.31,93.18l0 -152.76c0,-121.23 -347.18,66.9 -347.18,-152.76l0 -138.87 347.18 0 0 -194.42 -347.18 0 0 -111.1c0,-214.66 347.18,-34.55 347.18,-152.76l0 -152.76c-198.24,0 -541.6,-47.41 -541.6,319.41z"/>
   <path class="fil3" d="M5234.13 5912.18l83.32 0c13.76,-59.06 27.78,-106.36 27.78,-180.54 15.14,23.87 40.06,108.45 41.66,180.54l97.21 0c0,-120.65 55.55,-226.53 55.55,-347.18l-69.43 0 -41.66 180.54c-1.55,-69.38 -26.23,-111.15 -27.78,-180.54 -75.08,0 -111.1,-16.03 -111.1,152.76 -63.6,-46.59 -7.43,-52.47 -55.55,-152.76l-69.44 0 69.44 347.18z"/>
   <path class="fil3" d="M6400.65 5703.87c0,226.54 -18.58,208.31 83.32,208.31l0 -277.74 55.55 0c0,302.26 -22.74,277.74 83.32,277.74l0 -236.08c0,-157.87 -222.19,-171.19 -222.19,27.78z"/>
   <path class="fil3" d="M4164.81 5801.08c0,-160.14 -12.16,-137.39 27.78,-166.65 54.22,14.48 41.66,3.51 41.66,166.65 0,38.42 -10.72,33.4 -41.66,41.66 -23.41,-16.26 -27.78,-1.99 -27.78,-41.66zm-69.44 -138.87l0 152.76c0,144.44 208.31,134.06 208.31,0l0 -152.76c0,-140.91 -208.31,-143.07 -208.31,0z"/>
   <path class="fil3" d="M2998.3 5634.44l83.32 0 0 277.74 69.44 0 0 -277.74 83.32 0c-1.97,-88.42 7.86,-69.44 -236.08,-69.44l0 69.44z"/>
   <path class="fil3" d="M2651.12 2676.48c0,69.8 -12.49,62.18 -13.89,124.98l41.66 0 25.13 -39.02c18.2,40.26 2.17,27.76 44.31,39.02l35.41 -113.18 6.25 113.18 41.66 0c0,-69.27 -13.89,-96.21 -13.89,-180.54l-41.66 0 -55.55 97.21c-4.86,-58.38 -15.79,-45.76 -27.77,-97.21l-41.66 0 0 55.55z"/>
   <polygon class="fil7" points="1701.4,4357.26 1707.12,4477.76 1764.45,4484.09 1771.25,4229.29 1656.89,4217.95 1654.52,4334.35 "/>
   <path class="fil8" d="M1631.28 4885.8l140.96 20.45 -2.74 -140.51c-46.6,-15.85 -134.48,-30.21 -182.45,-6.51l68.95 -0.33c0,91.65 10.28,91.51 -24.72,126.89z"/>
   <polygon class="fil9" points="1679.7,4611.17 1759.89,4620.09 1764.45,4484.09 1707.12,4477.76 1679.7,4483.65 "/>
   <polygon class="fil3" points="2498.36,2648.7 2553.91,2648.7 2553.91,2801.46 2581.68,2801.46 2581.68,2648.7 2637.23,2648.7 2637.23,2620.93 2498.36,2620.93 "/>
  </g>
 </g>
</svg>
