<?xml version="1.0" encoding="utf-8"?>
<!-- Generator: Adobe Illustrator 17.1.0, SVG Export Plug-In . SVG Version: 6.00 Build 0)  -->
<!DOCTYPE svg PUBLIC "-//W3C//DTD SVG 1.1//EN" "http://www.w3.org/Graphics/SVG/1.1/DTD/svg11.dtd">
<svg version="1.1" id="Layer_1" xmlns="http://www.w3.org/2000/svg" xmlns:xlink="http://www.w3.org/1999/xlink" x="0px" y="0px"
	 viewBox="0 0 500 500" enable-background="new 0 0 500 500" xml:space="preserve">
<g id="Layer_x0020_1">
	<g id="_2023419676352">
		<path fill="#ED3425" d="M144.1,142.3c-3.6,11.6-1.1,120.8-1.1,142.6c0,21,2.4,49.5-4.6,67.3c-23.6,60.2-113.4,49.5-123-13.9
			c-6.3-41.4,27-77.4,67.8-73.9l-3.8-1.9l0.2-9.6c-15.1,0-22,1.9-32.7,6.5c-4.7,2-8.6,4.5-12.2,7.2c-30.6,22.1-40.9,64.5-22,98.5
			c12.7,22.9,36.1,36.5,60.7,38.4h12.2c20.9-1.7,41.4-12.1,55.7-32.6c14-20.2,13.2-34.1,13.2-66.6c0-53.2,0-106.4,0-159.7
			C149.9,140.7,151.2,140.6,144.1,142.3L144.1,142.3z"/>
		<path fill="#F78F20" d="M132.7,122.9c-1.7,42.8-0.2,89.1-0.2,132.3c0,22-0.1,44.1,0,66.1c0.1,25-5.9,34.8-18.7,47.3
			C102.9,379.3,82,385,63.1,379.5c-16.5-4.8-28.2-17-34.3-31.8c-7.7-18.6-2.6-39.2,7.3-52.2c9.8-12.9,22.1-20.1,45.3-20.7l2.3-0.5
			l-0.5-9.9c-40.8-3.5-74.1,32.5-67.8,73.9c9.6,63.4,99.3,74.1,123,13.9c7-17.7,4.6-46.3,4.6-67.3c0-21.8-2.4-130.9,1.1-142.6
			c0-4.3,0.7-13-0.4-16.7c-0.7-2.5-2-4-4.6-4.6C134.7,119.9,135.4,121.1,132.7,122.9L132.7,122.9z"/>
		<path fill="#FBED22" d="M121.2,113.8c2.2,37.7,0.3,81.4,0.3,119.7c0,19.8,0,39.5,0,59.3c0,17.4,2.4,41.2-4.7,54.9
			c-14.8,28.8-56.2,31.1-74.2,3.2c-19.3-30,4.4-66.6,38.8-65.8v-10.5c-23.2,0.7-35.5,7.8-45.3,20.7c-9.9,13-14.9,33.6-7.3,52.2
			c6.1,14.8,17.8,27.1,34.3,31.8c18.9,5.5,39.8-0.2,50.7-10.8c12.8-12.5,18.8-22.3,18.7-47.3c-0.1-22,0-44.1,0-66.1
			c0-43.2-1.6-89.5,0.2-132.3l0-39.9c-2.4-1.6-2.9-3.3-5.2-3.4h-0.6c-0.5,0-1.1,0.1-1.8,0.3C118.5,81.5,121.4,99.5,121.2,113.8
			L121.2,113.8z"/>
		<path fill="#010101" d="M409.8,282.6v62.7h16v-63.9c0-11.2,19.4-11.3,19.4,1.1v62.7h16v-62.7c0-12.4,19.4-12.3,19.4-1.1v63.9h16
			v-65c0-10.4-8.2-22.8-21.7-22.8c-14.2,0-10.7-0.5-21.7,6.8c-9.8-6.5-7.3-6.8-19.4-6.8C418.8,257.5,409.8,267.8,409.8,282.6z"/>
		<path fill="#79C043" d="M111,112.6c-1.4,13.7-0.5,181.3-0.5,199.6c0,18.5,0.2,29.3-10.5,39.2c-22.2,20.3-58.2,0.4-52.1-29.4
			c2.4-12.1,12.7-23.4,25.9-24.6c3.9-1.9,11.2-0.8,15,0.5l0.1-44.1l-0.6,20.9L88,286l-6.6-0.7C47,284.4,23.3,321,42.6,351
			c18,28,59.4,25.6,74.2-3.2c7.1-13.7,4.7-37.6,4.7-54.9c0-19.8,0-39.5,0-59.3c0-38.3,2-82.1-0.3-119.7
			C116,110.3,117.5,111.1,111,112.6L111,112.6z"/>
		<path fill="#29ABE2" d="M99.6,129.8c0,53.2,0,106.4,0,159.7c0,22.2,6.1,59.1-20.5,59.3c-25.7,0.1-28.8-38.1-1.6-40.9
			c2.9-2.9,2-2.9,2-10.4l-5.7,0c-13.3,1.2-23.5,12.6-25.9,24.6c-6,29.8,29.9,49.7,52.1,29.4c10.8-9.8,10.5-20.6,10.5-39.2
			c0-18.3-0.9-185.9,0.5-199.6l0-14.8c-2.5-1.6-3.4-2.6-6.8-3.4L99.8,98L99.6,129.8L99.6,129.8z"/>
		<path fill="#010101" d="M262.7,295.1h-8v-20.5h11.4c6.6,0,9.3,4.9,8.7,11C274.1,293,270.3,295.1,262.7,295.1z M238.7,345.3h16
			v-34.2h4.6c1.5,6.2,16.5,26.6,18.2,34.2h19.4c-1-3.8-8.2-14.6-10.8-18.9c-4-6.7-7.4-12.1-10.9-18.7c19.1-4.4,19-33.8,7.7-43.1
			c-10.1-8.3-29.7-6-44.2-6L238.7,345.3L238.7,345.3z"/>
		<path fill="#010101" d="M365.3,282.6c0-12.4,19.4-12.3,19.4-1.1v11.4h-19.4V282.6z M349.3,284.9v60.4h16v-36.5h19.4v36.5h16v-63.9
			C400.7,249.6,349.3,247.4,349.3,284.9z"/>
		<path fill="#49308D" d="M79.1,337.3c-12.1,0-12.9-18.2,0-18.2C91.3,319.1,91.3,337.3,79.1,337.3z M88.9,253.9l-0.1,44.1l0.2,11.5
			l-11.6-1.7c-27.2,2.8-24,41,1.6,40.9c26.6-0.1,20.5-37.1,20.5-59.3c0-53.2,0-106.4,0-159.7c-13.7-9.3-11.4,7.1-11.4,18.2
			c0,11.8,0,23.6,0,35.4C88.2,200.4,86.2,239.4,88.9,253.9L88.9,253.9z"/>
		<path fill="#010101" d="M206.8,329.3h-11.4v-54.7c22.2,0,19.4-3.6,19.4,43.3C214.8,324.2,213.3,329.3,206.8,329.3z M179.4,345.3
			c27.7,0,51.3,5.8,51.3-29.7c0-24.1,5.4-57-25.1-57h-26.2L179.4,345.3L179.4,345.3z"/>
		<path fill="#010101" d="M299.2,284.9c0,17.6-2.9,42.4,6.5,52.8c9,9.9,23.5,7.7,38,7.7v-12.5c0-10-28.5,5.5-28.5-12.5v-11.4h28.5
			v-16h-28.5v-9.1c0-17.6,28.5-2.8,28.5-12.5v-12.5C327.4,258.6,299.2,254.7,299.2,284.9L299.2,284.9z"/>
		<path fill="#010101" d="M373.3,392.1h6.8c1.1-4.9,2.3-8.7,2.3-14.8c1.2,2,3.3,8.9,3.4,14.8h8c0-9.9,4.6-18.6,4.6-28.5h-5.7
			l-3.4,14.8c-0.1-5.7-2.2-9.1-2.3-14.8c-6.2,0-9.1-1.3-9.1,12.5c-5.2-3.8-0.6-4.3-4.6-12.5h-5.7L373.3,392.1L373.3,392.1z"/>
		<path fill="#010101" d="M469.1,375c0,18.6-1.5,17.1,6.8,17.1v-22.8h4.6c0,24.8-1.9,22.8,6.8,22.8v-19.4
			C487.3,359.7,469.1,358.6,469.1,375L469.1,375z"/>
		<path fill="#010101" d="M285.5,382.9c0-13.2-1-11.3,2.3-13.7c4.5,1.2,3.4,0.3,3.4,13.7c0,3.2-0.9,2.7-3.4,3.4
			C285.8,385,285.5,386.2,285.5,382.9z M279.8,371.5v12.5c0,11.9,17.1,11,17.1,0v-12.5C296.9,360,279.8,359.8,279.8,371.5z"/>
		<path fill="#010101" d="M189.7,369.3h6.8v22.8h5.7v-22.8h6.8c-0.2-7.3,0.6-5.7-19.4-5.7V369.3L189.7,369.3z"/>
		<path fill="#010101" d="M161.2,126.3c0,5.7-1,5.1-1.1,10.3h3.4l2.1-3.2c1.5,3.3,0.2,2.3,3.6,3.2l2.9-9.3l0.5,9.3h3.4
			c0-5.7-1.1-7.9-1.1-14.8h-3.4l-4.6,8c-0.4-4.8-1.3-3.8-2.3-8h-3.4V126.3L161.2,126.3z"/>
		<polygon fill="#BB3E26" points="83.2,264.4 83.6,274.3 88.4,274.8 88.9,253.9 79.5,252.9 79.3,262.5 		"/>
		<path fill="#038CC0" d="M77.4,307.8l11.6,1.7l-0.2-11.5c-3.8-1.3-11-2.5-15-0.5l5.7,0C79.4,304.9,80.3,304.9,77.4,307.8
			L77.4,307.8z"/>
		<polygon fill="#C0B531" points="81.4,285.2 88,286 88.4,274.8 83.6,274.3 81.4,274.7 		"/>
		<polygon fill="#010101" points="148.6,124.1 153.2,124.1 153.2,136.6 155.5,136.6 155.5,124.1 160,124.1 160,121.8 148.6,121.8 		
			"/>
	</g>
</g>
</svg>
