<?xml version="1.0" encoding="UTF-8"?>
<!DOCTYPE svg PUBLIC "-//W3C//DTD SVG 1.1//EN" "http://www.w3.org/Graphics/SVG/1.1/DTD/svg11.dtd">
<!-- Creator: CorelDRAW 2018 (64-Bit Evaluation Version) -->
<svg xmlns="http://www.w3.org/2000/svg" xml:space="preserve" width="8.5in" height="11in" version="1.1" style="shape-rendering:geometricPrecision; text-rendering:geometricPrecision; image-rendering:optimizeQuality; fill-rule:evenodd; clip-rule:evenodd"
viewBox="0 0 8500 11000"
 xmlns:xlink="http://www.w3.org/1999/xlink">
 <defs>
  <style type="text/css">
   <![CDATA[
    .fil2 {fill:#0071BC}
    .fil1 {fill:#020506}
    .fil6 {fill:#040607}
    .fil3 {fill:#ED1C24}
    .fil5 {fill:#ED1D25}
    .fil4 {fill:#FCFDFD}
    .fil0 {fill:#FFFEFE}
   ]]>
  </style>
 </defs>
 <g id="Layer_x0020_1">
  <metadata id="CorelCorpID_0Corel-Layer"/>
  <g id="_1986565178976">
   <path class="fil0" d="M5025.63 6547.96l147.75 -1.19 2.02 391.41 -149.2 -0.26 -0.56 -389.96zm-3146 -200.32l155.96 0c27.95,0 45.93,23.81 49.6,46.46 3.65,22.52 0.96,69.95 0.96,95.11 87.91,-20.48 187.73,-3.86 232.58,80.9 16.28,-10.9 24.19,-23.93 39.57,-36.27 28.72,-23.04 63.67,-37.5 100.81,-45.81 147.35,-32.95 189.85,42.37 243.87,56.8 1.56,-70.17 113.61,-50.56 176.96,-50.56 26.39,0 29.26,10.11 50.56,10.11 1.44,0 43.53,-10.11 101.12,-10.11 0,-32.1 -11.64,-80.74 17.18,-104.17 7.59,-6.17 21.3,-12.11 33.39,-12.11 201.5,0 197.19,-19.53 197.19,116.29 26.33,0 53.59,3.83 60.67,30.33 24.47,-5.7 45.39,-23.12 70.07,-31.04 139.59,-44.81 283.28,42.88 299.02,101.83l10.11 0c7.53,-28.19 60.16,-65.52 87.56,-79.29 100.83,-50.64 195.53,-37.3 291.64,13.56 0,-43.85 -17.96,-182.02 40.45,-182.02l173.11 0c42.67,7.95 39.24,38.74 39.24,141.57 26.45,-2.2 38.5,-10.11 70.78,-10.11 74.07,0 79.55,29.53 126.4,40.45 3.81,-14.28 3.72,-12.96 16.21,-19.19 28.18,-14.04 129.86,-6.09 165.81,-6.09 33.42,0 9.99,16.8 52.31,2.17 44.61,-15.42 104.16,-18.15 148.62,-0.86 17.31,6.73 28.52,15.39 41.75,18.92 0,-66.85 -16.74,-166.85 50.56,-166.85l328.65 0c65.78,0 50.56,96.2 50.56,161.8 39.3,-26.31 139,-15.17 212.35,-15.17 19.51,0 27.54,8.03 35.83,19.79 35.27,50.06 -9.86,83.39 -44.67,117.99 -12.09,12.02 -24.46,22.77 -35.17,35.62 -13.86,16.64 -13.17,21.41 -31.83,33.9 19.96,37.74 51.87,80.34 75.84,116.29 21.78,32.67 65.73,79.31 65.73,121.35 0,21.77 -32.18,50.56 -55.61,50.56 -272.44,0 -164.41,0.74 -227.52,-45.5 -2.3,27.68 -22.8,45.5 -50.56,45.5l-500.55 0c-21.89,0 -41.19,-15.54 -47.44,-33.46 -9.99,-28.66 -3.12,-197.03 -3.12,-234.51l-5.06 0c0,35.81 7.19,213.17 -3.15,239.54 -5.97,15.22 -28.54,28.43 -47.41,28.43l-328.64 0c-24.65,0 -43.02,-15.63 -48.57,-37.38 -8.62,-33.78 -1.99,-198.9 -1.99,-240.7l-5.06 0c0,57.3 -0.07,114.61 0,171.91 0.08,62.43 2.65,106.17 -60.68,106.17 -81.44,0 -178.24,16.61 -192.13,-35.39 -23.12,12.23 -36.58,21.43 -65.06,31.01 -20.42,6.87 -53.22,14.49 -81.57,14.49 -186.47,0 -200.65,-91.24 -237.63,-101.12 -17.12,64.11 -221.91,157.56 -374.15,55.62 -25.88,17.33 -13.37,22.39 -54.36,31.59 -84.04,18.86 -203.78,9.61 -242.43,-73.56 -15.03,-32.33 -38.07,-156.17 -16.69,-200.72 -35.21,0 -56.26,8.79 -80.9,25.28 0,52.24 -0.26,104.54 0.04,156.77 0.15,26.65 1.11,48.79 -8.27,67.57 -21.74,43.54 -114.32,28.46 -188.95,28.46 -27.29,0 -45.11,-17.06 -50.56,-40.44 -21.64,5.78 -47.13,26.77 -75.74,35.48 -101.65,30.96 -192.06,12.07 -278.18,-45.6 -7.48,32.07 -21.11,50.56 -60.68,50.56 -165.72,0 -197.27,29.16 -197.19,-111.23 0.04,-55.62 0,-111.24 0,-166.85l-5.06 0c0,38.99 6.76,214.49 -3.15,244.59 -6.41,19.47 -24.25,33.49 -47.41,33.49l-151.68 0c-34.39,0 -39.44,-23.54 -55.62,-35.39 -99.25,66.46 -287.87,65.74 -358.98,-40.45 -32.13,21.52 -35.4,40.51 -80.86,60.71 -25.85,11.48 -74.04,25.24 -111.27,25.24 -82.33,0 -127.22,-3.43 -197.19,-40.45 -3.97,14.89 -3.36,14.49 -18,22.45 -30.64,16.66 -135.33,7.88 -174.13,7.88 -26.98,0 -32.68,-18.36 -50.56,-30.33 -3.98,14.89 -3.36,14.49 -18,22.45 -9.46,5.15 -15.63,7.88 -27.5,7.88 -165.72,0 -197.27,29.16 -197.19,-111.23 0.04,-55.62 0,-111.24 0,-166.85 -32.28,-7.52 -50.56,-26.22 -50.56,-65.73l0 -86.28c4.13,-32.57 17.49,-59.49 55.62,-60.34 0,-75.02 73.77,-138.65 142.12,-146.07l282.59 -5.61c84.32,0 60.67,108.85 60.67,176.96 96.05,-50.82 251.12,-61.02 339.65,9.22 15.75,12.49 22.23,27.3 34.5,36.29 16.37,-10.96 22.46,-21.74 41.34,-34.5 51.95,-35.1 105.89,-51.46 176.07,-51.46 59.5,0 108.93,25.27 156.74,50.56 0,-143.61 -9.17,-179.5 46.29,-187.07zm-996.38 202.42l152.94 -0.54 -0.1 388.65 -151.9 -0.06 -0.94 -388.04zm1848.94 263.89c-21.27,99.39 -144.59,159.98 -268.44,127.03 -254.78,-67.78 -169.78,-470.96 110.28,-403.32 122.43,29.56 183.81,162.28 161.74,241.96l-276.47 2.47c10.66,46.02 66.58,88.43 111.8,50.35 31.02,-26.11 20.45,-19.3 71.18,-18.99 29.96,0.19 59.97,-0.58 89.9,0.49zm979.72 -33.78l-276.38 4.15c1.83,44.41 63.19,81.63 107.93,49.83 34.56,-24.57 5.74,-21.21 69.58,-20.71 30.77,0.24 61.61,0.04 92.39,0.04 -15.86,99.81 -147.8,158.85 -266.27,127.62 -258.13,-68.04 -170.14,-469.24 105.94,-403.85 98.72,23.39 177.43,120.33 166.81,242.93zm-814.94 155.81l-144.67 0.94 -0.82 -388.3 141.3 -1.85 2.82 42.42c26.78,-27.74 60.46,-45.53 118.08,-44.7l0 106.49c-5.5,21.77 -100.56,9.09 -113.36,86.32 -9.61,58 3.56,138.18 -3.36,198.67zm1843.94 2.19l-152.01 0 -1.07 -392.34 142.64 0.1 3.55 32.3c34.47,-15.26 64.93,-49.94 138.22,-44.79 143.77,10.12 128.68,152.21 128.68,228.78 0,52.36 4.24,126.19 -1.52,175.94l-152.01 0c-10.77,-136.39 30.59,-280.29 -51.17,-280.01 -86.64,0.3 -42.09,150.41 -55.31,280.01zm-437.19 -1.03l-152.9 0.98 -0.83 -540.04 151.4 -1.33 0.04 178.07c39.25,-21.76 66.08,-48.44 130.48,-44.59 55.17,3.3 94.96,35.16 114.09,67.6 28.61,48.53 25.98,269.19 18.29,340.33l-152.33 0c-11.95,-124.89 29.59,-276.32 -51.14,-280.13 -85.62,-4.04 -48.95,149.41 -57.08,279.1zm-1221.52 -507.26l148.17 -0.01 0.4 114.26 65.19 0.69 0 113.4 -63.75 1.21c-4.1,30.26 -1.8,80.87 -1.6,113.21 0.33,51.93 14.86,54.96 65.5,47.87l-1.56 112.67c-248.37,45.98 -216.05,-72.82 -214.21,-274.69l-47.19 -0.58 -0.47 -112.32 47.56 -2.55 1.95 -113.16zm-1046.9 508.27l-151.39 0 -1.91 -541.29 151.4 0.48 -0.01 176.18c44.43,-20.96 68.64,-49.96 137.84,-42.75 50.71,5.28 88.65,38.13 107.43,69.4 30.28,50.43 23.08,266.13 18.2,337.37l-152.87 0.46c-7.72,-129.81 27.73,-278.19 -52.94,-279.9 -85.42,-1.81 -44.37,155 -55.75,280.05zm1960.85 -166.81l145.13 -3.17c-1,256.77 -402.2,232.99 -416.15,-11.23 -16.18,-283.24 399.01,-283.78 408.87,-65.19l-136.61 3.17c-49.91,-101.78 -129.54,-38.86 -120.73,56.85 8.73,94.89 110.24,134.51 119.49,19.56zm-2128.9 -2.57c17.49,239.3 -398.02,247.56 -415.18,-11.41 -18.44,-278.35 396.44,-289.27 408.79,-65.74l-133.69 3.29c-19.98,-22.12 -33.43,-69.73 -87.26,-45.22 -59.04,26.89 -42.87,175.52 17.31,189.05 61.08,13.73 51.43,-34.62 69.93,-67.3l140.09 -2.67zm-668.24 -112.73c21.02,25.19 150.69,19.44 206.88,63.55 62.85,49.34 52.03,142.52 -1.04,185.48 -105.67,85.53 -357,56.74 -354.16,-96.3l140.52 -3.36c15.09,26.41 18.85,49.27 56.35,51.78 38.24,2.56 52.6,-18.07 44.92,-50.53 -54.72,-27.87 -142.5,-12.95 -199.12,-52.78 -85.03,-59.82 -53.94,-241.46 204.2,-214.37 82.37,8.65 124.94,38.22 131.07,121.34l-136.24 3.18c-12.29,-18.68 -30.87,-52 -75.52,-33.14 -15.11,6.38 -15.15,6.61 -17.85,25.14zm4276.6 41.74c9.02,18.33 26.59,40.86 38.92,58.94 14.28,20.94 26.02,39.9 40.36,60.92 20.06,29.41 69.25,93.21 79.85,120.35l-166.09 0.17c-18.3,0 -20.94,-13.3 -28.48,-26.07 -10,-16.98 -54.37,-90.15 -67.59,-100.62 -36.28,31 -18.46,44.42 -22.79,125.15l-148.61 1.68c-6.02,-85.96 -1.17,-429.94 -1.13,-541.44l150.43 1.83 -0.07 249.39c14.35,-8.66 10.07,-7.63 24.7,-25.08 79.46,-94.78 29.17,-79.3 239.37,-76.95l-138.88 151.74zm-4592.32 -297.09l152.91 -0.13 0.09 88.63 -0.55 19.9 -152.37 -0.46 -0.07 -107.94zm4142.27 -3.43l149.85 -0.41 -0.01 107.5 -131.49 0.37 -18.34 -2.21 -0.01 -105.25zm-4381.63 151.36c7.48,-151.37 84.43,-147.05 224.45,-147.05l0 104.8c-42.64,0 -72.05,-5.91 -72.78,43.18l73.03 0 -2.25 109.5 -70.33 0 -0.88 279.05 -148.89 -0.74 -0.08 -278.07 -49.03 -1.59 -0.3 -106.95 47.07 -2.12z"/>
   <path class="fil1" d="M6673.99 6740.02c60.98,51.62 66.15,19.96 66.15,125.68 -1.4,-0.71 -3.33,-3.57 -4,-2.49 -0.66,1.05 -2.97,-1.85 -3.85,-2.52 -6.25,-4.77 -3.81,-2.7 -9.51,-7.78l-40.69 -34.99c-14.53,-11.86 -42.35,-33.36 -60.68,-40.66 -25.46,12.27 -49.7,29.96 -78.18,43.14 -27.44,12.7 -57.01,24.03 -88.32,33.2 -173.03,50.71 -341.05,25.99 -494.5,-62.3 -28.6,-16.46 -49.42,-36.19 -71.89,-48.84 48.28,-68.41 234.93,-133.46 343.69,-141.32 111.58,-8.06 210.65,12.43 307.72,55.67 30.64,13.65 54.65,32.78 81.48,44.63 43.63,-17.93 93.09,-76.83 116.94,-90.88 4.12,106.41 1.7,66.73 -64.37,129.45zm-837.92 178.94l0.94 19.31 961.37 -0.02 1.53 -19.28 -0.23 -375.91 -963.84 0 0.23 375.89z"/>
   <path class="fil2" d="M4303.71 6937.15c8.13,-129.69 -28.54,-283.14 57.08,-279.1 80.74,3.81 39.19,155.24 51.14,280.13l152.33 0c7.7,-71.15 10.32,-291.81 -18.29,-340.33 -19.12,-32.44 -58.92,-64.3 -114.09,-67.6 -64.39,-3.86 -91.23,22.82 -130.48,44.59l-0.04 -178.07 -151.4 1.33 0.83 540.04 152.9 -0.98z"/>
   <path class="fil3" d="M2035.29 6938.16c11.38,-125.06 -29.67,-281.87 55.75,-280.05 80.67,1.71 45.22,150.09 52.94,279.9l152.87 -0.46c4.88,-71.23 12.08,-286.94 -18.2,-337.37 -18.78,-31.27 -56.72,-64.12 -107.43,-69.4 -69.2,-7.21 -93.41,21.8 -137.84,42.75l0.01 -176.18 -151.4 -0.48 1.91 541.29 151.39 0z"/>
   <path class="fil2" d="M5614.48 6546.05c-210.2,-2.35 -159.92,-17.83 -239.37,76.95 -14.63,17.46 -10.35,16.42 -24.7,25.08l0.07 -249.39 -150.43 -1.83c-0.05,111.5 -4.89,455.48 1.13,541.44l148.61 -1.68c4.32,-80.73 -13.49,-94.15 22.79,-125.15 13.22,10.47 57.59,83.64 67.59,100.62 7.53,12.78 10.18,26.07 28.48,26.07l166.09 -0.17c-10.59,-27.14 -59.79,-90.94 -79.85,-120.35 -14.33,-21.02 -26.07,-39.98 -40.36,-60.92 -12.33,-18.08 -29.9,-40.61 -38.92,-58.94l138.88 -151.74z"/>
   <path class="fil0" d="M5835.84 6543.07l963.84 0 0.23 375.91 -1.53 19.28 -961.37 0.02 -0.94 -19.31 -0.23 -375.89zm-48.67 -33.65l0 465.15c0,11.65 3.52,15.17 15.17,15.17l1031.43 0c11.65,0 15.17,-3.52 15.17,-15.17l0 -465.15c0,-11.65 -3.52,-15.17 -15.17,-15.17l-1031.43 0c-11.65,0 -15.17,3.52 -15.17,15.17z"/>
   <path class="fil2" d="M4740.9 6938.17c13.22,-129.6 -31.33,-279.71 55.31,-280.01 81.76,-0.28 40.4,143.62 51.17,280.01l152.01 0c5.76,-49.76 1.52,-123.58 1.52,-175.94 0,-76.56 15.09,-218.65 -128.68,-228.78 -73.29,-5.16 -103.75,29.53 -138.22,44.79l-3.55 -32.3 -142.64 -0.1 1.07 392.34 152.01 0z"/>
   <path class="fil2" d="M3431.92 6695.64c14.56,-85.29 127.67,-67.97 125.89,-0.81l-125.89 0.81zm279.99 84.53c10.61,-122.59 -68.09,-219.54 -166.81,-242.93 -276.08,-65.39 -364.07,335.82 -105.94,403.85 118.46,31.22 250.41,-27.81 266.27,-127.62 -30.78,0 -61.62,0.2 -92.39,-0.04 -63.83,-0.5 -35.02,-3.85 -69.58,20.71 -44.73,31.8 -106.09,-5.43 -107.93,-49.83l276.38 -4.15z"/>
   <path class="fil3" d="M2458.29 6696.52c17.12,-92.56 124.09,-70.1 126.54,-1.83l-126.54 1.83zm273.9 117.42c-29.93,-1.07 -59.94,-0.31 -89.9,-0.49 -50.73,-0.31 -40.16,-7.12 -71.18,18.99 -45.22,38.07 -101.15,-4.33 -111.8,-50.35l276.47 -2.47c22.07,-79.68 -39.31,-212.4 -161.74,-241.96 -280.07,-67.63 -365.06,335.54 -110.28,403.32 123.86,32.95 247.18,-27.64 268.44,-127.03z"/>
   <path class="fil3" d="M1199 6656.05c2.7,-18.54 2.74,-18.76 17.85,-25.14 44.65,-18.86 63.24,14.46 75.52,33.14l136.24 -3.18c-6.13,-83.13 -48.7,-112.7 -131.07,-121.34 -258.14,-27.09 -289.22,154.55 -204.2,214.37 56.62,39.83 144.4,24.92 199.12,52.78 7.68,32.46 -6.68,53.09 -44.92,50.53 -37.5,-2.51 -41.25,-25.37 -56.35,-51.78l-140.52 3.36c-2.85,153.04 248.48,181.83 354.16,96.3 53.07,-42.96 63.89,-136.15 1.04,-185.48 -56.2,-44.11 -185.86,-38.35 -206.88,-63.55z"/>
   <path class="fil2" d="M3996.14 6771.35c-9.25,114.96 -110.76,75.34 -119.49,-19.56 -8.81,-95.71 70.83,-158.63 120.73,-56.85l136.61 -3.17c-9.87,-218.59 -425.06,-218.06 -408.87,65.19 13.95,244.22 415.15,268 416.15,11.23l-145.13 3.17z"/>
   <path class="fil3" d="M1867.24 6768.78l-140.09 2.67c-18.5,32.69 -8.85,81.04 -69.93,67.3 -60.19,-13.53 -76.35,-162.16 -17.31,-189.05 53.83,-24.51 67.28,23.1 87.26,45.22l133.69 -3.29c-12.35,-223.54 -427.24,-212.61 -408.79,65.74 17.17,258.97 432.67,250.71 415.18,11.41z"/>
   <path class="fil3" d="M643.93 6548.63l-47.07 2.12 0.3 106.95 49.03 1.59 0.08 278.07 148.89 0.74 0.88 -279.05 70.33 0 2.25 -109.5 -73.03 0c0.73,-49.09 30.14,-43.18 72.78,-43.18l0 -104.8c-140.02,0 -216.96,-4.32 -224.45,147.05z"/>
   <path class="fil2" d="M3080.24 6543.05l-47.56 2.55 0.47 112.32 47.19 0.58c-1.84,201.87 -34.16,320.67 214.21,274.69l1.56 -112.67c-50.64,7.09 -65.17,4.06 -65.5,-47.87 -0.2,-32.34 -2.5,-82.95 1.6,-113.21l63.75 -1.21 0 -113.4 -65.19 -0.69 -0.4 -114.26 -148.17 0.01 -1.95 113.16z"/>
   <path class="fil3" d="M2896.96 6935.98c6.91,-60.49 -6.25,-140.67 3.36,-198.67 12.8,-77.22 107.86,-64.55 113.36,-86.32l0 -106.49c-57.62,-0.83 -91.31,16.96 -118.08,44.7l-2.82 -42.42 -141.3 1.85 0.82 388.3 144.67 -0.94z"/>
   <path class="fil4" d="M6025.24 6726.32c11.48,-5.83 19.29,-4.22 29.04,-10.85 8.31,-5.65 7.99,-9.67 16.74,-18.24 12.78,-12.5 33.56,-24.22 49.41,-10.85 -13.4,30.08 -24.2,0.13 -37.74,33.82l51.22 1 -5.39 28.12 65.9 -35.87c40.93,-17.55 23.81,43.15 18.39,49.32 -7.55,8.58 -18.17,13.91 -30.56,10.36 -17.75,-5.09 -3.71,1.8 -12.03,-9.85l-3.84 -10.58c-29.31,17.86 -65.17,38.36 -69.53,-8.41 -0.22,-2.38 -0.46,-3.15 -1.25,-4.48 -65.65,-0.65 -13.07,29.58 -67.09,32.13l-3.27 -45.62zm240.3 23.48c44.61,-4.31 53.67,-71.7 90.53,-64.12l-19.64 42.86 31.14 -9.93c10.02,14.38 3.72,18.97 16.22,31.04 28.52,-11.92 12.35,-12.25 32.95,-30.52 15.92,-14.11 29.01,-12.4 41.75,-2.97 -1.51,16.32 2.12,9.14 -8.1,21.44l-18.61 15.73c38.59,-6.91 39.74,-18.42 64.93,-30.23 26.05,-12.22 6.65,0.46 26.4,-1.09 16.04,-1.26 13.04,-11.22 31.31,-0.24 -4.64,26.98 -6.86,7.7 -32.07,22.27 -16.27,9.4 -11.28,16.56 -27.33,27.31 -22.89,-6.94 -4.16,4.74 -14.52,-17.79 -52.03,36.73 -59.61,7.3 -86.74,13.31 -15.57,3.45 -7.61,6.12 -32.17,6 -0.96,-2.81 -3.22,-11.85 -4.41,-14.37 -4.93,-10.45 -2.65,-7.01 -8.79,-12.28 -8.26,5.67 -27.24,20.24 -34.73,22.69 -22.26,7.3 -14.77,-0.43 -20.89,-10.19 -77.1,36.02 -75.56,-17.09 -52.22,-33.6 4.7,-3.32 16.78,-7.97 22.52,-8.3 21.35,-1.24 10.19,-1.54 19.3,4.95 -9.33,27.74 -16,3.95 -31.4,25.28l14.56 2.74zm-308.65 -5.42c21.13,7.66 41.65,23.24 65.93,34.97 138.32,66.82 291.39,78.22 438.11,29.68 38.06,-12.59 115.39,-48.33 138.1,-70.02 -28.04,-24.85 -95.35,-54.4 -138.14,-69.04 -154.12,-52.73 -361.19,-31.56 -486.19,56.93l-17.82 17.48z"/>
   <polygon class="fil3" points="884.19,6938.1 1036.09,6938.16 1036.19,6549.52 883.25,6550.06 "/>
   <polygon class="fil2" points="5026.2,6937.92 5175.4,6938.17 5173.38,6546.76 5025.63,6547.96 "/>
   <path class="fil4" d="M6643 6737.92c11.95,11.44 32.26,25.24 47.36,36.24 14.52,10.58 37.19,22.69 27.13,46.41 -11.82,-9.63 -23.74,-18.58 -38.46,-29.92 -10.09,-7.77 -32.9,-24.8 -44.97,-31.4 -19.34,-10.58 -47.39,18.07 -95.78,41.33 -148.44,71.36 -312.73,78.01 -468.04,22.37 -65,-23.29 -102.31,-51.5 -150.32,-81.36 54.65,-66.5 233.2,-118.61 337.44,-122.59 102.66,-3.92 200.07,18.62 288.32,62.27 28.28,13.99 49.09,29.63 75.74,42.81 44.68,-21.33 72.26,-55.26 97.14,-67.5 1.85,36.87 -32.41,50.22 -75.56,81.35zm30.99 2.1c66.07,-62.72 68.49,-23.04 64.37,-129.45 -23.85,14.04 -73.31,72.95 -116.94,90.88 -26.83,-11.84 -50.84,-30.98 -81.48,-44.63 -97.07,-43.24 -196.15,-63.73 -307.72,-55.67 -108.76,7.86 -295.41,72.91 -343.69,141.32 22.47,12.65 43.29,32.39 71.89,48.84 153.45,88.29 321.47,113.01 494.5,62.3 31.31,-9.18 60.88,-20.51 88.32,-33.2 28.48,-13.18 52.72,-30.87 78.18,-43.14 18.33,7.3 46.15,28.8 60.68,40.66l40.69 34.99c5.7,5.09 3.26,3.02 9.51,7.78 0.87,0.67 3.19,3.57 3.85,2.52 0.67,-1.08 2.6,1.78 4,2.49 0,-105.72 -5.17,-74.06 -66.15,-125.68z"/>
   <path class="fil5" d="M5974.7 6726.9c125,-88.49 332.07,-109.66 486.19,-56.93 42.79,14.64 110.1,44.19 138.14,69.04 -22.71,21.69 -100.04,57.43 -138.1,70.02 -146.72,48.55 -299.79,37.15 -438.11,-29.68 -24.28,-11.73 -44.8,-27.31 -65.93,-34.97l17.82 -17.48zm668.3 11.02c43.15,-31.12 77.41,-44.47 75.56,-81.35 -24.88,12.24 -52.46,46.17 -97.14,67.5 -26.66,-13.18 -47.46,-28.82 -75.74,-42.81 -88.25,-43.65 -185.66,-66.19 -288.32,-62.27 -104.24,3.98 -282.79,56.09 -337.44,122.59 48.01,29.86 85.32,58.07 150.32,81.36 155.3,55.64 319.59,48.98 468.04,-22.37 48.38,-23.26 76.44,-51.91 95.78,-41.33 12.07,6.6 34.88,23.63 44.97,31.4 14.72,11.34 26.65,20.3 38.46,29.92 10.06,-23.71 -12.61,-35.83 -27.13,-46.41 -15.1,-11 -35.41,-24.8 -47.36,-36.24z"/>
   <polygon class="fil3" points="883.36,6508.65 1035.73,6509.1 1036.28,6489.2 1036.19,6400.57 883.28,6400.7 "/>
   <polygon class="fil2" points="5025.56,6502.52 5043.9,6504.73 5175.39,6504.36 5175.4,6396.86 5025.56,6397.27 "/>
   <path class="fil6" d="M6250.98 6747.06c15.4,-21.33 22.07,2.45 31.4,-25.28 -9.11,-6.49 2.06,-6.19 -19.3,-4.95 -5.74,0.33 -17.82,4.98 -22.52,8.3 -23.34,16.51 -24.89,69.62 52.22,33.6 6.12,9.77 -1.37,17.49 20.89,10.19 7.48,-2.45 26.47,-17.02 34.73,-22.69 6.13,5.27 3.85,1.83 8.79,12.28 1.19,2.52 3.45,11.56 4.41,14.37 24.56,0.11 16.59,-2.56 32.17,-6 27.13,-6 34.71,23.43 86.74,-13.31 10.36,22.53 -8.37,10.85 14.52,17.79 16.05,-10.76 11.06,-17.92 27.33,-27.31 25.21,-14.56 27.44,4.71 32.07,-22.27 -18.28,-10.99 -15.27,-1.02 -31.31,0.24 -19.74,1.55 -0.35,-11.13 -26.4,1.09 -25.19,11.81 -26.35,23.33 -64.93,30.23l18.61 -15.73c10.22,-12.3 6.59,-5.12 8.1,-21.44 -12.74,-9.43 -25.83,-11.14 -41.75,2.97 -20.6,18.27 -4.43,18.59 -32.95,30.52 -12.5,-12.06 -6.2,-16.65 -16.22,-31.04l-31.14 9.93 19.64 -42.86c-36.86,-7.59 -45.91,59.81 -90.53,64.12l-14.56 -2.74z"/>
   <path class="fil6" d="M6025.24 6726.32l3.27 45.62c54.02,-2.54 1.44,-32.78 67.09,-32.13 0.8,1.33 1.03,2.11 1.25,4.48 4.36,46.77 40.22,26.27 69.53,8.41l3.84 10.58c8.32,11.66 -5.72,4.77 12.03,9.85 12.39,3.55 23.01,-1.78 30.56,-10.36 5.42,-6.17 22.54,-66.87 -18.39,-49.32l-65.9 35.87 5.39 -28.12 -51.22 -1c13.53,-33.69 24.34,-3.74 37.74,-33.82 -15.85,-13.37 -36.63,-1.65 -49.41,10.85 -8.76,8.57 -8.44,12.59 -16.74,18.24 -9.75,6.62 -17.55,5.02 -29.04,10.85z"/>
   <path class="fil0" d="M2458.29 6696.52l126.54 -1.83c-2.45,-68.27 -109.42,-90.72 -126.54,1.83z"/>
   <path class="fil0" d="M3431.92 6695.64l125.89 -0.81c1.78,-67.16 -111.34,-84.48 -125.89,0.81z"/>
   <path class="fil1" d="M6950.07 6651c-69.87,0 -65.06,-72.41 -38.44,-94.06 32.84,-26.71 89,-8.54 89,43.5 0,25.42 -25.14,50.56 -50.56,50.56zm-70.79 -55.61c0,38.33 29.54,70.78 65.73,70.78 59.16,0 89.26,-66.65 51.74,-112.41 -38.16,-46.53 -117.47,-13.93 -117.47,41.63z"/>
   <path class="fil1" d="M6934.9 6590.32l0 -15.17 30.33 0c-5.54,20.75 -3.77,15.17 -30.33,15.17zm-15.17 45.5l15.17 0 10.11 -35.39c5.98,22.39 13.97,31.02 30.34,35.39 -5.28,-22.64 -10.06,-16.24 -15.17,-35.39 19.21,-5.13 54.59,-40.44 -40.45,-40.44l0 75.84z"/>
  </g>
 </g>
</svg>
