<?xml version="1.0" encoding="utf-8"?>
<!-- Generator: Adobe Illustrator 17.1.0, SVG Export Plug-In . SVG Version: 6.00 Build 0)  -->
<!DOCTYPE svg PUBLIC "-//W3C//DTD SVG 1.1//EN" "http://www.w3.org/Graphics/SVG/1.1/DTD/svg11.dtd">
<svg version="1.1" id="Layer_1" xmlns="http://www.w3.org/2000/svg" xmlns:xlink="http://www.w3.org/1999/xlink" x="0px" y="0px"
	 viewBox="0 0 500 500" enable-background="new 0 0 500 500" xml:space="preserve">
<g id="Layer_x0020_1">
	<g id="_1986565178976">
		<path fill="#FFFFFF" d="M346.1,212l11.4-0.1l0.2,30.1l-11.5,0L346.1,212L346.1,212z M104.4,196.6h12c2.1,0,3.5,1.8,3.8,3.6
			c0.3,1.7,0.1,5.4,0.1,7.3c6.8-1.6,14.4-0.3,17.9,6.2c1.3-0.8,1.9-1.8,3-2.8c2.2-1.8,4.9-2.9,7.7-3.5c11.3-2.5,14.6,3.3,18.7,4.4
			c0.1-5.4,8.7-3.9,13.6-3.9c2,0,2.2,0.8,3.9,0.8c0.1,0,3.3-0.8,7.8-0.8c0-2.5-0.9-6.2,1.3-8c0.6-0.5,1.6-0.9,2.6-0.9
			c15.5,0,15.1-1.5,15.1,8.9c2,0,4.1,0.3,4.7,2.3c1.9-0.4,3.5-1.8,5.4-2.4c10.7-3.4,21.8,3.3,23,7.8h0.8c0.6-2.2,4.6-5,6.7-6.1
			c7.7-3.9,15-2.9,22.4,1c0-3.4-1.4-14,3.1-14h13.3c3.3,0.6,3,3,3,10.9c2-0.2,3-0.8,5.4-0.8c5.7,0,6.1,2.3,9.7,3.1
			c0.3-1.1,0.3-1,1.2-1.5c2.2-1.1,10-0.5,12.7-0.5c2.6,0,0.8,1.3,4,0.2c3.4-1.2,8-1.4,11.4-0.1c1.3,0.5,2.2,1.2,3.2,1.5
			c0-5.1-1.3-12.8,3.9-12.8h25.2c5.1,0,3.9,7.4,3.9,12.4c3-2,10.7-1.2,16.3-1.2c1.5,0,2.1,0.6,2.8,1.5c2.7,3.8-0.8,6.4-3.4,9.1
			c-0.9,0.9-1.9,1.7-2.7,2.7c-1.1,1.3-1,1.6-2.4,2.6c1.5,2.9,4,6.2,5.8,8.9c1.7,2.5,5,6.1,5,9.3c0,1.7-2.5,3.9-4.3,3.9
			c-20.9,0-12.6,0.1-17.5-3.5c-0.2,2.1-1.8,3.5-3.9,3.5h-38.5c-1.7,0-3.2-1.2-3.6-2.6c-0.8-2.2-0.2-15.1-0.2-18h-0.4
			c0,2.8,0.6,16.4-0.2,18.4c-0.5,1.2-2.2,2.2-3.6,2.2h-25.2c-1.9,0-3.3-1.2-3.7-2.9c-0.7-2.6-0.2-15.3-0.2-18.5h-0.4
			c0,4.4,0,8.8,0,13.2c0,4.8,0.2,8.2-4.7,8.2c-6.3,0-13.7,1.3-14.8-2.7c-1.8,0.9-2.8,1.6-5,2.4c-1.6,0.5-4.1,1.1-6.3,1.1
			c-14.3,0-15.4-7-18.3-7.8c-1.3,4.9-17,12.1-28.7,4.3c-2,1.3-1,1.7-4.2,2.4c-6.5,1.4-15.7,0.7-18.6-5.7c-1.2-2.5-2.9-12-1.3-15.4
			c-2.7,0-4.3,0.7-6.2,1.9c0,4,0,8,0,12c0,2,0.1,3.7-0.6,5.2c-1.7,3.3-8.8,2.2-14.5,2.2c-2.1,0-3.5-1.3-3.9-3.1
			c-1.7,0.4-3.6,2.1-5.8,2.7c-7.8,2.4-14.8,0.9-21.4-3.5c-0.6,2.5-1.6,3.9-4.7,3.9c-12.7,0-15.2,2.2-15.1-8.5c0-4.3,0-8.5,0-12.8
			h-0.4c0,3,0.5,16.5-0.2,18.8c-0.5,1.5-1.9,2.6-3.6,2.6h-11.7c-2.6,0-3-1.8-4.3-2.7c-7.6,5.1-22.1,5.1-27.6-3.1
			c-2.5,1.7-2.7,3.1-6.2,4.7c-2,0.9-5.7,1.9-8.5,1.9c-6.3,0-9.8-0.3-15.1-3.1c-0.3,1.1-0.3,1.1-1.4,1.7c-2.4,1.3-10.4,0.6-13.4,0.6
			c-2.1,0-2.5-1.4-3.9-2.3c-0.3,1.1-0.3,1.1-1.4,1.7c-0.7,0.4-1.2,0.6-2.1,0.6c-12.7,0-15.2,2.2-15.1-8.5c0-4.3,0-8.5,0-12.8
			c-2.5-0.6-3.9-2-3.9-5v-6.6c0.3-2.5,1.3-4.6,4.3-4.6c0-5.8,5.7-10.7,10.9-11.2l21.7-0.4c6.5,0,4.7,8.4,4.7,13.6
			c7.4-3.9,19.3-4.7,26.1,0.7c1.2,1,1.7,2.1,2.7,2.8c1.3-0.8,1.7-1.7,3.2-2.7c4-2.7,8.1-4,13.5-4c4.6,0,8.4,1.9,12,3.9
			C100.8,199.9,100.1,197.2,104.4,196.6L104.4,196.6z M27.8,212.1l11.7,0l0,29.9l-11.7,0L27.8,212.1L27.8,212.1z M169.9,232.4
			c-1.6,7.6-11.1,12.3-20.6,9.8c-19.6-5.2-13-36.2,8.5-31c9.4,2.3,14.1,12.5,12.4,18.6l-21.2,0.2c0.8,3.5,5.1,6.8,8.6,3.9
			c2.4-2,1.6-1.5,5.5-1.5C165.3,232.4,167.6,232.3,169.9,232.4L169.9,232.4z M245.1,229.8l-21.2,0.3c0.1,3.4,4.9,6.3,8.3,3.8
			c2.7-1.9,0.4-1.6,5.3-1.6c2.4,0,4.7,0,7.1,0c-1.2,7.7-11.4,12.2-20.5,9.8c-19.8-5.2-13.1-36,8.1-31
			C239.9,212.9,246,220.4,245.1,229.8L245.1,229.8z M182.5,241.8l-11.1,0.1l-0.1-29.8l10.9-0.1l0.2,3.3c2.1-2.1,4.6-3.5,9.1-3.4v8.2
			c-0.4,1.7-7.7,0.7-8.7,6.6C182.1,231,183.1,237.1,182.5,241.8L182.5,241.8z M324.2,241.9h-11.7l-0.1-30.1l11,0l0.3,2.5
			c2.6-1.2,5-3.8,10.6-3.4c11,0.8,9.9,11.7,9.9,17.6c0,4,0.3,9.7-0.1,13.5h-11.7c-0.8-10.5,2.4-21.5-3.9-21.5
			C321.8,220.4,325.2,232,324.2,241.9L324.2,241.9z M290.6,241.9l-11.7,0.1l-0.1-41.5l11.6-0.1l0,13.7c3-1.7,5.1-3.7,10-3.4
			c4.2,0.3,7.3,2.7,8.8,5.2c2.2,3.7,2,20.7,1.4,26.1h-11.7c-0.9-9.6,2.3-21.2-3.9-21.5C288.4,220.1,291.2,231.9,290.6,241.9
			L290.6,241.9z M196.8,202.9l11.4,0l0,8.8l5,0.1v8.7l-4.9,0.1c-0.3,2.3-0.1,6.2-0.1,8.7c0,4,1.1,4.2,5,3.7l-0.1,8.7
			c-19.1,3.5-16.6-5.6-16.5-21.1l-3.6,0l0-8.6l3.7-0.2L196.8,202.9L196.8,202.9z M116.3,241.9h-11.6l-0.1-41.6l11.6,0l0,13.5
			c3.4-1.6,5.3-3.8,10.6-3.3c3.9,0.4,6.8,2.9,8.3,5.3c2.3,3.9,1.8,20.4,1.4,25.9l-11.7,0c-0.6-10,2.1-21.4-4.1-21.5
			C114.1,220.3,117.2,232.3,116.3,241.9z M267,229.1l11.1-0.2c-0.1,19.7-30.9,17.9-32-0.9c-1.2-21.8,30.7-21.8,31.4-5l-10.5,0.2
			c-3.8-7.8-10-3-9.3,4.4C258.5,234.9,266.3,238,267,229.1L267,229.1z M103.4,228.9c1.3,18.4-30.6,19-31.9-0.9
			c-1.4-21.4,30.5-22.2,31.4-5.1l-10.3,0.3c-1.5-1.7-2.6-5.4-6.7-3.5c-4.5,2.1-3.3,13.5,1.3,14.5c4.7,1.1,4-2.7,5.4-5.2L103.4,228.9
			L103.4,228.9z M52.1,220.3c1.6,1.9,11.6,1.5,15.9,4.9c4.8,3.8,4,10.9-0.1,14.2c-8.1,6.6-27.4,4.4-27.2-7.4l10.8-0.3
			c1.2,2,1.4,3.8,4.3,4c2.9,0.2,4-1.4,3.5-3.9c-4.2-2.1-10.9-1-15.3-4.1c-6.5-4.6-4.1-18.5,15.7-16.5c6.3,0.7,9.6,2.9,10.1,9.3
			l-10.5,0.2c-0.9-1.4-2.4-4-5.8-2.5C52.3,218.8,52.3,218.8,52.1,220.3L52.1,220.3z M380.6,223.5c0.7,1.4,2,3.1,3,4.5
			c1.1,1.6,2,3.1,3.1,4.7c1.5,2.3,5.3,7.2,6.1,9.2l-12.8,0c-1.4,0-1.6-1-2.2-2c-0.8-1.3-4.2-6.9-5.2-7.7c-2.8,2.4-1.4,3.4-1.8,9.6
			l-11.4,0.1c-0.5-6.6-0.1-33-0.1-41.6l11.6,0.1l0,19.2c1.1-0.7,0.8-0.6,1.9-1.9c6.1-7.3,2.2-6.1,18.4-5.9L380.6,223.5L380.6,223.5z
			 M27.8,200.6l11.7,0l0,6.8l0,1.5l-11.7,0L27.8,200.6L27.8,200.6z M346.1,200.4l11.5,0l0,8.3l-10.1,0l-1.4-0.2L346.1,200.4
			L346.1,200.4z M9.5,212c0.6-11.6,6.5-11.3,17.2-11.3v8.1c-3.3,0-5.5-0.5-5.6,3.3h5.6l-0.2,8.4h-5.4l-0.1,21.4l-11.4-0.1l0-21.4
			l-3.8-0.1l0-8.2L9.5,212L9.5,212z"/>
		<path fill="#07090A" d="M472.7,226.7c4.7,4,5.1,1.5,5.1,9.7c-0.1-0.1-0.3-0.3-0.3-0.2c-0.1,0.1-0.2-0.1-0.3-0.2
			c-0.5-0.4-0.3-0.2-0.7-0.6l-3.1-2.7c-1.1-0.9-3.3-2.6-4.7-3.1c-2,0.9-3.8,2.3-6,3.3c-2.1,1-4.4,1.8-6.8,2.6
			c-13.3,3.9-26.2,2-38-4.8c-2.2-1.3-3.8-2.8-5.5-3.8c3.7-5.3,18-10.3,26.4-10.9c8.6-0.6,16.2,1,23.6,4.3c2.4,1,4.2,2.5,6.3,3.4
			c3.4-1.4,7.2-5.9,9-7C478,224.9,477.8,221.9,472.7,226.7L472.7,226.7z M408.3,240.5l0.1,1.5l73.9,0l0.1-1.5l0-28.9h-74
			L408.3,240.5L408.3,240.5z"/>
		<path fill="#1072BA" d="M290.6,241.9c0.6-10-2.2-21.8,4.4-21.4c6.2,0.3,3,11.9,3.9,21.5h11.7c0.6-5.5,0.8-22.4-1.4-26.1
			c-1.5-2.5-4.5-4.9-8.8-5.2c-4.9-0.3-7,1.8-10,3.4l0-13.7l-11.6,0.1l0.1,41.5L290.6,241.9L290.6,241.9z"/>
		<path fill="#EC2227" d="M116.3,241.9c0.9-9.6-2.3-21.7,4.3-21.5c6.2,0.1,3.5,11.5,4.1,21.5l11.7,0c0.4-5.5,0.9-22-1.4-25.9
			c-1.4-2.4-4.4-4.9-8.3-5.3c-5.3-0.6-7.2,1.7-10.6,3.3l0-13.5l-11.6,0l0.1,41.6H116.3L116.3,241.9z"/>
		<path fill="#1072BA" d="M391.3,211.8c-16.1-0.2-12.3-1.4-18.4,5.9c-1.1,1.3-0.8,1.3-1.9,1.9l0-19.2l-11.6-0.1
			c0,8.6-0.4,35,0.1,41.6l11.4-0.1c0.3-6.2-1-7.2,1.8-9.6c1,0.8,4.4,6.4,5.2,7.7c0.6,1,0.8,2,2.2,2l12.8,0c-0.8-2.1-4.6-7-6.1-9.2
			c-1.1-1.6-2-3.1-3.1-4.7c-0.9-1.4-2.3-3.1-3-4.5L391.3,211.8L391.3,211.8z"/>
		<path fill="#FFFFFF" d="M408.3,211.6h74l0,28.9l-0.1,1.5l-73.9,0l-0.1-1.5L408.3,211.6L408.3,211.6z M404.6,209v35.7
			c0,0.9,0.3,1.2,1.2,1.2H485c0.9,0,1.2-0.3,1.2-1.2V209c0-0.9-0.3-1.2-1.2-1.2h-79.2C404.8,207.8,404.6,208.1,404.6,209z"/>
		<path fill="#1072BA" d="M324.2,241.9c1-10-2.4-21.5,4.2-21.5c6.3,0,3.1,11,3.9,21.5h11.7c0.4-3.8,0.1-9.5,0.1-13.5
			c0-5.9,1.2-16.8-9.9-17.6c-5.6-0.4-8,2.3-10.6,3.4l-0.3-2.5l-11,0l0.1,30.1L324.2,241.9L324.2,241.9z"/>
		<path fill="#1072BA" d="M223.6,223.3c1.1-6.6,9.8-5.2,9.7-0.1L223.6,223.3z M245.1,229.8c0.8-9.4-5.2-16.9-12.8-18.7
			c-21.2-5-28,25.8-8.1,31c9.1,2.4,19.2-2.1,20.5-9.8c-2.4,0-4.7,0-7.1,0c-4.9,0-2.7-0.3-5.3,1.6c-3.4,2.4-8.2-0.4-8.3-3.8
			L245.1,229.8L245.1,229.8z"/>
		<path fill="#EC2227" d="M148.8,223.4c1.3-7.1,9.5-5.4,9.7-0.1L148.8,223.4z M169.9,232.4c-2.3-0.1-4.6,0-6.9,0
			c-3.9,0-3.1-0.5-5.5,1.5c-3.5,2.9-7.8-0.3-8.6-3.9l21.2-0.2c1.7-6.1-3-16.3-12.4-18.6c-21.5-5.2-28,25.8-8.5,31
			C158.8,244.7,168.3,240,169.9,232.4L169.9,232.4z"/>
		<path fill="#EC2227" d="M52.1,220.3c0.2-1.4,0.2-1.4,1.4-1.9c3.4-1.4,4.9,1.1,5.8,2.5l10.5-0.2c-0.5-6.4-3.7-8.7-10.1-9.3
			c-19.8-2.1-22.2,11.9-15.7,16.5c4.3,3.1,11.1,1.9,15.3,4.1c0.6,2.5-0.5,4.1-3.5,3.9c-2.9-0.2-3.2-1.9-4.3-4L40.7,232
			c-0.2,11.8,19.1,14,27.2,7.4c4.1-3.3,4.9-10.5,0.1-14.2C63.7,221.8,53.7,222.2,52.1,220.3L52.1,220.3z"/>
		<path fill="#1072BA" d="M267,229.1c-0.7,8.8-8.5,5.8-9.2-1.5c-0.7-7.4,5.4-12.2,9.3-4.4l10.5-0.2c-0.8-16.8-32.7-16.8-31.4,5
			c1.1,18.8,31.9,20.6,32,0.9L267,229.1L267,229.1z"/>
		<path fill="#EC2227" d="M103.4,228.9l-10.8,0.2c-1.4,2.5-0.7,6.2-5.4,5.2c-4.6-1-5.9-12.5-1.3-14.5c4.1-1.9,5.2,1.8,6.7,3.5
			l10.3-0.3c-0.9-17.2-32.8-16.3-31.4,5.1C72.9,247.9,104.8,247.3,103.4,228.9L103.4,228.9z"/>
		<path fill="#EC2227" d="M9.5,212l-3.6,0.2l0,8.2l3.8,0.1l0,21.4l11.4,0.1l0.1-21.4h5.4l0.2-8.4h-5.6c0.1-3.8,2.3-3.3,5.6-3.3v-8.1
			C15.9,200.7,10,200.4,9.5,212L9.5,212z"/>
		<path fill="#1072BA" d="M196.6,211.6l-3.7,0.2l0,8.6l3.6,0c-0.1,15.5-2.6,24.6,16.5,21.1l0.1-8.7c-3.9,0.5-5,0.3-5-3.7
			c0-2.5-0.2-6.4,0.1-8.7l4.9-0.1v-8.7l-5-0.1l0-8.8l-11.4,0L196.6,211.6L196.6,211.6z"/>
		<path fill="#EC2227" d="M182.5,241.8c0.5-4.6-0.5-10.8,0.3-15.3c1-5.9,8.3-5,8.7-6.6v-8.2c-4.4-0.1-7,1.3-9.1,3.4l-0.2-3.3
			l-10.9,0.1l0.1,29.8L182.5,241.8L182.5,241.8z"/>
		<path fill="#FDFEFF" d="M422.9,225.7c0.9-0.4,1.5-0.3,2.2-0.8c0.6-0.4,0.6-0.7,1.3-1.4c1-1,2.6-1.9,3.8-0.8c-1,2.3-1.9,0-2.9,2.6
			l3.9,0.1l-0.4,2.2l5.1-2.8c3.1-1.3,1.8,3.3,1.4,3.8c-0.6,0.7-1.4,1.1-2.3,0.8c-1.4-0.4-0.3,0.1-0.9-0.8l-0.3-0.8
			c-2.3,1.4-5,2.9-5.3-0.6c0-0.2,0-0.2-0.1-0.3c-5,0-1,2.3-5.2,2.5L422.9,225.7L422.9,225.7z M441.3,227.5c3.4-0.3,4.1-5.5,7-4.9
			l-1.5,3.3l2.4-0.8c0.8,1.1,0.3,1.5,1.2,2.4c2.2-0.9,0.9-0.9,2.5-2.3c1.2-1.1,2.2-1,3.2-0.2c-0.1,1.3,0.2,0.7-0.6,1.6l-1.4,1.2
			c3-0.5,3.1-1.4,5-2.3c2-0.9,0.5,0,2-0.1c1.2-0.1,1-0.9,2.4,0c-0.4,2.1-0.5,0.6-2.5,1.7c-1.2,0.7-0.9,1.3-2.1,2.1
			c-1.8-0.5-0.3,0.4-1.1-1.4c-4,2.8-4.6,0.6-6.7,1c-1.2,0.3-0.6,0.5-2.5,0.5c-0.1-0.2-0.2-0.9-0.3-1.1c-0.4-0.8-0.2-0.5-0.7-0.9
			c-0.6,0.4-2.1,1.6-2.7,1.7c-1.7,0.6-1.1,0-1.6-0.8c-5.9,2.8-5.8-1.3-4-2.6c0.4-0.3,1.3-0.6,1.7-0.6c1.6-0.1,0.8-0.1,1.5,0.4
			c-0.7,2.1-1.2,0.3-2.4,1.9L441.3,227.5L441.3,227.5z M417.6,227.1c1.6,0.6,3.2,1.8,5.1,2.7c10.6,5.1,22.4,6,33.7,2.3
			c2.9-1,8.9-3.7,10.6-5.4c-2.2-1.9-7.3-4.2-10.6-5.3c-11.8-4.1-27.7-2.4-37.4,4.4L417.6,227.1L417.6,227.1z"/>
		<polygon fill="#EC2227" points="27.9,241.9 39.6,241.9 39.6,212.1 27.8,212.1 		"/>
		<polygon fill="#1072BA" points="346.1,241.9 357.6,241.9 357.4,211.9 346.1,212 		"/>
		<path fill="#FDFEFF" d="M470.3,226.6c0.9,0.9,2.5,1.9,3.6,2.8c1.1,0.8,2.9,1.7,2.1,3.6c-0.9-0.7-1.8-1.4-3-2.3
			c-0.8-0.6-2.5-1.9-3.5-2.4c-1.5-0.8-3.6,1.4-7.4,3.2c-11.4,5.5-24,6-36,1.7c-5-1.8-7.9-4-11.5-6.3c4.2-5.1,17.9-9.1,25.9-9.4
			c7.9-0.3,15.4,1.4,22.1,4.8c2.2,1.1,3.8,2.3,5.8,3.3c3.4-1.6,5.6-4.2,7.5-5.2C476.3,223.1,473.6,224.2,470.3,226.6L470.3,226.6z
			 M472.7,226.7c5.1-4.8,5.3-1.8,4.9-9.9c-1.8,1.1-5.6,5.6-9,7c-2.1-0.9-3.9-2.4-6.3-3.4c-7.5-3.3-15.1-4.9-23.6-4.3
			c-8.4,0.6-22.7,5.6-26.4,10.9c1.7,1,3.3,2.5,5.5,3.8c11.8,6.8,24.7,8.7,38,4.8c2.4-0.7,4.7-1.6,6.8-2.6c2.2-1,4.1-2.4,6-3.3
			c1.4,0.6,3.5,2.2,4.7,3.1l3.1,2.7c0.4,0.4,0.3,0.2,0.7,0.6c0.1,0.1,0.2,0.3,0.3,0.2c0.1-0.1,0.2,0.1,0.3,0.2
			C477.8,228.2,477.4,230.7,472.7,226.7L472.7,226.7z"/>
		<path fill="#EC2428" d="M419,225.7c9.6-6.8,25.5-8.4,37.4-4.4c3.3,1.1,8.5,3.4,10.6,5.3c-1.7,1.7-7.7,4.4-10.6,5.4
			c-11.3,3.7-23,2.9-33.7-2.3c-1.9-0.9-3.4-2.1-5.1-2.7L419,225.7L419,225.7z M470.3,226.6c3.3-2.4,5.9-3.4,5.8-6.2
			c-1.9,0.9-4,3.5-7.5,5.2c-2-1-3.6-2.2-5.8-3.3c-6.8-3.4-14.3-5.1-22.1-4.8c-8,0.3-21.7,4.3-25.9,9.4c3.7,2.3,6.6,4.5,11.5,6.3
			c11.9,4.3,24.6,3.8,36-1.7c3.7-1.8,5.9-4,7.4-3.2c0.9,0.5,2.7,1.8,3.5,2.4c1.1,0.9,2,1.6,3,2.3c0.8-1.8-1-2.8-2.1-3.6
			C472.8,228.5,471.2,227.4,470.3,226.6L470.3,226.6z"/>
		<polygon fill="#EC2227" points="27.9,208.9 39.6,209 39.6,207.4 39.6,200.6 27.8,200.6 		"/>
		<polygon fill="#1072BA" points="346.1,208.5 347.5,208.6 357.6,208.6 357.6,200.4 346.1,200.4 		"/>
		<path fill="#07090A" d="M440.2,227.3c1.2-1.6,1.7,0.2,2.4-1.9c-0.7-0.5,0.2-0.5-1.5-0.4c-0.4,0-1.4,0.4-1.7,0.6
			c-1.8,1.3-1.9,5.3,4,2.6c0.5,0.8-0.1,1.3,1.6,0.8c0.6-0.2,2-1.3,2.7-1.7c0.5,0.4,0.3,0.1,0.7,0.9c0.1,0.2,0.3,0.9,0.3,1.1
			c1.9,0,1.3-0.2,2.5-0.5c2.1-0.5,2.7,1.8,6.7-1c0.8,1.7-0.6,0.8,1.1,1.4c1.2-0.8,0.8-1.4,2.1-2.1c1.9-1.1,2.1,0.4,2.5-1.7
			c-1.4-0.8-1.2-0.1-2.4,0c-1.5,0.1,0-0.9-2,0.1c-1.9,0.9-2,1.8-5,2.3l1.4-1.2c0.8-0.9,0.5-0.4,0.6-1.6c-1-0.7-2-0.9-3.2,0.2
			c-1.6,1.4-0.3,1.4-2.5,2.3c-1-0.9-0.5-1.3-1.2-2.4l-2.4,0.8l1.5-3.3c-2.8-0.6-3.5,4.6-7,4.9L440.2,227.3L440.2,227.3z"/>
		<path fill="#07090A" d="M422.9,225.7l0.3,3.5c4.2-0.2,0.1-2.5,5.2-2.5c0.1,0.1,0.1,0.2,0.1,0.3c0.3,3.6,3.1,2,5.3,0.6l0.3,0.8
			c0.6,0.9-0.4,0.4,0.9,0.8c1,0.3,1.8-0.1,2.3-0.8c0.4-0.5,1.7-5.1-1.4-3.8l-5.1,2.8l0.4-2.2l-3.9-0.1c1-2.6,1.9-0.3,2.9-2.6
			c-1.2-1-2.8-0.1-3.8,0.8c-0.7,0.7-0.6,1-1.3,1.4C424.3,225.3,423.8,225.2,422.9,225.7L422.9,225.7z"/>
		<path fill="#FFFFFF" d="M148.8,223.4l9.7-0.1C158.4,218,150.2,216.3,148.8,223.4z"/>
		<path fill="#FFFFFF" d="M223.6,223.3l9.7-0.1C233.4,218.1,224.8,216.8,223.6,223.3z"/>
		<path fill="#07090A" d="M493.9,219.9c-5.4,0-5-5.6-3-7.2c2.5-2.1,6.8-0.7,6.8,3.3C497.8,217.9,495.9,219.9,493.9,219.9z
			 M488.5,215.6c0,2.9,2.3,5.4,5,5.4c4.5,0,6.9-5.1,4-8.6C494.6,208.8,488.5,211.3,488.5,215.6L488.5,215.6z"/>
		<path fill="#07090A" d="M492.8,215.2V214h2.3C494.7,215.6,494.8,215.2,492.8,215.2z M491.6,218.7h1.2l0.8-2.7
			c0.5,1.7,1.1,2.4,2.3,2.7c-0.4-1.7-0.8-1.2-1.2-2.7c1.5-0.4,4.2-3.1-3.1-3.1L491.6,218.7L491.6,218.7z"/>
	</g>
</g>
</svg>
