<?xml version="1.0" encoding="UTF-8"?>
<!DOCTYPE svg PUBLIC "-//W3C//DTD SVG 1.1//EN" "http://www.w3.org/Graphics/SVG/1.1/DTD/svg11.dtd">
<!-- Creator: CorelDRAW 2018 (64-Bit Evaluation Version) -->
<svg xmlns="http://www.w3.org/2000/svg" xml:space="preserve" width="8.5in" height="11in" version="1.1" style="shape-rendering:geometricPrecision; text-rendering:geometricPrecision; image-rendering:optimizeQuality; fill-rule:evenodd; clip-rule:evenodd"
viewBox="0 0 8500 11000"
 xmlns:xlink="http://www.w3.org/1999/xlink">
 <defs>
  <style type="text/css">
   <![CDATA[
    .fil0 {fill:#00B9EE}
    .fil3 {fill:#AACD03}
    .fil1 {fill:#E50011}
    .fil2 {fill:#F9BE00}
   ]]>
  </style>
 </defs>
 <g id="Layer_x0020_1">
  <metadata id="CorelCorpID_0Corel-Layer"/>
  <g id="_1986705130496">
   <path class="fil0" d="M314.1 5193.59l316.99 0c0,-10.43 -1.86,-15.87 -1.77,-28.17l-7.05 -144.4c-1.14,-21.17 -1.06,-38.67 -1.69,-59.94l-3.64 -56.24c-0.65,-21.68 -1,-38.3 -1.65,-59.99l-3.64 -56.24c-0.65,-21.68 -1,-38.3 -1.65,-59.99l-3.64 -56.24c-0.63,-21.26 -0.55,-38.77 -1.69,-59.94 -0.52,-9.52 -1.85,-16.02 -1.76,-28.18 0.09,-12.38 -1.71,-17.56 -1.84,-28.09l-3.44 -88.13c0.09,-12.38 -1.71,-17.56 -1.84,-28.09l-3.44 -88.13c0.09,-12.38 -1.71,-17.55 -1.84,-28.09 -0.26,-21.62 -1.69,-38.07 -1.69,-59.94l4.24 13.37c1.34,5.54 2.11,8.5 3.51,14.1 2.68,10.72 4.71,18.86 7.39,29.59l201.47 812.86c2.5,9.98 4.8,19.17 7.4,29.58 2.02,8.07 5.92,21.02 6.69,30.29l232.46 0c0.18,-7.93 11.22,-48.43 13.74,-58.46l218.72 -880.13c0,70.3 -7.3,163.28 -7.04,234.22l-3.6 86.21c-0.12,9.91 0.03,20.08 0.08,30.02 0.06,12.35 -1.71,17.58 -1.84,28.09 -0.12,9.91 0.03,20.08 0.08,30.02 0.06,12.35 -1.71,17.58 -1.85,28.09 -0.13,10.52 0.07,21.27 0.11,31.81 0.05,12 -1.89,16.08 -1.84,28.09 0.04,10.01 0.04,20.01 0.08,30.02 0.05,12.01 -1.89,16.08 -1.85,28.09 0.04,10 0.04,20.01 0.08,30.02 0.05,12.01 -1.89,16.09 -1.84,28.09 0.04,10.01 0.04,20.01 0.08,30.02 0.05,12.01 -1.89,16.08 -1.84,28.09 0.04,10.59 0.11,21.21 0.1,31.8 -0.02,11.33 -1.92,15.75 -1.85,28.09 0.06,9.99 0.1,20.03 0.08,30.02 -0.02,11.33 -1.91,15.75 -1.84,28.09 0.06,10.52 0.22,21.29 0.09,31.79 -0.13,10.51 -1.91,15.74 -1.85,28.09l-1.75 89.82 302.9 0 0 -1227.39c0,-4.06 -1.23,-5.28 -5.28,-5.28l-447.31 0 -41.55 182.09c-22.17,87.64 -42.74,185.59 -63.74,274.37l-42.65 182.75c-7.44,30.42 -13.98,60.98 -21.11,91.59l-158.5 -730.8 -464.92 0 0 1232.68z"/>
   <path class="fil0" d="M4389.17 4881.89l0 -301.12c0,-44.85 12.69,-76.82 47.6,-96.8 63.63,-36.43 128.51,14.21 128.51,88l0 325.78c0,40.62 -11.31,76.23 -39.26,99.87 -19.76,16.71 -25.86,16.36 -45.28,16.36 -29.61,0 -53.22,-20.88 -68.7,-42.25 -17.31,-23.91 -22.88,-48.95 -22.88,-89.83zm-302.9 311.69l288.81 0 0 -75.72c12.63,14.53 25.97,27.15 41.04,39.96 77.96,66.28 197.35,88.56 292.98,43.98 84.87,-39.55 159.07,-132.74 159.07,-230.11l0 -452.57c0,-33.98 -6.89,-81.61 -18.33,-111.99 -10.5,-27.88 -28.3,-62.58 -49.02,-83.06 -35.41,-35 -69.21,-63.03 -121.51,-73.96 -51.94,-10.87 -79.23,-8.82 -129.78,1.46 -19.44,3.95 -43.97,12.39 -60.61,20.4 -18.82,9.06 -33.82,17.56 -51.22,28.02l-36.22 23.65c-5.56,4.01 -5.5,5.2 -12.32,8.81l0 -387.41 -302.9 0 0 1248.52z"/>
   <path class="fil1" d="M5660.65 4600.14c0,-48.89 15.28,-88.46 47.99,-121.07 50.32,-50.17 125.67,-64.8 188.6,-34.51 20.94,10.08 31.07,17.32 46.5,32.75 27.03,27.05 49.75,66.14 49.75,108.74 0,46.41 -5.33,68.39 -29.93,105.67 -25.04,37.94 -80.15,70.43 -126.8,70.43 -54.67,0 -89.76,-11.51 -128.11,-49.74 -14.59,-14.54 -23.26,-26.72 -32.75,-46.5 -7.84,-16.32 -15.24,-42.39 -15.24,-65.77zm61.64 -408.54c-23.73,0.53 -66.76,22.02 -88.65,32.87 -8.83,4.37 -18.33,9.67 -25.82,14.68 -18.46,-16.05 -107.17,-79.59 -130.31,-95.09l-102.58 101.7c5.54,8.06 10.66,14.16 15.94,21.92 9.34,13.71 77.72,103.51 77.32,110.33 -0.11,1.82 -21.81,42.21 -25.17,50.3 -7.79,18.71 -12.78,37.24 -19.3,56.42 -3.54,10.42 -17.02,8.69 -26.93,10.06 -48.51,6.73 -98.19,16.82 -147.52,23.3 -7.16,0.94 -13.03,-0.29 -13.03,6.35l0 142.64c0,7.19 9.84,5.53 16.36,6.54l62.11 10.09c21.26,3.41 86.16,11.13 101.99,16 6.72,2.07 3.99,-0.11 6.34,5.98 5.64,14.61 8.89,30.83 14.68,45.2 9.05,22.46 19.54,44.41 32.73,64.12 -3.21,2.35 -9.62,12.04 -12.31,15.86l-82.78 114.45 101.7 102.57 130.75 -95.53c28.06,14.85 84.73,46.88 114.47,47.55 0.31,13.91 22.03,142.93 24.65,158.49 6.27,37.28 -6.83,28.17 63.41,28.17 30.52,0 61.05,0 91.57,0 6.93,-29.72 10.3,-61 15.11,-92.31 4.63,-30.14 7.99,-63.2 14.83,-92.59 13.08,-6.28 47.28,-13.9 87.48,-34.02 9.76,-4.89 17.83,-10.44 26.98,-15.28l130.31 95.09 102.58 -101.7 -24.09 -33.14c-20,-26.45 -51.03,-74.11 -71.44,-97.61 17.77,-33.58 33.05,-61.06 44.24,-98.39 6.22,-20.75 5.78,-16.2 27.7,-19.85 27.13,-4.52 53.9,-8.46 82.29,-12.81 14.28,-2.19 26.93,-4.18 41,-6.54 6.83,-1.15 13.61,-2.38 21.29,-3.37 6.81,-0.88 17.7,-0.07 17.7,-6.95l0 -142.64c0,-7.51 -34.38,-9.52 -43.53,-11.07l-94.35 -14.83c-16.14,-2.66 -32.85,-7.21 -48.79,-7.56 -0.58,-25.94 -31.41,-90.37 -47.55,-114.46 7.93,-5.81 40.81,-55.67 47.8,-64.91l47.3 -65.4 -101.7 -102.57 -130.75 95.53c-29.56,-19.79 -64.12,-33.8 -98.4,-44.25 -5.15,-1.57 -11.25,-2.75 -16.07,-5.06 -9.2,-39.5 -14.96,-95.46 -22.14,-138.11 -2.73,-16.2 -4.37,-32.07 -7.8,-46.79l-137.46 -0.1c-12.7,-0.22 -12.76,-2.18 -14.45,8.44 -3.7,23.24 -27.37,163.34 -27.7,178.33z"/>
   <path class="fil1" d="M2450.26 5188.3c0,4.06 1.22,5.28 5.28,5.28l294.09 0c8.77,0 5.28,-27.43 5.28,-44.02 0,-34.49 -1.5,-245.3 0.46,-253.12 1.33,-5.32 16.11,-24.5 20.35,-30.72 4.95,-7.29 15.6,-25.69 21.46,-29.61l43.44 88.64c7.7,15.39 14.22,30.25 21.72,45.2l65.74 133.24c7.73,15.47 14.82,29.65 22.31,44.61 4.47,8.94 19.28,37.85 21.13,45.78l302.9 0c-0.85,-10.17 -78.24,-154.71 -88.05,-174.33l-71.61 -139.7c-12.75,-25.49 -42.43,-86.13 -53.77,-104.72 -9.94,-16.29 -66.47,-133.28 -71.85,-139.47l35.73 -47.04c6.14,-8.23 11.32,-15.1 17.35,-23.15l196.98 -259.12c6.92,-9.23 33.59,-42.3 35.22,-49.3l-331.07 0c-10.46,19.76 -86.25,136.24 -105.69,165.51 -4.05,6.1 -7.17,11.72 -11.61,18.32l-68.72 107.38c-3.19,4.22 -0.08,0.17 -2.42,2.87l0 -605.77 -304.66 0 0 1243.24z"/>
   <path class="fil0" d="M7256.16 5193.59l302.9 0 0 -290.56c0,-12.67 36.83,-53.18 40.5,-66.92l156.15 312.28c5.19,10.37 19.56,35.9 21.72,45.2l302.9 0c-1.9,-8.15 -12.1,-25.95 -16.43,-34.63l-35.8 -69.86c-33.53,-67.72 -72.62,-139.91 -107.43,-209.55l-125.62 -244.19c5.28,-7.88 10.98,-15.77 17.2,-23.3 6.64,-8.04 12.05,-15.71 18.27,-23.99 12.12,-16.16 23.4,-30.61 35.72,-47.05l178.46 -235.37c3.97,-4.8 34.1,-43.18 35.63,-48.9l-331.07 0c-4.07,6.08 -7.19,11.72 -11.62,18.31 -35.33,52.68 -70.61,112.43 -106.02,165.17l-47.56 73.95c-5.08,7.93 -18.91,32.57 -24.99,36.64l0 -605.77 -302.9 0 0 1248.52z"/>
   <path class="fil2" d="M1890.24 4913.59c0,-27.54 11.88,-51.8 28.19,-70.43 24.81,-28.36 89.47,-55.96 123.85,-73.39 22.3,-11.3 46.59,-19.14 68.1,-30.52 0,51.07 -0.17,102.18 0.04,153.25 0.31,73.56 -54.59,130.11 -118.07,130.33 -8.94,0.03 -35.88,-8.3 -45.17,-12.97 -40.21,-20.21 -56.93,-48.28 -56.93,-96.27zm-287.05 -353.95l0 10.56 288.81 0c0,-112.2 38.81,-139.11 139.12,-139.11 39.86,0 79.25,45.2 79.25,79.24 0,19.96 -4.63,35.31 -17.34,51.34 -7.94,10.02 -18.74,21.44 -29.82,28.3 -43.81,27.13 -199.63,64.05 -265.67,86.54 -40.7,13.87 -46.88,18.79 -80.48,35.74 -7.31,3.69 -10.67,6.54 -17.58,10.59 -85.72,50.28 -96.29,139.02 -96.29,247.1 0,76.93 27.5,144.13 88.04,186.67l19.04 12.66c17.42,11.27 33.67,18.98 53.93,27.08 84.76,33.9 178.92,26.61 261.15,-8.54 49.28,-21.07 71.12,-37.49 97.94,-78.17 2.23,-3.39 0.57,-1.41 2.93,-4.11l10.57 68.67c1.21,7.33 -0.06,19.37 7.04,19.37l283.53 0c0,-11.07 -5.56,-25.31 -8.58,-33.68 -12.44,-34.41 -16.02,-53.31 -17.83,-89.59 -0.41,-8.13 -1.85,-10.87 -1.8,-21.09l0.04 -519.52c0,-56.02 2.39,-98.75 -28.15,-144.42 -16.3,-24.37 -37.3,-49.66 -60.63,-67.92 -46.07,-36.06 -88.35,-51.39 -154.22,-62.39 -18.03,-3.02 -60.34,-8.74 -77.5,-8.79 -9.79,-0.03 -11.33,-1.34 -19.36,-1.77l-65.17 -1.75c-50.3,0 -111.93,6.37 -158.14,17.96 -23.23,5.82 -44.85,12.89 -66.02,22.03 -29.13,12.59 -58.95,30.17 -82.69,51.15 -24.61,21.74 -39.96,48.03 -54.77,77.31 -17.69,34.99 -29.33,96.15 -29.33,148.52z"/>
   <path class="fil3" d="M3550.91 4586.06c0,-46.08 9.44,-124.28 43.72,-151.75 5.98,-4.79 13.7,-8.68 22.03,-11.43 26.7,-8.81 58.19,-5.54 82.48,4.39 15.51,6.34 26.8,16.56 36.45,28.7 35.41,44.57 33.69,85.65 33.69,138.89l-218.37 0 0 -8.8zm-288.81 -49.31l0 380.37c0,74.5 17.28,120.81 53.81,169.83 16.79,22.53 50.42,48.13 74.64,62.72 111.35,67.05 308.83,90.37 445.44,47.24 31.72,-10.02 74.4,-31.34 100.05,-53.16 11.48,-9.76 23.54,-19.86 33.48,-31.68l27.67 -37.49 22.39 -44.53c23.11,-64.1 24.43,-103.84 24.43,-172.8l-288.81 0c0,46.52 2.69,96.31 -26.12,132.37 -68.24,85.39 -178.16,31.19 -178.16,-79.54l0 -146.16 493.09 0 0 -232.45c0,-87.68 -18.59,-152.99 -75.28,-210 -8.09,-8.14 -13.9,-12.23 -22.78,-19.48 -101.37,-82.79 -299.09,-84.72 -429.9,-51.92 -154.94,38.86 -253.94,108.76 -253.94,286.69z"/>
   <path class="fil3" d="M6440.79 4506.81l0 408.54c0,159.09 86.75,231.7 214.63,269.65 82.93,24.61 226.69,21.9 308.2,-2.18 50.13,-14.81 86.48,-30.4 124.26,-58.89 74.54,-56.22 104.88,-166.51 104.88,-263.17l0 -70.44 -283.53 0c-8.6,0 -5.29,18.19 -5.28,26.41l0.01 95.11c0.29,55.66 -43.17,101.66 -91.47,98.62 -29.5,-1.85 -58.65,-26.82 -72.35,-54.58 -7,-14.18 -10.54,-31.53 -10.54,-52.86l0 -399.74c0,-90.42 134.9,-116.41 168.85,-27.96 8.44,22.01 5.88,87.14 5.39,117.87 -0.12,7.48 -1.74,13.98 5.39,13.98l283.53 0c0,-79.73 1.65,-140.96 -28.15,-216.62 -16.6,-42.13 -43.43,-78.74 -78.9,-102.48 -83.09,-55.61 -185.13,-73.59 -312.08,-73.59 -74.67,0 -187.5,14.65 -244.37,67.33 -49.81,46.15 -88.47,129.24 -88.47,224.99z"/>
   <polygon class="fil2" points="4915.72,5193.59 5220.39,5193.59 5220.39,3945.06 4915.72,3945.06 "/>
   <path class="fil0" d="M5717 5850.43l-68.68 0 68.68 -331.06c42.5,0 102.85,-4.9 130.61,10.27 47.29,25.83 47.25,77.27 47.25,125.32 0,45.87 -19.78,103.7 -48.07,138.59 -32.73,40.35 -58.04,56.88 -129.79,56.88zm-184.91 82.76l167.34 0.04 89.04 -6.05c36.3,-5.97 87.67,-27.7 110.37,-49.88 6.09,-5.95 11.35,-9.05 16.75,-14.95 3.46,-3.78 3.73,-5.12 7.02,-8.83 28.83,-32.44 51.58,-70.07 63.45,-112.65 20.55,-73.7 19.57,-152.91 -11.36,-215.06 -7.2,-14.48 -15.86,-25.84 -25.77,-37.63 -31.07,-36.98 -86.07,-53.35 -140.37,-53.35l-174.34 0c-7.19,0 -7.2,13.86 -9.83,27.15 -2.34,11.83 -4.37,19.94 -6.75,31.99l-79.54 378.32c-2.6,11.67 -3.98,20.74 -6.46,32.28 -1.26,5.89 -9.97,28.61 0.43,28.61z"/>
   <path class="fil0" d="M7261.44 5610.94c2.38,-10.22 7.04,-27.46 7.04,-38.74l-88.05 0c-6,0 -5.16,4.28 -6.15,9.7 -9.14,50.02 -21.89,102.61 -31.86,153.04l-34.92 167.59c-0.92,4.65 -5.87,26.15 -5.6,27.27 1.46,6.07 15.25,3.4 29.22,3.4 22.9,-0 45.79,0 68.68,0 7.69,-33.02 13.27,-67.4 21.13,-100.37 15.54,-65.2 18.69,-141 65.65,-180.89 9.23,-7.84 28.55,-17.02 43.79,-17.89 16.33,-0.93 34.97,11.21 34.97,26.2 0,35.56 -17.59,107.25 -25.08,142.21 -3.16,14.76 -25.99,117.56 -25.99,130.74l93.34 0c6.77,0 6.76,-9.6 8.08,-16.57l31.73 -151.41c10.52,-45.7 27.17,-113.24 79.66,-128.14 12.92,-3.67 30.75,-4.37 41.13,3.45 12.4,9.33 12.5,20.53 9.47,38.33 -11,64.59 -30.93,146.99 -44.3,214.57 -3.24,16.36 -12.44,39.76 -2.5,39.76 21.17,0 78.18,2.18 95.1,-1.76 0,-10.87 4.7,-26.08 6.6,-35.65 10.8,-54.45 47.99,-209.43 47.99,-251.38 0,-20.36 -9.67,-45.2 -23.39,-57.62l-10.83 -8.54c-4.37,-3.06 -8.74,-5.23 -13.8,-7.34 -46.25,-19.26 -110.99,-2.09 -147.92,30.78 -4.24,3.78 -7.55,5.33 -11.17,9.97 -4.34,5.57 -5.66,7.85 -11.28,11.62 -2.61,-31.33 -39.73,-59.87 -77.48,-59.87 -43.85,0 -65.31,4.21 -102.42,31.42 -10.97,8.05 -14.75,14.5 -20.85,16.13z"/>
   <path class="fil0" d="M314.1 5707.79l0 36.98c0,77.58 35.49,148 100.86,177.38 35.02,15.74 52.77,17.86 82.64,18.09l22.14 0 2.16 0c28.78,0 58.72,-8.32 80.02,-16.83 44.28,-17.71 80.73,-50.01 106.33,-89.14 9.31,-14.23 27.89,-48.91 32.02,-66.6 -7.8,-0.17 -17.39,-2.6 -26.12,-3.81 -8.2,-1.14 -16.24,-2.57 -25.95,-3.99l-53.59 -8.04c-12.46,53.5 -59.67,102.13 -123.28,102.13 -55.53,0 -95.09,-53.03 -95.09,-109.18 0,-59.39 2.72,-77.58 24.9,-131.83 4.15,-10.14 9.4,-19.39 15.26,-28.76 21.37,-34.18 64.83,-66.57 106.01,-66.57 21.02,0 35.34,-1.56 54.59,7.04 18.41,8.22 30.57,20.26 38.76,38.73l7.24 20.93c4.21,15.35 -2.37,16.42 32.23,11.52 12.39,-1.76 23.11,-1.52 35.49,-3.26 35.35,-4.94 42.02,6.63 29.98,-35.52 -25.5,-89.23 -92.45,-131.02 -187.72,-131.02 -81.38,0 -146.85,40.55 -185.34,84.1 -43.42,49.14 -73.54,131.45 -73.54,197.66z"/>
   <path class="fil0" d="M3931.3 5933.19l93.33 0c6.57,0 6.54,-8.3 7.8,-15.09l33.36 -158.58c2.19,-10.01 1.79,-10.48 7.1,-17.56l141.67 -194.68c7.06,-9.39 12.95,-17.86 20.14,-27.41l50.55 -69.2c8.75,-12.39 8.17,-8.15 8.81,-15.84l-119.75 0c-2.1,7.87 -111.11,159.65 -126.09,182.09l-18.31 27.47 -79.2 -184.95c-2.07,-4.74 -3.59,-8.46 -5.89,-13.48 -2.56,-5.6 -2.54,-11.13 -8.24,-11.13l-102.14 0c-8.61,0 -2.36,8.19 5.86,25.83l53.43 117.39c4.97,10.67 8.25,20.17 13.48,30.54l39.95 88.6c23.87,53.5 21.7,26.74 7.15,97 -5.06,24.4 -9.35,46.95 -14.65,71.64 -2.3,10.76 -4.87,22.4 -7.35,34.92 -3.43,17.31 -10.7,32.43 -1.03,32.43z"/>
   <path class="fil0" d="M4410.3 5864.52c-9.46,0 -23.61,-3.83 -30,-6.98 -69.46,-34.26 -41.31,-140.51 -4.49,-187.75 4.92,-6.31 9.27,-9.63 15.59,-14.35 29.35,-21.91 78.52,-24.07 104.39,3.84 35.48,38.27 15.35,116.37 -10.5,158.72 -6.22,10.2 -18.82,24.89 -28.43,31.44 -5.74,3.91 -13.15,7.57 -19.87,10.06 -5.34,1.98 -19.13,5.02 -26.69,5.02zm-15.85 75.72l1.9 0c39.72,-0.04 65.57,-1.5 101.43,-18.19 65.06,-30.28 115.04,-109.39 115.04,-180.8 0,-52.26 -1.61,-84.13 -36.44,-125.57 -14.34,-17.07 -34.18,-31.74 -55.36,-39.73 -68.1,-25.7 -163.63,-15.2 -218.59,39.84 -34.73,34.79 -53.08,68.62 -60.69,120.69 -12.5,85.65 9.78,150.55 79.32,185.57 19.36,9.75 45.31,18.19 73.38,18.19z"/>
   <path class="fil0" d="M995.63 5639.11l17.61 0c36.81,0 63.4,34.37 63.4,72.2 0,52.35 -16.17,92.75 -40.89,121.12 -45.44,52.15 -109.28,34.71 -128.72,-11.39 -5.5,-13.04 -5.16,-17.2 -7.07,-33.57 -3.91,-33.44 15.33,-95.59 40.63,-120.63 14.11,-13.96 31.57,-27.73 55.04,-27.73zm-11.42 301.13l-31.24 0c-30.33,-2.13 -59.84,-10.54 -84.92,-25.63 -22.06,-13.27 -42.86,-34.84 -53.08,-59.62 -16.28,-39.44 -14.81,-48.13 -14.81,-89.08 0,-57.22 26.07,-113.59 55.02,-142.22 12.98,-12.83 10.85,-11.88 25.98,-23.32 7.17,-5.42 21.5,-14.85 30.65,-18.65 45.57,-18.96 60.54,-18.32 108.48,-18.32 53.6,0 99.66,27.39 122.8,58.59 49.07,66.19 37.37,179.92 -13.19,241.19 -15.77,19.12 -25.01,30.72 -45.5,44.31 -28.79,19.11 -64.19,30.23 -100.18,32.75z"/>
   <path class="fil0" d="M6851.12 5866.28c-51.74,0 -57.76,-53.91 -25.05,-74.35 25.28,-15.8 65.76,-18.64 96.28,-23.47 5.87,-0.93 10.19,-2.15 15.06,-2.55 -0.18,8.1 -6.37,30.06 -8.57,37.21 -10.94,35.5 -33.91,63.16 -77.72,63.16zm-25.13 73.96l-21.14 0c-23.31,-2.21 -45.65,-11.98 -65.13,-31.25 -34.13,-33.77 -35.54,-94.59 -11.83,-136 3.02,-5.28 6.9,-9.46 10.49,-14.16 36.56,-47.83 144.16,-41.75 199.76,-53.83 9.06,-1.97 12.43,-2.06 14.88,-9.78 3.85,-12.14 3.75,-17.61 3.75,-29.7 0,-30.96 -57.93,-41.62 -89.1,-20.42 -12.67,8.62 -15.17,18.97 -20.09,29.22l-83.63 -6.21c-10.06,-1.31 -14.42,1.22 -11.54,-7.5 18.42,-55.82 79.01,-97.23 149.76,-97.23 38.98,0 80.96,0.09 112.02,23.58 61.84,46.77 33.03,118.08 18.44,187.88 -3.67,17.54 -7.32,34.61 -10.87,52.52 -6.24,31.46 -9.96,52.57 -3.25,84.58 0.93,4.44 2.33,9.03 3.3,12.94 1.36,5.49 2.8,8.3 -3.4,8.3l-86.29 0c-8.88,0 -11.68,-30.9 -12.33,-38.74 -10.82,7.24 -15.62,17.59 -40.49,29.95 -17.46,8.68 -35.5,14.22 -53.31,15.83z"/>
   <path class="fil0" d="M6581.68 5709.55l0 12.33 -149.69 0c4.97,-21.32 10.94,-39.96 22.62,-54.87 11.36,-14.5 26.63,-27.8 48.06,-31.19 51.11,-8.08 79.02,24.59 79.02,73.73zm-76.71 230.69l-28.92 0c-21,-1.61 -42.02,-6.71 -62.19,-15.33 -56.89,-24.3 -87.53,-86.77 -87.53,-150.2 0,-85.06 40.82,-157.17 107.53,-191.84 35.12,-18.26 66.2,-19.47 105.56,-19.47 49.84,0 91.35,28.2 114.42,68.72 7.45,13.09 13.72,35.96 16.45,52.23 2.19,13.03 5.43,99.17 -9.35,99.17l-239.5 0c0,24.89 4.38,47.19 18.89,62.11 14.58,14.99 27.31,24.18 51.55,24.18 34.99,0 66.5,-27.96 72.2,-49.31 12.12,0 76.95,11.09 89.81,14.09 -2.41,10.33 -17.72,33.03 -24.23,40.92 -32.54,39.45 -77.51,61.08 -124.68,64.74z"/>
   <path class="fil0" d="M1381.3 5614.46l0 0zm0 0c0,-14.65 6.73,-28.28 7.04,-42.26l-93.33 0 -8.81 44.02c-3.47,14.56 -6.51,29.69 -9.54,45.05l-28.46 135.32c-4.56,20.5 -27.16,123.63 -27.16,136.61l93.33 0c7,-1.52 4.45,-1.11 5.92,-8.17 10.8,-51.97 25.48,-128.02 37.75,-177.08 8.43,-33.69 14.59,-52.17 33.54,-75.65 6.91,-8.56 19.2,-17.89 28.78,-24.05 23.41,-15.06 61.45,-22.94 76.5,3.86 11.41,20.31 -1.6,64.7 -7.07,88.46 -3.64,15.8 -5.54,29.61 -9.19,45.41 -9.64,41.81 -18.35,93.7 -28.19,133.94 -4.07,16.64 -4.98,13.29 36.3,13.29 68.98,0 58.05,12.2 68.24,-39.18 12,-60.48 25.27,-119.39 37.28,-179.33 10.96,-54.76 19.74,-122.98 -51.98,-146.72 -50.31,-16.65 -105.37,4.64 -144.87,34.4 -6,4.52 -9.84,7.91 -16.08,12.09z"/>
   <path class="fil0" d="M4677.98 5848.67c0,54.2 36.87,91.57 89.81,91.57 48.19,0 72.33,-9.02 108.85,-33.79 9.48,-6.43 15.74,-12.85 24.98,-19.04 -2.25,9.67 -3.78,18.63 -6.03,29.22 -3.74,17.59 -5.66,16.87 14.81,16.6 24.59,-0.33 49.38,-0.03 74,-0.03 9.98,-42.83 18.5,-92.81 28.53,-135.24 13.4,-56.72 24.18,-121.99 37.7,-180.66l9.5 -45.09c-119.95,0 -96.28,-8.83 -104.97,28.87 -12.78,55.41 -30.28,173.71 -54.24,213.43 -8.38,13.89 -19.03,25.61 -31.7,35.22 -54.72,41.51 -90.86,9.43 -90.86,-13.38 0,-18.36 46.39,-236.48 52.83,-264.15l-100.38 0c-0.21,9.56 -4.86,25.08 -6.61,33.9l-21.44 101.82c-6.96,33.63 -24.78,110.13 -24.78,140.75z"/>
   <path class="fil0" d="M2587.62 5848.67c0,24.35 8.9,48.46 24.83,64.98 0.25,0.26 0.61,0.63 0.87,0.89 15.93,15.92 36.5,23.72 58.49,25.7l23.77 0c33.06,-2.75 66.75,-16.27 91.04,-33.46l24.66 -19.37c-0.6,7.17 -3.53,18.63 -4.83,25.11 -5.38,26.75 -19.69,20.68 84.07,20.68 7.32,0 11.04,-29.48 13.36,-41.23l65.89 -319.77 -98.62 0 -18.92 90.26c-6.04,30.38 -12.23,59.7 -19.13,90.04 -7.88,34.64 -13.8,52.89 -32.61,76.57 -41.01,51.61 -122.33,60.74 -109.99,-13.13l50.34 -243.75 -98.62 0 -43.59 204.71c-4.05,20.26 -11,49.63 -11,71.76z"/>
   <path class="fil0" d="M1693 5677.85c0,57.03 32.77,76.89 79,95.34 19.74,7.88 38.95,14.7 60.79,21.98 22.55,7.5 48.65,13.92 48.65,35.88 0,40.33 -83.4,50.85 -119.06,23.96 -7.81,-5.89 -16.92,-19 -21.79,-27.52 -2.52,-4.4 -3.2,-7.89 -5.31,-12.3 -15.1,1.26 -31.38,5.13 -47.25,7.34 -14.01,1.94 -32.54,6.75 -47.84,6.75 0,16.54 13.62,37.13 20.76,47.93 8.34,12.61 22.05,25.27 34.89,33.79 41.93,27.82 81.01,29.22 134.55,29.22 128.77,0 193.94,-120.46 126.39,-188.01 -15.11,-15.12 -33.05,-22.91 -54.68,-31.61 -31.8,-12.81 -64.96,-19.19 -96.69,-31.87 -26.8,-10.72 -35.68,-56.67 42.59,-56.67 22.71,0 44.42,8.39 58.56,24.21 6.49,7.26 6.16,9.79 10.12,18.06l71.19 -11.58c20.46,-3.85 23.13,1.28 16.7,-18.16 -18.06,-54.69 -71.9,-81.2 -128.39,-81.2l-35.22 0c-72.81,0 -147.93,43.18 -147.93,114.46z"/>
   <path class="fil0" d="M7772.15 5669.05c0,21.24 -1.43,33 8.75,52.89 25.34,49.51 105.52,60.43 160.31,84.47 26.96,11.83 26.11,37.7 -2.46,53.88 -25.07,14.19 -77.39,12.96 -98.36,-5.89 -14.94,-13.43 -18.33,-21.42 -27.73,-39.19l-82.07 13.04c-12.08,1.78 -18.8,-3.13 -4.23,25.71 39.07,77.31 101.61,86.28 183.16,86.28 54.8,0 108.95,-25.17 134.42,-66.33 17.24,-27.87 24.69,-70.49 8.2,-99.17 -15.69,-27.28 -42.67,-43.37 -72.44,-54.35l-62.47 -20.3c-28.61,-9.62 -51.73,-11.46 -51.73,-38.08 0,-31.7 65.8,-38.86 103.34,-18.81 16.56,8.85 18.67,15.43 26.98,31.13 8.2,-0.19 85.72,-13.89 89.81,-15.85 -0.53,-23.81 -24.38,-56.65 -44.34,-70.13 -38.22,-25.8 -74.6,-24.96 -121.2,-24.96 -50.43,0 -105.59,21.72 -131.09,59.1 -6.66,9.76 -16.84,31.28 -16.84,46.56z"/>
   <path class="fil0" d="M3013.79 5788.79c0,44.68 15.68,85.42 38.28,107.89 15.18,15.09 21.56,20.11 42.11,30.09 16.72,8.11 36.99,12.41 57.93,13.47l20.85 0c22.19,-1.09 44.06,-5.57 62.23,-12.81 19.85,-7.91 30.85,-15.9 46.05,-27.91 22.63,-17.89 56.42,-66.5 58.34,-89.58 -14.28,0 -77.32,-14.09 -95.1,-14.09 -4.21,7.96 -6.24,15.6 -11.28,23.94 -5.46,9.04 -8.46,12.55 -15.57,19.65 -48.7,48.7 -141.59,28.85 -90.53,-125.74l9.37 -22.33c7.72,-14.43 15.95,-25.26 28.2,-35.19 19.98,-16.2 29.61,-18.81 55.15,-18.81 47.74,0 50.28,52.8 52.83,58.11l93.33 -10.57c-2.19,-26.35 -10.93,-49.99 -25.63,-69.46 -34,-45.01 -77.51,-52.05 -131.1,-52.05 -57.89,0 -115.35,35.59 -142.13,67.43 -30.67,36.47 -53.35,91.61 -53.35,157.97z"/>
   <path class="fil0" d="M3482.23 5572.19l-47.55 0c-0.19,8.63 -13.8,60.89 -14.09,73.96l45.78 0 -33.31 162.16c-7.82,39.07 -19.98,84.69 15.4,112.86 16.27,12.96 42.37,17.91 66.7,19.06l24.31 0c19.61,-0.89 34.48,-3.69 36.08,-5.28l15.85 -72.2c-19.57,0 -43.45,5.56 -56.67,-3.2 -15.84,-10.5 -4.38,-41.07 0.47,-65.33 3.63,-18.18 28.32,-141.33 31.55,-148.07l58.11 0c2.61,-5.44 15.11,-65.03 15.85,-73.96l-58.11 0c0,-10.74 3.7,-20.99 5.74,-31.24 1.82,-9.15 4.09,-21.64 6.24,-30.74l12.68 -63.04c-7.05,1.88 -90.46,53.83 -107.53,63.29 -5.93,3.28 -5.12,1.38 -6.95,8.9 -4.18,17.14 -6.56,35.7 -10.56,52.84z"/>
   <path class="fil0" d="M2133.27 5572.19l-47.55 0c-0.33,14.81 -13.72,57.34 -14.09,73.96l45.79 0 -38.25 190.69c-4.93,29.4 -8.09,61.83 20.32,84.34 16.19,12.83 42.4,17.84 66.83,19.06l25.83 0c18.65,-0.9 32.7,-3.54 34.44,-5.28 2.33,-4.85 6.3,-28.04 8.06,-35.96 2.91,-13.11 4.95,-24.06 7.78,-36.24 -15.13,0 -65.16,9.46 -65.16,-17.61 0,-15.04 5.75,-36.65 8.37,-49.74l25.83 -123.86c1.77,-8.94 4.55,-16.39 4.55,-25.39 70.7,0 59.25,4.58 63.76,-15.49 1.27,-5.65 2.48,-11.91 3.89,-19 2.78,-13.93 5.05,-26.51 8.07,-39.48l-58.11 0c0,-14.15 24.43,-115.07 24.65,-125.03 -5.62,1.5 -14.12,7.58 -19.27,10.67l-78.14 46.89c-7.71,4.59 -13.63,5.54 -16.44,15.26l-11.18 52.22z"/>
   <path class="fil0" d="M5239.76 5635.59c1.33,-16 12.06,-51.04 12.33,-63.4l-91.57 0c-24.65,105.81 -45.34,225.88 -69.75,331.75 -8.71,37.79 -24.07,29.25 92.64,29.25 16.09,-69.04 23.07,-117.52 42.62,-188.07 7.27,-26.22 24.48,-55.98 43.66,-70.81 5.72,-4.43 9.18,-7.89 16.43,-11.74 20.46,-10.85 33.63,-14.77 57.06,-10.66 4.65,0.82 6.7,2.54 12.81,3.04 1.58,-6.79 35.25,-73.56 36.98,-81 -19.01,-10.06 -33.55,-10.57 -54.59,-10.57 -40.45,0 -72.25,38.14 -93.06,65.43l-5.56 6.77z"/>
   <path class="fil0" d="M2437.93 5633.83l12.33 -61.64 -93.33 0c-0.22,9.74 -6.27,35.13 -8.46,44.38 -17.05,72.15 -30.41,152.91 -47.21,225.74l-14.04 66.96c-1.76,8.92 -4.26,14.86 -4.26,23.91l93.33 0c7.39,0 11.58,-32.29 13.94,-44.17 3.22,-16.2 6.19,-31.48 10.02,-48.09 9,-39.04 11.04,-52.93 22.56,-93.66 2.32,-8.22 4.61,-13.17 7.56,-20.62 12.75,-32.28 39.14,-62.64 73.05,-73.11 19.06,-5.89 31.33,-2.69 48.97,1.42 6.95,-13.14 12.67,-27.15 19.37,-40.5 3.59,-7.16 6.11,-12.06 9.55,-20.39 3.32,-8.03 7.85,-12.15 8.06,-21.88 -30.3,-7.06 -14.17,-8.8 -52.83,-8.8 -25.22,0 -55.67,21.24 -70.05,35.61l-28.57 34.83z"/>
   <path class="fil0" d="M6183.68 5635.59c0.3,-13.59 10.87,-45.84 12.33,-63.4 -106.94,0 -90.84,-6.5 -96.13,20.11 -2.48,12.47 -4.62,21.17 -7.05,33.46l-27.15 129.58c-5.05,21.16 -8.35,42.19 -13.4,64.09l-20.52 97.5c-3.83,18.19 -6.11,16.49 16.29,16.29 26.38,-0.24 52.87,-0.01 79.26,-0.01l9.82 -46.53c14.84,-66.69 26.29,-172.28 76.19,-212.61 14.89,-12.04 40.56,-26.06 61.14,-23.72l25.43 4.62 36.98 -81c-19.01,-10.06 -33.54,-10.57 -54.59,-10.57 -21.76,0 -45.8,15.96 -58.39,26.14 -5.39,4.35 -16.78,15.76 -21.12,21.14l-19.1 24.92z"/>
  </g>
 </g>
</svg>
