<?xml version="1.0" encoding="UTF-8"?>
<!DOCTYPE svg PUBLIC "-//W3C//DTD SVG 1.1//EN" "http://www.w3.org/Graphics/SVG/1.1/DTD/svg11.dtd">
<!-- Creator: CorelDRAW 2018 (64-Bit Evaluation Version) -->
<svg xmlns="http://www.w3.org/2000/svg" xml:space="preserve" width="8.5in" height="11in" version="1.1" style="shape-rendering:geometricPrecision; text-rendering:geometricPrecision; image-rendering:optimizeQuality; fill-rule:evenodd; clip-rule:evenodd"
viewBox="0 0 8500 11000"
 xmlns:xlink="http://www.w3.org/1999/xlink">
 <defs>
  <style type="text/css">
   <![CDATA[
    .fil1 {fill:#02AEF0}
    .fil3 {fill:#04ACF1}
    .fil4 {fill:#D45B64}
    .fil2 {fill:#EC1B23}
    .fil6 {fill:#F4F4F8}
    .fil5 {fill:#F9F9FD}
    .fil0 {fill:#FDFEFD}
   ]]>
  </style>
 </defs>
 <g id="Layer_x0020_1">
  <metadata id="CorelCorpID_0Corel-Layer"/>
  <g id="_1986699040048">
   <path class="fil0" d="M5695.53 4331.54l165.45 -2.78c4.19,90.17 12.41,476.31 -6.26,540.81l-155.63 -1.3 -3.56 -536.72zm1042.7 372.65l65.59 91.3c-74.94,82.22 -264.54,115.13 -386.75,52.44 -102.66,-52.65 -166.41,-198.46 -115.2,-351.1 70.91,-211.31 364.02,-240.55 467.44,-70.96 40.2,65.93 42.33,131.8 42.31,218.55l-354.44 -0.14c8.71,193.32 205.39,100.25 281.06,59.9zm-2821.81 -1.34c18.04,28.93 41.81,64.74 57.78,90.01 -159.02,197.69 -635.46,65.63 -494.12,-311.56 72.2,-192.66 503.69,-306.67 507.35,160.44l-357.3 2.74c15.26,195.96 196.42,100.97 286.3,58.37zm278.51 167.06l-151.83 -2.18 -3.5 -533.83 161.36 -5.3 3.56 78.79c52.75,-52.04 79.26,-87.55 190.16,-88.65l-1.56 139.53c-332.25,46.89 -128.64,155.7 -198.19,411.63zm940.96 -459.85c79,-77.51 322.15,-148.74 426.03,-41.76 54.37,55.97 52.98,136.54 52.69,227.35 -0.26,80.43 12.44,209.12 8.17,273.87l-154.18 -1.64c-6.26,-14.4 -8.6,-24.5 -13,-33.53l-16.59 -27.91c-122.27,113.99 -337.97,89 -332.82,-82.26 4.92,-163.8 194.74,-189.89 346.11,-208.23 -22.36,-153.68 -187.31,-34.58 -261.2,-9.69 -2.75,-7.36 -49.41,-88.95 -55.21,-96.21zm-2725.92 0c79.51,-77.7 319.34,-147.18 425.05,-40.91 58.41,58.74 54.28,123.8 53.98,226.49 -0.23,78.89 11.47,208.74 6.7,274.2l-152.51 -1.92 -23.18 -68.65c-97.39,110.96 -331.71,112.58 -336.85,-64.3 -4.78,-164.51 165.02,-191.7 282.33,-210.79l60 -21.32c-31.25,-135.98 -196.2,-15.89 -260.54,2.52l-40.2 -62.12c-3.35,-5.92 -13.22,-30.88 -14.78,-33.2zm-708.83 457.63l-145.89 1.14c-17.4,-62.64 -13.26,-654.81 -5.04,-748.14l221.86 -0.17 163.36 535.15c37.81,-65.83 120.03,-440.17 160.23,-534.49l224.61 -0.92c8.17,97.03 13.69,685.1 -4.99,748.47l-153.55 -0.15 -4.62 -460.41c-37.57,60.28 -113.83,392.98 -156.64,460.45l-139.87 -0.36c-31.25,-55.61 -55.95,-156.61 -78.75,-223.41 -16.03,-46.94 -55.39,-198.73 -78.78,-237.6l-1.93 460.43zm5259.59 -484.89c-50.36,43.25 -28.78,46.09 -116.85,44.61l-36.85 -48.12c-35.93,-100.54 159.26,-188.2 153.71,3.51zm-657.59 81.04c-302.17,-15.95 -142.63,219.74 -195.54,405.34l-153.89 -0.43 -6.69 -539.12 167.92 -0.12 0.13 76.82c48.7,-45.94 83.4,-89.82 192.1,-86.55l-4.03 144.05zm-3000.21 73.82l183.94 328.83 -159.08 3.25c-48.01,-34.22 -87.99,-158.09 -137.39,-212.6 -16.59,21.48 -49.87,49.23 -56.26,80.06 -8.81,42.49 5.08,81.7 -8.17,131.63l-154.31 0.14 -5.57 -750.76 165.18 3.36 1.18 393.52c39.1,-22.44 119.96,-144.9 172.15,-185.84l165.8 0.22c-42.77,77.24 -124.25,127.57 -167.45,208.2zm2395.7 -413.95l163.23 3.85 2.07 130.42 -169.15 -0.61 3.85 -133.67zm-855.78 311.85l233.01 1.93 6.67 135.35 -238.84 1.04 -1.03 292.72 -161.34 1.51 -3.48 -743.48 497.63 -4.44 1.4 141.11 -331.87 -0.29 -2.16 174.55zm1748.47 -1379.92l207.09 0.3 -1.78 680.7 -207.52 -2.75 2.2 -678.25zm-1102.44 0.06l204.62 2.11 -0.96 678.09 -206.53 -2.59 2.87 -677.61zm-2426.69 -0.31l203.32 3.49 -0.27 676.5 -207.11 1.22 4.06 -681.21zm2974.01 97.15c81.25,-103.39 334.94,-185.26 407.14,-13.61 34.79,82.73 16.8,475.24 18.54,596.76l-201.49 1.6c-5.38,-114.07 25.9,-445.7 -32.57,-510.26 -94.5,-33.2 -144.22,11.06 -196.61,57.83l-0.78 452.23 -207.04 -3.26 2.17 -677.94 202.68 -0.31 7.96 96.96zm-1664.58 -356.79l281.35 -0.52 206.04 673.33c6.06,-7.94 2.78,-0.78 12.03,-21.22l89.66 -316.06c28.83,-98.33 78.25,-242.48 94.14,-336.56l285.5 0.11 -1.96 941.3 -200.22 -0.81 -2.34 -602.25c-22.95,50.98 -145.75,517.89 -195.59,603.09l-183.74 -1.04 -185.22 -573.04c-0.77,-4.88 -3.26,-5.84 -6.38,-8.51l-0.44 581.92 -190.99 -2.55 0.03 -865.69 -1.83 -71.49zm-815.37 940.12l-238.41 -680.58 208.72 -0.74 146.75 439.15 141.93 -438.51 186.17 0.08c-5.29,69.25 -89.48,270.84 -115.22,346.56 -36.97,108.66 -85.74,222.31 -116.99,335.56l-212.94 -1.51zm-1238.54 76.34c100.54,12.55 215.9,43.81 227.13,-66.66 5.26,-51.67 -243.65,-603.13 -249.04,-689.59l207.06 -0.69c40.75,91.56 108.79,371.6 155.23,424.22l147.38 -424.41 194.96 -0.01c-5.78,49.04 -193.32,523.13 -226.83,614.75 -33.51,91.62 -80.11,229.6 -141.72,276.91 -76.74,58.94 -247.39,68.13 -352.01,21.37l37.83 -155.89zm4271.53 -1014.58l211.86 0.57 -1.22 164.83 -211.35 -2.83 0.71 -162.57zm-1103.57 0.16l209.83 0.78 0.66 164.34 -210.65 -2.55 0.16 -162.58zm-2425.54 -0.63l207.95 2.55 2.5 163.34 -212.8 0.69 2.35 -166.58zm-1495.84 -3.64l210.37 0.46 1.04 376.69c49.45,-35.76 247.58,-307.8 310.87,-377.01l239.7 -0.03c-26.16,47.97 -47.39,63.82 -82.56,102.61l-224.17 272.61 344.22 567.69 -234.26 0.07 -254.78 -411.54c-148.54,137.5 -92.66,144.52 -100.62,411.7l-209.84 -1 0.04 -942.26zm-264.15 2318.46l5747.09 1.12 4.85 -2553.36 -5747.22 0.08 -4.71 2552.16z"/>
   <path class="fil1" d="M1304.85 2559.81l5747.22 -0.08 -4.85 2553.36 -5747.09 -1.12 4.71 -2552.16zm-132.49 2675.62l6006.68 -1.28 1.5 -2798.89 -6007.42 5.29 -0.75 2794.87z"/>
   <path class="fil1" d="M4373.45 2867.23l-0.03 865.69 190.99 2.55 0.44 -581.92c3.12,2.67 5.61,3.63 6.38,8.51l185.22 573.04 183.74 1.04c49.84,-85.19 172.65,-552.11 195.59,-603.09l2.34 602.25 200.22 0.81 1.96 -941.3 -285.5 -0.11c-15.89,94.08 -65.31,238.23 -94.14,336.56l-89.66 316.06c-9.25,20.44 -5.97,13.28 -12.03,21.22l-206.04 -673.33 -281.35 0.52 1.83 71.49z"/>
   <path class="fil2" d="M1564.25 3735.76l209.84 1c7.96,-267.19 -47.91,-274.2 100.62,-411.7l254.78 411.54 234.26 -0.07 -344.22 -567.69 224.17 -272.61c35.17,-38.79 56.41,-54.64 82.56,-102.61l-239.7 0.03c-63.3,69.2 -261.43,341.25 -310.87,377.01l-1.04 -376.69 -210.37 -0.46 -0.04 942.26z"/>
   <path class="fil2" d="M1703.07 4407.25c23.39,38.87 62.75,190.66 78.78,237.6 22.8,66.8 47.5,167.8 78.75,223.41l139.87 0.36c42.81,-67.46 119.07,-400.17 156.64,-460.45l4.62 460.41 153.55 0.15c18.67,-63.37 13.15,-651.44 4.99,-748.47l-224.61 0.92c-40.2,94.32 -122.42,468.66 -160.23,534.49l-163.36 -535.15 -221.86 0.17c-8.22,93.33 -12.36,685.5 5.04,748.14l145.89 -1.14 1.93 -460.43z"/>
   <path class="fil2" d="M2317.71 3812.2l-37.83 155.89c104.62,46.76 275.27,37.57 352.01,-21.37 61.61,-47.31 108.21,-185.29 141.72,-276.91 33.51,-91.62 221.05,-565.71 226.83,-614.75l-194.96 0.01 -147.38 424.41c-46.44,-52.62 -114.48,-332.66 -155.23,-424.22l-207.06 0.69c5.4,86.46 254.3,637.93 249.04,689.59 -11.24,110.47 -126.6,79.21 -227.13,66.66z"/>
   <path class="fil1" d="M6036.2 3152.53l-7.96 -96.96 -202.68 0.31 -2.17 677.94 207.04 3.26 0.78 -452.23c52.39,-46.78 102.11,-91.03 196.61,-57.83 58.46,64.56 27.19,396.19 32.57,510.26l201.49 -1.6c-1.74,-121.52 16.25,-514.03 -18.54,-596.76 -72.2,-171.66 -325.89,-89.78 -407.14,13.61z"/>
   <path class="fil2" d="M3556.25 3735.86l212.94 1.51c31.25,-113.25 80.02,-226.9 116.99,-335.56 25.74,-75.71 109.93,-277.31 115.22,-346.56l-186.17 -0.08 -141.93 438.51 -146.75 -439.15 -208.72 0.74 238.41 680.58z"/>
   <path class="fil2" d="M3302.93 4537.65c43.2,-80.63 124.68,-130.96 167.45,-208.2l-165.8 -0.22c-52.19,40.94 -133.05,163.4 -172.15,185.84l-1.18 -393.52 -165.18 -3.36 5.57 750.76 154.31 -0.14c13.25,-49.93 -0.65,-89.14 8.17,-131.63 6.39,-30.83 39.67,-58.57 56.26,-80.06 49.41,54.5 89.39,178.37 137.39,212.6l159.08 -3.25 -183.94 -328.83z"/>
   <path class="fil2" d="M5276.99 4735.07c-17.14,-103.47 85.03,-117.31 174.94,-125.95l-2.46 102.5c-57.05,33.11 -105.43,56.26 -172.48,23.46zm-141.11 -325.02c5.81,7.26 52.46,88.85 55.21,96.21 73.89,-24.89 238.84,-144 261.2,9.69 -151.37,18.33 -341.2,44.43 -346.11,208.23 -5.15,171.26 210.56,196.25 332.82,82.26l16.59 27.91c4.4,9.03 6.74,19.13 13,33.53l154.18 1.64c4.28,-64.75 -8.43,-193.44 -8.17,-273.87 0.29,-90.81 1.67,-171.39 -52.69,-227.35 -103.88,-106.98 -347.03,-35.75 -426.03,41.76z"/>
   <path class="fil2" d="M2552.32 4735.76c-16.11,-107.51 78.38,-114.65 173.24,-127.22l-0.08 103.32c-58.39,35.41 -104.65,51.24 -173.15,23.9zm-142.35 -325.7c1.56,2.31 11.43,27.28 14.78,33.2l40.2 62.12c64.34,-18.42 229.28,-138.5 260.54,-2.52l-60 21.32c-117.32,19.09 -287.12,46.28 -282.33,210.79 5.14,176.88 239.46,175.26 336.85,64.3l23.18 68.65 152.51 1.92c4.77,-65.46 -6.93,-195.31 -6.7,-274.2 0.3,-102.69 4.43,-167.75 -53.98,-226.49 -105.7,-106.27 -345.54,-36.79 -425.05,40.91z"/>
   <polygon class="fil2" points="4845.01,4261 5176.88,4261.29 5175.48,4120.19 4677.85,4124.62 4681.33,4868.11 4842.67,4866.6 4843.7,4573.88 5082.54,4572.83 5075.86,4437.48 4842.85,4435.55 "/>
   <path class="fil2" d="M3631.56 4545.91c20.6,-144.12 186.62,-154.37 203.32,0.2l-203.32 -0.2zm284.85 156.93c-89.88,42.61 -271.03,137.6 -286.3,-58.37l357.3 -2.74c-3.66,-467.11 -435.15,-353.1 -507.35,-160.44 -141.34,377.19 335.1,509.25 494.12,311.56 -15.96,-25.28 -39.73,-61.08 -57.78,-90.01z"/>
   <path class="fil2" d="M6459.41 4546.6c12.85,-147.24 189.78,-154.19 198.94,-0.3l-198.94 0.3zm278.81 157.59c-75.67,40.35 -272.35,133.42 -281.06,-59.9l354.44 0.14c0.03,-86.74 -2.11,-152.62 -42.31,-218.55 -103.41,-169.59 -396.53,-140.35 -467.44,70.96 -51.21,152.64 12.54,298.44 115.2,351.1 122.21,62.68 311.8,29.77 386.75,-52.44l-65.59 -91.3z"/>
   <polygon class="fil1" points="6589.12,3733.89 6796.63,3736.64 6798.41,3055.93 6591.32,3055.63 "/>
   <polygon class="fil1" points="5486.01,3733.3 5692.54,3735.89 5693.5,3057.8 5488.88,3055.69 "/>
   <polygon class="fil2" points="3058.13,3736.58 3265.24,3735.37 3265.51,3058.87 3062.19,3055.37 "/>
   <path class="fil2" d="M6307.17 4319.78c-108.7,-3.28 -143.39,40.61 -192.1,86.55l-0.13 -76.82 -167.92 0.12 6.69 539.12 153.89 0.43c52.91,-185.61 -106.63,-421.29 195.54,-405.34l4.03 -144.05z"/>
   <path class="fil2" d="M4194.93 4869.9c69.55,-255.94 -134.06,-364.75 198.19,-411.63l1.56 -139.53c-110.9,1.1 -137.41,36.61 -190.16,88.65l-3.56 -78.79 -161.36 5.3 3.5 533.83 151.83 2.18z"/>
   <path class="fil2" d="M5699.09 4868.26l155.63 1.3c18.67,-64.49 10.45,-450.64 6.26,-540.81l-165.45 2.78 3.56 536.72z"/>
   <polygon class="fil2" points="3057.78,2963.73 3270.58,2963.04 3268.09,2799.7 3060.13,2797.15 "/>
   <polygon class="fil3" points="6588.53,2960.19 6799.88,2963.03 6801.1,2798.19 6589.24,2797.62 "/>
   <polygon class="fil3" points="5485.51,2960.36 5696.16,2962.91 5695.5,2798.56 5485.67,2797.78 "/>
   <polygon class="fil2" points="5694.78,4257.37 5863.93,4257.98 5861.86,4127.56 5698.63,4123.7 "/>
   <path class="fil4" d="M6960.73 4382.79c5.55,-191.7 -189.63,-104.05 -153.71,-3.51l36.85 48.12c88.07,1.48 66.49,-1.36 116.85,-44.61z"/>
   <path class="fil5" d="M5276.99 4735.07c67.05,32.8 115.43,9.66 172.48,-23.46l2.46 -102.5c-89.92,8.64 -192.09,22.48 -174.94,125.95z"/>
   <path class="fil6" d="M2552.32 4735.76c68.5,27.35 114.76,11.51 173.15,-23.9l0.08 -103.32c-94.85,12.57 -189.35,19.7 -173.24,127.22z"/>
   <path class="fil5" d="M6459.41 4546.6l198.94 -0.3c-9.17,-153.89 -186.09,-146.94 -198.94,0.3z"/>
   <path class="fil6" d="M3631.56 4545.91l203.32 0.2c-16.7,-154.57 -182.72,-144.32 -203.32,-0.2z"/>
  </g>
 </g>
</svg>
