<?xml version="1.0" encoding="utf-8"?>
<!-- Generator: Adobe Illustrator 17.1.0, SVG Export Plug-In . SVG Version: 6.00 Build 0)  -->
<!DOCTYPE svg PUBLIC "-//W3C//DTD SVG 1.1//EN" "http://www.w3.org/Graphics/SVG/1.1/DTD/svg11.dtd">
<svg version="1.1" id="Layer_1" xmlns="http://www.w3.org/2000/svg" xmlns:xlink="http://www.w3.org/1999/xlink" x="0px" y="0px"
	 viewBox="0 0 500 500" enable-background="new 0 0 500 500" xml:space="preserve">
<g id="Layer_x0020_1">
	<g id="_1986699040048">
		<path fill="#FDFEFF" d="M375.1,291l13.5-0.2c0.3,7.4,1,38.8-0.5,44.1l-12.7-0.1L375.1,291L375.1,291z M460.1,321.4l5.3,7.4
			c-6.1,6.7-21.6,9.4-31.5,4.3c-8.4-4.3-13.6-16.2-9.4-28.6c5.8-17.2,29.7-19.6,38.1-5.8c3.3,5.4,3.5,10.7,3.5,17.8l-28.9,0
			C437.9,332.3,454,324.7,460.1,321.4L460.1,321.4z M230,321.3c1.5,2.4,3.4,5.3,4.7,7.3c-13,16.1-51.8,5.4-40.3-25.4
			c5.9-15.7,41.1-25,41.4,13.1l-29.1,0.2C207.9,332.5,222.7,324.8,230,321.3L230,321.3z M252.7,334.9l-12.4-0.2l-0.3-43.5l13.2-0.4
			l0.3,6.4c4.3-4.2,6.5-7.1,15.5-7.2l-0.1,11.4C241.8,305.2,258.4,314,252.7,334.9L252.7,334.9z M329.4,297.4
			c6.4-6.3,26.3-12.1,34.7-3.4c4.4,4.6,4.3,11.1,4.3,18.5c0,6.6,1,17.1,0.7,22.3l-12.6-0.1c-0.5-1.2-0.7-2-1.1-2.7l-1.4-2.3
			c-10,9.3-27.6,7.3-27.1-6.7c0.4-13.4,15.9-15.5,28.2-17c-1.8-12.5-15.3-2.8-21.3-0.8C333.7,304.6,329.9,298,329.4,297.4
			L329.4,297.4z M107.1,297.4c6.5-6.3,26-12,34.7-3.3c4.8,4.8,4.4,10.1,4.4,18.5c0,6.4,0.9,17,0.5,22.4l-12.4-0.2l-1.9-5.6
			c-7.9,9-27.1,9.2-27.5-5.2c-0.4-13.4,13.5-15.6,23-17.2l4.9-1.7c-2.5-11.1-16-1.3-21.2,0.2l-3.3-5.1
			C108.1,299.6,107.3,297.6,107.1,297.4L107.1,297.4z M49.3,334.7l-11.9,0.1c-1.4-5.1-1.1-53.4-0.4-61l18.1,0l13.3,43.6
			c3.1-5.4,9.8-35.9,13.1-43.6l18.3-0.1c0.7,7.9,1.1,55.9-0.4,61l-12.5,0l-0.4-37.5c-3.1,4.9-9.3,32.1-12.8,37.6l-11.4,0
			c-2.5-4.5-4.6-12.8-6.4-18.2c-1.3-3.8-4.5-16.2-6.4-19.4L49.3,334.7L49.3,334.7z M478.3,295.2c-4.1,3.5-2.3,3.8-9.5,3.6l-3-3.9
			C462.8,286.7,478.7,279.5,478.3,295.2L478.3,295.2z M424.6,301.8c-24.6-1.3-11.6,17.9-15.9,33.1l-12.6,0l-0.5-44l13.7,0l0,6.3
			c4-3.7,6.8-7.3,15.7-7.1L424.6,301.8L424.6,301.8z M180,307.8l15,26.8l-13,0.3c-3.9-2.8-7.2-12.9-11.2-17.3
			c-1.4,1.8-4.1,4-4.6,6.5c-0.7,3.5,0.4,6.7-0.7,10.7l-12.6,0l-0.5-61.2l13.5,0.3L166,306c3.2-1.8,9.8-11.8,14-15.2l13.5,0
			C190.1,297.1,183.5,301.2,180,307.8L180,307.8z M375.3,274l13.3,0.3l0.2,10.6l-13.8,0L375.3,274L375.3,274z M305.5,299.5l19,0.2
			l0.5,11l-19.5,0.1l-0.1,23.9l-13.2,0.1l-0.3-60.6l40.6-0.4l0.1,11.5l-27.1,0L305.5,299.5L305.5,299.5z M448.1,186.9l16.9,0
			l-0.1,55.5l-16.9-0.2L448.1,186.9L448.1,186.9z M358.2,186.9l16.7,0.2l-0.1,55.3l-16.8-0.2L358.2,186.9L358.2,186.9z M160.3,186.9
			l16.6,0.3l0,55.2l-16.9,0.1L160.3,186.9z M402.9,194.8c6.6-8.4,27.3-15.1,33.2-1.1c2.8,6.7,1.4,38.8,1.5,48.7l-16.4,0.1
			c-0.4-9.3,2.1-36.3-2.7-41.6c-7.7-2.7-11.8,0.9-16,4.7l-0.1,36.9l-16.9-0.3l0.2-55.3l16.5,0L402.9,194.8L402.9,194.8z
			 M267.1,165.7l22.9,0l16.8,54.9c0.5-0.6,0.2-0.1,1-1.7l7.3-25.8c2.4-8,6.4-19.8,7.7-27.4l23.3,0l-0.2,76.8l-16.3-0.1l-0.2-49.1
			c-1.9,4.2-11.9,42.2-16,49.2l-15-0.1l-15.1-46.7c-0.1-0.4-0.3-0.5-0.5-0.7l0,47.5l-15.6-0.2l0-70.6L267.1,165.7L267.1,165.7z
			 M200.6,242.4l-19.4-55.5l17-0.1l12,35.8l11.6-35.8l15.2,0c-0.4,5.6-7.3,22.1-9.4,28.3c-3,8.9-7,18.1-9.5,27.4L200.6,242.4
			L200.6,242.4z M99.6,248.6c8.2,1,17.6,3.6,18.5-5.4c0.4-4.2-19.9-49.2-20.3-56.2l16.9-0.1c3.3,7.5,8.9,30.3,12.7,34.6l12-34.6
			l15.9,0c-0.5,4-15.8,42.7-18.5,50.1c-2.7,7.5-6.5,18.7-11.6,22.6c-6.3,4.8-20.2,5.6-28.7,1.7L99.6,248.6L99.6,248.6z M448,165.9
			l17.3,0l-0.1,13.4l-17.2-0.2L448,165.9L448,165.9z M358,165.9l17.1,0.1l0.1,13.4l-17.2-0.2L358,165.9L358,165.9z M160.1,165.9
			l17,0.2l0.2,13.3l-17.4,0.1L160.1,165.9z M38.2,165.6l17.2,0l0.1,30.7c4-2.9,20.2-25.1,25.4-30.7l19.5,0c-2.1,3.9-3.9,5.2-6.7,8.4
			l-18.3,22.2l28.1,46.3l-19.1,0l-20.8-33.6c-12.1,11.2-7.6,11.8-8.2,33.6l-17.1-0.1L38.2,165.6L38.2,165.6z M16.6,354.6l468.7,0.1
			l0.4-208.2l-468.7,0L16.6,354.6L16.6,354.6z"/>
		<path fill="#2EACE3" d="M17,146.5l468.7,0l-0.4,208.2l-468.7-0.1L17,146.5L17,146.5z M6.2,364.7l489.9-0.1l0.1-228.3L6.3,136.8
			L6.2,364.7L6.2,364.7z"/>
		<path fill="#2EACE3" d="M267.3,171.6l0,70.6l15.6,0.2l0-47.5c0.3,0.2,0.5,0.3,0.5,0.7l15.1,46.7l15,0.1c4.1-6.9,14.1-45,16-49.2
			l0.2,49.1l16.3,0.1l0.2-76.8l-23.3,0c-1.3,7.7-5.3,19.4-7.7,27.4l-7.3,25.8c-0.8,1.7-0.5,1.1-1,1.7l-16.8-54.9l-22.9,0
			L267.3,171.6L267.3,171.6z"/>
		<path fill="#EB2227" d="M38.2,242.4l17.1,0.1c0.6-21.8-3.9-22.4,8.2-33.6l20.8,33.6l19.1,0l-28.1-46.3l18.3-22.2
			c2.9-3.2,4.6-4.5,6.7-8.4l-19.5,0c-5.2,5.6-21.3,27.8-25.4,30.7l-0.1-30.7l-17.2,0L38.2,242.4L38.2,242.4z"/>
		<path fill="#EB2227" d="M49.5,297.2c1.9,3.2,5.1,15.5,6.4,19.4c1.9,5.4,3.9,13.7,6.4,18.2l11.4,0c3.5-5.5,9.7-32.6,12.8-37.6
			l0.4,37.5l12.5,0c1.5-5.2,1.1-53.1,0.4-61l-18.3,0.1c-3.3,7.7-10,38.2-13.1,43.6l-13.3-43.6l-18.1,0c-0.7,7.6-1,55.9,0.4,61
			l11.9-0.1L49.5,297.2L49.5,297.2z"/>
		<path fill="#EB2227" d="M99.6,248.6l-3.1,12.7c8.5,3.8,22.5,3.1,28.7-1.7c5-3.9,8.8-15.1,11.6-22.6c2.7-7.5,18-46.1,18.5-50.1
			l-15.9,0l-12,34.6c-3.8-4.3-9.3-27.1-12.7-34.6L97.8,187c0.4,7.1,20.7,52,20.3,56.2C117.2,252.2,107.8,249.7,99.6,248.6
			L99.6,248.6z"/>
		<path fill="#2EACE3" d="M402.9,194.8l-0.6-7.9l-16.5,0l-0.2,55.3l16.9,0.3l0.1-36.9c4.3-3.8,8.3-7.4,16-4.7
			c4.8,5.3,2.2,32.3,2.7,41.6l16.4-0.1c-0.1-9.9,1.3-41.9-1.5-48.7C430.2,179.7,409.5,186.4,402.9,194.8L402.9,194.8z"/>
		<path fill="#EB2227" d="M200.6,242.4l17.4,0.1c2.5-9.2,6.5-18.5,9.5-27.4c2.1-6.2,9-22.6,9.4-28.3l-15.2,0l-11.6,35.8l-12-35.8
			l-17,0.1L200.6,242.4L200.6,242.4z"/>
		<path fill="#EB2227" d="M180,307.8c3.5-6.6,10.2-10.7,13.7-17l-13.5,0c-4.3,3.3-10.9,13.3-14,15.2l-0.1-32.1l-13.5-0.3l0.5,61.2
			l12.6,0c1.1-4.1-0.1-7.3,0.7-10.7c0.5-2.5,3.2-4.8,4.6-6.5c4,4.4,7.3,14.5,11.2,17.3l13-0.3L180,307.8L180,307.8z"/>
		<path fill="#EB2227" d="M341,323.9c-1.4-8.4,6.9-9.6,14.3-10.3L355,322C350.4,324.7,346.4,326.6,341,323.9L341,323.9z
			 M329.4,297.4c0.5,0.6,4.3,7.2,4.5,7.8c6-2,19.5-11.7,21.3,0.8c-12.3,1.5-27.8,3.6-28.2,17c-0.4,14,17.2,16,27.1,6.7l1.4,2.3
			c0.4,0.7,0.5,1.6,1.1,2.7l12.6,0.1c0.3-5.3-0.7-15.8-0.7-22.3c0-7.4,0.1-14-4.3-18.5C355.7,285.3,335.9,291.1,329.4,297.4
			L329.4,297.4z"/>
		<path fill="#EB2227" d="M118.7,324c-1.3-8.8,6.4-9.4,14.1-10.4l0,8.4C128.1,324.9,124.3,326.2,118.7,324L118.7,324z M107.1,297.4
			c0.1,0.2,0.9,2.2,1.2,2.7l3.3,5.1c5.2-1.5,18.7-11.3,21.2-0.2l-4.9,1.7c-9.6,1.6-23.4,3.8-23,17.2c0.4,14.4,19.5,14.3,27.5,5.2
			l1.9,5.6l12.4,0.2c0.4-5.3-0.6-15.9-0.5-22.4c0-8.4,0.4-13.7-4.4-18.5C133.2,285.4,113.6,291.1,107.1,297.4L107.1,297.4z"/>
		<polygon fill="#EB2227" points="305.7,285.2 332.8,285.3 332.7,273.8 292.1,274.1 292.4,334.8 305.5,334.6 305.6,310.8 
			325.1,310.7 324.5,299.6 305.5,299.5 		"/>
		<path fill="#EB2227" d="M206.8,308.5c1.7-11.8,15.2-12.6,16.6,0L206.8,308.5z M230,321.3c-7.3,3.5-22.1,11.2-23.3-4.8l29.1-0.2
			c-0.3-38.1-35.5-28.8-41.4-13.1c-11.5,30.8,27.3,41.5,40.3,25.4C233.4,326.6,231.5,323.6,230,321.3L230,321.3z"/>
		<path fill="#EB2227" d="M437.4,308.5c1-12,15.5-12.6,16.2,0L437.4,308.5z M460.1,321.4c-6.2,3.3-22.2,10.9-22.9-4.9l28.9,0
			c0-7.1-0.2-12.4-3.5-17.8c-8.4-13.8-32.3-11.4-38.1,5.8c-4.2,12.4,1,24.3,9.4,28.6c10,5.1,25.4,2.4,31.5-4.3L460.1,321.4
			L460.1,321.4z"/>
		<polygon fill="#2EACE3" points="448,242.3 464.9,242.5 465,187 448.1,186.9 		"/>
		<polygon fill="#2EACE3" points="358,242.2 374.8,242.4 374.9,187.1 358.2,186.9 		"/>
		<polygon fill="#EB2227" points="160,242.5 176.9,242.4 176.9,187.2 160.3,186.9 		"/>
		<path fill="#EB2227" d="M425,290c-8.9-0.3-11.7,3.3-15.7,7.1l0-6.3l-13.7,0l0.5,44l12.6,0c4.3-15.1-8.7-34.4,15.9-33.1L425,290
			L425,290z"/>
		<path fill="#EB2227" d="M252.7,334.9c5.7-20.9-10.9-29.7,16.2-33.6L269,290c-9,0.1-11.2,3-15.5,7.2l-0.3-6.4l-13.2,0.4l0.3,43.5
			L252.7,334.9L252.7,334.9z"/>
		<path fill="#EB2227" d="M375.4,334.8l12.7,0.1c1.5-5.3,0.9-36.8,0.5-44.1l-13.5,0.2L375.4,334.8L375.4,334.8z"/>
		<polygon fill="#EB2227" points="160,179.4 177.3,179.4 177.1,166.1 160.1,165.9 		"/>
		<polygon fill="#33A9E0" points="447.9,179.2 465.2,179.4 465.3,165.9 448,165.9 		"/>
		<polygon fill="#33A9E0" points="358,179.2 375.1,179.4 375.1,166 358,165.9 		"/>
		<polygon fill="#EB2227" points="375,284.9 388.8,285 388.7,274.4 375.3,274 		"/>
		<path fill="#D45C65" d="M478.3,295.2c0.5-15.6-15.5-8.5-12.5-0.3l3,3.9C475.9,298.9,474.2,298.7,478.3,295.2L478.3,295.2z"/>
		<path fill="#F8F8FC" d="M341,323.9c5.5,2.7,9.4,0.8,14.1-1.9l0.2-8.4C347.9,314.3,339.6,315.5,341,323.9L341,323.9z"/>
		<path fill="#F3F4F8" d="M118.7,324c5.6,2.2,9.4,0.9,14.1-1.9l0-8.4C125.1,314.6,117.4,315.2,118.7,324L118.7,324z"/>
		<path fill="#F8F8FC" d="M437.4,308.5l16.2,0C452.9,296,438.4,296.5,437.4,308.5z"/>
		<path fill="#F3F4F8" d="M206.8,308.5l16.6,0C222,295.9,208.4,296.7,206.8,308.5z"/>
	</g>
</g>
</svg>
