<?xml version="1.0" encoding="UTF-8"?>
<!DOCTYPE svg PUBLIC "-//W3C//DTD SVG 1.1//EN" "http://www.w3.org/Graphics/SVG/1.1/DTD/svg11.dtd">
<!-- Creator: CorelDRAW 2018 (64-Bit Evaluation Version) -->
<svg xmlns="http://www.w3.org/2000/svg" xml:space="preserve" width="8.5in" height="11in" version="1.1" style="shape-rendering:geometricPrecision; text-rendering:geometricPrecision; image-rendering:optimizeQuality; fill-rule:evenodd; clip-rule:evenodd"
viewBox="0 0 8500 11000"
 xmlns:xlink="http://www.w3.org/1999/xlink">
 <defs>
  <style type="text/css">
   <![CDATA[
    .fil1 {fill:#BF002A}
    .fil0 {fill:#BF002B}
    .fil4 {fill:#BF022C}
    .fil3 {fill:#D8607A}
    .fil2 {fill:#FEFEFE}
   ]]>
  </style>
 </defs>
 <g id="Layer_x0020_1">
  <metadata id="CorelCorpID_0Corel-Layer"/>
  <g id="_1986706809952">
   <path class="fil0" d="M3155.4 4887.31c97.21,106.65 320.08,81.36 432.52,16.57l-0.02 -698.6 -173.8 -0.52 -0.41 606.57c-41.18,10.41 -112.07,30.56 -147.27,-25.1 -23.2,-36.69 -15.19,-135.15 -15.19,-185.71 0,-80.33 4.02,-336.52 -0.61,-395.24l-173.16 -0.51 -0.46 586.98c-22.12,15.35 -32.11,29.82 -68.4,31.85 -35.96,2 -56.94,-11.07 -72.79,-30.15 -30.1,-36.21 -20.42,-128.53 -20.42,-182.93 0,-73.04 3.73,-358.07 -0.8,-405.87l-172.33 0.02c-3.67,30.17 -1.03,255.36 -1.03,305.85 0,162.73 -39.3,412.73 175.23,445.49 72.13,11.02 160.78,-4.61 216.93,-50.82 9.74,-8.01 12.77,-13.04 22,-17.88z"/>
   <path class="fil0" d="M789.59 4945.52l172.47 0.01 18.57 -443.52c1.39,4.45 2.47,12.14 3.34,16.43 8.33,41.34 117.95,415.71 123.48,426.7l106.72 0.43c4.72,-7.24 113.72,-365.88 126.09,-430.04 1.06,-5.51 1.87,-11.4 3.16,-16.74 0.61,-2.54 1.44,-5.67 2.37,-8.11 2.71,-7.13 1.07,-3.67 3.74,-7.59 5.39,70.04 4.07,230.96 7.06,316.28l2.87 117.98c0.09,18.98 -4.16,27.22 12.41,28.56 38.63,3.11 121.65,1.62 161.47,-0.8l-42.65 -737.84c-19.62,-8.58 -152.56,-2.64 -185.08,-2.59l-143.59 455.79 -143.6 -455.93c-40.22,0.07 -79.96,0.14 -119.69,0.14 -73.44,0 -64.11,-16.12 -68.2,50.32 -13.57,220.48 -34.17,478.35 -40.94,690.53z"/>
   <path class="fil0" d="M2338.94 4337.38c153.54,-51.65 171.39,110.3 171.47,236.48 0.09,124.98 -25.43,276.34 -171.7,234.14l0.22 -470.62zm-168.35 -78.34l-0.2 905.68 166.7 0.88 1.72 -238.23c144.47,30.87 224.76,-18.02 279.46,-107.38 90.66,-148.1 95.29,-505.38 -110.5,-591.81 -95.79,-40.23 -269.43,-22.02 -337.19,30.86z"/>
   <path class="fil0" d="M5808.74 4933.86l1.19 11.75 170.08 -0.1 1.33 -370.61c11.85,14.83 114.95,242.17 131.18,278.34 10.13,22.57 31.8,75.99 44.1,92.31l190.89 0c-0.39,-8.24 -173.32,-337.63 -191.91,-371.96 -9.96,-18.39 -22.15,-28.9 -12.13,-48.12l179.43 -319.09 -174.18 0.02 -165.22 324.59 -2.28 -520.28 -172.5 -1.02 0 924.16z"/>
   <path class="fil0" d="M4271.24 4944.69l174.17 -0 -0 -328.3 148.3 0 0 326.26c23.61,5.01 143.34,3.18 174.23,1.27l-0.03 -739.26 -174.27 0.4 0.07 275.47 -148.31 0.01 0.04 -276.69 -174.2 0.02 0.01 740.83z"/>
   <path class="fil0" d="M4180.43 4902.44l-0.01 -696.54 -173.59 -1.23 -0.62 606.24c-187.41,54.17 -161.62,-66.44 -161.62,-210.39 0,-81.02 4.04,-335.55 -0.61,-395.22l-173.15 -0.53c-6.35,102.81 -0.44,225.15 -0.44,329.09 0,194.31 -40.17,412.58 235,424.68 82.26,3.62 221.68,-14.68 275.05,-56.1z"/>
   <path class="fil1" d="M1822.9 4329.91c100.2,-36.78 112.27,139.3 112.56,217.28 0.32,85.78 3.5,239.13 -70.81,262.86 -101.67,32.47 -111.41,-138.73 -112.57,-216.19 -0.94,-63.17 -6.07,-235.72 70.83,-263.95zm-0.42 -137.31c-183.38,15.59 -249.71,211.69 -243.03,408.01 6.35,186.42 88.14,376.59 287.72,357.95 180.97,-16.9 247.78,-212.82 241.25,-408.17 -6.24,-186.72 -87.67,-374.65 -285.95,-357.79z"/>
   <path class="fil1" d="M6681.26 4829.9c-35.94,19.41 -92.58,15.55 -126.43,-5.55 -32.78,-20.43 -46.12,-63.27 -44.38,-113.86 3.56,-103.88 85.96,-145.6 170.78,-145.41l0.04 264.81zm-298.17 -581.88c5.62,20.67 30.4,109.17 38.97,121.48 54.16,-21.13 98.87,-49.96 173.48,-43.17 80.65,7.33 85.69,53.33 85.7,130.66 -83.49,18.83 -182.47,20.98 -257.28,88.73 -71.61,64.86 -94.63,163.47 -66.16,262.54 64.03,222.8 414.11,151.44 486.76,96.02 0,-102.36 0,-204.73 0,-307.09 0,-95.8 8.8,-200.89 -25.74,-283.47 -67.68,-161.83 -283.05,-141.02 -435.74,-65.7z"/>
   <path class="fil0" d="M5466.26 4570.76c81.82,-10.12 123.76,53.07 124.13,129.77l0.02 3.33c0.38,79.04 -38.6,149.31 -124.2,129.8l0.05 -262.9zm-165.87 347.73c93.48,58.7 454.26,59.88 454.2,-197.96 -0.02,-92.85 -16.15,-167.83 -79.33,-219.78 -57.88,-47.59 -120.59,-52.35 -209,-61.06l-0.03 -235.81 -165.83 0.17 0 714.44z"/>
   <path class="fil1" d="M5238.12 4907.2l-36.52 -130.64c-10.07,5.05 -31.51,33.14 -78.31,29.42 -35.2,-2.8 -54.37,-24.02 -68.12,-45.18 -28.99,-44.59 -37.28,-129.05 -37.26,-190.28 0.01,-61.59 5.96,-143.57 34.85,-189.34 14.77,-23.4 32.71,-42.03 67.15,-45.67 39.15,-4.14 60.38,12.36 81.34,27.51l35.52 -115.81c-42.43,-59.95 -197.99,-91.24 -293.34,8 -151.12,157.25 -128.65,555.43 20.03,660.68 10.6,7.5 20.6,14.72 32.69,20.65 76.61,37.6 181.19,26.97 241.99,-29.35z"/>
   <path class="fil2" d="M1822.9 4329.91c-76.9,28.23 -71.77,200.78 -70.83,263.95 1.16,77.46 10.9,248.67 112.57,216.19 74.31,-23.73 71.13,-177.08 70.81,-262.86 -0.29,-77.98 -12.36,-254.06 -112.56,-217.28z"/>
   <path class="fil2" d="M2338.94 4337.38l-0.22 470.62c146.27,42.2 171.78,-109.16 171.7,-234.14 -0.09,-126.18 -17.93,-288.13 -171.47,-236.48z"/>
   <path class="fil2" d="M6681.26 4829.9l-0.04 -264.81c-84.82,-0.19 -167.22,41.52 -170.78,145.41 -1.74,50.59 11.6,93.43 44.38,113.86 33.85,21.1 90.5,24.95 126.43,5.55z"/>
   <path class="fil2" d="M5466.21 4833.66c85.6,19.51 124.58,-50.76 124.2,-129.8l-0.02 -3.33c-0.37,-76.7 -42.31,-139.89 -124.13,-129.77l-0.05 262.9z"/>
   <path class="fil2" d="M6915.4 4314.52c-10.24,-3.57 -4.42,0.98 -8.74,-7.72 -3.67,-7.39 -0.71,-76.75 0.4,-83.62 24.89,0 47.79,-4.37 61.34,10.63 6.53,19.26 4.25,25.01 -6.64,36.71 4.51,7.12 5.98,5.66 7.93,20.15 0.03,0.19 0.44,12.93 0.43,12.96 -1.83,12.28 3.05,2.98 -4.72,10.93 -11.06,-3.2 -7.6,2.69 -10.7,-14.13 -0.35,-1.89 4.62,-31.76 -32.65,-20.89 -0.01,14.98 3.03,25.74 -6.65,34.98zm-38.93 -34c12.45,74.37 137.36,61.75 122.67,-23.13 -5.26,-30.39 -35.46,-56.61 -73.18,-49.8 -30.53,5.51 -55.69,35.91 -49.49,72.93z"/>
   <path class="fil3" d="M6915.4 4314.52c9.68,-9.24 6.64,-20 6.65,-34.98 37.28,-10.87 32.3,19 32.65,20.89 3.1,16.83 -0.36,10.94 10.7,14.13 7.78,-7.95 2.89,1.35 4.72,-10.93 0.01,-0.04 -0.4,-12.77 -0.43,-12.96 -1.96,-14.5 -3.42,-13.03 -7.93,-20.15 10.89,-11.7 13.17,-17.45 6.64,-36.71 -13.55,-15 -36.45,-10.63 -61.34,-10.63 -1.11,6.87 -4.07,76.23 -0.4,83.62 4.32,8.7 -1.5,4.15 8.74,7.72z"/>
   <path class="fil4" d="M6876.47 4280.52c-6.2,-37.01 18.96,-67.42 49.49,-72.93 37.72,-6.81 67.91,19.41 73.18,49.8 14.7,84.88 -110.21,97.5 -122.67,23.13zm43.27 -80.66c-95.66,28.53 -52.56,161.72 36.85,138.67 34.11,-8.8 62.8,-43.82 50.46,-89.74 -8.56,-31.85 -44.52,-61.69 -87.31,-48.93z"/>
  </g>
 </g>
</svg>
