<?xml version="1.0" encoding="utf-8"?>
<!-- Generator: Adobe Illustrator 17.1.0, SVG Export Plug-In . SVG Version: 6.00 Build 0)  -->
<!DOCTYPE svg PUBLIC "-//W3C//DTD SVG 1.1//EN" "http://www.w3.org/Graphics/SVG/1.1/DTD/svg11.dtd">
<svg version="1.1" id="Layer_1" xmlns="http://www.w3.org/2000/svg" xmlns:xlink="http://www.w3.org/1999/xlink" x="0px" y="0px"
	 viewBox="0 0 500 500" enable-background="new 0 0 500 500" xml:space="preserve">
<g id="Layer_x0020_1">
	<g id="_1986706809952">
		<path fill="#BF202F" d="M191.9,254.3c7.8,8.5,25.6,6.5,34.6,1.3l0-55.8l-13.9,0l0,48.5c-3.3,0.8-9,2.4-11.8-2
			c-1.9-2.9-1.2-10.8-1.2-14.8c0-6.4,0.3-26.9,0-31.6l-13.8,0l0,46.9c-1.8,1.2-2.6,2.4-5.5,2.5c-2.9,0.2-4.5-0.9-5.8-2.4
			c-2.4-2.9-1.6-10.3-1.6-14.6c0-5.8,0.3-28.6-0.1-32.4l-13.8,0c-0.3,2.4-0.1,20.4-0.1,24.4c0,13-3.1,33,14,35.6
			c5.8,0.9,12.8-0.4,17.3-4.1C191,255.1,191.2,254.7,191.9,254.3L191.9,254.3z"/>
		<path fill="#BF202F" d="M2.9,258.9l13.8,0l1.5-35.4c0.1,0.4,0.2,1,0.3,1.3c0.7,3.3,9.4,33.2,9.9,34.1l8.5,0
			c0.4-0.6,9.1-29.2,10.1-34.4c0.1-0.4,0.1-0.9,0.3-1.3c0-0.2,0.1-0.5,0.2-0.6c0.2-0.6,0.1-0.3,0.3-0.6c0.4,5.6,0.3,18.5,0.6,25.3
			l0.2,9.4c0,1.5-0.3,2.2,1,2.3c3.1,0.2,9.7,0.1,12.9-0.1l-3.4-59c-1.6-0.7-12.2-0.2-14.8-0.2l-11.5,36.4l-11.5-36.4
			c-3.2,0-6.4,0-9.6,0c-5.9,0-5.1-1.3-5.4,4C5.1,221.4,3.4,242,2.9,258.9L2.9,258.9z"/>
		<path fill="#BF202F" d="M126.7,210.3c12.3-4.1,13.7,8.8,13.7,18.9c0,10-2,22.1-13.7,18.7L126.7,210.3L126.7,210.3z M113.3,204.1
			l0,72.4l13.3,0.1l0.1-19c11.5,2.5,18-1.4,22.3-8.6c7.2-11.8,7.6-40.4-8.8-47.3C132.5,198.4,118.7,199.9,113.3,204.1L113.3,204.1z"
			/>
		<path fill="#BF202F" d="M403.9,258l0.1,0.9l13.6,0l0.1-29.6c0.9,1.2,9.2,19.3,10.5,22.2c0.8,1.8,2.5,6.1,3.5,7.4H447
			c0-0.7-13.8-27-15.3-29.7c-0.8-1.5-1.8-2.3-1-3.8l14.3-25.5l-13.9,0l-13.2,25.9l-0.2-41.6l-13.8-0.1L403.9,258L403.9,258z"/>
		<path fill="#BF202F" d="M281.1,258.9H295v-26.2h11.8v26.1c1.9,0.4,11.5,0.3,13.9,0.1l0-59.1l-13.9,0l0,22l-11.9,0l0-22.1l-13.9,0
			L281.1,258.9L281.1,258.9z"/>
		<path fill="#BF202F" d="M273.8,255.5l0-55.7l-13.9-0.1l0,48.4c-15,4.3-12.9-5.3-12.9-16.8c0-6.5,0.3-26.8,0-31.6l-13.8,0
			c-0.5,8.2,0,18,0,26.3c0,15.5-3.2,33,18.8,33.9C258.4,260.3,269.6,258.8,273.8,255.5L273.8,255.5z"/>
		<path fill="#BF202E" d="M85.5,209.7c8-2.9,9,11.1,9,17.4c0,6.9,0.3,19.1-5.7,21c-8.1,2.6-8.9-11.1-9-17.3
			C79.7,225.8,79.3,212,85.5,209.7L85.5,209.7z M85.4,198.8c-14.7,1.2-20,16.9-19.4,32.6c0.5,14.9,7,30.1,23,28.6
			c14.5-1.4,19.8-17,19.3-32.6C107.8,212.4,101.3,197.4,85.4,198.8L85.4,198.8z"/>
		<path fill="#BF202E" d="M473.7,249.7c-2.9,1.6-7.4,1.2-10.1-0.4c-2.6-1.6-3.7-5.1-3.5-9.1c0.3-8.3,6.9-11.6,13.6-11.6L473.7,249.7
			L473.7,249.7z M449.8,203.2c0.4,1.7,2.4,8.7,3.1,9.7c4.3-1.7,7.9-4,13.9-3.4c6.4,0.6,6.8,4.3,6.8,10.4c-6.7,1.5-14.6,1.7-20.6,7.1
			c-5.7,5.2-7.6,13.1-5.3,21c5.1,17.8,33.1,12.1,38.9,7.7c0-8.2,0-16.4,0-24.5c0-7.7,0.7-16.1-2.1-22.6
			C479.2,195.5,462,197.2,449.8,203.2L449.8,203.2z"/>
		<path fill="#BF202F" d="M376.6,229c6.5-0.8,9.9,4.2,9.9,10.4l0,0.3c0,6.3-3.1,11.9-9.9,10.4L376.6,229L376.6,229z M363.3,256.8
			c7.5,4.7,36.3,4.8,36.3-15.8c0-7.4-1.3-13.4-6.3-17.6c-4.6-3.8-9.6-4.2-16.7-4.9l0-18.8l-13.3,0L363.3,256.8L363.3,256.8z"/>
		<path fill="#BF202E" d="M358.4,255.9l-2.9-10.4c-0.8,0.4-2.5,2.6-6.3,2.4c-2.8-0.2-4.3-1.9-5.4-3.6c-2.3-3.6-3-10.3-3-15.2
			c0-4.9,0.5-11.5,2.8-15.1c1.2-1.9,2.6-3.4,5.4-3.6c3.1-0.3,4.8,1,6.5,2.2l2.8-9.3c-3.4-4.8-15.8-7.3-23.4,0.6
			c-12.1,12.6-10.3,44.4,1.6,52.8c0.8,0.6,1.6,1.2,2.6,1.6C345.1,261.2,353.5,260.4,358.4,255.9L358.4,255.9z"/>
		<path fill="#FFFFFF" d="M85.5,209.7c-6.1,2.3-5.7,16-5.7,21.1c0.1,6.2,0.9,19.9,9,17.3c5.9-1.9,5.7-14.1,5.7-21
			C94.4,220.9,93.5,206.8,85.5,209.7L85.5,209.7z"/>
		<path fill="#FFFFFF" d="M126.7,210.3l0,37.6c11.7,3.4,13.7-8.7,13.7-18.7C140.4,219.2,139,206.2,126.7,210.3L126.7,210.3z"/>
		<path fill="#FFFFFF" d="M473.7,249.7l0-21.2c-6.8,0-13.4,3.3-13.6,11.6c-0.1,4,0.9,7.5,3.5,9.1
			C466.3,250.9,470.8,251.2,473.7,249.7L473.7,249.7z"/>
		<path fill="#FFFFFF" d="M376.6,250c6.8,1.6,10-4.1,9.9-10.4l0-0.3c0-6.1-3.4-11.2-9.9-10.4L376.6,250L376.6,250z"/>
		<path fill="#FFFFFF" d="M492.4,208.5c-0.8-0.3-0.4,0.1-0.7-0.6c-0.3-0.6-0.1-6.1,0-6.7c2,0,3.8-0.3,4.9,0.8c0.5,1.5,0.3,2-0.5,2.9
			c0.4,0.6,0.5,0.5,0.6,1.6c0,0,0,1,0,1c-0.1,1,0.2,0.2-0.4,0.9c-0.9-0.3-0.6,0.2-0.9-1.1c0-0.2,0.4-2.5-2.6-1.7
			C492.9,206.9,493.1,207.8,492.4,208.5L492.4,208.5z M489.3,205.8c1,5.9,11,4.9,9.8-1.8c-0.4-2.4-2.8-4.5-5.8-4
			C490.8,200.4,488.8,202.8,489.3,205.8L489.3,205.8z"/>
		<path fill="#D9607B" d="M492.4,208.5c0.8-0.7,0.5-1.6,0.5-2.8c3-0.9,2.6,1.5,2.6,1.7c0.2,1.3,0,0.9,0.9,1.1
			c0.6-0.6,0.2,0.1,0.4-0.9c0,0,0-1,0-1c-0.2-1.2-0.3-1-0.6-1.6c0.9-0.9,1.1-1.4,0.5-2.9c-1.1-1.2-2.9-0.8-4.9-0.8
			c-0.1,0.5-0.3,6.1,0,6.7C492,208.6,491.6,208.2,492.4,208.5L492.4,208.5z"/>
		<path fill="#BF2030" d="M489.3,205.8c-0.5-3,1.5-5.4,4-5.8c3-0.5,5.4,1.6,5.8,4C500.2,210.7,490.3,211.7,489.3,205.8L489.3,205.8z
			 M492.7,199.4c-7.6,2.3-4.2,12.9,2.9,11.1c2.7-0.7,5-3.5,4-7.2C499,200.7,496.1,198.3,492.7,199.4L492.7,199.4z"/>
	</g>
</g>
</svg>
