<?xml version="1.0" encoding="utf-8"?>
<!-- Generator: Adobe Illustrator 17.1.0, SVG Export Plug-In . SVG Version: 6.00 Build 0)  -->
<!DOCTYPE svg PUBLIC "-//W3C//DTD SVG 1.1//EN" "http://www.w3.org/Graphics/SVG/1.1/DTD/svg11.dtd">
<svg version="1.1" id="Layer_1" xmlns="http://www.w3.org/2000/svg" xmlns:xlink="http://www.w3.org/1999/xlink" x="0px" y="0px"
	 viewBox="0 0 500 500" enable-background="new 0 0 500 500" xml:space="preserve">
<g id="Layer_x0020_1">
	<g id="_1986705089056">
		<path fill="#010101" d="M252.7,199.3c19.3-2.7,34,8.7,36.8,24.9c2.9,16.5-8.2,32.8-26,35.3c-19.5,2.8-34.1-8.9-36.8-25.1
			C223.5,215.8,236.9,201.6,252.7,199.3L252.7,199.3z M129.3,199.4c31.9-5.2,47.4,28.5,31.4,48.6c-16,20.1-51.4,14.4-56.8-12.8
			C100.7,218.7,111.3,202.3,129.3,199.4L129.3,199.4z M48.9,200.4c0.9,0.2,0.4,0.1,1.1,0.9c3.4,3.9,14.5,18.2,16.7,20.1
			c1.4-1.8,2.9-3.6,4.4-5.4c1.5-1.9,2.8-3.6,4.3-5.2c1.6-1.9,2.8-3.5,4.5-5.5c0.8-1,3.2-4.5,4.3-4.8c0.9-1.1,1-0.8,2.9-0.7l9.6,0.1
			l-0.2,59.4l-13.7-0.1c-1-5,0.3-27.7-0.2-34.7c0-0.6,0-0.6-0.2-1.1l-0.4-0.6c-0.7,1.8-5.5,7.1-7.2,9.3c-1.3,1.7-2.3,2.9-3.7,4.6
			c-2.4,3-4,6.3-7.1,2.3c-2.6-3.5-12-14.4-12.7-16.2c-0.5,0.6-0.3-0.1-0.5,0.9c-0.5,1.8,0.7,31.1-0.5,35.5l-13.7-0.1l0.2-59.3
			c2.1-0.1,4.3-0.1,6.5-0.1C46.3,199.7,48.2,199.1,48.9,200.4L48.9,200.4z M190,259c-0.8-3.8-0.2-15.9-0.2-20.5
			c0-4.6,0.7-6.4-1.3-9.1L176,211.7c-1.3-1.9-7.8-10.8-8-11.9l16.6,0c1.2,1.5,2,3.1,3.1,4.7c1.2,1.8,1.9,2.9,3,4.5
			c1.2,2,4.9,8,6.1,9.1c4.3-5.6,7.9-12.6,12.3-18.3l16.5,0.1c-2,3.6-5.6,8.1-8.2,11.9l-12.6,18.1c-1.2,1.6-1,1.7-1,4.1
			c0,1.7,0,3.3,0,5c0,5.2,0.6,15.4-0.1,20.1L190,259L190,259z M319.7,282l0-104.8H5.4V282H319.7L319.7,282z"/>
		<path fill="#0778BA" d="M408.4,259c0-1.7,16.9-45.6,19.9-53.5c2.5-6.7,1.3-5.8,6.4-5.8c3.9,0,7.9,0,11.8,0
			c2.4,4.9,24.5,58,24.5,59.3l-14.5,0c-1-2-1.7-4.1-2.5-6.2c-1.4-3.6-1.5-5.6-3.1-5.6h-22.4c-1.7,0-1.4,0.2-1.9,1
			c-0.1,0.2-0.4,1.3-0.5,1.5C422.2,261.6,425.3,259,408.4,259L408.4,259z M495.2,188.6v84.8v7c-0.2,1-0.7,1.5-1.7,1.7l-173.8,0
			l0-104.8c10.5,0,174.2-0.5,175.1,0.4C495,177.7,495.2,182,495.2,188.6L495.2,188.6z M349.6,200.8c0-1.8,4.7-1,6.4-1
			c2.4,0,4.8,0,7.3,0c0.9,3.4,0.3,25.6,0.3,30.9c0,5.4,0.3,8.8,3,12.2c3.9,4.9,15,7.1,21.8-0.2c2.8-3.1,3-7.4,3-12.4
			c0-4.5-0.3-28,0.2-30.5l13.7,0l0.1,33.8c0,16.2-9.7,26.3-26.1,26.3h-3.3c-15.9,0-26.3-10.1-26.3-25.5L349.6,200.8L349.6,200.8z"/>
		<path fill="#FFFFFF" d="M51.2,222.7c0.7,1.8,10.1,12.7,12.7,16.2c3,4,4.7,0.7,7.1-2.3c1.4-1.7,2.4-2.9,3.7-4.6
			c1.7-2.1,6.5-7.5,7.2-9.3c0.6-0.5-1-0.8,0.9-0.3v36.2h13.4l0-58.4l-12.1,0.2c-1.2,0.4-3.5,3.8-4.3,4.8c-1.6,2-2.9,3.6-4.5,5.5
			c-1.4,1.7-2.8,3.4-4.3,5.2c-1.5,1.8-3,3.7-4.4,5.4c-2.2-1.8-13.3-16.2-16.7-20.1c-0.8-0.9-0.2-0.7-1.1-0.9l-12.1-0.2v58.4h13.3
			l0.1-36.2C52.3,221.9,50.4,222.2,51.2,222.7L51.2,222.7z"/>
		<path fill="#FFFFFF" d="M254,211.8c25.1-5.1,29.2,31.1,8.1,35.1C237,251.7,232.9,216.1,254,211.8z M252.7,199.3
			c-15.8,2.2-29.2,16.5-26,35.2c2.7,16.2,17.4,27.9,36.8,25.1c17.8-2.6,28.9-18.9,26-35.3C286.6,208,271.9,196.6,252.7,199.3
			L252.7,199.3z"/>
		<path fill="#FFFFFF" d="M130.8,211.9c24.9-5.7,29.8,29.9,9.3,34.8c-11.3,2.7-20.1-3.7-21.9-12.8
			C115.9,222.4,121.5,214.1,130.8,211.9L130.8,211.9z M129.3,199.4c-18,2.9-28.7,19.3-25.4,35.8c5.4,27.2,40.9,32.9,56.8,12.8
			C176.7,227.9,161.3,194.2,129.3,199.4L129.3,199.4z"/>
		<path fill="#FFFFFF" d="M349.6,200.8v33.6c0,15.4,10.4,25.5,26.3,25.5h3.3c16.4,0,26.1-10.1,26.1-26.3l-0.1-33.8l-13.7,0
			c-0.5,2.5-0.2,26-0.2,30.5c0,5-0.2,9.3-3,12.4c-6.7,7.3-17.9,5.1-21.8,0.2c-2.7-3.4-3-6.9-3-12.2c0-5.3,0.7-27.5-0.3-30.9
			c-2.4,0-4.8,0-7.3,0C354.3,199.8,349.6,199,349.6,200.8L349.6,200.8z"/>
		<path fill="#FFFFFF" d="M430.8,236.9c0.2-0.6,6.9-21.5,8.2-22.3l8.6,22.3H430.8z M408.4,259c16.9,0,13.8,2.6,17.7-9.3
			c0.1-0.3,0.4-1.3,0.5-1.5c0.5-0.8,0.2-1,1.9-1h22.4c1.6,0,1.7,2,3.1,5.6c0.8,2,1.6,4.2,2.5,6.2l14.5,0c0-1.3-22-54.4-24.5-59.3
			c-3.9,0-7.9,0-11.8,0c-5.1,0-3.9-1-6.4,5.8C425.3,213.4,408.4,257.3,408.4,259L408.4,259z"/>
		<path fill="#FFFFFF" d="M190,259l13.7,0c0.7-4.7,0.1-14.9,0.1-20.1c0-1.7,0-3.3,0-5c0-2.4-0.2-2.5,1-4.1l12.6-18.1
			c2.6-3.9,6.2-8.4,8.2-11.9l-16.5-0.1c-4.4,5.7-8,12.7-12.3,18.3c-1.2-1.1-4.8-7.1-6.1-9.1c-1-1.6-1.8-2.7-3-4.5
			c-1.1-1.6-1.9-3.2-3.1-4.7l-16.6,0c0.2,1.2,6.7,10.1,8,11.9l12.5,17.7c1.9,2.7,1.3,4.5,1.3,9.1C189.8,243.1,189.2,255.3,190,259
			L190,259z"/>
		<path fill="#010101" d="M130.8,211.9c-9.2,2.1-14.9,10.4-12.6,22c1.8,9.2,10.6,15.5,21.9,12.8
			C160.6,241.8,155.6,206.2,130.8,211.9L130.8,211.9z"/>
		<path fill="#010101" d="M254,211.8c-21.1,4.3-17,39.9,8.1,35.1C283.2,242.9,279.1,206.7,254,211.8z"/>
		<path fill="#0778BA" d="M430.8,236.9h16.8l-8.6-22.3C437.8,215.5,431,236.3,430.8,236.9z"/>
		<path fill="#B6B3B3" d="M51.2,222.7c-0.8-0.5,1.1-0.8-0.9-0.3l-0.1,36.2H36.8v-58.4l12.1,0.2c-0.7-1.3-2.6-0.7-5.8-0.7
			c-2.2,0-4.3-0.1-6.5,0.1l-0.2,59.3l13.7,0.1c1.2-4.4,0-33.7,0.5-35.5C50.9,222.6,50.6,223.3,51.2,222.7L51.2,222.7z"/>
		<path fill="#B6B3B3" d="M81.9,222.7l0.4,0.6c0.2,0.6,0.2,0.5,0.2,1.1c0.5,6.9-0.9,29.7,0.2,34.7l13.7,0.1l0.2-59.4l-9.6-0.1
			c-1.9,0-2-0.4-2.9,0.7l12.1-0.2l0,58.4H82.8v-36.2C80.9,221.9,82.4,222.1,81.9,222.7z"/>
	</g>
</g>
</svg>
