<?xml version="1.0" encoding="UTF-8"?>
<!DOCTYPE svg PUBLIC "-//W3C//DTD SVG 1.1//EN" "http://www.w3.org/Graphics/SVG/1.1/DTD/svg11.dtd">
<!-- Creator: CorelDRAW 2018 (64-Bit Evaluation Version) -->
<svg xmlns="http://www.w3.org/2000/svg" xml:space="preserve" width="8.5in" height="11in" version="1.1" style="shape-rendering:geometricPrecision; text-rendering:geometricPrecision; image-rendering:optimizeQuality; fill-rule:evenodd; clip-rule:evenodd"
viewBox="0 0 8500 11000"
 xmlns:xlink="http://www.w3.org/1999/xlink">
 <defs>
  <style type="text/css">
   <![CDATA[
    .fil0 {fill:black}
    .fil1 {fill:#0077BA}
    .fil3 {fill:#B5B2B2}
    .fil2 {fill:#FEFEFE}
   ]]>
  </style>
 </defs>
 <g id="Layer_x0020_1">
  <metadata id="CorelCorpID_0Corel-Layer"/>
  <g id="_1986705089056">
   <path class="fil0" d="M3998.04 6960.11c155.14,-22.01 273.16,69.8 296.09,200.28 23.28,132.47 -66.09,263.51 -209.22,284.17 -156.52,22.59 -274.63,-71.8 -296.4,-201.71 -25.11,-149.84 82.41,-264.71 209.53,-282.75zm-991.83 0.74c256.69,-41.93 380.91,229.54 252.83,391.1 -128.34,161.9 -413.45,116.19 -456.98,-102.86 -26.36,-132.65 59.17,-264.55 204.15,-288.24zm-647.2 7.87c7.2,1.94 2.87,0.7 9.02,7.62 27.72,31.17 116.87,146.76 134.48,161.56 11.19,-14.3 23.42,-28.99 35.44,-43.8 12.09,-14.9 22.91,-28.68 34.37,-42.22 12.63,-14.93 22.89,-28.22 35.84,-44.17 6.83,-8.41 25.39,-36.08 34.66,-39 7.16,-9.1 7.8,-6.15 22.97,-5.94l76.97 0.63 -1.9 477.8 -110.33 -0.48c-8.17,-40.2 2.58,-223.02 -1.26,-278.89 -0.35,-5.05 -0.36,-4.63 -1.65,-9.13l-3.2 -4.79c-5.6,14.69 -44.4,57.5 -58.03,74.65 -10.7,13.49 -18.74,23.3 -29.68,37.02 -19.28,24.19 -32.37,50.78 -56.87,18.5 -21.16,-27.89 -96.91,-115.83 -102.55,-130.17 -4.37,4.94 -2.1,-0.7 -4.2,7.56 -3.71,14.57 5.61,250.45 -3.91,285.72l-110.23 -0.48 1.57 -477.32c17.25,-1.15 34.7,-0.52 52,-0.52 25.84,-0 40.99,-4.49 46.48,5.83zm1135.08 471.8c-6.2,-30.34 -1.57,-127.77 -1.57,-165.11 0,-37.09 5.32,-51.18 -10.19,-73.15l-100.57 -142.75c-10.55,-14.91 -62.43,-86.52 -64.35,-95.89l133.38 0.19c9.87,12.19 16.42,25.11 25.22,38.16 9.51,14.09 15.59,23.2 23.85,36.14 10.05,15.74 39.13,63.96 48.89,72.94 34.69,-45.04 63.15,-101.35 98.66,-147.46l132.81 0.8c-15.99,28.74 -44.9,65.04 -66,96.03l-101.35 145.25c-9.62,13.2 -8.07,13.31 -7.96,32.96 0.08,13.38 0.15,26.73 0.15,40.12 0,41.95 4.66,124.26 -1.13,161.72l-109.86 0.06zm1043.44 184.89l0.2 -843.33 -2528.54 0 0 843.33 2528.33 0z"/>
   <path class="fil1" d="M5250.74 7440.44c-0.24,-13.76 136.18,-367.01 159.93,-430.2 20.4,-54.27 10.83,-46.85 51.81,-46.55 31.67,0.23 63.41,0.02 95.08,0.02 19.46,39.13 196.88,466.54 196.76,476.75l-116.59 -0.25c-7.72,-15.91 -14.05,-33.29 -20.36,-49.67 -11.2,-29.07 -11.9,-45.11 -24.85,-45.11l-180 0c-13.74,0 -11.53,1.67 -15.27,8.2 -0.95,1.66 -3.61,10.15 -4.29,12.23 -31.09,95.26 -6.3,74.59 -142.23,74.59zm698.46 -566.87l0 681.84 0 56.36c-1.57,7.87 -5.33,12.31 -13.49,13.48l-1398.19 0.16 0.2 -843.33c84.59,0 1401.3,-4.24 1408.5,2.96 1.43,1.43 2.37,35.46 2.97,88.53zm-1171.7 98.51c0,-14.39 37.75,-8.37 51.7,-8.37 19.49,0.01 38.97,0 58.46,0 7.39,27.28 2.1,205.86 2.05,248.37 -0.05,43.3 2.52,70.8 24.39,98.48 31.13,39.41 121.04,56.84 175,-1.85 22.81,-24.81 24.28,-59.5 24.2,-99.96 -0.06,-36.19 -2.44,-225.2 1.37,-244.96l110.01 -0.13 1.2 271.76c0,130.64 -78.38,211.7 -210.02,211.7l-26.67 0c-128,0 -211.7,-81.42 -211.7,-205.03l0 -270z"/>
   <path class="fil2" d="M2377.3 7147.93c5.64,14.34 81.39,102.28 102.55,130.17 24.5,32.29 37.59,5.69 56.87,-18.5 10.94,-13.72 18.97,-23.53 29.68,-37.02 13.63,-17.16 52.43,-59.97 58.03,-74.65 4.53,-4.2 -7.79,-6.28 7.43,-2.53l0 291.44 108.18 0 -0.15 -469.53 -97.06 1.42c-9.27,2.92 -27.82,30.59 -34.66,39 -12.95,15.94 -23.2,29.24 -35.84,44.17 -11.46,13.54 -22.28,27.32 -34.37,42.22 -12.02,14.81 -24.26,29.5 -35.44,43.8 -17.61,-14.81 -106.76,-130.39 -134.48,-161.56 -6.15,-6.92 -1.82,-5.68 -9.02,-7.62l-97.15 -1.54 0 469.66 107.34 0 0.68 -291.44c16.23,-4 1.39,-1.15 7.43,2.53z"/>
   <path class="fil2" d="M4008.66 7060.52c201.8,-40.85 234.83,250.04 65.31,282.5 -201.85,38.65 -234.87,-248.18 -65.31,-282.5zm-10.62 -100.41c-127.12,18.04 -234.64,132.91 -209.53,282.75 21.77,129.91 139.88,224.3 296.4,201.71 143.13,-20.66 232.49,-151.7 209.22,-284.17 -22.93,-130.48 -140.95,-222.3 -296.09,-200.28z"/>
   <path class="fil2" d="M3017.62 7061.69c200,-45.94 240.08,240.47 74.59,280.05 -90.85,21.72 -161.28,-29.37 -175.91,-103.35 -18.38,-92.92 26.95,-159.61 101.32,-176.7zm-11.41 -100.84c-144.98,23.69 -230.51,155.58 -204.15,288.24 43.53,219.05 328.64,264.76 456.98,102.86 128.08,-161.56 3.86,-433.03 -252.83,-391.1z"/>
   <path class="fil2" d="M4777.5 6972.08l0 270c0,123.61 83.7,205.03 211.7,205.03l26.67 0c131.63,0 210.02,-81.06 210.02,-211.7l-1.2 -271.76 -110.01 0.13c-3.81,19.76 -1.43,208.76 -1.37,244.96 0.07,40.46 -1.4,75.16 -24.2,99.96 -53.97,58.7 -143.87,41.26 -175,1.85 -21.87,-27.69 -24.44,-55.19 -24.39,-98.48 0.06,-42.51 5.34,-221.09 -2.05,-248.37 -19.48,0 -38.97,0.01 -58.46,0 -13.94,0 -51.7,-6.02 -51.7,8.37z"/>
   <path class="fil2" d="M5431.33 7262.84c1.25,-5.12 55.72,-172.89 65.87,-179.54l69.08 179.54 -134.95 0zm-180.59 177.61c135.93,0 111.14,20.67 142.23,-74.59 0.68,-2.08 3.34,-10.57 4.29,-12.23 3.74,-6.53 1.54,-8.2 15.27,-8.2l180 0c12.94,0 13.65,16.04 24.85,45.11 6.31,16.37 12.63,33.76 20.36,49.67l116.59 0.25c0.12,-10.22 -177.29,-437.63 -196.76,-476.75 -31.67,0 -63.41,0.21 -95.08,-0.02 -40.98,-0.3 -31.41,-7.72 -51.81,46.55 -23.75,63.19 -160.17,416.45 -159.93,430.2z"/>
   <path class="fil2" d="M3494.08 7440.52l109.86 -0.06c5.79,-37.46 1.13,-119.77 1.13,-161.72 0,-13.39 -0.07,-26.74 -0.15,-40.12 -0.12,-19.65 -1.66,-19.76 7.96,-32.96l101.35 -145.25c21.1,-30.99 50.01,-67.29 66,-96.03l-132.81 -0.8c-35.51,46.11 -63.97,102.42 -98.66,147.46 -9.76,-8.98 -38.84,-57.2 -48.89,-72.94 -8.26,-12.94 -14.34,-22.04 -23.85,-36.14 -8.8,-13.05 -15.35,-25.98 -25.22,-38.16l-133.38 -0.19c1.91,9.37 53.8,80.98 64.35,95.89l100.57 142.75c15.51,21.96 10.19,36.06 10.19,73.15 0,37.34 -4.64,134.77 1.57,165.11z"/>
   <path class="fil0" d="M3017.62 7061.69c-74.37,17.09 -119.7,83.78 -101.32,176.7 14.63,73.98 85.07,125.07 175.91,103.35 165.49,-39.57 125.41,-325.99 -74.59,-280.05z"/>
   <path class="fil0" d="M4008.66 7060.52c-169.56,34.32 -136.54,321.16 65.31,282.5 169.52,-32.46 136.49,-323.35 -65.31,-282.5z"/>
   <path class="fil1" d="M5431.33 7262.84l134.95 0 -69.08 -179.54c-10.15,6.65 -64.62,174.42 -65.87,179.54z"/>
   <path class="fil3" d="M2377.3 7147.93c-6.04,-3.68 8.8,-6.53 -7.43,-2.53l-0.68 291.44 -107.34 0 0 -469.66 97.15 1.54c-5.49,-10.32 -20.64,-5.84 -46.48,-5.83 -17.3,0 -34.75,-0.62 -52,0.52l-1.57 477.32 110.23 0.48c9.52,-35.28 0.19,-271.15 3.91,-285.72 2.1,-8.27 -0.17,-2.63 4.2,-7.56z"/>
   <path class="fil3" d="M2624.42 7147.93l3.2 4.79c1.29,4.5 1.3,4.08 1.65,9.13 3.84,55.87 -6.91,238.69 1.26,278.89l110.33 0.48 1.9 -477.8 -76.97 -0.63c-15.17,-0.21 -15.81,-3.16 -22.97,5.94l97.06 -1.42 0.15 469.53 -108.18 0 0 -291.44c-15.22,-3.75 -2.9,-1.67 -7.43,2.53z"/>
  </g>
 </g>
</svg>
