<?xml version="1.0" encoding="utf-8"?>
<!-- Generator: Adobe Illustrator 17.1.0, SVG Export Plug-In . SVG Version: 6.00 Build 0)  -->
<!DOCTYPE svg PUBLIC "-//W3C//DTD SVG 1.1//EN" "http://www.w3.org/Graphics/SVG/1.1/DTD/svg11.dtd">
<svg version="1.1" id="Layer_1" xmlns="http://www.w3.org/2000/svg" xmlns:xlink="http://www.w3.org/1999/xlink" x="0px" y="0px"
	 viewBox="0 0 500 500" enable-background="new 0 0 500 500" xml:space="preserve">
<g id="Layer_x0020_1">
	<g id="_2023418570656">
		<path fill="#FCDC30" d="M60.7,253.7c0,100.6,79.9,174.7,181.2,174.6c48,0,94.5-20.6,125.4-53.2c24.9-26.3,53.7-69.2,53.7-123.4
			c0-23.7-10.7-76.9-24.3-89.2l-157,264.1c-12.2-14.3-145-253.4-156.6-264.5C69.2,196,60.7,210.1,60.7,253.7L60.7,253.7z"/>
		<path fill="#FCDC30" d="M148.5,97.8c20.4,31,78.4,156.4,91.9,167.8l94.1-170.2c-28.9-25.1-99.2-31.9-146-17.2
			c-7.2,2.2-14.2,4.8-20.7,7.8c-3.6,1.6-6.3,2.8-9.8,4.4c-2.8,1.4-2,0.4-5.2,2.9C149,96.2,150.7,94.8,148.5,97.8L148.5,97.8z"/>
	</g>
</g>
</svg>
