<?xml version="1.0" encoding="UTF-8"?>
<!DOCTYPE svg PUBLIC "-//W3C//DTD SVG 1.1//EN" "http://www.w3.org/Graphics/SVG/1.1/DTD/svg11.dtd">
<!-- Creator: CorelDRAW 2018 (64-Bit Evaluation Version) -->
<svg xmlns="http://www.w3.org/2000/svg" xml:space="preserve" width="8.5in" height="11in" version="1.1" style="shape-rendering:geometricPrecision; text-rendering:geometricPrecision; image-rendering:optimizeQuality; fill-rule:evenodd; clip-rule:evenodd"
viewBox="0 0 8500 11000"
 xmlns:xlink="http://www.w3.org/1999/xlink">
 <defs>
  <style type="text/css">
   <![CDATA[
    .fil0 {fill:#FDDC2F}
   ]]>
  </style>
 </defs>
 <g id="Layer_x0020_1">
  <metadata id="CorelCorpID_0Corel-Layer"/>
  <g id="_2023418570656">
   <path class="fil0" d="M3009.74 6840.88c0,686.61 545.3,1191.82 1236.27,1191.19 327.63,-0.3 644.97,-140.36 855.57,-363.08 169.61,-179.38 366.49,-472.4 366.49,-842 0,-161.85 -72.79,-524.49 -165.98,-608.63l-1070.99 1802.21c-83.01,-97.61 -989.51,-1728.76 -1068.58,-1804.7 -94.57,231 -152.78,327.49 -152.78,625z"/>
   <path class="fil0" d="M3608.63 5776.67c139.48,211.51 535,1067.15 626.78,1144.95l642.43 -1161.17c-197.1,-171.07 -676.9,-217.68 -996.4,-117.42 -48.91,15.35 -96.77,32.89 -141.5,53.03 -24.7,11.12 -43.19,19.02 -66.56,30.31 -19.43,9.39 -13.35,2.79 -35.73,20.05 -25.48,19.65 -13.63,9.97 -29.01,30.24z"/>
  </g>
 </g>
</svg>
