<?xml version="1.0" encoding="UTF-8"?>
<!DOCTYPE svg PUBLIC "-//W3C//DTD SVG 1.1//EN" "http://www.w3.org/Graphics/SVG/1.1/DTD/svg11.dtd">
<!-- Creator: CorelDRAW 2018 (64-Bit Evaluation Version) -->
<svg xmlns="http://www.w3.org/2000/svg" xml:space="preserve" width="8.5in" height="11in" version="1.1" style="shape-rendering:geometricPrecision; text-rendering:geometricPrecision; image-rendering:optimizeQuality; fill-rule:evenodd; clip-rule:evenodd"
viewBox="0 0 8500 11000"
 xmlns:xlink="http://www.w3.org/1999/xlink">
 <defs>
  <style type="text/css">
   <![CDATA[
    .fil0 {fill:black}
   ]]>
  </style>
 </defs>
 <g id="Layer_x0020_1">
  <metadata id="CorelCorpID_0Corel-Layer"/>
  <g id="_1986710187792">
   <path class="fil0" d="M3514.44 5489.06l4.22 -2.44c18.48,-9.52 62.89,-30.75 78.91,-31.09l353.53 3.53 -105.72 10.95c-69.12,8.76 -260.44,19.05 -330.95,19.05zm110 -56.67c7.34,-10.97 41.2,-30.31 55.31,-41.36 42.53,-33.31 23.21,-32.48 64.64,-32.03l583.39 0.06c-7.66,6.66 -21.97,10.78 -31.89,14.77 -52.75,21.23 -131.92,44.03 -187.71,55.62 -32.07,6.66 -429.55,2.94 -483.72,2.94zm120 -96.67l82.5 -77.5c39.25,-39.26 23.04,-25.83 137.5,-25.83l543.33 0c-24.13,36.03 -79.73,76.56 -118.75,97.92 -20.87,11.43 -175.93,5.42 -211.25,5.42 -144.44,0 -288.89,0 -433.33,0zm783.33 -126.67l-650 0c4.04,-15.1 68.85,-70.72 76.67,-100l610 0c-3.91,47.03 -32.69,85.13 -36.67,100zm-503.33 -223.33l536.67 0c0.42,19.01 6.67,27.67 6.67,50l0 50 -593.33 0c4.17,-15.63 47.9,-74.81 50,-100zm46.67 -123.33l360 0c42.17,-0.01 43.74,-5.64 60.94,12.39 13.66,14.32 22.2,22.44 33.8,39.54 7.97,11.74 22.09,34.43 25.27,48.07l-513.33 0c3.45,-14.81 12.38,-32.85 17.96,-48.71 5.76,-16.38 11.6,-35.09 15.37,-51.29zm26.67 -126.67l160 0c34.46,0 178.31,82.83 193.33,103.33l-373.33 0c5.92,-25.41 19.41,-76.74 20,-103.33zm6.67 -53.33c11.81,0.98 84.71,21.69 96.67,30l-100 0c2.96,-12.71 3.33,-13.25 3.33,-30zm-210 -83.33l103.33 0c-1.07,12.85 -3.33,13.13 -3.33,30 -8.74,-0.73 -88.54,-22.04 -100,-30zm-273.33 -110l393.33 0c-0.61,27.17 -12.73,59.49 -13.33,86.67l-176.67 0c-24.91,0 -160.22,-58.06 -192.03,-77.97 -4.85,-3.04 -7.89,-5.72 -11.31,-8.69zm-113.33 -123.33l536.67 0c-1.6,19.24 -23.33,63.94 -23.33,100l-433.33 0c-15.82,0 -75.07,-61.57 -80,-100zm540 -23.33l-546.67 0c0,-24.92 -5.61,-39.71 4.15,-79.19 2.06,-8.33 4.94,-13.28 5.85,-24.15l596.67 0 -41.91 78.09c-4.11,10.23 -6.77,25.25 -18.09,25.25zm76.67 -126.67l-600 0c16.3,-30.81 68.8,-92.2 94.2,-99.13 12.92,-3.52 539.11,-0.87 579.13,-0.87 -15.05,22.48 -67.36,77.62 -73.33,100zm-463.33 -123.33c13.69,-11.9 12.74,-9.43 27.6,-15.73l98.62 -38.05c65.32,-21.95 87.04,-22.89 157.11,-22.89 121.11,0 242.22,0 363.33,0 -4.1,5.6 -17.28,15.27 -23.35,19.98 -8.44,6.55 -16.63,13.44 -25.66,21 -33.06,27.68 -21.85,35.92 -54.08,35.92l-543.57 -0.24zm366.67 -100l0 -3.33c39.25,0 174.82,-20.31 229.93,-20.07 21.59,0.09 28.84,-2.85 46.63,-3.37 35.74,-1.05 60.95,-3.23 96.78,-3.23l-32.69 17.31c-34.78,21.45 -78.98,12.69 -137.31,12.69 -67.78,0 -135.56,0 -203.33,0zm-550 306.67l0 26.67c0,175.39 287.22,259.39 431.2,302.14 27.68,8.22 55,18.21 82.14,24.53l-19.44 130.56c-13.65,98.33 -42.61,243.46 -85,331.66 -4.95,10.31 -7.45,18.76 -12.13,27.87 -13.41,26.15 -40.43,69.54 -59.22,90.78 -7.09,8.01 -9.48,12.85 -17.46,19.2 -8.36,6.65 -12.59,11.56 -21.46,18.54 -15.64,12.29 -26.74,22.05 -43.27,33.39 -94.65,64.93 -141.59,74.67 -265.33,74.67 -26.25,0 -81.55,-7.97 -81.56,-7.97 -7.86,0.09 -2.65,-2.71 -11.11,5.08l-33.19 37.03c-18.61,21.14 -79.85,77.43 -84.14,95.86 18.89,0 34.63,4.59 50.51,6.16 94.07,9.31 83.65,-3.19 152.9,-2.75 22.11,0.14 28.7,-3.49 49.81,-3.52l106.89 0.22c91.9,-2.75 255.68,-18.22 340.09,-29.91 88.47,-12.25 175.79,-30.49 261.01,-55.66 26.74,-7.9 55.89,-17.96 79.28,-27.39 13.72,-5.52 23.87,-9.26 38.13,-15.2l103.26 -56.74c84.45,-60.57 151.45,-131.8 151.45,-275.21 0,-203.61 -236.19,-310.17 -398.74,-364.59 -26.74,-8.95 -58.02,-19.21 -84.59,-25.41 6.87,-29.46 5.09,-50 6.87,-73.14 9,-117.28 17.99,-282.8 68.65,-388.02 35.79,-74.33 94.09,-138.84 184.49,-138.84 34.14,0 106.37,0.78 129.41,23.92 10.45,10.49 7.96,13.66 13.92,26.08 16.69,-11.18 129.47,-127.39 143.33,-136.67 -6.25,-26.85 -4.63,-23.23 -28.77,-34.56 -56.72,-26.63 -128.42,1.75 -224.61,1.19l-341.42 25.25c-170.73,23.76 -417.81,58.14 -530.51,202.82 -23.68,30.4 -51.36,80.28 -51.36,131.98z"/>
   <path class="fil0" d="M2747.78 4732.4c0,-152.42 17.37,-275.19 66.24,-410.43 6.72,-18.61 13.75,-34.53 20.94,-52.4 17.36,-43.17 49.09,-106.21 72.19,-144.47 18.91,-31.32 36.23,-60.39 57.76,-88.9 10.47,-13.86 19.63,-26.09 29.98,-40.02 10.81,-14.54 22.03,-25.96 33.35,-39.98 32.37,-40.11 86.38,-94.19 126.69,-126.65 63.02,-50.73 115.02,-93.53 189.51,-133.82 278.64,-150.7 560.89,-196.54 877.99,-124.66 130.58,29.6 241.92,80.78 353.09,146.92 8.98,5.34 14.6,9.58 22.41,14.25l182.34 144.32c12.47,12.51 22.51,22.48 35.05,34.95 22.78,22.66 81.84,96.58 98.2,118.46 30.74,41.09 58.13,88.65 83.18,133.49 83.18,148.83 137.73,342.7 137.73,512.26 0,130.65 -3.22,192.51 -34.65,318.69 -52.72,211.7 -165.76,393.15 -317.85,545.48 -28.31,28.35 -83.81,74.85 -115.11,98.22 -15.04,11.23 -28.27,19.55 -42.89,30.44 -37.3,27.77 -93.04,58.94 -136.16,80.5 -15.93,7.97 -31.88,16.95 -49.04,24.3 -255.26,109.31 -503.74,136.08 -778.95,73.69 -113.2,-25.66 -213.82,-68.02 -310.98,-122.35 -54.41,-30.43 -166.33,-105.15 -211.88,-151.45 -19.8,-20.13 -45.62,-38.62 -73.29,-70.05l-33.94 -39.4c-38.48,-49.54 -49.39,-57.78 -91.93,-121.41 -9.55,-14.28 -19.19,-29 -28.63,-44.7 -34.5,-57.35 -68.72,-133.13 -93.3,-196.7 -13.94,-36.06 -24.64,-75 -34.07,-112.6 -18.7,-74.59 -34,-164.34 -34,-256zm-43.33 -66.67l0 6.88c0.04,142.94 1.4,190.65 37.33,335.8 44.3,178.98 135.77,343.03 253.66,483.01 6.61,7.85 10.92,10.41 17.61,19.06l55.57 57.76c73.49,73.49 122.96,107.33 204.52,162.15 51.19,34.41 93.36,52.54 144.65,78.68 125.06,63.75 340.74,113.33 480,113.33 178.69,0 291.89,-10.65 457.96,-68.71l203.46 -93.2c32.17,-19.08 60.84,-34.57 90.5,-56.16 62.96,-45.82 167.49,-130.24 217.09,-189.57l81.96 -101.38c41.72,-55.44 79.83,-122.68 111.25,-185.42 65.78,-131.36 117.78,-319.95 117.78,-475.56l0 -86.67c0,-227.5 -87.97,-442.04 -195.98,-614.02 -5.79,-9.22 -9.09,-12.2 -15.38,-21.29 -32.61,-47.12 -73.84,-101.8 -114.47,-142.2 -83.37,-82.89 -137.07,-135.85 -242.76,-200.57 -65.94,-40.38 -123.28,-72.2 -195.69,-100.98 -129.02,-51.28 -284.03,-90.94 -429.05,-90.94l-6.4 0c-133.44,0.06 -206.62,2.31 -340.94,35.98 -99.45,24.93 -229.57,74.93 -316.18,127.16 -133.97,80.8 -217.59,146.46 -323.94,266.06l-32.97 40.36c-57.87,72.66 -100.87,143.82 -142.91,227.09 -8.32,16.48 -14.56,32.65 -22.4,50.94 -52.25,121.85 -94.26,288.74 -94.26,422.41z"/>
   <path class="fil0" d="M3784.44 5652.4l0 -13.33c0,-21.89 16.41,-28.31 36.67,-30l0 70c-20.72,0 -36.67,-6.19 -36.67,-26.67zm70 26.67l0 -70c19.28,1.61 36.67,9.06 36.67,30l0 10c0,21.14 -15.63,29.53 -36.67,30zm-33.33 -100c-100.28,2.24 -96.87,130 0,130l0 20 33.33 0 0 -20c41.69,0 72.37,-23.76 72.57,-63.29 0.22,-44.11 -30.27,-63.19 -72.57,-66.71 -0.43,-19.39 1,-16.67 -33.33,-16.67l0 16.67z"/>
   <path class="fil0" d="M3767.77 3762.39l12.4 27.6c19.87,46.39 41.65,75.73 0.93,75.73 0,5.77 -3.51,36.47 27.63,21.2 15.21,-7.46 48.5,-114.85 49.03,-121.2 10.95,8.02 26.81,55.55 33.02,70.54 7.29,17.59 5.14,8.23 3.65,26.12 -9.27,4.45 -6.46,3.33 -20,3.33l0 23.33 26.67 0c14.96,-22.35 18.74,-34.19 27.94,-62.06 5.93,-17.96 21.02,-55.35 22.06,-67.94l-23.33 0c-4.78,9.97 -16.36,43.14 -16.67,56.67 -8.74,-6.41 -20.37,-43.94 -23.33,-56.67l-53.33 0c-0.63,7.63 -11.98,50.78 -20,56.67 -1.79,-21.53 -14.77,-33.89 -16.67,-56.67 -10.88,0 -22.01,-1.74 -30,3.33z"/>
   <path class="fil0" d="M3937.77 5572.4c0,28.37 -5.68,23.33 50,23.33l0 133.33 33.33 0 0 -133.33c55.68,0 50,5.03 50,-23.33 0,-7.68 -2.32,-10 -10,-10l-113.33 0c-7.68,0 -10,2.32 -10,10z"/>
   <path class="fil0" d="M4134.44 3889.06l26.67 0 0 -103.33 33.33 0 0 103.33c35.94,0 26.67,14.73 26.67,-120 0,-17.61 -37.75,-10 -86.67,-10l0 130z"/>
   <path class="fil0" d="M3584.44 3889.06c32.59,0 26.67,7.04 26.67,-53.33l33.33 0 0 53.33 23.33 0 0 -130 -23.33 0 0 50 -33.33 0c0,-56.58 5.68,-50 -26.67,-50l0 130z"/>
   <path class="fil0" d="M4044.44 3769.06l0 110c0,12.62 7.78,10 26.67,10l0 -53.33c8.41,6.17 9.81,11.61 13.79,22.88 3.15,8.94 8.67,20.03 9.54,30.46l30 0c-4.81,-20.64 -17.8,-42.95 -26.37,-60.69 -4.13,-8.54 -4.81,-0.9 -1.58,-13.53 0.26,-1.03 5.38,-14.41 6.48,-17.23 10.82,-27.89 21.47,-4.6 21.47,-28.56 0,-7.68 -2.32,-10 -10,-10 -36.34,0 -24.99,39.89 -43.33,53.33l0 -53.33c-18.89,0 -26.67,-2.62 -26.67,10z"/>
   <path class="fil0" d="M4571.11 5382.4c23.01,1.91 20,30.11 20,53.33 -20.5,-0.46 -37.11,-22.18 -33.33,-40 -9.81,2.62 -26.44,13.36 -30,26.67 27.99,0.62 62.06,52.46 7.01,33.05 -12.98,-4.58 -22.33,-6.93 -23.67,-23.05 -15.01,10.05 -23.74,15.68 -26.67,26.67 30.2,0 38.22,20 73.33,20 0,32.26 -5.62,23.61 -10,40 11.19,-2.98 20.88,-13.89 30,-20 -0.28,-0.78 -1.1,-2.61 -1.27,-2.13l-2.42 -4.41c-1.3,-3.14 -1.98,3.33 -2.73,-10.07 -0.67,-12.04 1.96,-6.48 3.09,-20.06 19.68,13.17 7.69,13 13.33,26.67 11.46,-7.68 13.44,-16.46 26.67,-20l0 -6.67c-14.2,-1.18 -16.92,-1.81 -20,-13.33 7.56,-4.24 16.9,-5.32 24.13,-0.8 6.91,4.32 3,-0.46 5.87,7.46 13.08,-8.76 21.05,-13.3 30,-26.67 -19.64,1.63 -9.25,6.67 -43.33,6.67 0,-60.64 -15.05,-52.84 -10,-76.67 -10.49,2.8 -24.51,15.14 -30,23.33z"/>
   <path class="fil0" d="M4384.44 5612.4c-13.09,-5.41 -3.25,6.04 -13.98,-5.97 -3.47,-3.89 -7.58,-13.66 -10.49,-19.56 -6.96,-14.13 -12.19,-28.52 -18.87,-41.13 7.8,-4.13 8.68,-5.72 20,-6.67 5.91,11.16 9.17,22.08 15.54,34.46 9.07,17.61 12.71,17.74 7.79,38.87zm0 0c17.29,-1.44 20.46,-9.56 36.67,-13.33 -6.41,-8.74 -2.91,-2.47 -7.48,-5.85 -13.61,-10.07 -22.61,-36.42 -30.61,-52.99 -7.27,-15.06 -3.27,-8.1 -1.91,-24.49 -35.85,8.35 -74.42,38.38 -110,46.67l0 6.67c20.68,1.72 28.42,37.45 35.83,54.41 6.22,14.24 4.14,11.42 0.84,25.59 12.39,-2.89 30.19,-11.17 36.67,-20 -17.01,-0.38 -10.76,2.19 -25.6,-27.74 -6.93,-13.97 -10.93,-26.07 -17.74,-38.93 10.35,-2.41 9.65,-4.26 20,-6.67 6.37,12.04 10.61,24.61 16.62,36.71 7.98,16.07 14.24,18.63 10.05,36.62 10.93,-0.91 31.11,-9.09 36.67,-16.67z"/>
   <path class="fil0" d="M4914.44 4675.73c-50.38,0 -35.99,-56.67 3.33,-56.67 11.17,0 36.67,-2.24 36.67,23.33 0,12.87 -5.31,18.4 -13.24,23.43 -5.47,3.47 -17.95,9.9 -26.76,9.9zm-40 -100c-1.99,0 -6.91,-4.6 -10,-6.67l0 36.67c23.83,-2.61 -3.96,-4.37 20.49,-9.51 13.67,-2.87 12.9,2.55 26.18,-3.82 -6.65,16.47 -7.61,-0.78 -27.77,18.9 -30.85,30.11 -14.57,84.43 41.1,84.43 53.76,0 61.58,-95.3 0,-96.67l0 -6.67c9.04,0 17.34,-2.12 20.49,-2.01 11.55,0.39 2.65,1.73 16.18,5.34 -0.32,-14.5 -3.33,-18.18 -3.33,-36.67 -14.99,5.43 -10.8,16.67 -83.33,16.67z"/>
   <path class="fil0" d="M4097.77 5729.06c50.13,0 36.67,23.1 36.67,-156.67 0,-13.61 -10.45,-10 -36.67,-10l0 166.67z"/>
   <path class="fil0" d="M4731.11 5192.4c23.04,0 46.54,15.4 63.33,30 -20.92,0 -29.98,-3.33 -46.67,-3.33 4.24,18.18 15.76,28.49 20,46.67 -10.71,-7.17 -20.19,-14.08 -32.29,-21.05 -29.47,-16.98 -13.74,-7.93 -21.05,-25.61 -8.56,6.27 -17.99,23.24 -23.33,33.33 17.62,-1.47 5.21,-10.12 42.02,14.65 8.17,5.5 11.75,8 20.43,12.91 11.22,6.35 13,4.37 14.22,19.11l6.67 0c2.73,-10.21 11.3,-19.86 16.67,-30 -11.89,-3.17 -16.4,-14.56 -20,-30 8.31,3.99 25.68,4.11 36.67,6.67 3.15,-4.7 20.71,-25.86 16.67,-30l-5.47 -0.46c-20.46,-2.09 -37.33,-18.3 -54.72,-29.35 -9.37,-5.96 -12.81,-5 -13.15,-20.19 -9.61,6.44 -14.47,16.21 -20,26.67z"/>
   <path class="fil0" d="M3767.77 3762.39c-14.56,-6.98 -49.96,-4.7 -70.43,-3.75 -11.9,0.56 -22.09,2.73 -16.07,19.48 4.22,11.74 13.59,7.6 29.83,7.6l0 103.33 26.67 0 0 -103.33c29.14,0 30,6.21 30,-23.33z"/>
   <path class="fil0" d="M4621.11 4082.39c6.89,13.02 14.78,22.04 26.67,30l3.57 -16.43 33.09 -26.91c6.11,9.12 17.02,18.81 20,30 -27.44,18.37 -27.05,27.9 -46.67,23.33 3.34,14.35 12.8,26.3 26.67,30 -2.51,-11.85 -4.98,-7.63 5.39,-17.66 7.54,-7.3 11.14,-8.35 18.69,-14.93 17.26,-15.06 23.51,-23.65 42.59,-24.07 -6.12,-11.57 -12.71,-22.94 -26.67,-26.67 -0.3,13.3 -1.54,12.34 -6.67,20 -9.95,-6.67 -19.84,-16.93 -23.33,-30 11.94,-6.31 7.48,-5.98 20,-3.33 -3.44,-12.91 -13.68,-26.53 -26.67,-30 2.82,13.33 4.57,11.71 -23.33,33.33 -14.55,11.27 -18.8,23.33 -43.33,23.33z"/>
   <path class="fil0" d="M4864.44 4815.73c28.22,-3.09 -16.25,-9.91 39.7,-3.09 13.5,1.65 30.58,5.34 43.64,6.43 0,17.75 -3,18.65 -3.33,33.33l-65.21 -8.12c-14.45,-4.95 -2.25,-2.7 -14.79,-11.88 -2.94,6.13 -6.46,27.44 -6.67,36.67 25.57,-5.96 30.47,-3.36 59.52,0.48 32.98,4.37 18.91,7.45 33.82,12.85l13.33 -90c-19.33,5.16 -0.12,9.08 -39.79,3.18 -13.22,-1.96 -33.63,-6.22 -46.87,-6.51 -1.48,-17.44 3.18,-6.02 -6.67,-10 -2.69,11.54 -3.98,25.12 -6.67,36.67z"/>
   <path class="fil0" d="M4887.77 4515.73c-37.21,0 -36.22,-36.35 -18.8,-48.8 29.9,-21.36 58.8,-8.22 58.8,12.14 0,18.71 -22.04,36.67 -40,36.67zm0 20c17.46,0 25.07,-0.55 39.39,-13.94 29.96,-28 11.61,-86.06 -36.06,-86.06 -66.66,0 -59.56,100 -3.33,100z"/>
   <path class="fil0" d="M3054.44 4199.06c29.41,-2.45 7.27,-2.74 30,3.33 -9.37,12.78 -33.8,13.99 -36.91,14.91 -9.85,2.93 -20.4,23.51 -23.09,35.09 17.53,-4.2 9.94,-8.37 50.64,16.02 14.59,8.74 27.85,9.2 29.36,27.31 8.71,-2.32 8.8,-3.97 13.06,-10.28 4.31,-6.39 4.98,-7.97 6.94,-16.39 -22.8,1.9 -14.59,2.27 -34.51,-8.8 -12.64,-7.02 -21.72,-14.66 -35.49,-17.86 2.12,-2.9 49.53,-34.19 74.21,-13.99 18.56,15.19 -2.6,6.45 12.45,17.32 4.64,-8.77 12.43,-19.17 13.33,-30 -14.02,3.27 -11.4,5.18 -24.04,-2.39 -8.61,-5.15 -12.13,-7.06 -21.52,-12.05 -7.68,-4.08 -14.44,-8.1 -21.12,-12.22 -9.24,-5.7 -12.24,-6.93 -13.32,-20.01 -9.73,7.13 -14.17,18.99 -20,30z"/>
   <path class="fil0" d="M4644.44 5335.73c0,-50.01 70,-31.83 70,10 0,32.83 -70,20.67 -70,-10zm30 50c64.91,0 71.21,-75.18 27.71,-94.38 -38.76,-17.11 -69.95,12.33 -73.09,42.15 -2.58,24.46 21.47,52.22 45.38,52.22z"/>
   <path class="fil0" d="M3041.11 5059.06c6.91,9.42 43.33,9.97 43.33,36.67 0,11.65 -29.07,20.79 -40,23.33 -8.61,-17.95 -6.46,-18.7 3.33,-33.33 -12.98,1.08 -22.46,10.92 -33.33,16.67 8.78,11.98 4.22,2.47 11.02,8.97 5.54,5.28 5.75,8.27 8.98,14.36l-13.2 3.74c-4.91,-7.55 -8.96,-14.13 -9.17,-24.16 -0.24,-11.31 6.33,-16.12 9.04,-26.25 -14.89,3.47 -16.59,9.57 -30,16.67l14.44 32.23c2.82,6.09 4.96,9.46 7.8,15.53 3.58,7.64 4.63,12.37 7.76,18.91 22.69,-16.63 -21.11,1.8 42.21,-27.79 44.73,-20.9 28.33,-14.07 47.79,-8.88 -5.74,-24.67 -24.8,-47.54 -26.67,-70 -11,0 -38.8,-1.78 -43.33,3.33z"/>
   <path class="fil0" d="M2957.78 4959.06c-7.64,0 -3.88,-1.13 -13.33,-3.33 1.19,14.22 5.48,15.78 6.67,30l6.67 0c1.44,-13.16 -2.39,-6.55 7.69,-12.3 1.52,-0.87 13.52,-3.87 15.64,-4.36 -3.89,7.35 -6.3,13.35 -9.4,20.6 -8.04,18.82 -4.59,6.64 -13.93,19.4 2.43,3.5 0.16,-1.16 3.55,6.45l9.78 26.88c15.83,-6.39 -1.57,1.49 7.19,-6.15l3.46 -3.2c9.41,-6.96 19.53,-6.99 32.27,-11.06 27.02,-8.64 20.73,-8.72 50.42,-6.25 -2.72,-11.67 -5.11,-23.97 -13.33,-30 -4.94,18.49 -48.88,25.86 -66.67,30 2.26,-9.68 3.73,-13.31 7.77,-22.23 10.85,-23.96 7.64,-32.28 29.53,-37.59 19.83,-4.81 5.66,-1.39 22.7,3.16 -0.33,-15.04 -3.78,-17.61 -6.67,-30 -16.23,6.55 7.33,4.37 -35.41,17.93 -9.41,2.99 -36.43,12.07 -44.59,12.07z"/>
   <path class="fil0" d="M4811.11 4349.06c-9,0 -9.19,-1.59 -16.67,-3.33 3.07,13.16 10.27,23.51 13.33,36.67 16.59,-12.15 -5.73,-8.22 24.52,-18.99 17.1,-6.08 14.53,-8.57 28.81,-1.01 -5.15,19.27 -21.72,39.52 -43.33,40 2.22,9.54 6.2,22.07 10,30 8.02,-2.91 2.32,-0.56 7.55,-5.78 13.61,-13.59 37.94,-37.32 42.45,-54.22 32.29,17.08 20.89,19.12 36.67,23.33 -3.12,-13.39 -8.65,-17.08 -10,-33.33 -8.39,0.7 -22.41,7.96 -36.67,-13.33 26.27,-6.97 8.49,-1.79 30,0 -4.22,-7.97 -11.1,-23.76 -13.33,-33.33l-6.67 0c-1.49,13.63 7.61,7 -29.5,20.5 -8.22,2.99 -27.49,12.83 -37.17,12.83z"/>
   <path class="fil0" d="M3297.78 3929.06c0,17.76 10.97,25.76 25.17,24.69 20.64,-1.55 22.95,-11.36 44.82,-11.36 22.31,0 16.26,36.67 -23.33,36.67 -12.11,0 -11.69,-3.96 -23.33,-6.67 5.22,19.54 10.92,6.48 26.67,30 22.27,-14.91 50,-27.24 50,-53.33 0,-13.6 -13.12,-30 -26.67,-30 -19.91,0 -30.69,10.83 -45.13,12.22 -25.83,2.49 -3.97,-22.22 11.8,-22.22 11.49,0 12.91,2.46 23.33,3.33 -2.35,-8.79 -2.7,-10.42 -17.58,-19.09 -5.01,-2.92 -2.28,-2.43 -9.09,-4.24 -5.56,15.34 -36.67,15.48 -36.67,40z"/>
   <path class="fil0" d="M3217.78 5362.4c0,23.68 19.39,29.13 20,56.67 -36.39,-3.03 -23.59,-40.28 -23.33,-43.33 -12.12,3.24 -12.23,10.08 -23.33,26.67 14.78,3.94 28.78,40.12 54.45,31.33 37.31,-12.78 -4.45,-57.4 -4.45,-71.33 0,-19.43 25.24,-12.19 34.48,-1.12 12.52,14.98 6.19,27.31 2.19,44.46 14.03,-3.75 10.92,-11.89 26.67,-30l-10.86 -12.48c-37.25,-51.79 -75.81,-19.66 -75.81,-0.86z"/>
   <path class="fil0" d="M3237.78 3992.39l3.74 13.2c-10.09,6.61 -4.88,6.87 -17.07,10.13 -6.38,-13.3 -0.1,-19.74 13.33,-23.33zm0 0c6.9,-4.38 18.72,-3.33 26.67,-3.33 -3.21,-12.02 -17.43,-18.96 -30,-20 -4.88,18.28 -35.57,36.76 -46.67,53.33 17.02,0 13.12,-1.63 22.73,7.27 28.8,26.71 43.94,30.34 43.94,56.06 24.01,-6.41 32.66,-40.26 56.67,-46.67 -0.86,-10.31 -9.87,-28.93 -13.44,-33.48 -9.25,-11.81 -7.39,-9.93 -6.71,10.19 0.69,20.56 -1.06,27.37 -19.85,39.96 -13.9,-3.71 -26.13,-19.25 -33.33,-30 11.58,-17.3 13.56,-11.65 33.33,-10 -5.65,-8.44 -22.29,-20.39 -33.33,-23.33z"/>
   <path class="fil0" d="M4464.44 5555.73c0.39,-17.38 7.4,-22.49 20,-16.67 -1.7,15.53 2.18,4.74 -5.44,11.23 -3.64,3.1 -9.76,4.29 -14.56,5.44zm-60 -60c7.42,31.85 3.11,32.51 13.33,40 6.2,-12.93 0.16,-16.59 7.03,-29.64 4.51,-8.56 12.94,-14.35 22.97,-17.03 10.74,7.19 7.22,5.57 13.57,16.43 4.02,6.88 8.57,13.48 13.1,20.24 -20.63,4.8 -11.92,11.33 -33.33,0 3.93,14.73 12.77,19.2 20,30 -14.65,-0.33 -10.38,-2.26 -23.33,-3.33 3.53,13.23 12.32,15.2 20,26.67 13.37,-8.96 45.24,-33.23 60,-36.67l0 -6.67c-13.83,-0.31 -14.06,-2.09 -19.64,-10.36 -4.65,-6.9 -8.43,-13.09 -13.06,-20.28 -3.99,-6.2 -7.79,-12.19 -11.61,-18.63 -7.15,-12.04 -5.5,-10.63 -2.37,-24.06 -12.43,1.04 -23.29,10.97 -33.14,16.86 -8.95,5.35 -21.02,15.43 -33.52,16.48z"/>
   <path class="fil0" d="M4917.77 4962.4c-4.59,-12.68 -8.85,-2.97 -3.33,-26.67 11.77,2.74 11.53,0.83 11.95,9.01 0.04,0.85 -2.26,8.15 -2.89,9.4 -3.69,7.37 -3.06,5.19 -5.73,8.26zm0 0c-11.53,17.22 -9.97,2.98 -20,16.67 10.75,5.16 18.17,3.33 33.33,3.33 0.52,-23.57 12.77,-44.6 13.33,-70 -19.35,5.17 -0.62,7.24 -20.79,4.44l-49.43 -10.89c-19.87,-6.06 -6.65,-3.92 -19.79,-13.55 -9.56,19.92 -8.77,48.78 -20,70 12.92,6.83 23.75,13.17 36.67,20 -3.41,-12.77 -8.08,-10.33 -13.61,-23.15 -6.11,-14.16 -2.92,-19.81 0.27,-33.52 21.28,0 29.23,5.22 46.67,6.67 -7.4,15.42 -2.66,18.52 -23.33,23.33 7.86,10.72 18.41,6.67 36.67,6.67z"/>
   <path class="fil0" d="M4841.11 5155.73c-2.06,-8.83 -4.69,-8.13 -2.11,-15.64 3.27,-9.51 1.84,-6.57 12.11,-7.69 5.47,11.83 -0.31,16.85 -10,23.33zm0 0c-6.46,8.81 -8.33,9.67 -23.33,10 9.48,12.94 19.23,6.57 33.33,13.33 1.95,-23.47 24.71,-43.19 26.67,-66.67 -10.83,5.73 -8.36,6.99 -18.93,2.57l-45.72 -21.25c-10.96,-5.23 -14.17,-3.89 -15.35,-17.99l-6.67 0c-2.72,11.67 -23.64,53.83 -30,63.33l29.31 27.37c-0.77,-18.3 -14.74,-29.1 -4.5,-49.24 9.65,-18.99 29.4,1.52 45.19,5.2 -1.26,15.15 -7.16,19.64 -23.33,20l0 6.67c13.22,1.1 20.11,5.57 33.33,6.67z"/>
   <path class="fil0" d="M2957.78 4669.06c-10.35,-2.41 -9.66,-4.26 -20,-6.67 6.6,-9.01 10.24,-6.95 23.33,-10 -2.07,8.89 -2.01,6.32 -3.33,16.67zm-43.33 -33.33c0,18.51 -3.33,19.77 -3.33,36.67 19.46,-4.54 49.46,12.61 74.56,25.44 24.54,12.55 6.99,9.08 22.11,14.56 0,-17.75 3,-18.65 3.33,-33.33 -17.46,4.67 -2.85,8.85 -21.21,4.87 -10.41,-2.26 -10.97,-5.61 -22.12,-8.2 3.11,-13.35 14.06,-34.75 29.46,-31.92 12.23,2.25 17.21,30.33 17.21,-31.41 -13.29,4.81 -1.74,4.64 -22.48,10.85 -8.07,2.42 -15.29,4.45 -26.15,7.18 -10.57,2.66 -16.23,4.06 -26.87,6.85 -2.56,0.67 -8.56,2.67 -12.5,2.7 -12.18,0.09 2.63,1.04 -12,-4.25z"/>
   <path class="fil0" d="M4754.44 4172.4l19.89 -3.84c-2.79,11.36 -5.7,14.28 -16.56,17.17 -0.88,-10.32 0.04,-6.3 -3.33,-13.33zm-46.67 -3.33c-9,0 -9.19,-1.59 -16.67,-3.33 1.07,12.82 8.84,22.53 20,30 1.05,-12.64 0.56,-11.08 11.73,-14.94 6.07,-2.1 15.91,-3.74 21.6,-5.06 1.14,13.7 3.33,7.45 3.33,20 0,26.2 -15.12,19.94 -23.33,23.33 5.37,10.15 14.23,23.91 23.33,30 0.45,-20.2 24.92,-43.52 37.33,-59.34 12.89,-16.44 8.91,-13.13 19.34,-14 -2.94,-12.65 -10.22,-20.37 -16.67,-30 -12,4.35 4.13,6.08 -35.82,14.18 -11.89,2.41 -30.07,9.16 -44.18,9.16z"/>
   <path class="fil0" d="M3114.44 4119.06c0,30.89 53.09,78 102.21,18.87 8.94,-10.77 0.19,-8.4 14.46,-12.21 -2.46,-9.23 -14.12,-30 -23.33,-33.33 2.09,25.1 14.16,53.33 -40,53.33 -17.17,0 -36.99,-20.2 -35.7,-36.19 0.5,-6.14 7.19,-18.76 13.47,-22.7 16.59,-10.41 18.4,3.22 28.89,-11.11 -7.5,-1.75 -26.19,-9.9 -33.33,-13.33 -0.62,27.87 -26.67,24.4 -26.67,56.67z"/>
   <path class="fil0" d="M2964.44 4399.06c21.11,-4.92 44.1,19.51 60,33.33 -12.26,0 -24.51,-0.03 -36.77,0.1 -22.23,0.24 -19.69,2.3 -33.23,-6.77 -3.74,7.8 -9.12,22.78 -10,33.33l80.05 -6.94c20.84,1.26 7.32,2.68 23.29,6.94 1.18,-14.22 5.48,-15.78 6.67,-30 -14,2.96 -16.39,-2.47 -42.56,-24.1 -7.39,-6.11 -13.88,-10.5 -20.88,-15.79 -11.32,-8.55 -11.17,-13.72 -19.89,-20.11 -1.18,14.22 -5.48,15.78 -6.67,30z"/>
   <path class="fil0" d="M3144.44 5232.4l0 6.67c69.47,0 44.7,76.67 3.33,76.67 -41.1,0 -26.72,-49.41 -26.67,-50 -11.79,7.89 -16.57,13.89 -23.33,26.67 19.7,7.13 17.6,43.33 56.67,43.33 39.1,0 65.9,-47.49 39.92,-86.59 -7.85,-11.8 -11.93,-7.56 -13.25,-23.42 -14.38,1.2 -21.19,6.32 -36.67,6.67z"/>
   <path class="fil0" d="M4237.77 3769.06l0 110c0,12.62 7.78,10 26.67,10l0 -130c-18.89,0 -26.67,-2.62 -26.67,10z"/>
   <path class="fil0" d="M2917.78 4832.4c5.59,11.66 15.22,62.44 10,73.33 18.5,0 19.76,3.33 36.67,3.33l0 -6.67c-15.56,-3.63 -21.85,-8.88 -23.33,-26.67 15.34,0 29.75,-2.69 44.81,-5.22 57.37,-9.64 14.96,-1.06 41.86,1.89 -2.94,-6.13 -6.46,-27.44 -6.67,-36.67 -7.79,2.82 -2.26,4.21 -14.36,8.98l-68.97 11.02c0,-28.89 1.68,-15.93 13.33,-33.33 -19.76,0.44 -17.08,6.21 -33.33,10z"/>
   <path class="fil0" d="M4867.77 5032.4c6.28,3.01 19.44,8.31 26.67,10 -1.28,15.44 -4.6,22.05 -20,23.33 -3.13,-13.42 -6.67,-15.95 -6.67,-33.33zm-10 -3.33c0,30.28 -1.67,56.67 23.33,56.67 18.73,0 33.15,-58.65 33.33,-66.67 -25.37,6.07 -12.11,3.79 -53.79,-9.54 -6.62,-2.12 -14.64,-4.18 -19.42,-7.24 -11.44,-7.33 -2.11,-4.89 -13.46,-13.21 -23.19,48.33 -7.87,29.61 6.96,32.72 7.76,1.63 14.15,5.2 23.04,7.28z"/>
   <path class="fil0" d="M4777.77 4279.06c-24.06,0 -15.47,-24.55 10,-26.67l-30 -6.67c-3.36,14.44 -9.04,21.81 -1.64,34.69 6.77,11.77 16.44,13.4 33.43,10.72 15,-2.37 28.63,-1.17 43.5,-3.5 21.58,-3.39 23.83,-4.76 38.05,4.77 -0.72,-8.69 -14.28,-47.33 -16.67,-20 -18.48,0 -22.16,3.01 -36.67,3.33 9.29,-17.56 12.5,-26.52 24.67,-29.4 19.94,-4.73 -10.64,6.93 5.33,-0.6 -2.85,-12.23 -11.46,-27.07 -20,-33.33 -0.63,7.63 -23.12,66.67 -50,66.67z"/>
   <path class="fil0" d="M2984.44 4752.4l-56.67 0c-10.84,0 -2.52,-2.89 -16.67,-6.67l3.98 39.93c9.91,-3.86 4.13,7.31 6.02,-9.93 23.06,0 61.8,-8.26 81.26,-1.26 5.92,2.13 -3.67,0.11 8.74,4.59l0 -36.67c-13.34,3.56 -10.91,10 -26.67,10z"/>
   <path class="fil0" d="M3047.78 5202.4c2.79,11.97 10.56,29.92 23.33,33.33 0.29,-13.08 2.42,-13.71 11.09,-18.91 16.79,-10.06 43.34,-25.74 60.15,-27.26 18.65,-1.67 -12.16,-32.22 -14.57,-33.84l-2.25 11.09c-3.33,6.15 -25.44,16.65 -32.5,20.83 -32.26,19.08 -26.48,19.13 -45.25,14.75z"/>
   <path class="fil0" d="M2991.11 4329.06c23.2,-5.56 27.94,1.09 70.22,19.78 9.74,4.3 12.01,3.68 13.11,16.89l6.67 0c4.71,-20.2 14.18,-29.25 10,-33.33 -0.41,-0.18 -1.2,-0.42 -1.33,0.03l-6.19 0.68c-10.7,0.2 -51.23,-17.95 -60.52,-22.68 -21.84,-11.12 -3.56,-6.98 -18.64,-18.03 -4.32,8.16 -12.42,25.65 -13.33,36.67z"/>
   <path class="fil0" d="M4001.11 3789.06l10 0c-4.93,18.46 -15.69,7.86 -6.67,26.67 25.83,-6.9 31.41,-56.67 13.33,-56.67l-16.67 0 0 30z"/>
   <path class="fil0" d="M3977.77 3789.06c-5.63,21.07 -12.31,2.41 -6.67,26.67 27.56,-2.3 23.33,-31.81 23.33,-56.67l-23.33 0c0,3.74 -0.66,14.26 -0.37,17.04 2.11,20.26 -3,8.91 7.04,12.96z"/>
   <path class="fil0" d="M4281.11 3789.06l10 0c-5.63,21.07 -12.32,2.41 -6.67,26.67 24.03,-6.42 33.47,-56.67 13.33,-56.67l-16.67 0 0 30z"/>
   <path class="fil0" d="M4321.11 3789.06l0 10c-14.11,3.77 -7.84,2.54 -6.67,16.67 28.52,-2.37 23.33,-30.32 23.33,-56.67l-23.33 0c0,39.94 -2.27,26.39 6.67,30z"/>
  </g>
 </g>
</svg>
