<?xml version="1.0" encoding="utf-8"?>
<!-- Generator: Adobe Illustrator 17.1.0, SVG Export Plug-In . SVG Version: 6.00 Build 0)  -->
<!DOCTYPE svg PUBLIC "-//W3C//DTD SVG 1.1//EN" "http://www.w3.org/Graphics/SVG/1.1/DTD/svg11.dtd">
<svg version="1.1" id="Layer_1" xmlns="http://www.w3.org/2000/svg" xmlns:xlink="http://www.w3.org/1999/xlink" x="0px" y="0px"
	 viewBox="0 0 273 350" enable-background="new 0 0 273 350" xml:space="preserve">
<g id="Layer_x0020_1">
	<g id="_1986710187792">
		<path fill="#010101" d="M89.8,237.8l0.5-0.3c2-1,6.9-3.4,8.7-3.4l38.8,0.4l-11.6,1.2C118.6,236.6,97.6,237.8,89.8,237.8
			L89.8,237.8z M101.9,231.5c0.8-1.2,4.5-3.3,6.1-4.5c4.7-3.7,2.5-3.6,7.1-3.5l64,0c-0.8,0.7-2.4,1.2-3.5,1.6
			c-5.8,2.3-14.5,4.8-20.6,6.1C151.4,232,107.9,231.5,101.9,231.5L101.9,231.5z M115.1,220.9l9-8.5c4.3-4.3,2.5-2.8,15.1-2.8h59.6
			c-2.6,4-8.7,8.4-13,10.7c-2.3,1.3-19.3,0.6-23.2,0.6C146.8,220.9,130.9,220.9,115.1,220.9L115.1,220.9z M201,207.1h-71.3
			c0.4-1.7,7.6-7.8,8.4-11H205C204.6,201.2,201.4,205.4,201,207.1z M145.8,182.6h58.9c0,2.1,0.7,3,0.7,5.5v5.5h-65.1
			C140.8,191.8,145.6,185.3,145.8,182.6L145.8,182.6z M150.9,169h39.5c4.6,0,4.8-0.6,6.7,1.4c1.5,1.6,2.4,2.5,3.7,4.3
			c0.9,1.3,2.4,3.8,2.8,5.3h-56.3c0.4-1.6,1.4-3.6,2-5.3C149.8,172.9,150.5,170.8,150.9,169L150.9,169z M153.8,155.1h17.5
			c3.8,0,19.6,9.1,21.2,11.3h-40.9C152.3,163.7,153.8,158.1,153.8,155.1z M154.6,149.3c1.3,0.1,9.3,2.4,10.6,3.3h-11
			C154.5,151.2,154.6,151.1,154.6,149.3z M131.5,140.2h11.3c-0.1,1.4-0.4,1.4-0.4,3.3C141.5,143.4,132.8,141,131.5,140.2z
			 M101.5,128.1h43.1c-0.1,3-1.4,6.5-1.5,9.5h-19.4c-2.7,0-17.6-6.4-21.1-8.6C102.3,128.7,101.9,128.4,101.5,128.1L101.5,128.1z
			 M89.1,114.6H148c-0.2,2.1-2.6,7-2.6,11H97.9C96.2,125.5,89.7,118.8,89.1,114.6L89.1,114.6z M148.3,112h-60c0-2.7-0.6-4.4,0.5-8.7
			c0.2-0.9,0.5-1.5,0.6-2.6h65.4l-4.6,8.6C149.9,110.4,149.6,112,148.3,112z M156.8,98.1H90.9c1.8-3.4,7.5-10.1,10.3-10.9
			c1.4-0.4,59.1-0.1,63.5-0.1C163.1,89.6,157.4,95.7,156.8,98.1z M105.9,84.6c1.5-1.3,1.4-1,3-1.7l10.8-4.2
			c7.2-2.4,9.5-2.5,17.2-2.5c13.3,0,26.6,0,39.8,0c-0.4,0.6-1.9,1.7-2.6,2.2c-0.9,0.7-1.8,1.5-2.8,2.3c-3.6,3-2.4,3.9-5.9,3.9
			L105.9,84.6L105.9,84.6z M146.2,73.6v-0.4c4.3,0,19.2-2.2,25.2-2.2c2.4,0,3.2-0.3,5.1-0.4c3.9-0.1,6.7-0.4,10.6-0.4l-3.6,1.9
			c-3.8,2.4-8.7,1.4-15.1,1.4C161,73.6,153.6,73.6,146.2,73.6L146.2,73.6z M85.8,107.2v2.9c0,19.2,31.5,28.4,47.3,33.1
			c3,0.9,6,2,9,2.7l-2.1,14.3c-1.5,10.8-4.7,26.7-9.3,36.4c-0.5,1.1-0.8,2.1-1.3,3.1c-1.5,2.9-4.4,7.6-6.5,10
			c-0.8,0.9-1,1.4-1.9,2.1c-0.9,0.7-1.4,1.3-2.4,2c-1.7,1.3-2.9,2.4-4.7,3.7c-10.4,7.1-15.5,8.2-29.1,8.2c-2.9,0-8.9-0.9-8.9-0.9
			c-0.9,0-0.3-0.3-1.2,0.6l-3.6,4.1c-2,2.3-8.8,8.5-9.2,10.5c2.1,0,3.8,0.5,5.5,0.7c10.3,1,9.2-0.3,16.8-0.3c2.4,0,3.1-0.4,5.5-0.4
			l11.7,0c10.1-0.3,28-2,37.3-3.3c9.7-1.3,19.3-3.3,28.6-6.1c2.9-0.9,6.1-2,8.7-3c1.5-0.6,2.6-1,4.2-1.7l11.3-6.2
			c9.3-6.6,16.6-14.5,16.6-30.2c0-22.3-25.9-34-43.7-40c-2.9-1-6.4-2.1-9.3-2.8c0.8-3.2,0.6-5.5,0.8-8c1-12.9,2-31,7.5-42.6
			c3.9-8.2,10.3-15.2,20.2-15.2c3.7,0,11.7,0.1,14.2,2.6c1.1,1.2,0.9,1.5,1.5,2.9c1.8-1.2,14.2-14,15.7-15c-0.7-2.9-0.5-2.5-3.2-3.8
			c-6.2-2.9-14.1,0.2-24.6,0.1l-37.4,2.8c-18.7,2.6-45.8,6.4-58.2,22.2C88.9,96.1,85.8,101.6,85.8,107.2L85.8,107.2z"/>
		<path fill="#010101" d="M5.8,154.8c0-16.7,1.9-30.2,7.3-45c0.7-2,1.5-3.8,2.3-5.7c1.9-4.7,5.4-11.6,7.9-15.8
			c2.1-3.4,4-6.6,6.3-9.8c1.1-1.5,2.2-2.9,3.3-4.4c1.2-1.6,2.4-2.8,3.7-4.4c3.6-4.4,9.5-10.3,13.9-13.9c6.9-5.6,12.6-10.3,20.8-14.7
			c30.6-16.5,61.5-21.6,96.3-13.7c14.3,3.2,26.5,8.9,38.7,16.1c1,0.6,1.6,1.1,2.5,1.6l20,15.8c1.4,1.4,2.5,2.5,3.8,3.8
			c2.5,2.5,9,10.6,10.8,13c3.4,4.5,6.4,9.7,9.1,14.6c9.1,16.3,15.1,37.6,15.1,56.2c0,14.3-0.4,21.1-3.8,35
			c-5.8,23.2-18.2,43.1-34.9,59.8c-3.1,3.1-9.2,8.2-12.6,10.8c-1.6,1.2-3.1,2.1-4.7,3.3c-4.1,3-10.2,6.5-14.9,8.8
			c-1.7,0.9-3.5,1.9-5.4,2.7c-28,12-55.2,14.9-85.4,8.1c-12.4-2.8-23.5-7.5-34.1-13.4c-6-3.3-18.2-11.5-23.2-16.6
			c-2.2-2.2-5-4.2-8-7.7l-3.7-4.3c-4.2-5.4-5.4-6.3-10.1-13.3c-1-1.6-2.1-3.2-3.1-4.9c-3.8-6.3-7.5-14.6-10.2-21.6
			c-1.5-4-2.7-8.2-3.7-12.3C7.4,174.7,5.8,164.8,5.8,154.8L5.8,154.8z M1,147.5v0.8c0,15.7,0.2,20.9,4.1,36.8
			c4.9,19.6,14.9,37.6,27.8,53c0.7,0.9,1.2,1.1,1.9,2.1l6.1,6.3c8.1,8.1,13.5,11.8,22.4,17.8c5.6,3.8,10.2,5.8,15.9,8.6
			c13.7,7,37.4,12.4,52.6,12.4c19.6,0,32-1.2,50.2-7.5l22.3-10.2c3.5-2.1,6.7-3.8,9.9-6.2c6.9-5,18.4-14.3,23.8-20.8l9-11.1
			c4.6-6.1,8.8-13.5,12.2-20.3c7.2-14.4,12.9-35.1,12.9-52.2v-9.5c0-25-9.6-48.5-21.5-67.3c-0.6-1-1-1.3-1.7-2.3
			c-3.6-5.2-8.1-11.2-12.6-15.6c-9.1-9.1-15-14.9-26.6-22c-7.2-4.4-13.5-7.9-21.5-11.1c-14.2-5.6-31.2-10-47.1-10h-0.7
			c-14.6,0-22.7,0.3-37.4,3.9C92.4,25.8,78.1,31.3,68.6,37c-14.7,8.9-23.9,16.1-35.5,29.2l-3.6,4.4c-6.3,8-11.1,15.8-15.7,24.9
			c-0.9,1.8-1.6,3.6-2.5,5.6C5.6,114.5,1,132.8,1,147.5L1,147.5z"/>
		<path fill="#010101" d="M119.5,255.7v-1.5c0-2.4,1.8-3.1,4-3.3v7.7C121.2,258.6,119.5,257.9,119.5,255.7z M127.1,258.6v-7.7
			c2.1,0.2,4,1,4,3.3v1.1C131.2,257.6,129.4,258.6,127.1,258.6z M123.5,247.6c-11,0.2-10.6,14.3,0,14.3v2.2h3.7v-2.2
			c4.6,0,7.9-2.6,8-6.9c0-4.8-3.3-6.9-8-7.3c0-2.1,0.1-1.8-3.7-1.8V247.6z"/>
		<path fill="#010101" d="M117.6,48.4l1.4,3c2.2,5.1,4.6,8.3,0.1,8.3c0,0.6-0.4,4,3,2.3c1.7-0.8,5.3-12.6,5.4-13.3
			c1.2,0.9,2.9,6.1,3.6,7.7c0.8,1.9,0.6,0.9,0.4,2.9c-1,0.5-0.7,0.4-2.2,0.4v2.6h2.9c1.6-2.5,2.1-3.7,3.1-6.8c0.7-2,2.3-6.1,2.4-7.5
			h-2.6c-0.5,1.1-1.8,4.7-1.8,6.2c-1-0.7-2.2-4.8-2.6-6.2h-5.8c-0.1,0.8-1.3,5.6-2.2,6.2c-0.2-2.4-1.6-3.7-1.8-6.2
			C119.7,48,118.5,47.8,117.6,48.4L117.6,48.4z"/>
		<path fill="#010101" d="M136.3,246.9c0,3.1-0.6,2.6,5.5,2.6v14.6h3.7v-14.6c6.1,0,5.5,0.6,5.5-2.6c0-0.8-0.3-1.1-1.1-1.1h-12.4
			C136.5,245.8,136.3,246.1,136.3,246.9z"/>
		<path fill="#010101" d="M157.8,62.3h2.9V50.9h3.7v11.3c3.9,0,2.9,1.6,2.9-13.2c0-1.9-4.1-1.1-9.5-1.1V62.3z"/>
		<path fill="#010101" d="M97.5,62.3c3.6,0,2.9,0.8,2.9-5.8h3.7v5.8h2.6V48h-2.6v5.5h-3.7c0-6.2,0.6-5.5-2.9-5.5V62.3z"/>
		<path fill="#010101" d="M148,49.1v12.1c0,1.4,0.9,1.1,2.9,1.1v-5.8c0.9,0.7,1.1,1.3,1.5,2.5c0.3,1,1,2.2,1,3.3h3.3
			c-0.5-2.3-2-4.7-2.9-6.7c-0.5-0.9-0.5-0.1-0.2-1.5c0-0.1,0.6-1.6,0.7-1.9c1.2-3.1,2.4-0.5,2.4-3.1c0-0.8-0.3-1.1-1.1-1.1
			c-4,0-2.7,4.4-4.8,5.8V48C148.8,48,148,47.7,148,49.1L148,49.1z"/>
		<path fill="#010101" d="M205.7,226.1c2.5,0.2,2.2,3.3,2.2,5.8c-2.2-0.1-4.1-2.4-3.7-4.4c-1.1,0.3-2.9,1.5-3.3,2.9
			c3.1,0.1,6.8,5.8,0.8,3.6c-1.4-0.5-2.4-0.8-2.6-2.5c-1.6,1.1-2.6,1.7-2.9,2.9c3.3,0,4.2,2.2,8,2.2c0,3.5-0.6,2.6-1.1,4.4
			c1.2-0.3,2.3-1.5,3.3-2.2c0-0.1-0.1-0.3-0.1-0.2l-0.3-0.5c-0.1-0.3-0.2,0.4-0.3-1.1c-0.1-1.3,0.2-0.7,0.3-2.2
			c2.2,1.4,0.8,1.4,1.5,2.9c1.3-0.8,1.5-1.8,2.9-2.2v-0.7c-1.6-0.1-1.9-0.2-2.2-1.5c0.8-0.5,1.9-0.6,2.6-0.1
			c0.8,0.5,0.3-0.1,0.6,0.8c1.4-1,2.3-1.5,3.3-2.9c-2.2,0.2-1,0.7-4.8,0.7c0-6.7-1.7-5.8-1.1-8.4
			C207.9,223.8,206.3,225.2,205.7,226.1L205.7,226.1z"/>
		<path fill="#010101" d="M185.3,251.3c-1.4-0.6-0.4,0.7-1.5-0.7c-0.4-0.4-0.8-1.5-1.2-2.1c-0.8-1.5-1.3-3.1-2.1-4.5
			c0.9-0.5,1-0.6,2.2-0.7c0.6,1.2,1,2.4,1.7,3.8C185.4,249,185.8,249,185.3,251.3L185.3,251.3z M185.3,251.3c1.9-0.2,2.2-1,4-1.5
			c-0.7-1-0.3-0.3-0.8-0.6c-1.5-1.1-2.5-4-3.4-5.8c-0.8-1.7-0.4-0.9-0.2-2.7c-3.9,0.9-8.2,4.2-12.1,5.1v0.7c2.3,0.2,3.1,4.1,3.9,6
			c0.7,1.6,0.5,1.3,0.1,2.8c1.4-0.3,3.3-1.2,4-2.2c-1.9,0-1.2,0.2-2.8-3c-0.8-1.5-1.2-2.9-1.9-4.3c1.1-0.3,1.1-0.5,2.2-0.7
			c0.7,1.3,1.2,2.7,1.8,4c0.9,1.8,1.6,2,1.1,4C182.4,253,184.7,252.1,185.3,251.3L185.3,251.3z"/>
		<path fill="#010101" d="M243.4,148.6c-5.5,0-3.9-6.2,0.4-6.2c1.2,0,4-0.2,4,2.6c0,1.4-0.6,2-1.5,2.6
			C245.7,147.9,244.4,148.6,243.4,148.6L243.4,148.6z M239,137.6c-0.2,0-0.8-0.5-1.1-0.7v4c2.6-0.3-0.4-0.5,2.2-1
			c1.5-0.3,1.4,0.3,2.9-0.4c-0.7,1.8-0.8-0.1-3,2.1c-3.4,3.3-1.6,9.3,4.5,9.3c5.9,0,6.8-10.5,0-10.6v-0.7c1,0,1.9-0.2,2.2-0.2
			c1.3,0,0.3,0.2,1.8,0.6c0-1.6-0.4-2-0.4-4C246.5,136.4,247,137.6,239,137.6L239,137.6z"/>
		<path fill="#010101" d="M153.8,264.1c5.5,0,4,2.5,4-17.2c0-1.5-1.1-1.1-4-1.1V264.1z"/>
		<path fill="#010101" d="M223.3,205.2c2.5,0,5.1,1.7,6.9,3.3c-2.3,0-3.3-0.4-5.1-0.4c0.5,2,1.7,3.1,2.2,5.1
			c-1.2-0.8-2.2-1.5-3.5-2.3c-3.2-1.9-1.5-0.9-2.3-2.8c-0.9,0.7-2,2.5-2.6,3.7c1.9-0.2,0.6-1.1,4.6,1.6c0.9,0.6,1.3,0.9,2.2,1.4
			c1.2,0.7,1.4,0.5,1.6,2.1h0.7c0.3-1.1,1.2-2.2,1.8-3.3c-1.3-0.3-1.8-1.6-2.2-3.3c0.9,0.4,2.8,0.5,4,0.7c0.3-0.5,2.3-2.8,1.8-3.3
			l-0.6-0.1c-2.2-0.2-4.1-2-6-3.2c-1-0.7-1.4-0.5-1.4-2.2C224.4,203,223.9,204.1,223.3,205.2L223.3,205.2z"/>
		<path fill="#010101" d="M117.6,48.4c-1.6-0.8-5.5-0.5-7.7-0.4c-1.3,0.1-2.4,0.3-1.8,2.1c0.5,1.3,1.5,0.8,3.3,0.8v11.3h2.9V50.9
			C117.5,50.9,117.6,51.6,117.6,48.4z"/>
		<path fill="#010101" d="M211.2,83.5c0.8,1.4,1.6,2.4,2.9,3.3l0.4-1.8l3.6-3c0.7,1,1.9,2.1,2.2,3.3c-3,2-3,3.1-5.1,2.6
			c0.4,1.6,1.4,2.9,2.9,3.3c-0.3-1.3-0.5-0.8,0.6-1.9c0.8-0.8,1.2-0.9,2-1.6c1.9-1.7,2.6-2.6,4.7-2.6c-0.7-1.3-1.4-2.5-2.9-2.9
			c0,1.5-0.2,1.4-0.7,2.2c-1.1-0.7-2.2-1.9-2.6-3.3c1.3-0.7,0.8-0.7,2.2-0.4c-0.4-1.4-1.5-2.9-2.9-3.3c0.3,1.5,0.5,1.3-2.6,3.7
			C214.4,82.2,213.9,83.5,211.2,83.5L211.2,83.5z"/>
		<path fill="#010101" d="M237.9,163.9c3.1-0.3-1.8-1.1,4.4-0.3c1.5,0.2,3.4,0.6,4.8,0.7c0,1.9-0.3,2-0.4,3.7l-7.2-0.9
			c-1.6-0.5-0.2-0.3-1.6-1.3c-0.3,0.7-0.7,3-0.7,4c2.8-0.7,3.3-0.4,6.5,0.1c3.6,0.5,2.1,0.8,3.7,1.4l1.5-9.9c-2.1,0.6,0,1-4.4,0.3
			c-1.4-0.2-3.7-0.7-5.1-0.7c-0.2-1.9,0.3-0.7-0.7-1.1C238.3,161.2,238.2,162.6,237.9,163.9L237.9,163.9z"/>
		<path fill="#010101" d="M240.5,131c-4.1,0-4-4-2.1-5.4c3.3-2.3,6.4-0.9,6.4,1.3C244.9,129,242.4,131,240.5,131L240.5,131z
			 M240.5,133.2c1.9,0,2.7-0.1,4.3-1.5c3.3-3.1,1.3-9.4-4-9.4C233.5,122.2,234.3,133.2,240.5,133.2z"/>
		<path fill="#010101" d="M39.4,96.3c3.2-0.3,0.8-0.3,3.3,0.4c-1,1.4-3.7,1.5-4,1.6c-1.1,0.3-2.2,2.6-2.5,3.8
			c1.9-0.5,1.1-0.9,5.6,1.8c1.6,1,3.1,1,3.2,3c1-0.3,1-0.4,1.4-1.1c0.5-0.7,0.5-0.9,0.8-1.8c-2.5,0.2-1.6,0.2-3.8-1
			c-1.4-0.8-2.4-1.6-3.9-2c0.2-0.3,5.4-3.7,8.1-1.5c2,1.7-0.3,0.7,1.4,1.9c0.5-1,1.4-2.1,1.5-3.3c-1.5,0.4-1.3,0.6-2.6-0.3
			c-0.9-0.6-1.3-0.8-2.4-1.3c-0.8-0.4-1.6-0.9-2.3-1.3c-1-0.6-1.3-0.8-1.5-2.2C40.5,93.8,40,95.1,39.4,96.3L39.4,96.3z"/>
		<path fill="#010101" d="M213.8,220.9c0-5.5,7.7-3.5,7.7,1.1C221.5,225.6,213.8,224.3,213.8,220.9z M217.1,226.4
			c7.1,0,7.8-8.2,3-10.4c-4.3-1.9-7.7,1.4-8,4.6C211.8,223.4,214.5,226.4,217.1,226.4L217.1,226.4z"/>
		<path fill="#010101" d="M37.9,190.6c0.8,1,4.8,1.1,4.8,4c0,1.3-3.2,2.3-4.4,2.6c-0.9-2-0.7-2.1,0.4-3.7c-1.4,0.1-2.5,1.2-3.7,1.8
			c1,1.3,0.5,0.3,1.2,1c0.6,0.6,0.6,0.9,1,1.6l-1.4,0.4c-0.5-0.8-1-1.5-1-2.6c0-1.2,0.7-1.8,1-2.9c-1.6,0.4-1.8,1-3.3,1.8l1.6,3.5
			c0.3,0.7,0.5,1,0.9,1.7c0.4,0.8,0.5,1.4,0.9,2.1c2.5-1.8-2.3,0.2,4.6-3c4.9-2.3,3.1-1.5,5.2-1c-0.6-2.7-2.7-5.2-2.9-7.7
			C41.5,190.2,38.4,190,37.9,190.6L37.9,190.6z"/>
		<path fill="#010101" d="M28.8,179.6c-0.8,0-0.4-0.1-1.5-0.4c0.1,1.6,0.6,1.7,0.7,3.3h0.7c0.2-1.4-0.3-0.7,0.8-1.3
			c0.2-0.1,1.5-0.4,1.7-0.5c-0.4,0.8-0.7,1.5-1,2.3c-0.9,2.1-0.5,0.7-1.5,2.1c0.3,0.4,0-0.1,0.4,0.7l1.1,2.9
			c1.7-0.7-0.2,0.2,0.8-0.7l0.4-0.4c1-0.8,2.1-0.8,3.5-1.2c3-0.9,2.3-1,5.5-0.7c-0.3-1.3-0.6-2.6-1.5-3.3c-0.5,2-5.4,2.8-7.3,3.3
			c0.2-1.1,0.4-1.5,0.9-2.4c1.2-2.6,0.8-3.5,3.2-4.1c2.2-0.5,0.6-0.2,2.5,0.3c0-1.6-0.4-1.9-0.7-3.3c-1.8,0.7,0.8,0.5-3.9,2
			C32.7,178.6,29.7,179.6,28.8,179.6L28.8,179.6z"/>
		<path fill="#010101" d="M232.1,112.7c-1,0-1-0.2-1.8-0.4c0.3,1.4,1.1,2.6,1.5,4c1.8-1.3-0.6-0.9,2.7-2.1c1.9-0.7,1.6-0.9,3.2-0.1
			c-0.6,2.1-2.4,4.3-4.8,4.4c0.2,1,0.7,2.4,1.1,3.3c0.9-0.3,0.3-0.1,0.8-0.6c1.5-1.5,4.2-4.1,4.7-5.9c3.5,1.9,2.3,2.1,4,2.6
			c-0.3-1.5-0.9-1.9-1.1-3.7c-0.9,0.1-2.5,0.9-4-1.5c2.9-0.8,0.9-0.2,3.3,0c-0.5-0.9-1.2-2.6-1.5-3.7h-0.7c-0.2,1.5,0.8,0.8-3.2,2.2
			C235.2,111.7,233.1,112.7,232.1,112.7L232.1,112.7z"/>
		<path fill="#010101" d="M66.1,66.7c0,1.9,1.2,2.8,2.8,2.7c2.3-0.2,2.5-1.2,4.9-1.2c2.4,0,1.8,4-2.6,4c-1.3,0-1.3-0.4-2.6-0.7
			c0.6,2.1,1.2,0.7,2.9,3.3c2.4-1.6,5.5-3,5.5-5.8c0-1.5-1.4-3.3-2.9-3.3c-2.2,0-3.4,1.2-4.9,1.3c-2.8,0.3-0.4-2.4,1.3-2.4
			c1.3,0,1.4,0.3,2.6,0.4c-0.3-1-0.3-1.1-1.9-2.1c-0.5-0.3-0.3-0.3-1-0.5C69.5,64,66.1,64,66.1,66.7L66.1,66.7z"/>
		<path fill="#010101" d="M57.3,223.9c0,2.6,2.1,3.2,2.2,6.2c-4-0.3-2.6-4.4-2.6-4.8c-1.3,0.4-1.3,1.1-2.6,2.9
			c1.6,0.4,3.2,4.4,6,3.4c4.1-1.4-0.5-6.3-0.5-7.8c0-2.1,2.8-1.3,3.8-0.1c1.4,1.6,0.7,3,0.2,4.9c1.5-0.4,1.2-1.3,2.9-3.3l-1.2-1.4
			C61.5,218.3,57.3,221.8,57.3,223.9L57.3,223.9z"/>
		<path fill="#010101" d="M59.5,73.6l0.4,1.4c-1.1,0.7-0.5,0.8-1.9,1.1C57.3,74.7,58,74,59.5,73.6L59.5,73.6z M59.5,73.6
			c0.8-0.5,2.1-0.4,2.9-0.4c-0.4-1.3-1.9-2.1-3.3-2.2c-0.5,2-3.9,4-5.1,5.8c1.9,0,1.4-0.2,2.5,0.8c3.2,2.9,4.8,3.3,4.8,6.1
			c2.6-0.7,3.6-4.4,6.2-5.1c-0.1-1.1-1.1-3.2-1.5-3.7c-1-1.3-0.8-1.1-0.7,1.1c0.1,2.3-0.1,3-2.2,4.4c-1.5-0.4-2.9-2.1-3.7-3.3
			c1.3-1.9,1.5-1.3,3.7-1.1C62.5,75.2,60.7,73.9,59.5,73.6L59.5,73.6z"/>
		<path fill="#010101" d="M194,245.1c0-1.9,0.8-2.5,2.2-1.8c-0.2,1.7,0.2,0.5-0.6,1.2C195.2,244.8,194.6,245,194,245.1z
			 M187.5,238.5c0.8,3.5,0.3,3.6,1.5,4.4c0.7-1.4,0-1.8,0.8-3.3c0.5-0.9,1.4-1.6,2.5-1.9c1.2,0.8,0.8,0.6,1.5,1.8
			c0.4,0.8,0.9,1.5,1.4,2.2c-2.3,0.5-1.3,1.2-3.7,0c0.4,1.6,1.4,2.1,2.2,3.3c-1.6,0-1.1-0.2-2.6-0.4c0.4,1.5,1.4,1.7,2.2,2.9
			c1.5-1,5-3.6,6.6-4v-0.7c-1.5,0-1.5-0.2-2.2-1.1c-0.5-0.8-0.9-1.4-1.4-2.2c-0.4-0.7-0.9-1.3-1.3-2c-0.8-1.3-0.6-1.2-0.3-2.6
			c-1.4,0.1-2.6,1.2-3.6,1.8C190.2,237.3,188.8,238.4,187.5,238.5L187.5,238.5z"/>
		<path fill="#010101" d="M243.8,180c-0.5-1.4-1-0.3-0.4-2.9c1.3,0.3,1.3,0.1,1.3,1c0,0.1-0.2,0.9-0.3,1
			C244,179.9,244.1,179.7,243.8,180L243.8,180z M243.8,180c-1.3,1.9-1.1,0.3-2.2,1.8c1.2,0.6,2,0.4,3.7,0.4c0.1-2.6,1.4-4.9,1.5-7.7
			c-2.1,0.6-0.1,0.8-2.3,0.5l-5.4-1.2c-2.2-0.7-0.7-0.4-2.2-1.5c-1,2.2-1,5.4-2.2,7.7c1.4,0.7,2.6,1.4,4,2.2
			c-0.4-1.4-0.9-1.1-1.5-2.5c-0.7-1.6-0.3-2.2,0-3.7c2.3,0,3.2,0.6,5.1,0.7c-0.8,1.7-0.3,2-2.6,2.6C240.6,180.4,241.8,180,243.8,180
			L243.8,180z"/>
		<path fill="#010101" d="M235.4,201.2c-0.2-1-0.5-0.9-0.2-1.7c0.4-1,0.2-0.7,1.3-0.8C237,199.9,236.4,200.5,235.4,201.2z
			 M235.4,201.2c-0.7,1-0.9,1.1-2.6,1.1c1,1.4,2.1,0.7,3.7,1.5c0.2-2.6,2.7-4.7,2.9-7.3c-1.2,0.6-0.9,0.8-2.1,0.3l-5-2.3
			c-1.2-0.6-1.6-0.4-1.7-2h-0.7c-0.3,1.3-2.6,5.9-3.3,6.9l3.2,3c-0.1-2-1.6-3.2-0.5-5.4c1.1-2.1,3.2,0.2,5,0.6
			c-0.1,1.7-0.8,2.2-2.6,2.2v0.7C233.1,200.6,233.9,201.1,235.4,201.2L235.4,201.2z"/>
		<path fill="#010101" d="M28.8,147.8c-1.1-0.3-1.1-0.5-2.2-0.7c0.7-1,1.1-0.8,2.6-1.1C28.9,147,28.9,146.7,28.8,147.8z M24,144.2
			c0,2-0.4,2.2-0.4,4c2.1-0.5,5.4,1.4,8.2,2.8c2.7,1.4,0.8,1,2.4,1.6c0-1.9,0.3-2,0.4-3.7c-1.9,0.5-0.3,1-2.3,0.5
			c-1.1-0.2-1.2-0.6-2.4-0.9c0.3-1.5,1.5-3.8,3.2-3.5c1.3,0.2,1.9,3.3,1.9-3.4c-1.5,0.5-0.2,0.5-2.5,1.2c-0.9,0.3-1.7,0.5-2.9,0.8
			c-1.2,0.3-1.8,0.4-2.9,0.8c-0.3,0.1-0.9,0.3-1.4,0.3C24,144.6,25.6,144.8,24,144.2L24,144.2z"/>
		<path fill="#010101" d="M225.8,93.4l2.2-0.4c-0.3,1.2-0.6,1.6-1.8,1.9C226.1,93.7,226.2,94.1,225.8,93.4z M220.7,93
			c-1,0-1-0.2-1.8-0.4c0.1,1.4,1,2.5,2.2,3.3c0.1-1.4,0.1-1.2,1.3-1.6c0.7-0.2,1.7-0.4,2.4-0.6c0.1,1.5,0.4,0.8,0.4,2.2
			c0,2.9-1.7,2.2-2.6,2.6c0.6,1.1,1.6,2.6,2.6,3.3c0-2.2,2.7-4.8,4.1-6.5c1.4-1.8,1-1.4,2.1-1.5c-0.3-1.4-1.1-2.2-1.8-3.3
			c-1.3,0.5,0.5,0.7-3.9,1.6C224.3,92.2,222.3,93,220.7,93L220.7,93z"/>
		<path fill="#010101" d="M46,87.5c0,3.4,5.8,8.6,11.2,2.1c1-1.2,0-0.9,1.6-1.3c-0.3-1-1.5-3.3-2.6-3.7c0.2,2.8,1.6,5.8-4.4,5.8
			c-1.9,0-4.1-2.2-3.9-4c0.1-0.7,0.8-2.1,1.5-2.5c1.8-1.1,2,0.4,3.2-1.2c-0.8-0.2-2.9-1.1-3.7-1.5C48.8,84.3,46,84,46,87.5L46,87.5z
			"/>
		<path fill="#010101" d="M29.5,118.2c2.3-0.5,4.8,2.1,6.6,3.7c-1.3,0-2.7,0-4,0c-2.4,0-2.2,0.3-3.6-0.7c-0.4,0.9-1,2.5-1.1,3.7
			l8.8-0.8c2.3,0.1,0.8,0.3,2.6,0.8c0.1-1.6,0.6-1.7,0.7-3.3c-1.5,0.3-1.8-0.3-4.7-2.6c-0.8-0.7-1.5-1.2-2.3-1.7
			c-1.2-0.9-1.2-1.5-2.2-2.2C30.1,116.5,29.7,116.7,29.5,118.2L29.5,118.2z"/>
		<path fill="#010101" d="M49.3,209.6v0.7c7.6,0,4.9,8.4,0.4,8.4c-4.5,0-2.9-5.4-2.9-5.5c-1.3,0.9-1.8,1.5-2.6,2.9
			c2.2,0.8,1.9,4.8,6.2,4.8c4.3,0,7.2-5.2,4.4-9.5c-0.9-1.3-1.3-0.8-1.5-2.6C51.7,209,51,209.6,49.3,209.6z"/>
		<path fill="#010101" d="M169.2,49.1v12.1c0,1.4,0.9,1.1,2.9,1.1V48C170,48,169.2,47.7,169.2,49.1z"/>
		<path fill="#010101" d="M24.4,165.7c0.6,1.3,1.7,6.8,1.1,8c2,0,2.2,0.4,4,0.4v-0.7c-1.7-0.4-2.4-1-2.6-2.9c1.7,0,3.3-0.3,4.9-0.6
			c6.3-1.1,1.6-0.1,4.6,0.2c-0.3-0.7-0.7-3-0.7-4c-0.9,0.3-0.2,0.5-1.6,1l-7.6,1.2c0-3.2,0.2-1.7,1.5-3.7
			C25.9,164.7,26.2,165.3,24.4,165.7L24.4,165.7z"/>
		<path fill="#010101" d="M238.3,187.7c0.7,0.3,2.1,0.9,2.9,1.1c-0.1,1.7-0.5,2.4-2.2,2.6C238.7,189.9,238.3,189.6,238.3,187.7z
			 M237.2,187.3c0,3.3-0.2,6.2,2.6,6.2c2.1,0,3.6-6.4,3.7-7.3c-2.8,0.7-1.3,0.4-5.9-1c-0.7-0.2-1.6-0.5-2.1-0.8
			c-1.3-0.8-0.2-0.5-1.5-1.4c-2.5,5.3-0.9,3.2,0.8,3.6C235.5,186.7,236.2,187.1,237.2,187.3L237.2,187.3z"/>
		<path fill="#010101" d="M228.4,105.1c-2.6,0-1.7-2.7,1.1-2.9l-3.3-0.7c-0.4,1.6-1,2.4-0.2,3.8c0.7,1.3,1.8,1.5,3.7,1.2
			c1.6-0.3,3.1-0.1,4.8-0.4c2.4-0.4,2.6-0.5,4.2,0.5c-0.1-1-1.6-5.2-1.8-2.2c-2,0-2.4,0.3-4,0.4c1-1.9,1.4-2.9,2.7-3.2
			c2.2-0.5-1.2,0.8,0.6-0.1c-0.3-1.3-1.3-3-2.2-3.7C233.8,98.6,231.4,105.1,228.4,105.1L228.4,105.1z"/>
		<path fill="#010101" d="M31.7,157h-6.2c-1.2,0-0.3-0.3-1.8-0.7l0.4,4.4c1.1-0.4,0.5,0.8,0.7-1.1c2.5,0,6.8-0.9,8.9-0.1
			c0.6,0.2-0.4,0,1,0.5v-4C33.2,156.3,33.4,157,31.7,157L31.7,157z"/>
		<path fill="#010101" d="M38.7,206.3c0.3,1.3,1.2,3.3,2.6,3.7c0-1.4,0.3-1.5,1.2-2.1c1.8-1.1,4.8-2.8,6.6-3c2-0.2-1.3-3.5-1.6-3.7
			l-0.2,1.2c-0.4,0.7-2.8,1.8-3.6,2.3C40.1,206.8,40.7,206.8,38.7,206.3L38.7,206.3z"/>
		<path fill="#010101" d="M32.4,110.5c2.5-0.6,3.1,0.1,7.7,2.2c1.1,0.5,1.3,0.4,1.4,1.9h0.7c0.5-2.2,1.6-3.2,1.1-3.7
			c0,0-0.1,0-0.1,0l-0.7,0.1c-1.2,0-5.6-2-6.6-2.5c-2.4-1.2-0.4-0.8-2-2C33.4,107.4,32.5,109.3,32.4,110.5L32.4,110.5z"/>
		<path fill="#010101" d="M143.2,51.3h1.1c-0.5,2-1.7,0.9-0.7,2.9c2.8-0.8,3.4-6.2,1.5-6.2h-1.8L143.2,51.3L143.2,51.3z"/>
		<path fill="#010101" d="M140.7,51.3c-0.6,2.3-1.4,0.3-0.7,2.9c3-0.3,2.6-3.5,2.6-6.2h-2.6c0,0.4-0.1,1.6,0,1.9
			C140.1,52.1,139.6,50.9,140.7,51.3z"/>
		<path fill="#010101" d="M173.9,51.3h1.1c-0.6,2.3-1.4,0.3-0.7,2.9c2.6-0.7,3.7-6.2,1.5-6.2h-1.8L173.9,51.3L173.9,51.3z"/>
		<path fill="#010101" d="M178.3,51.3v1.1c-1.5,0.4-0.9,0.3-0.7,1.8c3.1-0.3,2.6-3.3,2.6-6.2h-2.6C177.6,52.4,177.3,50.9,178.3,51.3
			z"/>
	</g>
</g>
</svg>
