<?xml version="1.0" encoding="utf-8"?>
<!-- Generator: Adobe Illustrator 17.1.0, SVG Export Plug-In . SVG Version: 6.00 Build 0)  -->
<!DOCTYPE svg PUBLIC "-//W3C//DTD SVG 1.1//EN" "http://www.w3.org/Graphics/SVG/1.1/DTD/svg11.dtd">
<svg version="1.1" id="Layer_1" xmlns="http://www.w3.org/2000/svg" xmlns:xlink="http://www.w3.org/1999/xlink" x="0px" y="0px"
	 viewBox="0 110 390 390" enable-background="new 0 110 390 390" xml:space="preserve">
<g id="Layer_x0020_1">
	<g id="_1986710187792">
		<path fill="#010101" d="M129.6,428.1l0.7-0.4c2.9-1.4,9.9-4.9,12.4-4.9l55.4,0.6l-16.6,1.7C170.7,426.4,140.7,428.1,129.6,428.1
			L129.6,428.1z M146.9,419.1c1.1-1.7,6.4-4.7,8.7-6.4c6.7-5.3,3.6-5.1,10.1-5h91.4c-1.1,1-3.4,1.7-5,2.3
			c-8.3,3.3-20.7,6.9-29.4,8.7C217.6,419.9,155.4,419.1,146.9,419.1L146.9,419.1z M165.7,404l12.9-12.1c6.1-6.1,3.6-4,21.6-4h85.1
			c-3.7,5.7-12.4,12-18.6,15.3c-3.3,1.9-27.6,0.9-33.1,0.9C211,404,188.3,404,165.7,404L165.7,404z M288.4,384.3H186.6
			c0.6-2.4,10.9-11.1,12-15.7h95.6C293.6,375.9,289,381.9,288.4,384.3z M209.6,349.3h84.1c0,3,1,4.3,1,7.9v7.9h-93
			C202.4,362.4,209.3,353.1,209.6,349.3L209.6,349.3z M216.9,329.9h56.4c6.6,0,6.9-0.9,9.6,2c2.1,2.3,3.4,3.6,5.3,6.1
			c1.3,1.9,3.4,5.4,4,7.6h-80.4c0.6-2.3,2-5.1,2.9-7.6C215.3,335.4,216.3,332.4,216.9,329.9L216.9,329.9z M221,310h25
			c5.4,0,28,13,30.3,16.1h-58.4C218.9,322.3,221,314.3,221,310z M222.1,301.7c1.9,0.1,13.3,3.4,15.1,4.7h-15.7
			C222,304.4,222.1,304.3,222.1,301.7z M189.1,288.7h16.1c-0.1,2-0.6,2-0.6,4.7C203.4,293.3,191,289.9,189.1,288.7z M146.3,271.4
			h61.6c-0.1,4.3-2,9.3-2.1,13.6H178c-3.9,0-25.1-9.1-30.1-12.3C147.4,272.3,146.9,271.9,146.3,271.4L146.3,271.4z M128.6,252.1
			h84.1c-0.3,3-3.7,10-3.7,15.7h-67.9C138.7,267.7,129.4,258.1,128.6,252.1L128.6,252.1z M213.1,248.4h-85.7c0-3.9-0.9-6.3,0.7-12.4
			c0.3-1.3,0.7-2.1,0.9-3.7h93.4l-6.6,12.3C215.4,246.1,215,248.4,213.1,248.4z M225.3,228.6h-94.1c2.6-4.9,10.7-14.4,14.7-15.6
			c2-0.6,84.4-0.1,90.7-0.1C234.3,216.4,226.1,225.1,225.3,228.6z M152.6,209.3c2.1-1.9,2-1.4,4.3-2.4l15.4-6
			c10.3-3.4,13.6-3.6,24.6-3.6c19,0,38,0,56.9,0c-0.6,0.9-2.7,2.4-3.7,3.1c-1.3,1-2.6,2.1-4,3.3c-5.1,4.3-3.4,5.6-8.4,5.6
			L152.6,209.3L152.6,209.3z M210.1,193.6V193c6.1,0,27.4-3.1,36-3.1c3.4,0,4.6-0.4,7.3-0.6c5.6-0.1,9.6-0.6,15.1-0.6l-5.1,2.7
			c-5.4,3.4-12.4,2-21.6,2C231.3,193.6,220.7,193.6,210.1,193.6L210.1,193.6z M123.9,241.6v4.1c0,27.4,45,40.6,67.6,47.3
			c4.3,1.3,8.6,2.9,12.9,3.9l-3,20.4c-2.1,15.4-6.7,38.1-13.3,52c-0.7,1.6-1.1,3-1.9,4.4c-2.1,4.1-6.3,10.9-9.3,14.3
			c-1.1,1.3-1.4,2-2.7,3c-1.3,1-2,1.9-3.4,2.9c-2.4,1.9-4.1,3.4-6.7,5.3c-14.9,10.1-22.1,11.7-41.6,11.7c-4.1,0-12.7-1.3-12.7-1.3
			c-1.3,0-0.4-0.4-1.7,0.9l-5.1,5.9c-2.9,3.3-12.6,12.1-13.1,15c3,0,5.4,0.7,7.9,1c14.7,1.4,13.1-0.4,24-0.4c3.4,0,4.4-0.6,7.9-0.6
			h16.7c14.4-0.4,40-2.9,53.3-4.7c13.9-1.9,27.6-4.7,40.9-8.7c4.1-1.3,8.7-2.9,12.4-4.3c2.1-0.9,3.7-1.4,6-2.4l16.1-8.9
			c13.3-9.4,23.7-20.7,23.7-43.1c0-31.9-37-48.6-62.4-57.1c-4.1-1.4-9.1-3-13.3-4c1.1-4.6,0.9-7.9,1.1-11.4
			c1.4-18.4,2.9-44.3,10.7-60.9c5.6-11.7,14.7-21.7,28.9-21.7c5.3,0,16.7,0.1,20.3,3.7c1.6,1.7,1.3,2.1,2.1,4.1
			c2.6-1.7,20.3-20,22.4-21.4c-1-4.1-0.7-3.6-4.6-5.4c-8.9-4.1-20.1,0.3-35.1,0.1l-53.4,4c-26.7,3.7-65.4,9.1-83.1,31.7
			C128.3,225.7,123.9,233.6,123.9,241.6L123.9,241.6z"/>
		<path fill="#010101" d="M9.6,309.6c0-23.9,2.7-43.1,10.4-64.3c1-2.9,2.1-5.4,3.3-8.1c2.7-6.7,7.7-16.6,11.3-22.6
			c3-4.9,5.7-9.4,9-14c1.6-2.1,3.1-4.1,4.7-6.3c1.7-2.3,3.4-4,5.3-6.3c5.1-6.3,13.6-14.7,19.9-19.9c9.9-8,18-14.7,29.7-21
			c43.7-23.6,87.9-30.9,137.6-19.6c20.4,4.6,37.9,12.7,55.3,23c1.4,0.9,2.3,1.6,3.6,2.3l28.6,22.6c2,2,3.6,3.6,5.4,5.4
			c3.6,3.6,12.9,15.1,15.4,18.6c4.9,6.4,9.1,13.9,13,20.9c13,23.3,21.6,53.7,21.6,80.3c0,20.4-0.6,30.1-5.4,50
			c-8.3,33.1-26,61.6-49.9,85.4c-4.4,4.4-13.1,11.7-18,15.4c-2.3,1.7-4.4,3-6.7,4.7c-5.9,4.3-14.6,9.3-21.3,12.6
			c-2.4,1.3-5,2.7-7.7,3.9c-40,17.1-78.9,21.3-122,11.6c-17.7-4-33.6-10.7-48.7-19.1c-8.6-4.7-26-16.4-33.1-23.7
			c-3.1-3.1-7.1-6-11.4-11l-5.3-6.1c-6-7.7-7.7-9-14.4-19c-1.4-2.3-3-4.6-4.4-7c-5.4-9-10.7-20.9-14.6-30.9
			c-2.1-5.7-3.9-11.7-5.3-17.6C11.9,338,9.6,323.9,9.6,309.6L9.6,309.6z M2.7,299.1v1.1c0,22.4,0.3,29.9,5.9,52.6
			c7,28,21.3,53.7,39.7,75.7c1,1.3,1.7,1.6,2.7,3l8.7,9c11.6,11.6,19.3,16.9,32,25.4c8,5.4,14.6,8.3,22.7,12.3
			c19.6,10,53.4,17.7,75.1,17.7c28,0,45.7-1.7,71.7-10.7l31.9-14.6c5-3,9.6-5.4,14.1-8.9c9.9-7.1,26.3-20.4,34-29.7l12.9-15.9
			c6.6-8.7,12.6-19.3,17.4-29c10.3-20.6,18.4-50.1,18.4-74.6v-13.6c0-35.7-13.7-69.3-30.7-96.1c-0.9-1.4-1.4-1.9-2.4-3.3
			c-5.1-7.4-11.6-16-18-22.3c-13-13-21.4-21.3-38-31.4c-10.3-6.3-19.3-11.3-30.7-15.9c-20.3-8-44.6-14.3-67.3-14.3h-1
			c-20.9,0-32.4,0.4-53.4,5.6c-15.1,3.9-35.6,11.7-49.1,19.9c-21,12.7-34.1,23-50.7,41.7l-5.1,6.3c-9,11.4-15.9,22.6-22.4,35.6
			c-1.3,2.6-2.3,5.1-3.6,8C9.3,252,2.7,278.1,2.7,299.1L2.7,299.1z"/>
		<path fill="#010101" d="M172,453.7v-2.1c0-3.4,2.6-4.4,5.7-4.7v11C174.4,457.9,172,456.9,172,453.7z M182.9,457.9v-11
			c3,0.3,5.7,1.4,5.7,4.7v1.6C188.7,456.4,186.1,457.9,182.9,457.9z M177.7,442.1c-15.7,0.3-15.1,20.4,0,20.4v3.1h5.3v-3.1
			c6.6,0,11.3-3.7,11.4-9.9c0-6.9-4.7-9.9-11.4-10.4c0-3,0.1-2.6-5.3-2.6V442.1z"/>
		<path fill="#010101" d="M169.3,157.6l2,4.3c3.1,7.3,6.6,11.9,0.1,11.9c0,0.9-0.6,5.7,4.3,3.3c2.4-1.1,7.6-18,7.7-19
			c1.7,1.3,4.1,8.7,5.1,11c1.1,2.7,0.9,1.3,0.6,4.1c-1.4,0.7-1,0.6-3.1,0.6v3.7h4.1c2.3-3.6,3-5.3,4.4-9.7c1-2.9,3.3-8.7,3.4-10.7
			h-3.7c-0.7,1.6-2.6,6.7-2.6,8.9c-1.4-1-3.1-6.9-3.7-8.9h-8.3c-0.1,1.1-1.9,8-3.1,8.9c-0.3-3.4-2.3-5.3-2.6-8.9
			C172.3,157,170.6,156.7,169.3,157.6L169.3,157.6z"/>
		<path fill="#010101" d="M196,441.1c0,4.4-0.9,3.7,7.9,3.7v20.9h5.3v-20.9c8.7,0,7.9,0.9,7.9-3.7c0-1.1-0.4-1.6-1.6-1.6h-17.7
			C196.3,439.6,196,440,196,441.1z"/>
		<path fill="#010101" d="M226.7,177.4h4.1v-16.3h5.3v16.1c5.6,0,4.1,2.3,4.1-18.9c0-2.7-5.9-1.6-13.6-1.6L226.7,177.4L226.7,177.4z
			"/>
		<path fill="#010101" d="M140.6,177.4c5.1,0,4.1,1.1,4.1-8.3h5.3v8.3h3.7V157H150v7.9h-5.3c0-8.9,0.9-7.9-4.1-7.9V177.4z"/>
		<path fill="#010101" d="M212.7,158.6v17.3c0,2,1.3,1.6,4.1,1.6v-8.3c1.3,1,1.6,1.9,2.1,3.6c0.4,1.4,1.4,3.1,1.4,4.7h4.7
			c-0.7-3.3-2.9-6.7-4.1-9.6c-0.7-1.3-0.7-0.1-0.3-2.1c0-0.1,0.9-2.3,1-2.7c1.7-4.4,3.4-0.7,3.4-4.4c0-1.1-0.4-1.6-1.6-1.6
			c-5.7,0-3.9,6.3-6.9,8.3V157C213.9,157,212.7,156.6,212.7,158.6L212.7,158.6z"/>
		<path fill="#010101" d="M295.1,411.4c3.6,0.3,3.1,4.7,3.1,8.3c-3.1-0.1-5.9-3.4-5.3-6.3c-1.6,0.4-4.1,2.1-4.7,4.1
			c4.4,0.1,9.7,8.3,1.1,5.1c-2-0.7-3.4-1.1-3.7-3.6c-2.3,1.6-3.7,2.4-4.1,4.1c4.7,0,6,3.1,11.4,3.1c0,5-0.9,3.7-1.6,6.3
			c1.7-0.4,3.3-2.1,4.7-3.1c0-0.1-0.1-0.4-0.1-0.3l-0.4-0.7c-0.1-0.4-0.3,0.6-0.4-1.6c-0.1-1.9,0.3-1,0.4-3.1c3.1,2,1.1,2,2.1,4.1
			c1.9-1.1,2.1-2.6,4.1-3.1v-1c-2.3-0.1-2.7-0.3-3.1-2.1c1.1-0.7,2.7-0.9,3.7-0.1c1.1,0.7,0.4-0.1,0.9,1.1c2-1.4,3.3-2.1,4.7-4.1
			c-3.1,0.3-1.4,1-6.9,1c0-9.6-2.4-8.3-1.6-12C298.3,408.1,296,410.1,295.1,411.4L295.1,411.4z"/>
		<path fill="#010101" d="M266,447.4c-2-0.9-0.6,1-2.1-1c-0.6-0.6-1.1-2.1-1.7-3c-1.1-2.1-1.9-4.4-3-6.4c1.3-0.7,1.4-0.9,3.1-1
			c0.9,1.7,1.4,3.4,2.4,5.4C266.1,444.1,266.7,444.1,266,447.4L266,447.4z M266,447.4c2.7-0.3,3.1-1.4,5.7-2.1
			c-1-1.4-0.4-0.4-1.1-0.9c-2.1-1.6-3.6-5.7-4.9-8.3c-1.1-2.4-0.6-1.3-0.3-3.9c-5.6,1.3-11.7,6-17.3,7.3v1c3.3,0.3,4.4,5.9,5.6,8.6
			c1,2.3,0.7,1.9,0.1,4c2-0.4,4.7-1.7,5.7-3.1c-2.7,0-1.7,0.3-4-4.3c-1.1-2.1-1.7-4.1-2.7-6.1c1.6-0.4,1.6-0.7,3.1-1
			c1,1.9,1.7,3.9,2.6,5.7c1.3,2.6,2.3,2.9,1.6,5.7C261.9,449.9,265.1,448.6,266,447.4L266,447.4z"/>
		<path fill="#010101" d="M349,300.7c-7.9,0-5.6-8.9,0.6-8.9c1.7,0,5.7-0.3,5.7,3.7c0,2-0.9,2.9-2.1,3.7
			C352.3,299.7,350.4,300.7,349,300.7L349,300.7z M342.7,285c-0.3,0-1.1-0.7-1.6-1v5.7c3.7-0.4-0.6-0.7,3.1-1.4
			c2.1-0.4,2,0.4,4.1-0.6c-1,2.6-1.1-0.1-4.3,3c-4.9,4.7-2.3,13.3,6.4,13.3c8.4,0,9.7-15,0-15.1v-1c1.4,0,2.7-0.3,3.1-0.3
			c1.9,0,0.4,0.3,2.6,0.9c0-2.3-0.6-2.9-0.6-5.7C353.4,283.3,354.1,285,342.7,285L342.7,285z"/>
		<path fill="#010101" d="M221,465.7c7.9,0,5.7,3.6,5.7-24.6c0-2.1-1.6-1.6-5.7-1.6V465.7z"/>
		<path fill="#010101" d="M320.3,381.6c3.6,0,7.3,2.4,9.9,4.7c-3.3,0-4.7-0.6-7.3-0.6c0.7,2.9,2.4,4.4,3.1,7.3
			c-1.7-1.1-3.1-2.1-5-3.3c-4.6-2.7-2.1-1.3-3.3-4c-1.3,1-2.9,3.6-3.7,5.3c2.7-0.3,0.9-1.6,6.6,2.3c1.3,0.9,1.9,1.3,3.1,2
			c1.7,1,2,0.7,2.3,3h1c0.4-1.6,1.7-3.1,2.6-4.7c-1.9-0.4-2.6-2.3-3.1-4.7c1.3,0.6,4,0.7,5.7,1c0.4-0.7,3.3-4,2.6-4.7l-0.9-0.1
			c-3.1-0.3-5.9-2.9-8.6-4.6c-1.4-1-2-0.7-2-3.1C321.9,378.4,321.1,380,320.3,381.6L320.3,381.6z"/>
		<path fill="#010101" d="M169.3,157.6c-2.3-1.1-7.9-0.7-11-0.6c-1.9,0.1-3.4,0.4-2.6,3c0.7,1.9,2.1,1.1,4.7,1.1v16.1h4.1v-16.1
			C169.1,161.1,169.3,162.1,169.3,157.6z"/>
		<path fill="#010101" d="M303,207.7c1.1,2,2.3,3.4,4.1,4.7l0.6-2.6l5.1-4.3c1,1.4,2.7,3,3.1,4.7c-4.3,2.9-4.3,4.4-7.3,3.7
			c0.6,2.3,2,4.1,4.1,4.7c-0.4-1.9-0.7-1.1,0.9-2.7c1.1-1.1,1.7-1.3,2.9-2.3c2.7-2.4,3.7-3.7,6.7-3.7c-1-1.9-2-3.6-4.1-4.1
			c0,2.1-0.3,2-1,3.1c-1.6-1-3.1-2.7-3.7-4.7c1.9-1,1.1-1,3.1-0.6c-0.6-2-2.1-4.1-4.1-4.7c0.4,2.1,0.7,1.9-3.7,5.3
			C307.6,205.9,306.9,207.7,303,207.7L303,207.7z"/>
		<path fill="#010101" d="M341.1,322.6c4.4-0.4-2.6-1.6,6.3-0.4c2.1,0.3,4.9,0.9,6.9,1c0,2.7-0.4,2.9-0.6,5.3l-10.3-1.3
			c-2.3-0.7-0.3-0.4-2.3-1.9c-0.4,1-1,4.3-1,5.7c4-1,4.7-0.6,9.3,0.1c5.1,0.7,3,1.1,5.3,2l2.1-14.1c-3,0.9,0,1.4-6.3,0.4
			c-2-0.3-5.3-1-7.3-1c-0.3-2.7,0.4-1-1-1.6C341.7,318.7,341.6,320.7,341.1,322.6L341.1,322.6z"/>
		<path fill="#010101" d="M344.9,275.6c-5.9,0-5.7-5.7-3-7.7c4.7-3.3,9.1-1.3,9.1,1.9C351.1,272.7,347.6,275.6,344.9,275.6
			L344.9,275.6z M344.9,278.7c2.7,0,3.9-0.1,6.1-2.1c4.7-4.4,1.9-13.4-5.7-13.4C334.9,263,336,278.7,344.9,278.7z"/>
		<path fill="#010101" d="M57.6,226c4.6-0.4,1.1-0.4,4.7,0.6c-1.4,2-5.3,2.1-5.7,2.3c-1.6,0.4-3.1,3.7-3.6,5.4
			c2.7-0.7,1.6-1.3,8,2.6c2.3,1.4,4.4,1.4,4.6,4.3c1.4-0.4,1.4-0.6,2-1.6c0.7-1,0.7-1.3,1.1-2.6c-3.6,0.3-2.3,0.3-5.4-1.4
			c-2-1.1-3.4-2.3-5.6-2.9c0.3-0.4,7.7-5.3,11.6-2.1c2.9,2.4-0.4,1,2,2.7c0.7-1.4,2-3,2.1-4.7c-2.1,0.6-1.9,0.9-3.7-0.4
			c-1.3-0.9-1.9-1.1-3.4-1.9c-1.1-0.6-2.3-1.3-3.3-1.9c-1.4-0.9-1.9-1.1-2.1-3.1C59.1,222.4,58.4,224.3,57.6,226L57.6,226z"/>
		<path fill="#010101" d="M306.7,404c0-7.9,11-5,11,1.6C317.7,410.7,306.7,408.9,306.7,404z M311.4,411.9c10.1,0,11.1-11.7,4.3-14.9
			c-6.1-2.7-11,2-11.4,6.6C303.9,407.6,307.7,411.9,311.4,411.9L311.4,411.9z"/>
		<path fill="#010101" d="M55.4,360.7c1.1,1.4,6.9,1.6,6.9,5.7c0,1.9-4.6,3.3-6.3,3.7c-1.3-2.9-1-3,0.6-5.3c-2,0.1-3.6,1.7-5.3,2.6
			c1.4,1.9,0.7,0.4,1.7,1.4c0.9,0.9,0.9,1.3,1.4,2.3l-2,0.6c-0.7-1.1-1.4-2.1-1.4-3.7c0-1.7,1-2.6,1.4-4.1c-2.3,0.6-2.6,1.4-4.7,2.6
			l2.3,5c0.4,1,0.7,1.4,1.3,2.4c0.6,1.1,0.7,2,1.3,3c3.6-2.6-3.3,0.3,6.6-4.3c7-3.3,4.4-2.1,7.4-1.4c-0.9-3.9-3.9-7.4-4.1-11
			C60.6,360.1,56.1,359.9,55.4,360.7L55.4,360.7z"/>
		<path fill="#010101" d="M42.4,345c-1.1,0-0.6-0.1-2.1-0.6c0.1,2.3,0.9,2.4,1,4.7h1c0.3-2-0.4-1,1.1-1.9c0.3-0.1,2.1-0.6,2.4-0.7
			c-0.6,1.1-1,2.1-1.4,3.3c-1.3,3-0.7,1-2.1,3c0.4,0.6,0-0.1,0.6,1l1.6,4.1c2.4-1-0.3,0.3,1.1-1l0.6-0.6c1.4-1.1,3-1.1,5-1.7
			c4.3-1.3,3.3-1.4,7.9-1c-0.4-1.9-0.9-3.7-2.1-4.7c-0.7,2.9-7.7,4-10.4,4.7c0.3-1.6,0.6-2.1,1.3-3.4c1.7-3.7,1.1-5,4.6-5.9
			c3.1-0.7,0.9-0.3,3.6,0.4c0-2.3-0.6-2.7-1-4.7c-2.6,1,1.1,0.7-5.6,2.9C48,343.6,43.7,345,42.4,345L42.4,345z"/>
		<path fill="#010101" d="M332.9,249.4c-1.4,0-1.4-0.3-2.6-0.6c0.4,2,1.6,3.7,2.1,5.7c2.6-1.9-0.9-1.3,3.9-3c2.7-1,2.3-1.3,4.6-0.1
			c-0.9,3-3.4,6.1-6.9,6.3c0.3,1.4,1,3.4,1.6,4.7c1.3-0.4,0.4-0.1,1.1-0.9c2.1-2.1,6-5.9,6.7-8.4c5,2.7,3.3,3,5.7,3.7
			c-0.4-2.1-1.3-2.7-1.6-5.3c-1.3,0.1-3.6,1.3-5.7-2.1c4.1-1.1,1.3-0.3,4.7,0c-0.7-1.3-1.7-3.7-2.1-5.3h-1c-0.3,2.1,1.1,1.1-4.6,3.1
			C337.3,248,334.3,249.4,332.9,249.4L332.9,249.4z"/>
		<path fill="#010101" d="M95.7,183.7c0,2.7,1.7,4,4,3.9c3.3-0.3,3.6-1.7,7-1.7s2.6,5.7-3.7,5.7c-1.9,0-1.9-0.6-3.7-1
			c0.9,3,1.7,1,4.1,4.7c3.4-2.3,7.9-4.3,7.9-8.3c0-2.1-2-4.7-4.1-4.7c-3.1,0-4.9,1.7-7,1.9c-4,0.4-0.6-3.4,1.9-3.4
			c1.9,0,2,0.4,3.7,0.6c-0.4-1.4-0.4-1.6-2.7-3c-0.7-0.4-0.4-0.4-1.4-0.7C100.6,179.9,95.7,179.9,95.7,183.7L95.7,183.7z"/>
		<path fill="#010101" d="M83.1,408.3c0,3.7,3,4.6,3.1,8.9c-5.7-0.4-3.7-6.3-3.7-6.9c-1.9,0.6-1.9,1.6-3.7,4.1
			c2.3,0.6,4.6,6.3,8.6,4.9c5.9-2-0.7-9-0.7-11.1c0-3,4-1.9,5.4-0.1c2,2.3,1,4.3,0.3,7c2.1-0.6,1.7-1.9,4.1-4.7l-1.7-2
			C89.1,400.3,83.1,405.3,83.1,408.3L83.1,408.3z"/>
		<path fill="#010101" d="M86.3,193.6l0.6,2c-1.6,1-0.7,1.1-2.7,1.6C83.1,195.1,84.1,194.1,86.3,193.6L86.3,193.6z M86.3,193.6
			c1.1-0.7,3-0.6,4.1-0.6c-0.6-1.9-2.7-3-4.7-3.1c-0.7,2.9-5.6,5.7-7.3,8.3c2.7,0,2-0.3,3.6,1.1c4.6,4.1,6.9,4.7,6.9,8.7
			c3.7-1,5.1-6.3,8.9-7.3c-0.1-1.6-1.6-4.6-2.1-5.3c-1.4-1.9-1.1-1.6-1,1.6c0.1,3.3-0.1,4.3-3.1,6.3c-2.1-0.6-4.1-3-5.3-4.7
			c1.9-2.7,2.1-1.9,5.3-1.6C90.6,195.9,88,194,86.3,193.6L86.3,193.6z"/>
		<path fill="#010101" d="M278.4,438.6c0-2.7,1.1-3.6,3.1-2.6c-0.3,2.4,0.3,0.7-0.9,1.7C280.1,438.1,279.3,438.4,278.4,438.6z
			 M269.1,429.1c1.1,5,0.4,5.1,2.1,6.3c1-2,0-2.6,1.1-4.7c0.7-1.3,2-2.3,3.6-2.7c1.7,1.1,1.1,0.9,2.1,2.6c0.6,1.1,1.3,2.1,2,3.1
			c-3.3,0.7-1.9,1.7-5.3,0c0.6,2.3,2,3,3.1,4.7c-2.3,0-1.6-0.3-3.7-0.6c0.6,2.1,2,2.4,3.1,4.1c2.1-1.4,7.1-5.1,9.4-5.7v-1
			c-2.1,0-2.1-0.3-3.1-1.6c-0.7-1.1-1.3-2-2-3.1c-0.6-1-1.3-1.9-1.9-2.9c-1.1-1.9-0.9-1.7-0.4-3.7c-2,0.1-3.7,1.7-5.1,2.6
			C273,427.4,271,429,269.1,429.1L269.1,429.1z"/>
		<path fill="#010101" d="M349.6,345.6c-0.7-2-1.4-0.4-0.6-4.1c1.9,0.4,1.9,0.1,1.9,1.4c0,0.1-0.3,1.3-0.4,1.4
			C349.9,345.4,350,345.1,349.6,345.6L349.6,345.6z M349.6,345.6c-1.9,2.7-1.6,0.4-3.1,2.6c1.7,0.9,2.9,0.6,5.3,0.6
			c0.1-3.7,2-7,2.1-11c-3,0.9-0.1,1.1-3.3,0.7l-7.7-1.7c-3.1-1-1-0.6-3.1-2.1c-1.4,3.1-1.4,7.7-3.1,11c2,1,3.7,2,5.7,3.1
			c-0.6-2-1.3-1.6-2.1-3.6c-1-2.3-0.4-3.1,0-5.3c3.3,0,4.6,0.9,7.3,1c-1.1,2.4-0.4,2.9-3.7,3.7C345,346.1,346.7,345.6,349.6,345.6
			L349.6,345.6z"/>
		<path fill="#010101" d="M337.6,375.9c-0.3-1.4-0.7-1.3-0.3-2.4c0.6-1.4,0.3-1,1.9-1.1C339.9,374,339,374.9,337.6,375.9z
			 M337.6,375.9c-1,1.4-1.3,1.6-3.7,1.6c1.4,2,3,1,5.3,2.1c0.3-3.7,3.9-6.7,4.1-10.4c-1.7,0.9-1.3,1.1-3,0.4l-7.1-3.3
			c-1.7-0.9-2.3-0.6-2.4-2.9h-1c-0.4,1.9-3.7,8.4-4.7,9.9l4.6,4.3c-0.1-2.9-2.3-4.6-0.7-7.7c1.6-3,4.6,0.3,7.1,0.9
			c-0.1,2.4-1.1,3.1-3.7,3.1v1C334.3,375,335.4,375.7,337.6,375.9L337.6,375.9z"/>
		<path fill="#010101" d="M42.4,299.6c-1.6-0.4-1.6-0.7-3.1-1c1-1.4,1.6-1.1,3.7-1.6C42.6,298.4,42.6,298,42.4,299.6z M35.6,294.4
			c0,2.9-0.6,3.1-0.6,5.7c3-0.7,7.7,2,11.7,4c3.9,2,1.1,1.4,3.4,2.3c0-2.7,0.4-2.9,0.6-5.3c-2.7,0.7-0.4,1.4-3.3,0.7
			c-1.6-0.3-1.7-0.9-3.4-1.3c0.4-2.1,2.1-5.4,4.6-5c1.9,0.3,2.7,4.7,2.7-4.9c-2.1,0.7-0.3,0.7-3.6,1.7c-1.3,0.4-2.4,0.7-4.1,1.1
			c-1.7,0.4-2.6,0.6-4.1,1.1c-0.4,0.1-1.3,0.4-2,0.4C35.6,295,37.9,295.3,35.6,294.4L35.6,294.4z"/>
		<path fill="#010101" d="M323.9,221.9l3.1-0.6c-0.4,1.7-0.9,2.3-2.6,2.7C324.3,222.3,324.4,222.9,323.9,221.9z M316.6,221.3
			c-1.4,0-1.4-0.3-2.6-0.6c0.1,2,1.4,3.6,3.1,4.7c0.1-2,0.1-1.7,1.9-2.3c1-0.3,2.4-0.6,3.4-0.9c0.1,2.1,0.6,1.1,0.6,3.1
			c0,4.1-2.4,3.1-3.7,3.7c0.9,1.6,2.3,3.7,3.7,4.7c0-3.1,3.9-6.9,5.9-9.3c2-2.6,1.4-2,3-2.1c-0.4-2-1.6-3.1-2.6-4.7
			c-1.9,0.7,0.7,1-5.6,2.3C321.7,220.1,318.9,221.3,316.6,221.3L316.6,221.3z"/>
		<path fill="#010101" d="M67,213.4c0,4.9,8.3,12.3,16,3c1.4-1.7,0-1.3,2.3-1.9c-0.4-1.4-2.1-4.7-3.7-5.3c0.3,4,2.3,8.3-6.3,8.3
			c-2.7,0-5.9-3.1-5.6-5.7c0.1-1,1.1-3,2.1-3.6c2.6-1.6,2.9,0.6,4.6-1.7c-1.1-0.3-4.1-1.6-5.3-2.1C71,208.9,67,208.4,67,213.4
			L67,213.4z"/>
		<path fill="#010101" d="M43.4,257.3c3.3-0.7,6.9,3,9.4,5.3c-1.9,0-3.9,0-5.7,0c-3.4,0-3.1,0.4-5.1-1c-0.6,1.3-1.4,3.6-1.6,5.3
			l12.6-1.1c3.3,0.1,1.1,0.4,3.7,1.1c0.1-2.3,0.9-2.4,1-4.7c-2.1,0.4-2.6-0.4-6.7-3.7c-1.1-1-2.1-1.7-3.3-2.4
			c-1.7-1.3-1.7-2.1-3.1-3.1C44.3,254.9,43.7,255.1,43.4,257.3L43.4,257.3z"/>
		<path fill="#010101" d="M71.7,387.9v1c10.9,0,7,12,0.6,12s-4.1-7.7-4.1-7.9c-1.9,1.3-2.6,2.1-3.7,4.1c3.1,1.1,2.7,6.9,8.9,6.9
			s10.3-7.4,6.3-13.6c-1.3-1.9-1.9-1.1-2.1-3.7C75.1,387,74.1,387.9,71.7,387.9z"/>
		<path fill="#010101" d="M243,158.6v17.3c0,2,1.3,1.6,4.1,1.6V157C244.1,157,243,156.6,243,158.6z"/>
		<path fill="#010101" d="M36.1,325.1c0.9,1.9,2.4,9.7,1.6,11.4c2.9,0,3.1,0.6,5.7,0.6v-1c-2.4-0.6-3.4-1.4-3.7-4.1
			c2.4,0,4.7-0.4,7-0.9c9-1.6,2.3-0.1,6.6,0.3c-0.4-1-1-4.3-1-5.7c-1.3,0.4-0.3,0.7-2.3,1.4l-10.9,1.7c0-4.6,0.3-2.4,2.1-5.3
			C38.3,323.7,38.7,324.6,36.1,325.1L36.1,325.1z"/>
		<path fill="#010101" d="M341.7,356.6c1,0.4,3,1.3,4.1,1.6c-0.1,2.4-0.7,3.4-3.1,3.7C342.3,359.7,341.7,359.3,341.7,356.6z
			 M340.1,356c0,4.7-0.3,8.9,3.7,8.9c3,0,5.1-9.1,5.3-10.4c-4,1-1.9,0.6-8.4-1.4c-1-0.3-2.3-0.7-3-1.1c-1.9-1.1-0.3-0.7-2.1-2
			c-3.6,7.6-1.3,4.6,1.1,5.1C337.7,355.1,338.7,355.7,340.1,356L340.1,356z"/>
		<path fill="#010101" d="M327.6,238.6c-3.7,0-2.4-3.9,1.6-4.1l-4.7-1c-0.6,2.3-1.4,3.4-0.3,5.4c1,1.9,2.6,2.1,5.3,1.7
			c2.3-0.4,4.4-0.1,6.9-0.6c3.4-0.6,3.7-0.7,6,0.7c-0.1-1.4-2.3-7.4-2.6-3.1c-2.9,0-3.4,0.4-5.7,0.6c1.4-2.7,2-4.1,3.9-4.6
			c3.1-0.7-1.7,1.1,0.9-0.1c-0.4-1.9-1.9-4.3-3.1-5.3C335.3,229.3,331.9,238.6,327.6,238.6L327.6,238.6z"/>
		<path fill="#010101" d="M46.6,312.7h-8.9c-1.7,0-0.4-0.4-2.6-1l0.6,6.3c1.6-0.6,0.7,1.1,1-1.6c3.6,0,9.7-1.3,12.7-0.1
			c0.9,0.3-0.6,0,1.4,0.7v-5.7C48.7,311.7,49,312.7,46.6,312.7L46.6,312.7z"/>
		<path fill="#010101" d="M56.6,383.1c0.4,1.9,1.7,4.7,3.7,5.3c0-2,0.4-2.1,1.7-3c2.6-1.6,6.9-4,9.4-4.3c2.9-0.3-1.9-5-2.3-5.3
			l-0.3,1.7c-0.6,1-4,2.6-5.1,3.3C58.6,383.9,59.4,383.9,56.6,383.1L56.6,383.1z"/>
		<path fill="#010101" d="M47.6,246.3c3.6-0.9,4.4,0.1,11,3.1c1.6,0.7,1.9,0.6,2,2.7h1c0.7-3.1,2.3-4.6,1.6-5.3H63l-1,0.1
			c-1.7,0-8-2.9-9.4-3.6c-3.4-1.7-0.6-1.1-2.9-2.9C49,241.9,47.7,244.6,47.6,246.3L47.6,246.3z"/>
		<path fill="#010101" d="M205.9,161.7h1.6c-0.7,2.9-2.4,1.3-1,4.1c4-1.1,4.9-8.9,2.1-8.9H206L205.9,161.7L205.9,161.7z"/>
		<path fill="#010101" d="M202.3,161.7c-0.9,3.3-2,0.4-1,4.1c4.3-0.4,3.7-5,3.7-8.9h-3.7c0,0.6-0.1,2.3,0,2.7
			C201.4,162.9,200.7,161.1,202.3,161.7z"/>
		<path fill="#010101" d="M249.7,161.7h1.6c-0.9,3.3-2,0.4-1,4.1c3.7-1,5.3-8.9,2.1-8.9h-2.6L249.7,161.7L249.7,161.7z"/>
		<path fill="#010101" d="M256,161.7v1.6c-2.1,0.6-1.3,0.4-1,2.6c4.4-0.4,3.7-4.7,3.7-8.9H255C255,163.3,254.6,161.1,256,161.7z"/>
	</g>
</g>
</svg>
