<?xml version="1.0" encoding="utf-8"?>
<!-- Generator: Adobe Illustrator 17.1.0, SVG Export Plug-In . SVG Version: 6.00 Build 0)  -->
<!DOCTYPE svg PUBLIC "-//W3C//DTD SVG 1.1//EN" "http://www.w3.org/Graphics/SVG/1.1/DTD/svg11.dtd">
<svg version="1.1" id="Layer_1" xmlns="http://www.w3.org/2000/svg" xmlns:xlink="http://www.w3.org/1999/xlink" x="0px" y="0px"
	 viewBox="0 110 390 390" enable-background="new 0 110 390 390" xml:space="preserve">
<g id="Layer_x0020_1">
	<g id="_1986567608640">
		<path fill="#101013" d="M254.4,204l2,0.6v42.8l-0.4,0.3l-31-0.1v-20l-24.3-4v-31.7h56L254.4,204L254.4,204z M222.4,270.3v17.9
			l-35.5-3.1l-91.5-7.9c-0.3,4.3,5.3,3.1,10.3,3.6c3.9,0.3,7.9,0.7,11.7,1c21.2,1.8,52.8,5.5,71.6,6.1l21.2,1.9l0.1,26l-4.8,0.9
			l-34.5,6.1l-0.2,25.9l-7.2,0.1l-43.9-0.1c-4.4,0.7-22.9-2-24.3,1.2c-1.7,3.9,7,2.6,9.9,2.6c4.1,0,8.4,0.1,12.5,0l47.5,0.1h5.4
			l0.2,36.6h2.6l0.1-63.7c6.4-2.7,45.4-8.3,55.1-10l41.6-7.4c3.8-0.7,13.1-0.6,12.3-4.9l-53.8,9.5l-15.8,2.7v-24.9l12,1l0.1-19.2
			v-21.6c6.9-0.2,25.1-0.8,30.5,0.4c6.5,1.3,7.7,0.4,13.6-0.3c3.9-0.6,13.5,1.4,13.3-2.1l-25.2-1.1v-44.2l-0.1-12l-56.7-0.1v-5.3
			l0.2-12.6l21.1,0.1l60.7-0.1v-0.9l-60-0.1l-23.1,0.2v13.4v37.8l-21-3.7l-0.3-58.9l46.7-0.1h57.6l0.1-2.4H174.8l-79.5-13.6l-0.2,1
			l80.6,13.6l0.1,59.9l-80.6-13.2c-0.4,4.5,9.8,4.3,13.4,4.9l48.8,8c20.8,3.4,44.5,6.2,64.8,10.7L222.4,270.3L222.4,270.3z"/>
		<path fill="#FFFFFF" d="M224.9,247.6l22.9,0.1c-4.7-6.1-13-10.4-10.2-25.1c1.8-9.1,8.5-16.5,16.8-18.5l2.3-12h-56v31.7l24.3,4
			L224.9,247.6L224.9,247.6z"/>
		<path fill="#C31F44" d="M165.2,352.3l-47.5-0.1c1.4,10.2-3.3,11.3,4.7,21.9c9,12,28.5,12.5,38.3,0.1
			C167.9,365,164.6,362.8,165.2,352.3L165.2,352.3z"/>
		<path fill="#1F2555" d="M257.3,203.1v44.2l25.2,1.1l-7.3-0.9c6.7-6.8,14.8-14.5,8.9-29.6C280.2,207.7,271.1,202.4,257.3,203.1
			L257.3,203.1z"/>
		<path fill="#FFFFFF" d="M178.7,219.8l21,3.7v-37.8c-11.4-0.4-16.3-6.5-21.2-13.5L178.7,219.8L178.7,219.8z"/>
		<path fill="#C11F44" d="M174.9,158.4h107.7L225,158c-3.8-6.2-1.1-8.7-8.2-14.9c-3.9-3.4-9.7-6.4-17-6.2
			C179.1,137.5,177.3,158,174.9,158.4L174.9,158.4z"/>
		<path fill="#C31F44" d="M178.7,219.8l-0.1-47.7c4.9,7,9.7,13.1,21.2,13.5v-13.4l23.1-0.2l2.3-11.2l-46.7,0.1L178.7,219.8
			L178.7,219.8z"/>
		<path fill="#1F2555" d="M224.9,247.6l31,0.1l0.4-0.3v-42.8l-2-0.6c-8.2,2.1-15,9.4-16.8,18.5c-2.8,14.6,5.4,19,10.2,25.1H224.9z"
			/>
		<path fill="#C31F44" d="M228.8,312.4c-0.6-0.2,4.4-5.5,5.9-8.3c2-3.7,2.9-8.3,2.6-13c-0.7-8.9-6.5-16.5-12.2-19.1l-0.1,19.2l-12-1
			V315L228.8,312.4L228.8,312.4z"/>
		<path fill="#0D0D0F" d="M95.2,113.5c-0.1,4.2,4.5,4.5,8.3,5.9c3.4,1.2,7.1,2.7,10.7,3.9c7.1,2.6,14.1,4.9,21.6,7
			c21.6,6.2,27,4.7,49.3,1.2c9.8-1.6,96.1-15.5,97.3-17.2c2.7-3.8-7.3-0.9-9.7-0.4l-85.7,14.6c-21.6,3.4-27.9,5.7-49.2-0.3
			C124.4,124.4,106.6,116.1,95.2,113.5z"/>
		<path fill="#C11F44" d="M205.5,316.7l4.8-0.9l-0.1-26L189,288c-0.7,7.9,0,12.8,3.7,18.5C197.5,314.3,201.2,312.8,205.5,316.7
			L205.5,316.7z"/>
		<path fill="#C31F44" d="M186.9,285.1l35.5,3.1v-17.9c-8.2-0.1-10.7-4.1-20.8,1.1c-5.5,2.9-9.4,7.3-11.8,13.8L186.9,285.1
			L186.9,285.1z"/>
		<path fill="#C31F44" d="M119.6,348.6l43.9,0.1C155.5,329.6,125.5,330.7,119.6,348.6z"/>
		<path fill="#FFFFFF" d="M197.1,450.6c1.3-4.5,0.8-13.9-2-16.5c-4-3.8-10.5-1.7-11.9,3.2c-1.3,4.5-0.8,14.1,1.8,16.8
			C189.1,458.2,195.6,455.7,197.1,450.6z"/>
		<path fill="#0D0E0E" d="M189.4,355.7c4.7-1.6,17.6-2.7,23.3-3.6c7.9-1.1,15.6-2.3,23.4-3.3c5.7-0.8,44.6-5.9,46.4-7
			c-1.1-1.1-4.3,0-5.9,0.2c-2,0.2-3.9,0.6-5.9,0.9l-58.9,8.4c-7.5,1.1-16,1.9-23.4,3.4v4.7c3.6,0.1,78.1-10.9,92-13
			c1.6-0.2,1.2,0,2.2-0.8l-1-0.3c-2.1-0.3-88.9,13.2-92.3,12.9L189.4,355.7L189.4,355.7z"/>
		<path fill="#C11F44" d="M200.6,185.7c10.5-0.4,17.5-5.7,21.3-12.5l-21.1-0.1L200.6,185.7L200.6,185.7z"/>
		<path fill="#0D0E0E" d="M95.2,237.3l2.9,0.8c1.2,0.1,2.1,0.3,3.3,0.4l98.3,15v2.4c-11.3-1-39.4-5.8-52.5-7.7L98.4,241
			c-1.2-0.2-2.2-0.4-3.2,0.1l79,12.1c5.9,0.9,21.4,3.9,26.4,3.7v-4.5L95.2,237.3L95.2,237.3z"/>
		<path fill="#FFFFFF" d="M101,455.6c5.9,0.7,14,1.1,14-5.4c0-6.4-8.2-6.2-14-5.5V455.6z"/>
		<path fill="#020202" d="M188.2,495.5c0,3,0.4,2.3,0.8,2.4c2.7,1.3,1.7-5.7,1.7-10.2c0-3.2-0.3-8.8,0.1-11.8h11.4l0.1,17.3
			c-0.1,5.4-0.2,4.7,1,4.8c2-0.2,1.3,0.6,1.6-2.2l-0.1-22.1h-16.5V495.5L188.2,495.5z"/>
		<path fill="#FFFFFF" d="M130.1,455.6c5,0.4,11.5,0.8,13.3-2.7c2.6-5-1.4-8.3-7-8.3l-6.3,0.1V455.6L130.1,455.6z"/>
		<path fill="#030303" d="M130.1,444.6l6.3-0.1c5.7,0,9.5,3.3,7,8.3c-1.8,3.4-8.3,3.1-13.3,2.7V444.6L130.1,444.6z M130.1,432.4
			c2.3-0.2,4.8-0.1,7.1-0.1c4.7,0,5.8,0.8,6.5-0.9c-0.8-1.2-1.6-0.8-3.6-0.8h-12.1l0.1,26.7c7.5,0,17,1.6,17.6-6.3
			c0.9-10.1-8.8-7.5-15.9-8.3L130.1,432.4L130.1,432.4z"/>
		<path fill="#030303" d="M179.4,485.6c2.8-2.9,4.1-7,5.1-11.7c-3,0-2.6,0.2-3.3,3.2c-0.4,1.4-0.9,3.2-1.4,4.5
			c-1.3,3.2-4.8,3.4-9,2.8c-0.2-1.8-0.1-3.9-0.1-5.7c0.1-4.5,0.4-4.7-1.1-4.9c-2.1-0.2-1.3,1-1.3,5.3c0,4.9-0.9,16.8,0.4,18.9
			l1.9-0.1l0.1-11.2c5.3,0,7.9-1,9.5,3.7c2.9,8.2,0.6,7.8,4.8,7.7C184.1,493.9,182.9,487.3,179.4,485.6L179.4,485.6z"/>
		<path fill="#030303" d="M101,444.6c5.8-0.7,14-1,14,5.5c0,6.5-8.1,6.1-14,5.4V444.6z M101.1,432.3c2.3-0.1,4.8-0.1,7.1-0.1
			c4.9,0,5.8,0.8,6.5-0.9c-0.9-1.3-4.2-0.8-7.4-0.8c-2.7,0-5.4,0-8.2,0l0.1,26.7c7.4,0,17,1.7,17.6-6.3c0.8-9.5-8.3-7.7-15.9-8.2
			L101.1,432.3L101.1,432.3z"/>
		<path fill="#050505" d="M197.1,450.6c-1.4,5.1-8.1,7.5-12.1,3.4c-2.6-2.7-3.1-12.2-1.8-16.8c1.4-4.8,8-7,11.9-3.2
			C197.9,436.8,198.4,446.1,197.1,450.6z M181,449.7c0.8,6.3,8,10.5,14.1,6.8c4.9-3,4.9-11.2,4.1-18.1c-0.8-6.7-8-10.2-14.1-6.8
			C180.3,434.4,180.1,442.8,181,449.7L181,449.7z"/>
		<path fill="#030303" d="M152.4,430.8c-0.4,5.1,0.1,10.8-0.1,16c-0.6,10.1-7.1,9.2-4.2,10.8c1.2,0.7,3.8-2.2,4.4-3.2
			c2.8-4.5,1.4-15.6,1.9-22.1l11.8,0.2v19.4c0,3.9-0.7,5.5,1.1,5.5c1.3-0.6,0.9-0.9,0.9-2.9l-0.1-23.9L152.4,430.8L152.4,430.8z"/>
		<path fill="#050505" d="M272.5,433.1c1,1.3,5.5,14,5.8,16H267L272.5,433.1L272.5,433.1z M262.1,457.4c2.4-0.1,2-0.4,2.8-2.8
			c0.4-1.4,0.8-2.6,1.6-3.8l12.4,0.1c2.9,4.7,0.3,6.2,4.3,6.4c-0.4-2.6-9-25.7-9.9-26.7c-2.1,0.1-1.8,0.3-2.6,2.4l-3.8,10.3
			C265.8,447,262.7,454.3,262.1,457.4L262.1,457.4z"/>
		<path fill="#030303" d="M224.4,432.4h11.4c0.3,0,1.8,0,2-0.1c1.1-0.4,0.4,0.3,0.9-0.9c-0.4-0.8,0.7-0.8-3.4-0.8
			c-1.4,0-2.9,0-4.3,0c-2.9,0-5.7,0-8.7,0l0.1,26.7h12.9c4.1,0.1,3-0.1,3.4-0.9c-0.6-1.3-0.9-1-3-0.9l-11.4-0.1v-10.9
			c2.2-0.2,4.4-0.1,6.7-0.1c5.2,0,4.9,0.6,5.5-0.9c-0.6-1.2-0.6-0.8-2.6-0.8c-1.1,0-2.3,0-3.4,0c-2.1,0-4.2,0.1-6.3-0.1L224.4,432.4
			L224.4,432.4z"/>
		<path fill="#050505" d="M254.7,443.4c2.1-2.2,2.3-2.1,3.4-5.8c0.7-1.9,1.8-5.1,1.9-6.9c-3.4,0.1-1.7,3.1-4.7,9.2
			c-1.8,3.4-5.8,3.2-10.8,2.8c-0.2-2.1-0.1-4.4-0.1-6.5c0-6.3,0.6-5.3-1.6-5.4c-0.7,1.7-0.2,16.8-0.2,20.9c0,3.8-0.7,5.2,0.8,6
			c0.8-0.3,1.1,0.2,1-3c0-1.1,0-2.3,0-3.4c0-2.2-0.1-4.4,0.1-6.5c5.9-0.4,9.8-0.9,11.3,3.1c2.8,6.8,1,9.8,4.8,9.9
			c-0.3-2.4-1.6-5.8-2.2-8.1C257.3,445.6,257.2,445.5,254.7,443.4L254.7,443.4z"/>
		<path fill="#FDFEFF" d="M267,449.2h11.3c-0.2-2-4.8-14.6-5.8-16L267,449.2L267,449.2z"/>
		<path fill="#050505" d="M205.4,430.7c-4.5-0.1-3.4-0.1-4,0.8c0.8,0.8,0,0.7,1.4,0.9h6.5c0.1,3.9-0.4,23.2,0.3,25.1h1.3
			c1-2.6,0-20.4,0.3-25.1c1.4,0,2.9,0,4.3,0c3.3,0.1,3,0,3.6-0.9c-0.7-1,0.8-0.8-4.3-0.8H205.4L205.4,430.7z"/>
		<path fill="#030303" d="M210.2,498l2.1-0.1c0.6-1.4,0.6-21.6,0.1-24.1h-2.2V498L210.2,498z"/>
		<path fill="#030303" d="M122.3,457.4c1.2-0.7,0.9-1,0.8-2.9v-10.7c0-1.6,0.8-13.1-0.9-13.1c-1.4,0-1,1.3-1,2.8v18
			C121.3,456.9,120.5,456.9,122.3,457.4L122.3,457.4z"/>
		<path fill="#030303" d="M175.1,457.4c1.3-0.6,0.4,0.7,0.9-1.2v-23.1c0-1.4,0.4-2.4-0.9-2.4c-1.7,0-0.9,4.9-0.9,6.3v14.5
			C174.2,456.2,173.6,456.7,175.1,457.4L175.1,457.4z"/>
	</g>
</g>
</svg>
