<?xml version="1.0" encoding="UTF-8"?>
<!DOCTYPE svg PUBLIC "-//W3C//DTD SVG 1.1//EN" "http://www.w3.org/Graphics/SVG/1.1/DTD/svg11.dtd">
<!-- Creator: CorelDRAW 2018 (64-Bit Evaluation Version) -->
<svg xmlns="http://www.w3.org/2000/svg" xml:space="preserve" width="8.5in" height="11in" version="1.1" style="shape-rendering:geometricPrecision; text-rendering:geometricPrecision; image-rendering:optimizeQuality; fill-rule:evenodd; clip-rule:evenodd"
viewBox="0 0 8500 11000"
 xmlns:xlink="http://www.w3.org/1999/xlink">
 <defs>
  <style type="text/css">
   <![CDATA[
    .fil7 {fill:#010101}
    .fil8 {fill:#020202}
    .fil9 {fill:#040404}
    .fil5 {fill:#0A0A0D}
    .fil6 {fill:#0B0C0C}
    .fil0 {fill:#0D0E11}
    .fil3 {fill:#1D2456}
    .fil4 {fill:#C11E43}
    .fil2 {fill:#C21D42}
    .fil10 {fill:#FCFCFC}
    .fil1 {fill:white}
   ]]>
  </style>
 </defs>
 <g id="Layer_x0020_1">
  <metadata id="CorelCorpID_0Corel-Layer"/>
  <g id="_1986567608640">
   <path class="fil0" d="M4785.79 4610.56l32.89 8.63 -0.54 697.01 -7.54 5.89 -504.95 -1.91 0.62 -325.19 -396.7 -64.19 0.11 -516.51 913.27 0.6 -37.15 195.67zm-521.73 1079.96l-0.89 291.63 -578.54 -49.95 -1491.37 -127.75c-5.98,69.65 86.11,50.55 168.48,58.15 63.71,5.87 128.31,11.22 190.39,16.54 345.17,29.54 859.75,89.5 1166.65,99.96l346.06 30.99 2.32 422.36 -78.54 13.88 -561.77 99.02 -2.78 420.99 -118.25 1.45 -716.25 -2.43c-71.89,11.54 -373.11,-32.2 -396.15,19.74 -27.78,62.65 114.46,40.84 161.43,40.84 67.04,-0.01 138.01,2.25 204.5,-0.61l773.52 1.12 89.33 -0.42 3.85 596.2 40.91 -0.06 1.74 -1037.16c105.55,-44.2 739.01,-134.98 898.12,-162.96l678.02 -121.26c62.28,-11.32 212.45,-8.5 199.78,-79.65l-876.06 155.47 -257.4 43.83 0.03 -405.41 195.01 15.65 1.07 -312.22 0.48 -352.54c111.5,-3.14 407.98,-11.79 497.05,6.52 106.9,21.97 124.67,7.73 223,-4.94 63.52,-8.19 220.58,22.98 217.8,-33.57l-411.07 -18.74 -0.55 -719.37 -0.98 -195.31 -923.78 -1.6 0.69 -86.7 3.86 -206.02 343.1 1.03 988.65 -1.8 0 -14.18 -977.54 -1.41 -375.2 3.36 0.86 217.95 -0.2 616.3 -342.51 -59.47 -5.03 -959.67 760.55 -1.7 937.54 0.51 1.49 -39.21 -1755.35 -0.25 -1295.16 -219.66 -2.72 16.02 1311.51 223.16 0.92 975.89 -1312.04 -214.52c-7.21,73.59 158.42,69.9 218.76,79.99l794.72 130.46c338.02,56.19 725.17,100.99 1055.48,174.06l2.43 657.49z"/>
   <path class="fil1" d="M4305.65 5320.17l373.1 1.5c-76.46,-99.85 -211.74,-169.16 -165.94,-408.43 28.37,-148.25 139.64,-269.22 272.98,-302.69l37.15 -195.67 -913.27 -0.6 -0.11 516.51 396.7 64.19 -0.62 325.19z"/>
   <path class="fil2" d="M3332.9 7026.45l-773.52 -1.12c23.15,166.32 -53.53,185.05 75.59,356.84 146.78,195.26 464.24,203.96 623.12,1.82 118.05,-150.2 63.4,-187.9 74.81,-357.54z"/>
   <path class="fil3" d="M4833.99 4595.81l0.55 719.37 411.07 18.74 -118.69 -13.82c108.24,-110.09 240.49,-237.32 143.74,-483.24 -65.2,-165.71 -212.3,-252.5 -436.67,-241.05z"/>
   <path class="fil1" d="M3550.95 4867.96l342.51 59.47 0.2 -616.3c-186.86,-6.96 -265.72,-106.65 -344.82,-219.76l2.11 776.59z"/>
   <path class="fil4" d="M3490.16 3867.63l1755.35 0.25 -937.59 -5.94c-61.29,-100.5 -17.94,-141.06 -133.67,-243.09 -63.78,-56.22 -157.29,-104.27 -276.59,-101.09 -338.23,9.04 -367.25,343.63 -407.5,349.86z"/>
   <path class="fil2" d="M3550.95 4867.96l-2.11 -776.59c79.09,113.11 157.96,212.8 344.82,219.76l-0.86 -217.95 375.2 -3.36 38.48 -183.24 -760.55 1.7 5.03 959.67z"/>
   <path class="fil3" d="M4305.65 5320.17l504.95 1.91 7.54 -5.89 0.54 -697.01 -32.89 -8.63c-133.35,33.46 -244.61,154.44 -272.98,302.69 -45.8,239.27 89.48,308.58 165.94,408.43l-373.1 -1.5z"/>
   <path class="fil2" d="M4368.58 6376.61c-8.18,-3.06 72.7,-90.87 96.19,-135.44 31.72,-60.21 47.04,-134.97 41.38,-211.12 -10.69,-143.87 -106.77,-268.45 -198.86,-311.6l-1.07 312.22 -195.01 -15.65 -0.03 405.41 257.4 -43.83z"/>
   <path class="fil5" d="M2192.57 3137.34c-1.33,68.94 73.37,74.17 135.37,96.61 56.71,20.53 115.5,42.73 173.23,63.13 116.41,41.15 229.8,78.97 351.73,114.21 353.15,102.08 440.09,75.45 803.45,19.36 158.91,-24.54 1564.62,-253.13 1584.51,-280.96 43.83,-61.34 -119.3,-13.72 -156.65,-6.99l-1394.73 238.44c-352.88,55.58 -453.14,91.65 -800.67,-5.79 -220.79,-61.89 -509.61,-196.84 -696.24,-238.01z"/>
   <path class="fil4" d="M3988.63 6446.32l78.54 -13.88 -2.32 -422.36 -346.06 -30.99c-10.8,127.98 -0.65,208.69 59.22,301.71 80.85,125.6 141.02,101.98 210.63,165.52z"/>
   <path class="fil2" d="M3684.63 5932.2l578.54 49.95 0.89 -291.63c-134.12,-2.39 -173.84,-67.39 -338.04,18.93 -90.09,47.36 -153.24,119.4 -192,225.01l-49.39 -2.26z"/>
   <path class="fil2" d="M2589.58 6965.36l716.25 2.43c-132.18,-311.03 -619.88,-292.56 -716.25,-2.43z"/>
   <path class="fil1" d="M3852.28 8628.42c21.15,-74 12.21,-225.74 -32.66,-269.2 -64.28,-62.26 -170.85,-26.31 -193.96,52.17 -21.87,74.28 -13.16,229.67 29.18,272.48 66.14,66.85 173.47,28.48 197.44,-55.45z"/>
   <path class="fil6" d="M3727.65 7081.44c75.58,-24.99 288.03,-44.22 379.94,-57.55 127.88,-18.55 254.84,-37.21 381.94,-54.63 91.29,-12.51 726.72,-95.78 755.78,-113.19 -18.69,-17.63 -70.17,-0.52 -95.22,2.83 -31.93,4.28 -63.59,9.03 -96.07,13.74l-960.71 137.41c-122.35,18.46 -260.83,30.82 -381.55,56.1l-0.57 76.12c57.34,1.72 1272.65,-177.41 1498.13,-211.19 25.84,-3.87 20.28,0.25 36.97,-12.47l-15.44 -4.93c-34.23,-4.55 -1447.67,215.24 -1503.43,209.95l0.23 -42.22z"/>
   <path class="fil4" d="M3909.92 4312.2c171.14,-7.88 285.91,-92.39 346.96,-205l-343.1 -1.03 -3.86 206.02z"/>
   <path class="fil6" d="M2192.63 5153.25l46.3 12.71c19.26,2.54 34.57,4.77 53.82,7.77l1600.84 243.63 0.18 39.31c-185.1,-16.62 -642.08,-93.3 -854.63,-124.71l-795.01 -117.45c-19.33,-3.09 -35.63,-6.83 -51.62,1.29l1287.36 197.09c95.41,14.12 349.53,63.82 429.78,60.1l-0.11 -74.79 -1716.92 -244.95z"/>
   <path class="fil1" d="M2286.81 8709.68c96.28,10.93 228.61,18.44 227.88,-88.2 -0.71,-105.29 -133.66,-100.5 -228,-89.59l0.12 177.79z"/>
   <path class="fil7" d="M3706.57 9359.22c0.52,49.3 7.64,37.7 13.22,40.5 43.52,21.89 27.3,-91.94 27.3,-166.63 0,-52.86 -5.2,-142.02 2.1,-190.98l186.6 0.11 1.94 281.28c-1.01,87.98 -4.36,75.18 15.71,78.04 32.47,-3.91 22.47,9.83 24.79,-35.26l-1.16 -358.9 -269.15 0.02 -1.35 351.83z"/>
   <path class="fil1" d="M2759.75 8710.05c80.97,6.85 188.04,13.2 217,-43.66 41.84,-82.14 -22.77,-136.24 -114.5,-136.24l-102.81 1.22 0.31 178.67z"/>
   <path class="fil8" d="M2759.44 8531.38l102.81 -1.22c91.73,-0.01 156.34,54.09 114.5,136.24 -28.96,56.85 -136.03,50.5 -217,43.66l-0.31 -178.67zm1.31 -199.94c38.13,-3.28 77.07,-1.39 115.4,-1.36 76.7,0.06 94.05,11.95 106.72,-14.42 -12.16,-19.37 -26.11,-12.87 -57.72,-12.39l-197.07 0.22 1.84 435.9c122.57,0.1 275.78,26.04 287.69,-103.87 15.02,-163.9 -143.53,-122.14 -257.83,-135.09l0.98 -168.98z"/>
   <path class="fil8" d="M3564.7 9198.46c45.41,-46.55 66.84,-113.78 83.26,-189.9 -49.65,-0.57 -41.07,2.91 -55.04,51.91 -6.8,23.86 -14.92,51.91 -23.81,73.47 -21.75,52.67 -77.46,56.7 -145.97,45.64 -2.91,-29.27 -1.48,-62.63 -1.07,-92.46 1.02,-74.38 7.5,-76.42 -17.69,-79.08 -33.76,-3.56 -21.78,16.3 -21.31,86.04 0.53,79.81 -13.79,272.39 7.44,307.59l31.06 -2.02 0.96 -182.96c86.3,-0.43 128.08,-15.86 154.62,59.13 47.05,132.94 8.53,125.76 78.35,125.38 -15.2,-66.93 -35.99,-176.39 -90.79,-202.74z"/>
   <path class="fil8" d="M2286.69 8531.89c94.35,-10.91 227.29,-15.7 228,89.59 0.73,106.64 -131.61,99.13 -227.88,88.2l-0.12 -177.79zm0.62 -200.75c37.67,-2.58 78.18,-1.09 116.22,-1.07 79.51,0.05 93.72,12.13 106.7,-14.42 -13.95,-21.76 -68.39,-12.1 -120.61,-12.09 -43.87,0 -87.75,0.22 -133.81,-0.16l1.39 435.74c120.51,0.73 276.89,26.24 287.94,-103.61 13.19,-154.98 -134.87,-124.65 -258.25,-134.67l0.41 -169.72z"/>
   <path class="fil9" d="M3852.28 8628.42c-23.98,83.93 -131.3,122.31 -197.44,55.45 -42.34,-42.81 -51.05,-198.2 -29.18,-272.48 23.12,-78.48 129.69,-114.43 193.96,-52.17 44.87,43.46 53.81,195.2 32.66,269.2zm-262.39 -13.9c13.37,103.42 130.52,170.87 230.36,110.05 79.81,-48.61 79.93,-181.95 67.63,-295.32 -11.84,-109.19 -130.93,-165.42 -229.56,-110.12 -79.84,44.76 -83.19,181.26 -68.43,295.39z"/>
   <path class="fil8" d="M3123.15 8305.37c-7.04,82.63 2.54,175.75 -2.45,260.8 -9.61,163.93 -116.55,150.34 -68.95,174.73 19.93,10.2 61.87,-35.35 72.25,-52 46.05,-73.88 22.94,-254.19 30.1,-359.07l191.19 3.41 0.19 316.07c-0.3,63.54 -11.24,91.04 17.19,90.01 21.5,-8.86 14.92,-13.74 14.62,-47.65l-2.2 -388.22 -251.94 1.93z"/>
   <path class="fil9" d="M5080.53 8343.83c16.48,22.36 90.09,228.56 93.95,261.11l-183.56 0.73 89.61 -261.85zm-168.76 395.69c39.41,-1.3 33.2,-6.37 45.4,-45.77 7.31,-23.65 12.72,-41.33 24.93,-60.89l201.56 1.69c47.84,76.15 6.2,101.97 71.13,105.57 -6.86,-41.21 -146.83,-419.27 -161.48,-436.52 -35.12,0.94 -29.72,4.55 -41.73,39.86l-61.03 168.48c-20.46,56.58 -71.14,176.33 -78.78,227.58z"/>
   <path class="fil8" d="M4296.5 8332.43l185.71 -0.68c6.17,0.05 28.28,-0.44 33.06,-2.13 18.63,-6.63 7.7,5.13 15,-13.96 -6.77,-12.54 10.6,-13.33 -55.2,-12.35 -23.3,0.34 -46.56,0.26 -69.85,0.26 -46.26,0 -92.51,0 -141.43,0l1.59 435.55 209.67 0.46c66.65,1.01 49.16,-1.08 55.26,-13.84 -9.92,-22.27 -14.39,-15.4 -48.1,-14.93l-186.54 -1.18 0.2 -176.44c36.02,-3.64 73.06,-1.83 109.35,-1.72 84.56,0.27 80.34,9.87 90.13,-14.24 -9.74,-19.62 -8.46,-13.25 -40.72,-13.42 -18.36,-0.1 -37.74,0.74 -56.36,0.78 -34.41,0.06 -69.11,1.39 -102.88,-1.86l1.11 -170.29z"/>
   <path class="fil9" d="M4789.42 8510.26c33.92,-35.91 37.33,-34.36 56.92,-94.18 9.97,-30.47 29.13,-83.7 31.09,-112.76 -55.21,2.03 -27.23,51.5 -76.8,150.57 -28.06,56.1 -94.87,51.65 -175.68,45.29 -4.45,-34.79 -1.8,-71.77 -1.68,-107.08 0.35,-102.42 9,-86 -25.1,-88.78 -10.43,27.26 -3.77,273.44 -3.84,339 -0.06,61.77 -10.22,84.84 12.44,97.35 13.49,-4.97 17.56,3.24 17.08,-48.16 -0.17,-18.72 -0.57,-37.34 -0.59,-56.14 -0.02,-35.53 -2.38,-72.35 1.54,-107.43 96,-6.59 158.2,-14.08 184.63,50.63 44.87,109.83 15.7,159.13 78.06,160.67 -6.27,-40.17 -25.76,-93.28 -36.93,-132.29 -17.16,-59.94 -19.08,-62.37 -61.16,-96.69z"/>
   <path class="fil10" d="M4990.92 8605.68l183.56 -0.73c-3.86,-32.56 -77.47,-238.75 -93.95,-261.11l-89.61 261.85z"/>
   <path class="fil9" d="M3988.08 8303.38c-74.48,-1.1 -56.13,-1.22 -65.74,12.27 12.57,12.03 0.33,10 23.72,14.69l106.89 -0.84c1.51,63.74 -7.91,377.59 4.74,409.09l20.86 -0.22c16.61,-40.93 -0.52,-332.26 5.96,-408.26 23.6,-0.09 47.2,-0.09 70.79,0.37 54,1.04 49.39,0.87 57.07,-14.83 -10.06,-15.98 11.79,-13.09 -71.2,-12.2l-153.1 -0.07z"/>
   <path class="fil8" d="M4064.98 9400.93l34.42 -1.11c9.49,-24.17 8.74,-351.67 2.1,-392.02l-36.46 -0.65 -0.06 393.77z"/>
   <path class="fil8" d="M2632.89 8739.42c20.38,-10.04 13.79,-16.7 13.45,-47.89l-0.52 -174.31c0,-24.86 13.15,-213.33 -13.72,-213.52 -23,-0.17 -16.19,21.22 -16.03,46.03l0.61 292.59c-0.11,87.85 -11.35,87.44 16.2,97.1z"/>
   <path class="fil8" d="M3494.72 8739.4c22.33,-9.61 7.64,10.13 14.07,-20.57l0.75 -376.35c-0.19,-23.86 6.39,-38.88 -14.75,-38.87 -26.25,0.02 -14.93,79.65 -14.93,102.4l0 236.31c-0.1,76.94 -11.18,86.4 14.86,97.07z"/>
  </g>
 </g>
</svg>
