<?xml version="1.0" encoding="utf-8"?>
<!-- Generator: Adobe Illustrator 17.1.0, SVG Export Plug-In . SVG Version: 6.00 Build 0)  -->
<!DOCTYPE svg PUBLIC "-//W3C//DTD SVG 1.1//EN" "http://www.w3.org/Graphics/SVG/1.1/DTD/svg11.dtd">
<svg version="1.1" id="Layer_1" xmlns="http://www.w3.org/2000/svg" xmlns:xlink="http://www.w3.org/1999/xlink" x="0px" y="0px"
	 viewBox="0 0 273 350" enable-background="new 0 0 273 350" xml:space="preserve">
<g id="Layer_x0020_1">
	<g id="_1986567608640">
		<path fill="#101013" d="M195.8,83.5l1.8,0.5l0,38.6l-0.4,0.3l-27.9-0.1l0-18l-21.9-3.6l0-28.6l50.5,0L195.8,83.5L195.8,83.5z
			 M166.9,143.3l0,16.1l-32-2.8l-82.5-7.1c-0.3,3.9,4.8,2.8,9.3,3.2c3.5,0.3,7.1,0.6,10.5,0.9c19.1,1.6,47.6,5,64.5,5.5l19.1,1.7
			l0.1,23.4l-4.3,0.8l-31.1,5.5l-0.2,23.3l-6.5,0.1l-39.6-0.1c-4,0.6-20.6-1.8-21.9,1.1c-1.5,3.5,6.3,2.3,8.9,2.3
			c3.7,0,7.6,0.1,11.3,0l42.8,0.1l4.9,0l0.2,33l2.3,0l0.1-57.4c5.8-2.4,40.9-7.5,49.7-9l37.5-6.7c3.4-0.6,11.8-0.5,11.1-4.4
			l-48.5,8.6l-14.2,2.4l0-22.4l10.8,0.9l0.1-17.3l0-19.5c6.2-0.2,22.6-0.7,27.5,0.4c5.9,1.2,6.9,0.4,12.3-0.3
			c3.5-0.5,12.2,1.3,12-1.9l-22.7-1l0-39.8l-0.1-10.8l-51.1-0.1l0-4.8l0.2-11.4l19,0.1l54.7-0.1v-0.8l-54.1-0.1l-20.8,0.2l0,12.1
			l0,34.1l-18.9-3.3l-0.3-53.1l42.1-0.1l51.9,0l0.1-2.2l-97.1,0L52.4,30.3l-0.2,0.9l72.6,12.3l0.1,54L52.3,85.6
			c-0.4,4.1,8.8,3.9,12.1,4.4l44,7.2c18.7,3.1,40.1,5.6,58.4,9.6L166.9,143.3L166.9,143.3z"/>
		<path fill="#FFFFFF" d="M169.2,122.8l20.6,0.1c-4.2-5.5-11.7-9.4-9.2-22.6c1.6-8.2,7.7-14.9,15.1-16.7l2.1-10.8l-50.5,0l0,28.6
			l21.9,3.6L169.2,122.8L169.2,122.8z"/>
		<path fill="#C31F44" d="M115.4,217.2l-42.8-0.1c1.3,9.2-3,10.2,4.2,19.7c8.1,10.8,25.7,11.3,34.5,0.1
			C117.8,228.6,114.8,226.6,115.4,217.2L115.4,217.2z"/>
		<path fill="#1F2555" d="M198.4,82.7l0,39.8l22.7,1l-6.6-0.8c6-6.1,13.3-13.1,8-26.7C219,86.9,210.8,82.1,198.4,82.7L198.4,82.7z"
			/>
		<path fill="#FFFFFF" d="M127.5,97.8l18.9,3.3l0-34.1c-10.3-0.4-14.7-5.9-19.1-12.2L127.5,97.8L127.5,97.8z"/>
		<path fill="#C11F44" d="M124.1,42.4l97.1,0l-51.9-0.3c-3.4-5.6-1-7.8-7.4-13.4c-3.5-3.1-8.7-5.8-15.3-5.6
			C127.9,23.6,126.3,42.1,124.1,42.4L124.1,42.4z"/>
		<path fill="#C31F44" d="M127.5,97.8l-0.1-43c4.4,6.3,8.7,11.8,19.1,12.2l0-12.1l20.8-0.2l2.1-10.1l-42.1,0.1L127.5,97.8
			L127.5,97.8z"/>
		<path fill="#1F2555" d="M169.2,122.8l27.9,0.1l0.4-0.3l0-38.6l-1.8-0.5c-7.4,1.9-13.5,8.5-15.1,16.7c-2.5,13.2,4.9,17.1,9.2,22.6
			L169.2,122.8z"/>
		<path fill="#C31F44" d="M172.7,181.2c-0.5-0.2,4-5,5.3-7.5c1.8-3.3,2.6-7.5,2.3-11.7c-0.6-8-5.9-14.9-11-17.2l-0.1,17.3l-10.8-0.9
			l0,22.4L172.7,181.2L172.7,181.2z"/>
		<path fill="#0D0D0F" d="M52.3,2c-0.1,3.8,4.1,4.1,7.5,5.3c3.1,1.1,6.4,2.4,9.6,3.5c6.4,2.3,12.7,4.4,19.5,6.3
			c19.5,5.6,24.3,4.2,44.4,1.1c8.8-1.4,86.6-14,87.7-15.5c2.4-3.4-6.6-0.8-8.7-0.4l-77.2,13.2c-19.5,3.1-25.1,5.1-44.3-0.3
			C78.6,11.8,62.6,4.3,52.3,2z"/>
		<path fill="#C11F44" d="M151.7,185.1l4.3-0.8l-0.1-23.4l-19.1-1.7c-0.6,7.1,0,11.5,3.3,16.7C144.5,182.9,147.8,181.6,151.7,185.1
			L151.7,185.1z"/>
		<path fill="#C31F44" d="M134.9,156.6l32,2.8l0-16.1c-7.4-0.1-9.6-3.7-18.7,1c-5,2.6-8.5,6.6-10.6,12.4L134.9,156.6L134.9,156.6z"
			/>
		<path fill="#C31F44" d="M74.3,213.8l39.6,0.1C106.6,196.7,79.6,197.7,74.3,213.8z"/>
		<path fill="#FFFFFF" d="M144.1,305.8c1.2-4.1,0.7-12.5-1.8-14.9c-3.6-3.4-9.5-1.5-10.7,2.9c-1.2,4.1-0.7,12.7,1.6,15.1
			C136.9,312.6,142.8,310.4,144.1,305.8z"/>
		<path fill="#0D0E0E" d="M137.2,220.2c4.2-1.4,15.9-2.4,21-3.2c7.1-1,14.1-2.1,21.1-3c5.1-0.7,40.2-5.3,41.8-6.3
			c-1-1-3.9,0-5.3,0.2c-1.8,0.2-3.5,0.5-5.3,0.8l-53.1,7.6c-6.8,1-14.4,1.7-21.1,3.1l0,4.2c3.2,0.1,70.4-9.8,82.9-11.7
			c1.4-0.2,1.1,0,2-0.7l-0.9-0.3c-1.9-0.3-80.1,11.9-83.2,11.6L137.2,220.2L137.2,220.2z"/>
		<path fill="#C11F44" d="M147.3,67c9.5-0.4,15.8-5.1,19.2-11.3l-19-0.1L147.3,67L147.3,67z"/>
		<path fill="#0D0E0E" d="M52.3,113.5l2.6,0.7c1.1,0.1,1.9,0.3,3,0.4l88.6,13.5l0,2.2c-10.2-0.9-35.5-5.2-47.3-6.9l-44-6.5
			c-1.1-0.2-2-0.4-2.9,0.1l71.2,10.9c5.3,0.8,19.3,3.5,23.8,3.3l0-4.1L52.3,113.5L52.3,113.5z"/>
		<path fill="#FFFFFF" d="M57.5,310.3c5.3,0.6,12.6,1,12.6-4.9c0-5.8-7.4-5.6-12.6-5L57.5,310.3z"/>
		<path fill="#020202" d="M136.1,346.2c0,2.7,0.4,2.1,0.7,2.2c2.4,1.2,1.5-5.1,1.5-9.2c0-2.9-0.3-7.9,0.1-10.6l10.3,0l0.1,15.6
			c-0.1,4.9-0.2,4.2,0.9,4.3c1.8-0.2,1.2,0.5,1.4-2l-0.1-19.9l-14.9,0L136.1,346.2L136.1,346.2z"/>
		<path fill="#FFFFFF" d="M83.7,310.3c4.5,0.4,10.4,0.7,12-2.4c2.3-4.5-1.3-7.5-6.3-7.5l-5.7,0.1L83.7,310.3L83.7,310.3z"/>
		<path fill="#030303" d="M83.7,300.4l5.7-0.1c5.1,0,8.6,3,6.3,7.5c-1.6,3.1-7.5,2.8-12,2.4L83.7,300.4L83.7,300.4z M83.7,289.4
			c2.1-0.2,4.3-0.1,6.4-0.1c4.2,0,5.2,0.7,5.9-0.8c-0.7-1.1-1.4-0.7-3.2-0.7l-10.9,0l0.1,24.1c6.8,0,15.3,1.4,15.9-5.7
			c0.8-9.1-7.9-6.8-14.3-7.5L83.7,289.4L83.7,289.4z"/>
		<path fill="#030303" d="M128.2,337.3c2.5-2.6,3.7-6.3,4.6-10.5c-2.7,0-2.3,0.2-3,2.9c-0.4,1.3-0.8,2.9-1.3,4.1
			c-1.2,2.9-4.3,3.1-8.1,2.5c-0.2-1.6-0.1-3.5-0.1-5.1c0.1-4.1,0.4-4.2-1-4.4c-1.9-0.2-1.2,0.9-1.2,4.8c0,4.4-0.8,15.1,0.4,17
			l1.7-0.1l0.1-10.1c4.8,0,7.1-0.9,8.6,3.3c2.6,7.4,0.5,7,4.3,6.9C132.4,344.8,131.3,338.8,128.2,337.3L128.2,337.3z"/>
		<path fill="#030303" d="M57.5,300.4c5.2-0.6,12.6-0.9,12.6,5c0,5.9-7.3,5.5-12.6,4.9L57.5,300.4z M57.6,289.3
			c2.1-0.1,4.3-0.1,6.4-0.1c4.4,0,5.2,0.7,5.9-0.8c-0.8-1.2-3.8-0.7-6.7-0.7c-2.4,0-4.9,0-7.4,0l0.1,24.1c6.7,0,15.3,1.5,15.9-5.7
			c0.7-8.6-7.5-6.9-14.3-7.4L57.6,289.3L57.6,289.3z"/>
		<path fill="#050505" d="M144.1,305.8c-1.3,4.6-7.3,6.8-10.9,3.1c-2.3-2.4-2.8-11-1.6-15.1c1.3-4.3,7.2-6.3,10.7-2.9
			C144.8,293.3,145.3,301.7,144.1,305.8z M129.6,305c0.7,5.7,7.2,9.5,12.7,6.1c4.4-2.7,4.4-10.1,3.7-16.3c-0.7-6-7.2-9.2-12.7-6.1
			C129,291.2,128.8,298.7,129.6,305L129.6,305z"/>
		<path fill="#030303" d="M103.8,287.9c-0.4,4.6,0.1,9.7-0.1,14.4c-0.5,9.1-6.4,8.3-3.8,9.7c1.1,0.6,3.4-2,4-2.9
			c2.5-4.1,1.3-14.1,1.7-19.9l10.6,0.2l0,17.5c0,3.5-0.6,5,1,5c1.2-0.5,0.8-0.8,0.8-2.6l-0.1-21.5L103.8,287.9L103.8,287.9z"/>
		<path fill="#050505" d="M212.1,290c0.9,1.2,5,12.6,5.2,14.4l-10.2,0L212.1,290L212.1,290z M202.7,311.9c2.2-0.1,1.8-0.4,2.5-2.5
			c0.4-1.3,0.7-2.3,1.4-3.4l11.2,0.1c2.6,4.2,0.3,5.6,3.9,5.8c-0.4-2.3-8.1-23.2-8.9-24.1c-1.9,0.1-1.6,0.3-2.3,2.2l-3.4,9.3
			C206,302.5,203.2,309.1,202.7,311.9L202.7,311.9z"/>
		<path fill="#030303" d="M168.7,289.4l10.3,0c0.3,0,1.6,0,1.8-0.1c1-0.4,0.4,0.3,0.8-0.8c-0.4-0.7,0.6-0.7-3.1-0.7
			c-1.3,0-2.6,0-3.9,0c-2.6,0-5.1,0-7.8,0l0.1,24.1l11.6,0c3.7,0.1,2.7-0.1,3.1-0.8c-0.5-1.2-0.8-0.9-2.7-0.8l-10.3-0.1l0-9.8
			c2-0.2,4-0.1,6-0.1c4.7,0,4.4,0.5,5-0.8c-0.5-1.1-0.5-0.7-2.3-0.7c-1,0-2.1,0-3.1,0c-1.9,0-3.8,0.1-5.7-0.1L168.7,289.4
			L168.7,289.4z"/>
		<path fill="#050505" d="M196,299.3c1.9-2,2.1-1.9,3.1-5.2c0.6-1.7,1.6-4.6,1.7-6.2c-3.1,0.1-1.5,2.8-4.2,8.3
			c-1.6,3.1-5.2,2.9-9.7,2.5c-0.2-1.9-0.1-4-0.1-5.9c0-5.7,0.5-4.8-1.4-4.9c-0.6,1.5-0.2,15.1-0.2,18.8c0,3.4-0.6,4.7,0.7,5.4
			c0.7-0.3,1,0.2,0.9-2.7c0-1,0-2.1,0-3.1c0-2-0.1-4,0.1-5.9c5.3-0.4,8.8-0.8,10.2,2.8c2.5,6.1,0.9,8.8,4.3,8.9
			c-0.3-2.2-1.4-5.2-2-7.3C198.4,301.3,198.3,301.2,196,299.3L196,299.3z"/>
		<path fill="#FDFEFF" d="M207.1,304.5l10.2,0c-0.2-1.8-4.3-13.2-5.2-14.4L207.1,304.5L207.1,304.5z"/>
		<path fill="#050505" d="M151.6,287.8c-4.1-0.1-3.1-0.1-3.6,0.7c0.7,0.7,0,0.6,1.3,0.8l5.9,0c0.1,3.5-0.4,20.9,0.3,22.6l1.2,0
			c0.9-2.3,0-18.4,0.3-22.6c1.3,0,2.6,0,3.9,0c3,0.1,2.7,0,3.2-0.8c-0.6-0.9,0.7-0.7-3.9-0.7L151.6,287.8L151.6,287.8z"/>
		<path fill="#030303" d="M155.9,348.5l1.9-0.1c0.5-1.3,0.5-19.5,0.1-21.7l-2,0L155.9,348.5L155.9,348.5z"/>
		<path fill="#030303" d="M76.7,311.9c1.1-0.6,0.8-0.9,0.7-2.6l0-9.6c0-1.4,0.7-11.8-0.8-11.8c-1.3,0-0.9,1.2-0.9,2.5l0,16.2
			C75.8,311.4,75.1,311.4,76.7,311.9L76.7,311.9z"/>
		<path fill="#030303" d="M124.3,311.9c1.2-0.5,0.4,0.6,0.8-1.1l0-20.8c0-1.3,0.4-2.2-0.8-2.2c-1.5,0-0.8,4.4-0.8,5.7v13.1
			C123.5,310.8,122.9,311.3,124.3,311.9L124.3,311.9z"/>
	</g>
</g>
</svg>
